<svg width="64" height="64" viewBox="0 0 64 64" fill="none" xmlns="http://www.w3.org/2000/svg">
<mask id="path-1-inside-1_99_1462" fill="white">
<path d="M0 32C0 14.3269 14.3269 0 32 0C49.6731 0 64 14.3269 64 32C64 49.6731 49.6731 64 32 64C14.3269 64 0 49.6731 0 32Z"/>
</mask>
<path d="M0 32C0 14.3269 14.3269 0 32 0C49.6731 0 64 14.3269 64 32C64 49.6731 49.6731 64 32 64C14.3269 64 0 49.6731 0 32Z" fill="#141414"/>
<path d="M0 32M64 32M64 32M0 32M32 0M64 32M32 64M0 32M32 64V63C14.8792 63 1 49.1208 1 32H0H-1C-1 50.2254 13.7746 65 32 65V64ZM64 32H63C63 49.1208 49.1208 63 32 63V64V65C50.2254 65 65 50.2254 65 32H64ZM32 0V1C49.1208 1 63 14.8792 63 32H64H65C65 13.7746 50.2254 -1 32 -1V0ZM32 0V-1C13.7746 -1 -1 13.7746 -1 32H0H1C1 14.8792 14.8792 1 32 1V0Z" fill="#C9A84C" fill-opacity="0.25" mask="url(#path-1-inside-1_99_1462)"/>
<path d="M34.7502 22.8333H29.2502C28.7439 22.8333 28.3335 23.2437 28.3335 23.75V25.5833C28.3335 26.0896 28.7439 26.5 29.2502 26.5H34.7502C35.2564 26.5 35.6668 26.0896 35.6668 25.5833V23.75C35.6668 23.2437 35.2564 22.8333 34.7502 22.8333Z" stroke="#C9A84C" stroke-width="1.83333" stroke-linecap="round" stroke-linejoin="round"/>
<path d="M35.6665 24.6667H37.4998C37.9861 24.6667 38.4524 24.8598 38.7962 25.2037C39.14 25.5475 39.3332 26.0138 39.3332 26.5V39.3334C39.3332 39.8196 39.14 40.2859 38.7962 40.6297C38.4524 40.9735 37.9861 41.1667 37.4998 41.1667H26.4998C26.0136 41.1667 25.5473 40.9735 25.2035 40.6297C24.8597 40.2859 24.6665 39.8196 24.6665 39.3334V26.5C24.6665 26.0138 24.8597 25.5475 25.2035 25.2037C25.5473 24.8598 26.0136 24.6667 26.4998 24.6667H28.3332" stroke="#C9A84C" stroke-width="1.83333" stroke-linecap="round" stroke-linejoin="round"/>
<path d="M32 31.0833H35.6667" stroke="#C9A84C" stroke-width="1.83333" stroke-linecap="round" stroke-linejoin="round"/>
<path d="M32 35.6667H35.6667" stroke="#C9A84C" stroke-width="1.83333" stroke-linecap="round" stroke-linejoin="round"/>
<path d="M28.3335 31.0833H28.3435" stroke="#C9A84C" stroke-width="1.83333" stroke-linecap="round" stroke-linejoin="round"/>
<path d="M28.3335 35.6667H28.3435" stroke="#C9A84C" stroke-width="1.83333" stroke-linecap="round" stroke-linejoin="round"/>
</svg>
