<svg width="64" height="64" viewBox="0 0 64 64" fill="none" xmlns="http://www.w3.org/2000/svg">
<mask id="path-1-inside-1_99_1518" fill="white">
<path d="M0 32C0 14.3269 14.3269 0 32 0C49.6731 0 64 14.3269 64 32C64 49.6731 49.6731 64 32 64C14.3269 64 0 49.6731 0 32Z"/>
</mask>
<path d="M0 32C0 14.3269 14.3269 0 32 0C49.6731 0 64 14.3269 64 32C64 49.6731 49.6731 64 32 64C14.3269 64 0 49.6731 0 32Z" fill="#141414"/>
<path d="M0 32M64 32M64 32M0 32M32 0M64 32M32 64M0 32M32 64V63C14.8792 63 1 49.1208 1 32H0H-1C-1 50.2254 13.7746 65 32 65V64ZM64 32H63C63 49.1208 49.1208 63 32 63V64V65C50.2254 65 65 50.2254 65 32H64ZM32 0V1C49.1208 1 63 14.8792 63 32H64H65C65 13.7746 50.2254 -1 32 -1V0ZM32 0V-1C13.7746 -1 -1 13.7746 -1 32H0H1C1 14.8792 14.8792 1 32 1V0Z" fill="#C9A84C" fill-opacity="0.25" mask="url(#path-1-inside-1_99_1518)"/>
<path d="M23.75 22.8333V29.25C23.75 30.2583 24.575 31.0833 25.5833 31.0833H29.25C29.7362 31.0833 30.2025 30.8902 30.5464 30.5463C30.8902 30.2025 31.0833 29.7362 31.0833 29.25V22.8333" stroke="#C9A84C" stroke-width="1.83333" stroke-linecap="round" stroke-linejoin="round"/>
<path d="M27.4165 22.8333V41.1666" stroke="#C9A84C" stroke-width="1.83333" stroke-linecap="round" stroke-linejoin="round"/>
<path d="M40.2498 34.75V22.8333C39.0343 22.8333 37.8685 23.3162 37.0089 24.1757C36.1494 25.0353 35.6665 26.2011 35.6665 27.4166V32.9166C35.6665 33.925 36.4915 34.75 37.4998 34.75H40.2498ZM40.2498 34.75V41.1666" stroke="#C9A84C" stroke-width="1.83333" stroke-linecap="round" stroke-linejoin="round"/>
</svg>
