<svg width="64" height="64" viewBox="0 0 64 64" fill="none" xmlns="http://www.w3.org/2000/svg">
<mask id="path-1-inside-1_99_1496" fill="white">
<path d="M0 32C0 14.3269 14.3269 0 32 0C49.6731 0 64 14.3269 64 32C64 49.6731 49.6731 64 32 64C14.3269 64 0 49.6731 0 32Z"/>
</mask>
<path d="M0 32C0 14.3269 14.3269 0 32 0C49.6731 0 64 14.3269 64 32C64 49.6731 49.6731 64 32 64C14.3269 64 0 49.6731 0 32Z" fill="#141414"/>
<path d="M0 32M64 32M64 32M0 32M32 0M64 32M32 64M0 32M32 64V63C14.8792 63 1 49.1208 1 32H0H-1C-1 50.2254 13.7746 65 32 65V64ZM64 32H63C63 49.1208 49.1208 63 32 63V64V65C50.2254 65 65 50.2254 65 32H64ZM32 0V1C49.1208 1 63 14.8792 63 32H64H65C65 13.7746 50.2254 -1 32 -1V0ZM32 0V-1C13.7746 -1 -1 13.7746 -1 32H0H1C1 14.8792 14.8792 1 32 1V0Z" fill="#C9A84C" fill-opacity="0.25" mask="url(#path-1-inside-1_99_1496)"/>
<path d="M32.5508 40.9824C34.2558 39.5102 39.3332 34.7436 39.3332 30.1666C39.3332 28.2217 38.5606 26.3565 37.1853 24.9812C35.81 23.6059 33.9448 22.8333 31.9998 22.8333C30.0549 22.8333 28.1897 23.6059 26.8144 24.9812C25.4391 26.3565 24.6665 28.2217 24.6665 30.1666C24.6665 34.7436 29.7439 39.5102 31.4489 40.9824C31.6078 41.1018 31.8011 41.1664 31.9998 41.1664C32.1986 41.1664 32.3919 41.1018 32.5508 40.9824Z" stroke="#C9A84C" stroke-width="1.83333" stroke-linecap="round" stroke-linejoin="round"/>
<path d="M32 32.9167C33.5188 32.9167 34.75 31.6855 34.75 30.1667C34.75 28.6479 33.5188 27.4167 32 27.4167C30.4812 27.4167 29.25 28.6479 29.25 30.1667C29.25 31.6855 30.4812 32.9167 32 32.9167Z" stroke="#C9A84C" stroke-width="1.83333" stroke-linecap="round" stroke-linejoin="round"/>
</svg>
