<svg width="64" height="64" viewBox="0 0 64 64" fill="none" xmlns="http://www.w3.org/2000/svg">
<mask id="path-1-inside-1_99_1506" fill="white">
<path d="M0 32C0 14.3269 14.3269 0 32 0C49.6731 0 64 14.3269 64 32C64 49.6731 49.6731 64 32 64C14.3269 64 0 49.6731 0 32Z"/>
</mask>
<path d="M0 32C0 14.3269 14.3269 0 32 0C49.6731 0 64 14.3269 64 32C64 49.6731 49.6731 64 32 64C14.3269 64 0 49.6731 0 32Z" fill="#141414"/>
<path d="M0 32M64 32M64 32M0 32M32 0M64 32M32 64M0 32M32 64V63C14.8792 63 1 49.1208 1 32H0H-1C-1 50.2254 13.7746 65 32 65V64ZM64 32H63C63 49.1208 49.1208 63 32 63V64V65C50.2254 65 65 50.2254 65 32H64ZM32 0V1C49.1208 1 63 14.8792 63 32H64H65C65 13.7746 50.2254 -1 32 -1V0ZM32 0V-1C13.7746 -1 -1 13.7746 -1 32H0H1C1 14.8792 14.8792 1 32 1V0Z" fill="#C9A84C" fill-opacity="0.25" mask="url(#path-1-inside-1_99_1506)"/>
<path d="M23.75 27.4167V25.5833C23.75 25.0971 23.9432 24.6308 24.287 24.287C24.6308 23.9432 25.0971 23.75 25.5833 23.75H27.4167" stroke="#C9A84C" stroke-width="1.83333" stroke-linecap="round" stroke-linejoin="round"/>
<path d="M36.5835 23.75H38.4168C38.9031 23.75 39.3694 23.9432 39.7132 24.287C40.057 24.6308 40.2502 25.0971 40.2502 25.5833V27.4167" stroke="#C9A84C" stroke-width="1.83333" stroke-linecap="round" stroke-linejoin="round"/>
<path d="M40.2502 36.5833V38.4166C40.2502 38.9029 40.057 39.3692 39.7132 39.713C39.3694 40.0568 38.9031 40.25 38.4168 40.25H36.5835" stroke="#C9A84C" stroke-width="1.83333" stroke-linecap="round" stroke-linejoin="round"/>
<path d="M27.4167 40.25H25.5833C25.0971 40.25 24.6308 40.0568 24.287 39.713C23.9432 39.3692 23.75 38.9029 23.75 38.4166V36.5833" stroke="#C9A84C" stroke-width="1.83333" stroke-linecap="round" stroke-linejoin="round"/>
</svg>
