<svg xmlns="http://www.w3.org/2000/svg" width="600" height="600" viewBox= "0 0 600 600" style="overflow:hidden!important">
    <path d="M675 675H-75V-75h750z"/><path fill="#5c3d2e" d="M114 318c-13-33-11-46-8-71-6 7-10 16-20 24l14-43q-16 14-24 15l12-24h35q1 21 7 43c-2 1-8 9-16 56m363-94c0 11-4 33-9 47l5 3c17 15 20 17 22 41 13-28 2-64 1-91zm20 0h13l-10 20z"/><path fill="#3d2012" d="M103 224c-11 27-11 33-17 47 9-8 15-21 21-25-1 9-6 27 0 47l7 22c1-10 3-41 12-51-6 18-10 41-10 60-19-34-15-52-10-76-8 8-9 18-23 26 5-9 6-21 16-44q-10 11-24 14l10-22h4l-10 19q11-5 24-17m365 47 7 6c8 7 19 13 18 45 14-23 12-58 8-77q9-10 12-21h-4q-2 10-9 18l-3-18h-1c1 27 10 59 0 88-2-23-7-27-28-41"/><path fill="#f0c7b1" d="M586 599c-6-14-24-35-44-41-25-7-81-16-102-21-16-3-50-33-61-44q-3-2-4-8c0-32 13-119 13-119H212s14 87 13 119q0 6-4 8c-11 11-45 41-61 44-21 5-77 14-102 21-20 6-38 27-44 41C3 623 0 667 0 704h600c0-37-3-81-14-105"/><path fill="#ffe4d6" d="M477 552c73 11 104 26 114 152h9c0-37-3-81-14-105-6-14-24-35-44-41-25-7-81-16-102-21-16-3-54-36-64-49 10 14 38 47 63 56 12 4 21 6 38 8m-316-8c25-9 53-42 63-56-10 13-48 46-64 49-21 5-77 14-102 21-20 6-38 27-44 41C3 623 0 667 0 704h9c10-125 41-141 114-152 17-2 26-4 38-8"/><path fill="#e1ac8f" d="m287 593-21-7c-32-12-133-20-133-20s107 4 130 8c-1-14-9-60-9-60l20 63c2 7 13 16 13 16m32-4zm-32 4s9 9 13 9c6 0 14-9 18-12-3 3-12 4-15 4zm63-23-13 3 7-45c-2 9-14 49-25 61 6-5 19-7 25-8 31-5 31-5 123-15 0 0-87-1-117 4"/><path fill="none" stroke="#c27b55" stroke-width="4.5" d="M586 599c-6-14-24-35-44-41-25-7-81-16-102-21-16-3-50-33-61-44q-3-2-4-8c0-32 13-119 13-119H212s14 87 13 119q0 6-4 8c-11 11-45 41-61 44-21 5-77 14-102 21-20 6-38 27-44 41C3 623 0 667 0 704h600c0-37-3-81-14-105z"/><path fill="url(#a)" d="M76 163q11 8 24 9 14-1 24-9v-1l3-30c-16-2-38-2-54 0z" transform="scale(3)"/><path fill="#386e77" d="m335 708-204-1H60l-51-1H-6c-13-125 44-158 132-170q36-4 64-21c49 67 194 53 219-2l12 6q22 16 53 18c78 5 133 39 132 164v5h-81c-40 1-90 2-190 2"/><path fill="#4d7e86" d="M603 704c-1-22-12-84-31-113-37-56-127-36-147-59-15 31-75 50-95 53 57-19 82-33 91-66 19 25 123 6 164 73 12 20 24 82 18 112M167 533q6-2 11-5l-5-6c-27 22-128 8-163 72-11 21-19 69-13 110 2-25 3-79 21-108 34-51 96-37 143-59 21 26 54 39 87 44-42-11-65-29-81-48"/><path fill="#265e68" d="M406 520c-17 34-142 75-213 2l-17 7c51 70 202 70 242-1z"/><path fill="#0c4049" d="M409 513c-28 56-175 64-219 2-16 5-31 15-47 17C50 546-18 553-6 707h137c370 2 358-1 476-1v-5c6-169-93-159-160-171q-14-5-26-12zm-220 4c39 70 193 56 222 0l9 4c-31 64-183 85-245 3zM-3 704c-7-79 6-144 99-160 31-5 49-6 76-17 50 82 216 69 251-4q7 7 22 11c54 13 164-2 159 170-163-2-297-7-607 0"/><path fill="#f0c7b1" stroke="#c27b55" stroke-width="4.5" d="M141 250c-4-8-17-26-30-21-8 2-10 12-11 20-2 11 1 32 4 40 3 7 11 21 16 27 6 6 14 28 15 30 2 3 5 9 13 8s14-6 17-6c10-2-13-79-24-98z"/><path fill="#c27b55" d="M133 294v-7l1-7c-1-6-6-19-9-25-3-8-9-18-16-20q-3-1-5 1l-1 2 2-1 3-1c-1 3-4 20-2 32q2 16 5 18v3c3 13 15 29 20 34l1 1-1-2c-4-5-16-20-19-33-2-14 7-35 10-40l4 11c-1 2-10 19-7 32q3 9 11 13l3 4q1 3 6 6h1l3-1v5l1-2-1-4q-1-4-5-9-4-6-5-10m-22-12c-7-21 2-40 3-43l7 9c-1 3-10 20-10 34m28 32q-4-3-5-6l-4-4-2-1c-7-19 1-27 3-29l1 6v15q1 5 5 9 4 5 5 9 0 1-3 1"/><path fill="#f0c7b1" stroke="#c27b55" stroke-width="4.5" d="M458 250c4-8 17-26 30-21 8 2 10 12 11 20 2 11-1 32-4 40-2 7-10 21-16 27s-14 28-15 30c-2 3-5 9-13 8s-13-6-17-6c-10-2 13-79 24-98z"/><path fill="#c27b55" d="M461 304q-4 5-5 9v6l1-2v-3l2 1h2q4-3 5-6l4-4c3-2 9-8 10-13 3-13-6-30-7-32l5-11c2 5 12 26 9 40-3 13-15 28-19 33l-1 2 2-1c4-5 16-21 19-34v-3q3-2 6-18c1-12-2-29-3-32l4 1 1 1v-2q-2-2-6-1c-7 2-13 12-16 20-3 6-8 19-8 25v7l1 7zm17-56 7-9c1 3 10 22 3 43 0-14-8-31-10-34m-21 65 5-9 6-9-1-8v-7l1-6c2 2 10 10 3 29l-2 1-4 4q-1 3-5 6-3 0-3-1"/><path fill="#f0c7b1" d="M300 3a183 183 0 0 0-177 231s26 118 44 154c18 37 71 98 133 98s115-61 133-98c18-36 44-154 44-154q6-23 6-47C482 85 401 2 300 3"/><path fill="#e8b9a0" d="M362 14a185 185 0 0 1 104 216s-26 117-44 153c-17 35-65 97-122 97s-105-62-122-97c-18-36-44-153-44-153A187 187 0 0 1 238 14a185 185 0 0 0-115 220s26 118 44 154c18 37 71 98 133 98s115-61 133-98c18-36 44-154 44-154A187 187 0 0 0 362 14"/><path fill="none" stroke="#c27b55" stroke-width="4.5" d="M300 3a183 183 0 0 0-177 231s26 118 44 154c18 37 71 98 133 98s115-61 133-98c18-36 44-154 44-154q6-23 6-47C482 85 401 2 300 3z"/><path fill="url(#b)" d="M100 143q-4-1-3-3c1-2 3 1 7 0q0 2-4 3" transform="scale(3)"/><path fill="#c27b55" d="M301 422h-11l-1-1h1s12 1 20-1h1v1z"/><path fill="#fff" d="M248 391s37 4 50 4l58-4a81 81 0 0 1-59 21c-29 0-36-10-49-21"/><path fill="none" stroke="#c27b55" stroke-width="2.4000000000000004" d="M248 391s37 4 50 4l58-4a81 81 0 0 1-59 21c-29 0-36-10-49-21z"/><path fill="url(#c)" d="M62 83q0-4 12-4 12 3 13 8c-1 2-11 4-15 3-3 0-9-2-10-7" transform="scale(3)"/><path fill="#7b5c33" stroke="#4d3009" stroke-width="1.5" d="M240 258c-2 9-12 15-22 12q-15-6-13-22c3-10 13-15 22-13q16 6 13 23z"/><path fill="#8a6d47" d="M237 258q-5 11-17 9-11-4-11-15h8q-1 5 5 8 6 1 8-4v-2z"/><path d="M225 247q-6-1-8 5-1 6 5 8 5 1 8-4 1-7-5-9m1 13q-3 1-3-1-1-3 2-3 2-1 3 1z" opacity=".9"/><path fill="#fff" d="M213 262q-2 1-4-1l1-4q2-1 3 1z" opacity=".6"/><path fill="#fff" d="M237 252q-4 1-9-3-3-5 1-9 4-1 9 3 3 6-1 9" opacity=".8"/><path fill="#f0c7b1" d="M160 249c2 33 35 71 61 67 32 0 63-24 63-67s-15-80-63-80c-35 0-61 37-61 80m25-1c-1-7 16-12 38-10 23 3 39 17 37 24-2 4-32 10-43 8-11-1-28-6-32-22"/><path fill="url(#d)" d="M72 90c4 1 14-1 15-3q0-5-13-8-10 0-12 3 3-11 16-12 15 1 16 13-1 12-16 13-15-1-16-13 3 7 10 7" transform="scale(3)"/><path fill="url(#e)" d="M62 83q0-4 12-4 12 3 13 8c-1 2-11 4-15 3-3 0-9-2-10-7" transform="scale(3)"/><path fill="#c27b55" d="M186 232q20-8 42-3 11 3 21 8 9 6 15 13-5-8-14-13-10-6-22-9-22-5-42 4"/><path d="m188 234 17-3 20 1c10 2 28 8 35 22q2 6 0 8c0-8-15-21-37-23-22-3-39 2-38 9 4 16 21 21 32 22 12 1 35-5 38-5a121 121 0 0 1-38 7q-28-3-36-22-3-12 7-16"/><path fill="url(#f)" d="M138 83q0-4-13-4-12 3-12 8c0 2 11 4 14 3q8 0 11-7" transform="scale(3)"/><path fill="#7b5c33" stroke="#4d3009" stroke-width="1.5" d="M395 258c-3 9-13 15-22 12q-16-6-13-22c2-10 12-15 22-13q16 6 13 23z"/><path fill="#8a6d47" d="M392 258q-5 11-18 9-11-4-11-15h9q-1 5 4 8 7 1 8-4l1-2z"/><path d="M380 247q-7-1-9 5 0 6 5 8 7 1 9-4 0-7-5-9m0 13q-2 1-3-1 0-3 2-3 3-1 3 1 1 2-2 3" opacity=".9"/><path fill="#fff" d="M368 262q-2 1-4-1v-4q2-1 4 1z" opacity=".6"/><path fill="#fff" d="M391 252q-4 1-8-3-3-5 1-9 4-1 8 3 3 6-1 9" opacity=".8"/><path fill="#f0c7b1" d="M378 169c-48 0-63 36-63 80s31 67 62 67c27 4 59-34 62-67 0-43-26-80-61-80m4 101c-11 2-42-4-43-8-2-7 14-21 36-24 23-2 40 3 39 10-4 16-21 21-32 22"/><path fill="url(#g)" d="M127 90c-3 1-14-1-14-3q0-5 12-8 11 0 13 3-3-11-16-12-15 1-16 13 1 12 16 13 15-1 16-13-4 7-11 7" transform="scale(3)"/><path fill="url(#h)" d="M138 83q0-4-13-4-12 3-12 8c0 2 11 4 14 3q8 0 11-7" transform="scale(3)"/><path fill="#c27b55" d="M412 232q-20-8-41-3-11 3-21 8-9 6-15 13 6-8 14-13 9-6 22-9 21-5 41 4"/><path d="m410 234-16-3-20 1c-10 2-28 8-35 22q-1 6 0 8c-1-8 15-21 36-23 23-3 40 2 39 9-4 16-21 21-32 22-12 1-35-5-38-5a121 121 0 0 0 38 7q28-3 35-22 4-12-7-16"/><path fill="url(#i)" d="M141 114a41 41 0 1 1-82 0 41 41 0 0 1 82 0" transform="scale(3)"/><path fill="url(#j)" d="M138 54a37 37 0 1 1-75 0 37 37 0 0 1 75 0" transform="scale(3)"/><path fill="#2a232b" d="M162 223c30-30 50-18 92-10 2 0 19 4 16 10q-4 4-9 3c-41-1-61-30-99-3M438 223c-30-30-50-18-92-10-2 0-19 4-16 10q4 4 9 3c41-1 61-30 99-3"/><path fill="#e1ac8f" d="M290 266s-4 33-6 39c-4 15-18 35-15 44 5 18 22 13 31 13s24 5 28-7c1-4-2-13-2-13s-7 9-26 8c-6 0-14-6-14-15 0-11 5-21 6-32 1-9-2-37-2-37"/><path fill="#c27b55" d="M316 357q4 0 4 2t-4 2h-10s6-4 10-4m-31 0q-4 0-4 2 0 3 4 2h9s-6-4-9-4m41-15s5 5 4 12c-1 5-10 8-10 8s6-4 7-10zm-55-6s-3 8-2 13c2 9 11 12 11 12s-6-6-8-11c-2-6-1-14-1-14"/><path fill="#ffe4d6" d="M315 346q5-4 3-5 0-2-5 1c-3 4-9 6-9 6s8 1 11-2"/><path fill="#2a232b" d="M300 54"/><path fill="#6b4e40" d="M173 86c28-26 134-2 166 1 30 2 71-91 131 148 0 12-4 32-9 47l-1-1s2 10-18 43c1-24-4-42-8-64-47-60-91-74-124-85 22 27 45 51 54 77-41-29-97-87-97-87s4 14 83 87c-33-8-94-41-137-105-8 14 37 93 39 96-23-19-55-44-63-74l-8 26c-8 36-8 81-10 93-5-26-6-55-6-55-11 54-1 91-1 104-15-31-31-69-36-104 0 0 35-152 45-147" opacity=".1"/><path fill="#6b4e40" d="M88 204c0-17 4-42 9-57q-16 17-32 29c13-12 17-22 47-85 19-39 31-80 67-85q20-1 36 8c29-27 65-37 98-34 101 7 129 73 183 86-9 2-23-2-31-5 11 15 7 13 32 38q14 17 32 30c-17-2-25-15-49-28a237 237 0 0 0 68 70c-7-2-28-11-47-27 10 14 37 39 25 90-3-23 0-50-21-63 2 10 11 31 5 53h-33c0 12-4 33-9 47l-1-1s-2 10-22 44c1-25-1-42-5-65-49-60-95-74-130-84q36 41 52 83c-33-35-102-90-102-90s1 15 83 88c-28-18-89-45-133-109-9 13 32 92 34 95-24-18-44-50-53-80 0 0-11 18-14 32-9 37-6 67-8 79q-8-41-9-40c-12 53 2 97 2 110-16-32-36-75-41-110H86z"/>
    <path fill="#4c2d1e" d="m68 112 31-1 11-21c-11 9-33 21-42 22"/><path fill="#5c3d2e" d="M360 18c48-7 93 45 133 48-8 2-22-3-30-7 12 15 9 16 33 40q14 16 30 28c-13-2-24-15-47-27-28-41-70-77-119-82M191 152s-11 18-14 32c-9 37-6 67-8 79l-10-37c-11 52 3 94 3 107-16-32-36-75-41-110H86l2-19c0-17 4-42 9-57q-16 17-32 29c13-12 17-21 46-82q13-21 30-40-31 42-36 93c6-18 24-30 37-44-13 20-23 40-28 68l13-15c-6 18-4 28-2 42 3-21 8-56 19-75 0 33-10 65 3 100 0-26 10-50 17-68-2 7-1 23 0 29 3-20 6-39 18-55-5-30-14-62-3-70-18 31 38 58 36 57 31 17 51 19 67 23-11-8-16-19-27-27 30 10 72 42 94 55l8 15q-19-8-47-17c43 48 35 39 52 83-30-31-30-32-97-86 8 11 29 40 78 84-11-7-93-52-133-109-2 15 0 26 34 95-7-2-30-23-53-80m166 30c25 12 53 31 83 67 4 23 6 40 5 65l22-44 1 1c5-14 9-34 9-46h32c7-22-3-46-6-56 22 14 22 39 23 61 10-50-18-74-27-88 19 14 40 25 47 28q-16-11-31-25-17-16-26-30c-14-7-25-18-39-25 24 16 31 41 39 65l-13-13c4 10 9 20 7 32-15-21-21-51-45-69 24 24 26 88 26 99C439 87 336-23 231 18c105-33 195 78 207 174-21-24-27-54-57-69 15 15 24 39 33 57-33-39-60-78-105-105 21 24 48 45 63 75 9 9 12 21 18 30-21-21-47-42-75-50 31 26 39 47 42 52"/><path fill="#4c2d1e" d="M353 17c25 0 95 20 130 88-38-52-76-75-130-88m61 99C375 35 302 10 263 12c28-2 108 27 151 104M220 44c-2-16-24-32-47-23l-6 3c26-10 49 4 53 20m-8 10q-10-16-28-22c-36-8-63 45-69 69 1-3 32-75 70-66q17 4 27 19m-3 7c-4 42 92 71 113 89-37-32-113-51-113-89m165 92c-8-13-41-66-94-98-33-20-45-8-52-5 43-20 121 68 146 103"/><path fill="#7a6155" d="M464 91s-39-42-97-63c43 11 69 32 97 63m-96-59c25 8 68 56 74 66-14-24-48-59-74-66m-79-8c49 11 94 67 94 67-21-33-56-64-94-67m-43 29c24 6 78 50 80 54-7-11-54-51-80-54m-17 4c26 4 48 26 51 30-13-19-27-29-51-30m-3 9c26 26 64 34 78 52-19-25-54-31-78-52m32 62c-34-18-57-34-63-38-5-5-19-16-9-28-7 5-6 17 4 27 12 12 65 39 68 39-3-1 0 0 0 0m23 11q-40-8-75-30c-15-10-38-35-26-49 3-4 11-6 16-6q-9 0-16 4c-11 10 1 36 20 50q38 24 81 31m2-103 14 3c41 16 80 64 80 64-21-32-57-63-94-67m3 13c47 18 98 78 101 80-23-34-61-70-101-80m-118 8c-31-7-45 46-47 49 11-22 27-51 47-49m1 35c-27 25-21 56-20 71-1-27 6-54 20-71"/><path fill="#3d2012" d="M94 151c-11 33-8 68-8 71l-1 2h3c6-13 14-30 34-58q-20 23-34 50c6-35 28-63 30-67q-19 22-29 52c0-16 4-41 9-56-10 11-22 24-32 30 13-12 18-21 48-84 19-39 29-80 65-85q20 0 36 8c29-27 65-36 98-33 101 8 127 72 181 85-8 2-23-3-31-7 12 15 9 16 33 40q14 16 30 28c-13-2-24-15-48-28a247 247 0 0 0 68 71c-7-3-28-14-47-28 9 14 37 38 27 88-1-22-1-47-23-61 3 10 13 34 6 56h4c6-21-3-41-7-52 19 18 19 55 17 73q13-30 5-61-7-17-18-32l-2-2q22 18 49 24s-52-36-73-70l20 15q13 11 30 9c-14-6-24-20-34-30-22-24-13-11-31-35 15 6 23 5 32 2l-15-5c-41-15-86-86-181-87-33 0-68 13-91 38l-12-5c-52-17-70 31-92 79-9 7-26 24-49 26q16 2 37 1c-20 45-21 50-47 71 22-8 29-16 43-33m14-59-9 18-28 2c9-1 26-10 37-20m12 120c0 5 6 34 13 52a320 320 0 0 1 6-125c-14 59-6 135 22 190a269 269 0 0 1-2-107s-3-25 5-67q-7 52 5 103-2-38 7-74c3-13 7-17 13-33q-5-18-6-37a198 198 0 0 0 59 116c-7-11-27-57-29-61q-7-15-4-32l-17-30q24 44 61 77l41 31 45 27c-19-16-39-34-52-49q-14-12-24-27-8-16-14-32l12 24c1 2 36 28 51 42 19 18 29 24 47 44-8-19-10-28-33-58-15-20-21-21-41-52l26 30c18 6 35 9 64 27 50 31 61 54 81 74-3-13-14-34-24-51q-13-25-30-45 20 19 33 44c10 17 21 36 24 55l-18-16q6 29 5 58c27-44 37-106 29-146 21 81-17 132-35 164 2-19 0-65-2-79-7-8-54-58-124-81q19 18 32 40 12 21 20 45l-50-45-52-46c5 8 10 14 44 47l47 44c-3-1-53-27-77-45-25-19-51-43-68-69-1 18 9 38 15 49 6 13 15 35 25 51q-23-14-36-36-15-23-24-48-7 14-11 27l-5 32q-4 32-3 64-8-24-11-50c-5 29 0 71 5 112-15-21-28-51-36-79-4-18-10-38-9-49"/><path fill="#26120b" d="M300 54"/><defs><radialGradient id="i" cx="100" cy="114" r="41" class="svga-on-canvas-facehighlight-gradient-single-0" gradientUnits="userSpaceOnUse"><stop offset="0" stop-color="#ffe4d6" stop-opacity=".5"/><stop offset=".9" stop-color="#f0c7b1" stop-opacity="0"/></radialGradient><radialGradient id="j" cx="100" cy="54" r="37" class="svga-on-canvas-facehighlight-gradient-single-1" gradientUnits="userSpaceOnUse"><stop offset="0" stop-color="#ffe4d6" stop-opacity=".5"/><stop offset=".9" stop-color="#f0c7b1" stop-opacity="0"/></radialGradient><radialGradient id="c" cx="129" cy="83.9" r="15.1" class="svga-on-canvas-eyesback-gradient-left-0" gradientTransform="matrix(-1 .1 .1 1 193 -12)" gradientUnits="userSpaceOnUse"><stop offset="0" stop-color="#fff"/><stop offset=".3" stop-color="#fcfdfd"/><stop offset=".5" stop-color="#f4f7f8"/><stop offset=".7" stop-color="#e5ecef"/><stop offset=".8" stop-color="#d8e2e7"/></radialGradient><radialGradient id="f" cx="128.6" cy="84" r="15.1" class="svga-on-canvas-eyesback-gradient-right-0" gradientTransform="rotate(6 123 62)" gradientUnits="userSpaceOnUse"><stop offset="0" stop-color="#fff"/><stop offset=".3" stop-color="#fcfdfd"/><stop offset=".5" stop-color="#f4f7f8"/><stop offset=".7" stop-color="#e5ecef"/><stop offset=".8" stop-color="#d8e2e7"/></radialGradient><radialGradient id="d" cx="122" cy="82.5" r="16" class="svga-on-canvas-eyesfront-gradient-left-3" fx="133.2" fy="82.5" gradientTransform="matrix(1 0 0 -.8 -45 146)" gradientUnits="userSpaceOnUse"><stop offset="0" stop-color="#e1ac8f"/><stop offset=".7" stop-color="#e1ac8f" stop-opacity=".3"/><stop offset="1" stop-color="#f0c7b1" stop-opacity="0"/></radialGradient><radialGradient id="e" cx="68.9" cy="106" r="29.5" class="svga-on-canvas-eyesfront-gradient-left-4" gradientTransform="translate(-2 1)" gradientUnits="userSpaceOnUse"><stop offset=".9" stop-opacity="0"/><stop offset="1" stop-opacity=".2"/></radialGradient><radialGradient id="g" cx="121.6" cy="82.5" r="16" class="svga-on-canvas-eyesfront-gradient-right-3" fx="132.8" fy="82.5" gradientTransform="matrix(-1 0 0 -.8 245 146)" gradientUnits="userSpaceOnUse"><stop offset="0" stop-color="#e1ac8f"/><stop offset=".7" stop-color="#e1ac8f" stop-opacity=".3"/><stop offset="1" stop-color="#f0c7b1" stop-opacity="0"/></radialGradient><radialGradient id="h" cx="69.3" cy="106" r="29.5" class="svga-on-canvas-eyesfront-gradient-right-4" gradientTransform="matrix(-1 0 0 1 202 1)" gradientUnits="userSpaceOnUse"><stop offset=".9" stop-opacity="0"/><stop offset="1" stop-opacity=".2"/></radialGradient><linearGradient id="a" x1="100" x2="100" y1="171" y2="130" class="svga-on-canvas-chinshadow-gradient-single-0" gradientUnits="userSpaceOnUse"><stop offset="0" stop-color="#e1ac8f" stop-opacity=".8"/><stop offset=".7" stop-color="#c27b55"/></linearGradient><linearGradient id="b" x1="100" x2="100" y1="142" y2="139" class="svga-on-canvas-mouth-gradient-single-0" gradientUnits="userSpaceOnUse"><stop offset=".1" stop-color="#e8b9a0"/><stop offset="1" stop-color="#e1ac8f"/></linearGradient></defs>
</svg>