<svg xmlns="http://www.w3.org/2000/svg" width="600" height="600" viewBox="0 0 600 600" style="overflow:hidden!important">
    <path d="M675 675H-75V-75h750z"/>
    <path fill="#2a232b" d="M302 302h-3v-3h3z"/>
    <path fill="#cda184" d="M586 599c-6-14-24-35-44-41-25-7-81-16-102-21-16-3-50-33-61-44q-3-2-4-8c0-32 13-119 13-119H212s14 87 13 119q0 6-4 8c-11 11-45 41-61 44-21 5-77 14-102 21-20 6-38 27-44 41C3 623 0 667 0 704h600c0-37-3-81-14-105"/>
    <path fill="#dcbaa4" d="M477 552c73 11 104 26 114 152h9c0-37-3-81-14-105-6-14-24-35-44-41-25-7-81-16-102-21-16-3-54-36-64-49 10 14 38 47 63 56 12 4 21 6 38 8m-316-8c25-9 53-42 63-56-10 13-48 46-64 49-21 5-77 14-102 21-20 6-38 27-44 41C3 623 0 667 0 704h9c10-125 41-141 114-152 17-2 26-4 38-8"/>
    <path fill="#be8a67" d="m287 593-21-7c-32-12-133-20-133-20s107 4 130 8c-1-14-9-60-9-60l20 63c2 7 13 16 13 16m32-4zm-32 4s9 9 13 9c6 0 14-9 18-12-3 3-12 4-15 4zm63-23-13 3 7-45c-2 9-14 49-25 61 6-5 19-7 25-8 31-5 31-5 123-15 0 0-87-1-117 4"/>
    <path fill="none" stroke="#9f6037" stroke-width="4.5" d="M586 599c-6-14-24-35-44-41-25-7-81-16-102-21-16-3-50-33-61-44q-3-2-4-8c0-32 13-119 13-119H212s14 87 13 119q0 6-4 8c-11 11-45 41-61 44-21 5-77 14-102 21-20 6-38 27-44 41C3 623 0 667 0 704h600c0-37-3-81-14-105z"/>
    <path fill="url(#a)" d="m124 162 3-32c-15-2-39-2-54 0l3 32q6 6 11 8c5 3 21 3 26 0q5-2 11-8" transform="scale(3)"/>
    <path fill="#1d282e" d="M-11 709c-9-73 24-142 103-164 24-7 18-10 21-10v-2c0-24 27-20 35-21 30-7 40-39 75-30 1 7 0 15-4 47 32 70 68 64 81 103 11-35 52-40 81-103-1-18-6-33-4-48 23-8 34 2 43 11 28 28 43 10 57 23q8 8 8 19c64 10 138 30 123 173-65 0-435 16-619 2"/>
    <path fill="#101a1f" d="M301 629c12-32 51-39 79-98l2-4-3-17q-3-15-2-29 10 3 15 8c6 6 2 17-4 27-10 45-35 76-87 113m207-32c9 31 15 80 7 112l14-1c2-33-4-86-21-111m-95 5c-39 23-77 31-112 61-35-30-74-35-113-57-17-7-44-32-61-50 52 79 89 57 173 110 83-53 120-35 172-114-16 17-42 43-59 50m-114 31c-12-32-49-43-78-102l-2-4q0-8 2-17 3-15 1-28-8 2-13 7c-5 6-1 17 4 27 11 45 34 80 86 117M81 593c-12 28-13 82-10 116h13c-7-32-5-84-3-116m219 46c49-15 101-42 145-108-40 53-98 85-144 104-48-18-105-52-138-98 39 64 88 87 137 102"/>
    <path fill="#2d373d" d="M608 707zc-1-146-82-152-127-161-7 0-11-20-16-25-5-4-38-4-49-33l5 4c28 28 43 10 57 23q9 8 8 19c64 10 138 30 123 173m-620 4h1C4 595 37 558 120 544c10-4 5-11 10-16 4-5 29-5 63-40l-11 4c-28 28-50 20-57 23-10 3-12 12-12 19-64 10-132 45-125 176z"/>
    <path d="M485 534c0-30-28-24-41-27-28-6-27-38-67-26-2 14 1 26 4 48-29 62-71 69-81 102-12-37-49-33-81-102 5-33 5-40 4-48-31-7-38 13-65 27-17 8-22 1-37 8q-9 5-8 17v1l-22 4C15 551-19 615-11 709c35 0 3 13 549 0l70-2c17-139-53-162-123-173M-11 708c8-108 24-150 123-172 54 90 120 77 187 127-61-51-124-44-185-128q-1-12 11-18 8-2 17-1c21 0 37-17 53-29 7-5 19-5 27-4 1 12-3 29-5 42l-9-21c38 109 75 85 92 130a320 320 0 0 1-142-103c58 79 96 83 142 104h1c6-3 48-18 80-39 33-23 70-72 67-68-54 55-63 68-147 107l-1-2c15-41 59-25 95-137l-12 29c-1-17-6-30-6-43 7-2 24-3 28 2 20 16 21 29 53 29 11 0 24 1 25 20-1 2-15 19-29 32-46 46-87 47-151 96l6-4c50-36 86-35 132-73a274 274 0 0 0 44-48c85 14 127 46 122 171-379-3-430 7-618 1"/>
    <path fill="#cda184" stroke="#9f6037" stroke-width="4.5" d="M137 253c-4-7-19-28-30-25-9 3-9 15-10 23-1 11-1 30 2 37 3 8 12 22 17 28 7 6 18 28 20 30q3 6 13 8c9-1 17-9 17-13 4-23-17-69-29-88z"/>
    <path fill="#9f6037" d="M133 298v-7l1-7c-1-6-6-18-9-24q-6-14-17-20-4 0-7 2v2l1-2c0 3-2 19-1 31q2 15 4 17v3c3 13 23 30 28 35q0 2 2 1 1-1-2-2c-4-5-24-22-26-35-4-13 11-33 14-37l5 9c-2 3-16 19-12 32 1 4 11 11 15 12l4 4q0 5 4 8l2 1 2-1v3l1 2v-6l-6-9q-3-6-3-12m-28-12c-7-20 4-39 5-42q6 3 10 9c-1 3-15 19-15 33m32 33c-3-1-2-6-3-7l-4-5-2-1c-8-18 1-26 3-28l2 6-1 7v7q0 6 3 12l6 9z"/>
    <path fill="#cda184" stroke="#9f6037" stroke-width="4.5" d="M462 253c5-7 19-28 30-25 9 3 9 15 10 23 1 11 1 30-2 37-3 8-12 22-17 28-7 6-18 28-19 30q-4 6-13 8c-10-1-18-9-18-13-4-23 18-69 29-88z"/>
    <path fill="#9f6037" d="m463 310-6 9v4l1 2v-5l2 1 2-1q4-3 4-8l4-4c4-1 14-8 15-12 4-13-10-29-11-32l5-9c2 4 17 24 14 37s-23 30-27 35l-1 2 2-1c4-5 24-22 27-35v-3q2-2 4-17c1-12-1-28-1-31l2 2-1-2q-1-2-6-2-12 6-17 20c-4 6-9 18-9 24v7l1 7q-1 6-4 12m16-57q4-6 10-9c1 3 12 22 5 42 0-14-13-30-15-33m-21 66 6-9 4-12-1-7v-7l1-6c2 2 11 10 3 28l-1 1q-4 2-5 5c-1 1 0 6-3 7z"/>
    <path fill="#cda184" d="M432 381c-15 31-60 85-92 100-16 7-64 7-80 0-32-15-77-69-92-100-17-34-45-146-45-146q-5-23-6-47C117 86 199 4 300 3a184 184 0 0 1 177 232s-28 112-45 146"/>
    <path fill="#c59575" d="M330 6a184 184 0 0 1 136 227s-26 112-43 146c-14 30-59 82-90 97a117 117 0 0 1-66 0c-31-15-76-67-90-97-17-34-43-146-43-146q-5-23-6-47c0-88 61-161 142-180a184 184 0 0 0-147 229s28 112 45 146c15 31 61 84 92 100 8 4 28 5 39 5s33-1 41-5c31-16 77-69 92-100 17-34 45-146 45-146q5-23 6-47c0-91-66-167-153-182"/>
    <path fill="none" stroke="#9f6037" stroke-width="4.5" d="M432 381c-15 31-60 85-92 100-16 7-64 7-80 0-32-15-77-69-92-100-17-34-45-146-45-146q-5-23-6-47C117 86 199 4 300 3a184 184 0 0 1 177 232s-28 112-45 146z"/>
    <path fill="url(#b)" d="M96 139h9c-1 5-8 4-9 0" transform="scale(3)"/>
    <path fill="#9f6037" d="M289 419v-2s13 2 24-1v2c-8 2-19 1-24 1m11-11-13-2h-15c-5 0-16 0-19-2q-3-2 1-5l6 2c9 1 13-1 21-1 12 0 13 5 27 2 16-3 23-1 34-4q2-2 5-1 2 2 0 4c-11 5-22 3-33 5z"/>
    <path fill="url(#c)" d="M83 89q-3 0-10 1-11 1-11-2l-1-3v-4c1-4 19-4 26 2v2l-1 2z" transform="scale(3)"/>
    <path fill="#26211d" stroke="#000" stroke-width="1.5" d="M240 258c-2 9-12 15-22 12q-15-6-13-22c3-10 13-15 22-13q16 6 13 23z"/>
    <path fill="#35312e" d="M237 258q-5 11-17 9-11-4-11-15h8q-1 5 5 8 6 1 8-4v-2z"/>
    <path d="M225 247q-6-1-8 5-1 6 5 8 5 1 8-4 1-7-5-9m1 13q-3 1-3-1-1-3 2-3 2-1 3 1z" opacity=".9"/>
    <path fill="#fff" d="M213 262q-2 1-4-1l1-4q2-1 3 1z" opacity=".6"/>
    <path fill="#fff" d="M237 252q-4 1-9-3-3-5 1-9 4-1 9 3 3 6-1 9" opacity=".8"/>
    <path fill="#cda184" d="M161 252c-1 10 30 66 60 66s59-16 59-66c0-53-28-66-59-66s-54 17-60 66m21 3v-12c4-12 59-13 78 5q5 15-11 19c-10-2-15 4-29 4-24 0-30-2-34-8z"/>
    <path fill="url(#d)" d="M60 82q1 13 17 14 15-1 17-14-2-12-17-13-16 1-17 13m1 3v-4c1-4 19-4 26 2q1 5-4 6-3 0-10 1-11 0-11-2z" transform="scale(3)"/>
    <path fill="url(#e)" d="m62 88-1-3v-4c1-4 19-4 26 2q1 5-4 6-3 0-10 1-11 0-11-2" transform="scale(3)"/>
    <path fill="#9f6037" d="M268 244c-28-18-50-19-84-17 29-4 62-1 84 17"/>
    <path d="M265 256c-10-25-78-25-83-13v12l-4-10-7 2s9-12 16-13c67-13 77 18 78 22m-11 12c-14-6-18 1-34 2-24 0-29-3-34-8 3 7 4 10 33 9 16 0 25-6 35-3"/>
    <path fill="url(#f)" d="M117 89q3 0 9 1 11 1 12-2l1-3v-4c-1-4-20-4-26 2v4z" transform="scale(3)"/>
    <path fill="#26211d" stroke="#000" stroke-width="1.5" d="M395 258c-3 9-13 15-22 12q-16-6-13-22c2-10 12-15 22-13q16 6 13 23z"/>
    <path fill="#35312e" d="M392 258q-5 11-18 9-11-4-11-15h9q-1 5 4 8 7 1 8-4l1-2z"/>
    <path d="M380 247q-7-1-9 5 0 6 5 8 7 1 9-4 0-7-5-9m0 13q-2 1-3-1 0-3 2-3 3-1 3 1 1 2-2 3" opacity=".9"/>
    <path fill="#fff" d="M368 262q-2 1-4-1v-4q2-1 4 1z" opacity=".6"/>
    <path fill="#fff" d="M391 252q-4 1-8-3-3-5 1-9 4-1 8 3 3 6-1 9" opacity=".8"/>
    <path fill="#cda184" d="M377 186c-30 0-58 13-58 66 0 50 28 66 58 66s60-54 61-66c2-49-30-66-61-66m36 77c-4 6-10 8-34 8-15 0-20-6-29-4q-16-4-11-19c19-18 74-17 78-5l-1 12z"/>
    <path fill="url(#g)" d="M123 69q-15 1-17 13 1 13 17 14 15-1 17-14-2-12-17-13m15 19q-2 3-12 2-6-1-9-1-6-1-4-6c6-6 25-6 26-2v4z" transform="scale(3)"/>
    <path fill="url(#h)" d="m138 88 1-3v-4c-1-4-20-4-26 2q-2 5 4 6 3 0 9 1 11 0 12-2" transform="scale(3)"/>
    <path fill="#9f6037" d="M330 244c29-18 51-19 85-17-29-4-62-1-85 17"/>
    <path d="M412 234c7 1 15 13 15 13l-6-2c-1 5-2 5-5 10v-12c-4-12-72-12-82 13 1-4 11-35 78-22m-32 37c29 1 30-2 33-9-5 5-10 8-34 8-17-1-21-8-34-2 10-3 19 3 35 3"/>
    <path fill="url(#i)" d="M141 114a41 41 0 1 1-82 0 41 41 0 0 1 82 0" transform="scale(3)"/>
    <path fill="url(#j)" d="M138 54a37 37 0 1 1-75 0 37 37 0 0 1 75 0" transform="scale(3)"/>
    <path fill="#3b3128" d="M168 217c44-9 99 9 100-2q-1-5-5-5c-45-4-81-4-95 7M432 217c-44-9-99 9-100-2q1-5 5-5c45-4 82-4 95 7"/>
    <path fill="#be8a67" d="m297 270-2 75c0 4 7 14 7 21 0 0-14-1-19-3-5-1-13-5-10-14z"/>
    <path fill="#9f6037" d="m296 359-10-2q-4-1-3-4 0-2 4-1c4 1 9 7 9 7m9 0 9-2q5 0 4-4 1-2-5-1c-3 1-8 7-8 7"/>
    <path fill="#2a232b" d="M459 296c-14-37 2-95-25-137-12-20-22-34-21-58h-1l-8 11 5-12-1-1q-10 14-23 17c10-7 21-19 25-26v-1c-34 22-73 22-107 23-31 0-50-1-72-14q-22 9-42-5c-43 84-24 42-50 198a107 107 0 0 1-24-74c-14-29-20-46-17-104 3-24 8-42 23-61q-3-16-1-31c-8-14-13-29-15-35 11 9 12 9 21 12l7-14 4 17 5 2-2-10 9 11 5 1q-12-16-14-40 17 9 42 9c38 0 76-28 129-28 47 0 87 26 105 55q-1-10 2-21v19l1 1q3-15 13-27c-6 16-4 7-10 26l1 1q4-8 18-15L424 2l1 1q6-6 14-2-11-3-17 8c20 3 30 15 44 30 32 37 41 73 23 125 8 16 7 51-10 80 0 17-11 37-20 52"/>
    <path fill="#1b141c" d="m187 91 3 3-1-1c-43 84-24 42-50 198a107 107 0 0 1-24-74c-14-29-20-46-17-104 3-24 8-42 23-61q-3-16-1-30l6 7q2 13 0 22c-29 88-12 129 6 192-7-48-21-109 17-144-16 39-12 57-8 84q3-56 46-92m279-52-3-3-3 2c44 92 1 83 12 124 12 30-4 48-4 78 0-45-2-76-27-112-8-11-11-52-16-72-70 43-173 52-281-34 51 18 155 4 190-19-40 7-125 7-163-8 91-7 90-37 168-42-37-14-119 21-157 21q-25 0-42-9 2 24 14 40l-5-1-9-11 2 10-5-2-4-17-7 14c-9-3-10-3-21-12 2 6 7 21 15 35v1c19 27 46 49 70 72q19 13 41 4c22 13 41 14 72 14 34-1 73-1 107-23v1c-4 7-15 19-25 26q13-3 23-17l1 1-5 12 8-11h1c-1 24 9 38 21 58 27 42 11 100 25 137 9-15 20-35 20-52 17-29 18-65 10-80 18-52 9-88-23-125m2 77c0-28-19-65-19-65q-12-22-30-26c37 2 52 58 50 87zM384-5c10 8 12 11 22 24C356-70 258-3 227-5c31 7 102-39 157 0m25 39c-60 50-151 29-226 6 74 34 169 52 226-6M174 88c-20 11-29 37-30 54 4-15 15-42 30-54m-25-14c-28 17-34 57-31 89 3-30 9-70 31-89m202-37-32 4c-8 0-39 1-67-1 29 7 46 8 67 7q38 0 65-21c-13 7-19 8-33 11m101 80-2-4c-3-4-6-17-18-56 9 73 24 59 30 97 0-13-1-20-10-37"/>
    <path fill="#3a353a" d="M474 204v-10c1-19-10-35-3-57 5-17 9-19 6-48 0-4-1-14-3-18l5 18c5 29 1 33-4 49-8 24 6 34-1 66M425 56c3 91 22 70 38 126-11-66-21-12-38-126m-280 47c-27 34-25 59-18 111-1-52-7-72 18-111m-20-50c-16 49-19 71-11 124-2-53-1-65 11-124m61 39c-29 21-44 59-45 91 4-31 21-70 45-91m201-18c-37 13-95 17-138 4-34-10-86-43-114-63 25 20 70 50 101 62 33 12 84 17 124 7 27-7 42-14 65-28q-17 11-38 18M308-35c37-7 80 17 103 45-24-34-63-51-86-52-38 0-77 32-154 35 72 3 107-23 137-28m29 39c-52 18-92 23-146 25 56 4 96-2 146-25m55 10c-32 15-46 18-112 22 41 1 80-1 112-22M286 60c32 4 88 0 116-29-34 28-97 27-146 25zm137-28c22 9 28 49 37 81-4-29-11-75-37-81"/>
    <path d="M467 39c-13-15-25-27-44-30q8-12 19-6-8-9-17 0 6-8 19-20c-13 6-17 10-22 16l11-29q-11 13-14 29v-23q-6 15-4 23-11-16-27-28c-75-55-150-4-191 2-16 2-41 1-58-9 1 17 7 28 14 41l-4-1c-6-8-7-7-9-13q-1 7 1 11l-4-1-4-19-8 15c-9-2-9-3-22-13 2 3 7 20 16 37q-2 16 1 31-21 26-22 61c-4 57 2 74 16 104l2 22c3 19 7 32 23 53 11-61 10-62 12-78 10-77 10-65 38-120q16 13 42 5c13 7 27 13 63 13 37 0 79 2 116-22-6 8-18 21-28 27q14-2 27-17l-7 15 11-14c-2 24 9 38 21 58 27 43 10 101 25 138 9-15 21-36 21-53 16-27 18-63 10-80 16-47 13-84-23-125M140-7l8 10-7-1zm-7-8 3 16-9-3zm5 300c-13-23-16-30-19-53l-2-14c-18-42-25-121 4-165l3-4q-2-7-1-22l7 11 1 2c14 18 27 32 57 54-36 59-34 39-50 191m353-140-5 21c9 21 0 61-9 79-4 21-8 25-18 46-7-33 8-91-20-135-18-30-26-34-22-71v-3c-38 24-79 26-135 25-16 0-37-2-50-10-28 7-38-5-61-22-24-21-41-39-61-82 11 9 34 14 49 16a87 87 0 0 1-18-42c10 7 35 14 57 12 41-4 98-46 168-14 32 14 48 34 52 45h2c21 7 22 9 43 32 11 14 39 42 28 103"/>
    <path fill="#26120b" d="M300 54"/>
    <defs>
        <radialGradient id="i" cx="100" cy="114" r="41" class="svga-on-canvas-facehighlight-gradient-single-0" gradientUnits="userSpaceOnUse">
            <stop offset="0" stop-color="#dcbaa4" stop-opacity=".5"/>
            <stop offset=".9" stop-color="#cda184" stop-opacity="0"/>
        </radialGradient>
        <radialGradient id="j" cx="100" cy="54" r="37" class="svga-on-canvas-facehighlight-gradient-single-1" gradientUnits="userSpaceOnUse">
            <stop offset="0" stop-color="#dcbaa4" stop-opacity=".5"/>
            <stop offset=".9" stop-color="#cda184" stop-opacity="0"/>
        </radialGradient>
        <radialGradient id="c" cx="125.4" cy="82.9" r="12.8" class="svga-on-canvas-eyesback-gradient-left-0" gradientTransform="matrix(-1 0 0 1 207 5)" gradientUnits="userSpaceOnUse">
            <stop offset="0" stop-color="#fff"/>
            <stop offset=".5" stop-color="#fdfefe"/>
            <stop offset=".7" stop-color="#f6f8f9"/>
            <stop offset=".9" stop-color="#eaeff2"/>
            <stop offset="1" stop-color="#d9e3e8"/>
            <stop offset="1" stop-color="#d8e2e7"/>
        </radialGradient>
        <radialGradient id="f" cx="125" cy="82.9" r="12.8" class="svga-on-canvas-eyesback-gradient-right-0" gradientTransform="translate(-7 5)" gradientUnits="userSpaceOnUse">
            <stop offset="0" stop-color="#fff"/>
            <stop offset=".5" stop-color="#fdfefe"/>
            <stop offset=".7" stop-color="#f6f8f9"/>
            <stop offset=".9" stop-color="#eaeff2"/>
            <stop offset="1" stop-color="#d9e3e8"/>
            <stop offset="1" stop-color="#d8e2e7"/>
        </radialGradient>
        <radialGradient id="d" cx="123.2" cy="81.1" r="17.9" class="svga-on-canvas-eyesfront-gradient-left-3" fx="133.8" fy="77.2" gradientTransform="matrix(1 0 0 -.7 -48 137)" gradientUnits="userSpaceOnUse">
            <stop offset="0" stop-color="#be8a67"/>
            <stop offset=".7" stop-color="#be8a67" stop-opacity=".3"/>
            <stop offset="1" stop-color="#cda184" stop-opacity="0"/>
        </radialGradient>
        <radialGradient id="e" cx="79.5" cy="81.5" r="23.2" class="svga-on-canvas-eyesfront-gradient-left-4" gradientTransform="matrix(1.1 0 0 1 -20 28)" gradientUnits="userSpaceOnUse">
            <stop offset=".9" stop-opacity="0"/>
            <stop offset="1" stop-opacity=".2"/>
        </radialGradient>
        <radialGradient id="g" cx="122.8" cy="81.1" r="17.9" class="svga-on-canvas-eyesfront-gradient-right-3" fx="133.4" fy="77.2" gradientTransform="matrix(-1 0 0 -.7 247 137)" gradientUnits="userSpaceOnUse">
             <stop offset="0" stop-color="#be8a67"/>
             <stop offset=".7" stop-color="#be8a67" stop-opacity=".3"/>
             <stop offset="1" stop-color="#cda184" stop-opacity="0"/>
        </radialGradient>
        <radialGradient id="h" cx="79.9" cy="81.5" r="23.2" class="svga-on-canvas-eyesfront-gradient-right-4" gradientTransform="matrix(-1.1 0 0 1 220 28)" gradientUnits="userSpaceOnUse">
            <stop offset=".9" stop-opacity="0"/>
            <stop offset="1" stop-opacity=".2"/>
        </radialGradient>
        <linearGradient id="a" x1="100" x2="100" y1="171" y2="128" class="svga-on-canvas-chinshadow-gradient-single-0" gradientUnits="userSpaceOnUse">
            <stop offset="0" stop-color="#be8a67" stop-opacity=".8"/>
            <stop offset=".7" stop-color="#9f6037"/>
        </linearGradient>
        <linearGradient id="b" x1="100" x2="100" y1="142" y2="139" class="svga-on-canvas-mouth-gradient-single-0" gradientUnits="userSpaceOnUse">
            <stop offset=".1" stop-color="#c59575"/>
            <stop offset="1" stop-color="#be8a67"/>
        </linearGradient>
    </defs>
</svg>