<svg xmlns="http://www.w3.org/2000/svg" width="600" height="600" viewBox="0 0 600 600" style="overflow:hidden!important">
    <path d="M675 675H-75V-75h750z"/>
    <path fill="#2f2f2f" d="m301 301-3 1v-3l3-1z"/>
    <path fill="#daa488" d="M586 599c-6-14-24-35-44-41-25-7-81-16-102-21-16-3-50-33-61-44q-3-2-4-8c0-32 13-119 13-119H212s14 87 13 119q0 6-4 8c-11 11-45 41-61 44-21 5-77 14-102 21-20 6-38 27-44 41C3 623 0 667 0 704h600c0-37-3-81-14-105"/>  
    <path fill="#e9bfa9" d="M477 552c73 11 104 26 114 152h9c0-37-3-81-14-105-6-14-24-35-44-41-25-7-81-16-102-21-16-3-54-36-64-49 10 14 38 47 63 56 12 4 21 6 38 8m-316-8c25-9 53-42 63-56-10 13-48 46-64 49-21 5-77 14-102 21-20 6-38 27-44 41C3 623 0 667 0 704h9c10-125 41-141 114-152 17-2 26-4 38-8"/>
    <path fill="#cb8b6a" d="m287 593-21-7c-32-12-133-20-133-20s107 4 130 8c-1-14-9-60-9-60l20 63c2 7 13 16 13 16m32-4zm-32 4s9 9 13 9c6 0 14-9 18-12-3 3-12 4-15 4zm63-23-13 3 7-45c-2 9-14 49-25 61 6-5 19-7 25-8 31-5 31-5 123-15 0 0-87-1-117 4"/>
    <path fill="none" stroke="#ac5f38" stroke-width="4.5" d="M586 599c-6-14-24-35-44-41-25-7-81-16-102-21-16-3-50-33-61-44q-3-2-4-8c0-32 13-119 13-119H212s14 87 13 119q0 6-4 8c-11 11-45 41-61 44-21 5-77 14-102 21-20 6-38 27-44 41C3 623 0 667 0 704h600c0-37-3-81-14-105z"/>
    <path fill="url(#a)" d="m124 162 3-32c-15-2-39-2-54 0l3 32q6 6 11 8c5 3 21 3 26 0q5-2 11-8" transform="scale(3)"/>
    <path fill="#cbe9ee" d="M593 605c-31-61-92-53-150-69-1 11-39 62-48 90l-16-15c-22-25-54-107-64-43q5-45 32-11c19 26 20 39 47 67 5-19 15-33 27-51 12-17 20-25 21-40-4-7-3-10-10-15-44-30-12-60-52-67l-1 11c8 4 11 21-2 34-21 22-55 24-63 59-3 10-5 26-7 36l-7 74-7-73c-6-55-14-61-40-78-17-11-45-28-36-47l4-5-1-11c-33 2-28 48-53 65q-8 7-12 16c2 18 44 61 51 92 27-28 28-41 47-67q26-34 32 10c-1-9-5-23-13-23-7 0-13 10-17 14-19 26-22 45-50 68l-7-17c-11-22-41-67-44-72-13 4-34 8-46 10C29 560-2 586-14 706c292-3 410-2 628-2-3-26-8-76-21-99"/>
    <path fill="#f1fcfd" d="M420 572c-10 16-19 28-24 44 6-33 43-64 39-84-1-8-31-27-33-55 9 26 39 44 39 56 0 20 0 9-21 39m193 130c1-26-7-77-18-98-32-61-95-53-153-69q1 3 0 7c136 25 151 54 171 160M167 516c17-14 22-27 26-39-9 49-21 31-31 55-5 14 36 52 42 84q-11-19-26-43-10-18-21-32c-4-20 4-20 10-25m-10 25-3-4c-58 16-116 6-147 67-11 21-17 64-20 90 6-31 15-71 33-95 32-43 89-51 137-58"/>
    <path fill="#a8d7df" d="M360 514q-22 12-36 29c20 1 35 36 39 41-37-52-51-17-56 16 1-11 2-29 5-37l2-8c8-35 42-37 63-59 13-13 10-30 2-34l1-11 6 1c27 24-8 54-26 62m-123 0c14 9 32 19 41 29-15-2-31 19-39 38 35-44 45-19 56 19l-9-45c-8-35-41-37-61-59-14-13-11-30-3-34l-1-11-6 1c-22 28 5 52 22 62"/>
    <path fill="#87c5cf" d="M378 490c0-17-1-8 1-27 7 4 7 18-1 27m-156-2q-10-14-1-25c2 15 1 13 1 25"/>
    <path fill="#6ab4c0" d="M443 531c-1-11-24-20-34-43-7-16 0-35-30-38-2 10-3 31-3 41-15 16-38 20-53 38-16 18-23 59-23 143l4-3 4-79c9-80 39-61 69-94 13-13 10-30 2-35l1-10c26 5 18 20 26 39 11 24 31 30 33 41 2 19-10 27-21 44-18 25-22 38-24 49-27-29-27-41-46-67q-31-40-40 33c1-8 11-52 24-44 15 8 29 45 47 65q7 9 16 16c10-36 48-74 49-91 59 17 160 0 169 168-123 1-257-2-627 2 6-56 15-110 48-134q21-15 47-20 36-6 72-14c3 3 43 64 52 89 33-26 46-74 64-82 12-6 22 36 23 44-5-51-21-67-51-15-15 26-19 33-35 50-6-27-50-78-49-92 2-14 19-10 31-40 6-17 5-35 32-40l1 10c-8 5-9 21 2 33s30 19 43 29c15 11 21 23 26 65l4 81 4 2q-2-126-26-148c-14-13-38-20-50-34l-3-40c-27 3-28 20-34 35-15 40-30 29-33 45l1 5c-23 5-51 8-74 12-34 6-66 24-81 58-11 26-14 72-15 101l1 1c392 4 626-2 629-2 1-160-86-153-172-174m-65-42 1-26c5 3 8 15-1 26m-156-1c-8-11-5-21-1-24z"/>
    <path fill="#daa488" stroke="#ac5f38" stroke-width="4.5" d="M137 253c-4-7-19-28-30-25-9 3-9 15-10 23-1 11-1 30 2 37 3 8 12 22 17 28 7 6 18 28 20 30q3 6 13 8c9-1 17-9 17-13 4-23-17-69-29-88z"/>
    <path fill="#ac5f38" d="M133 298v-7l1-7c-1-6-6-18-9-24q-6-14-17-20-4-1-7 2v2l1-2c0 3-2 19-1 31q2 15 4 17v3c3 13 23 30 28 35q0 2 2 1 1-1-2-2c-4-5-24-22-26-35-4-13 11-33 14-37l5 9c-2 3-16 19-12 32 1 4 11 11 15 12l4 4q0 5 4 8l2 1 2-1v3l1 2v-6l-6-9q-3-6-3-12m-28-12c-7-20 4-39 5-42q6 3 10 9c-1 3-15 19-15 33m32 33c-3-1-2-6-3-7l-4-5-2-1c-8-18 1-26 3-28l2 6-1 7v7q0 6 3 12l6 9z"/>
    <path fill="#daa488" stroke="#ac5f38" stroke-width="4.5" d="M462 253c5-7 19-28 30-25 9 3 9 15 10 23 1 11 1 30-2 37-3 8-12 22-17 28-7 6-18 28-19 30q-4 6-13 8c-10-1-18-9-18-13-4-23 18-69 29-88z"/>
    <path fill="#ac5f38" d="m463 310-6 9v4l1 2v-5l2 1 2-1q4-3 4-8l4-4c4-1 14-8 15-12 4-13-10-29-11-32l5-9c2 4 17 24 14 37s-23 30-27 35l-1 2 2-1c4-5 24-22 27-35v-3q2-3 4-17c1-12-1-28-1-31l2 2-1-2q-2-2-6-2-12 6-17 20c-4 6-9 18-9 24v7l1 7q-1 6-4 12m16-57q4-6 10-9c1 3 12 22 5 42 0-14-13-30-15-33m-21 66 6-9 4-12-1-7v-7l1-6c2 2 11 10 3 28l-2 1-4 5c-1 1 0 6-3 7z"/>
    <path fill="#daa488" d="M432 381c-15 31-60 85-92 100-16 7-64 7-80 0-32-15-77-69-92-100-17-34-45-146-45-146q-5-23-6-47C117 86 199 4 300 3a184 184 0 0 1 177 232s-28 112-45 146"/>
    <path fill="#d29779" d="M330 6a184 184 0 0 1 136 227s-26 112-43 146c-14 30-59 82-90 97a117 117 0 0 1-66 0c-31-15-76-67-90-97-17-34-43-146-43-146q-5-23-6-47c0-88 61-161 142-180a184 184 0 0 0-147 229s28 112 45 146c15 31 61 84 92 100 8 4 28 5 39 5s33-1 41-5c31-16 77-69 92-100 17-34 45-146 45-146q5-23 6-47c0-91-66-167-153-182"/>
    <path fill="none" stroke="#ac5f38" stroke-width="4.5" d="M432 381c-15 31-60 85-92 100-16 7-64 7-80 0-32-15-77-69-92-100-17-34-45-146-45-146q-5-23-6-47C117 86 199 4 300 3a184 184 0 0 1 177 232s-28 112-45 146z"/>
    <path fill="#ac5f38" d="m301 426-12-2 1-3c5 2 18 2 24 0l1 2q-6 3-14 3m44-26a2 2 0 0 0-2-4c-35 15-86 1-87 1a2 2 0 1 0-1 4c2 1 23 7 48 7q22 1 42-8"/>
    <path fill="url(#b)" d="M62 83q0-4 12-4 12 3 13 8c-1 2-11 4-15 3-3 0-9-2-10-7" transform="scale(3)"/>
    <path fill="#3e4442" d="M241 253a18 18 0 1 1-36 0 18 18 0 0 1 36 0"/>
    <path fill="#535353" d="M212 261q3 0 1-1-3-1-4-3c0-3 4-3 0-5-5-4 3-4 3-4-3-7 1-3 3-5 6-8 1 1 5 0 1 0-3-5 0-4l2 2 3-2q4 2 3 3l4-1q0-1 0 0c3 8 10 7 2 9l1 2c8 6-6 4 1 7l-4 4q-1 4-6 4c-2-1-2 2-3 0-2-2-5 0-4-2l-2 1c-3 0 3-9 11-2 3 1-2-5 2-5v-2c-2 0 5 0 5-4h-5v-2q2-1 2-2l-2-5c-8-1-3-2-8-1 0 1-11 6-10 8 0 2 6 3 0 6 9 17-6 0 0 4"/>
    <path fill="#1b2522" d="M223 237v13l6-12-5 13 10-9-9 9 12-4-12 5 14 1h-14l12 6-12-5 9 10-10-9 5 12-6-12v13l-1-13-5 12 4-12-9 9 9-10-13 5 12-6h-13l13-1-12-5 13 4-9-9 9 9-4-13 5 12z"/>
    <path fill="#0e1613" d="m225 241-1 10 5-8-5 8 9-5-8 6 10-2-10 3 10 2-10-1 8 5-9-5 5 9-5-8 1 10-2-10-3 10 2-10-6 8 5-9-8 5 8-5-10 1 10-2-10-3 10 2-8-6 8 5-5-8 6 8-2-10 3 10z"/>
    <path d="M229 253a7 7 0 1 1-13 0 7 7 0 0 1 13 0" opacity=".9"/>
    <path fill="#fff" d="M216 266q-2 1-5-1l-1-4h5q2 3 1 5" opacity=".7"/>
    <path fill="#fff" d="M237 249q-2 3-8-2-5-5-3-9 4-1 9 3 4 6 2 8" opacity=".9"/>
    <path fill="#daa488" d="M160 249c2 33 35 71 61 67 32 0 63-24 63-67s-15-80-63-80c-35 0-61 37-61 80m25-1c-1-7 16-12 38-10 23 3 39 17 37 24-2 4-32 10-43 8-11-1-28-6-32-22"/>
    <path fill="url(#c)" d="M72 90c4 1 14-1 15-3q0-5-13-8-10 0-12 3 3-11 16-12 15 1 16 13-1 12-16 13-15-1-16-13 3 7 10 7" transform="scale(3)"/>
    <path fill="url(#d)" d="M62 83q0-4 12-4 12 3 13 8c-1 2-11 4-15 3-3 0-9-2-10-7" transform="scale(3)"/><path fill="#ac5f38" d="M186 232q20-8 42-3 11 2 21 8 9 6 15 13-6-8-14-13-10-6-22-9-22-5-42 4"/>
    <path d="m188 234 17-3 20 1c10 2 28 8 35 22q2 6 0 8c0-8-15-21-37-23-22-3-39 2-38 9 4 16 21 21 32 22 12 1 35-5 38-5a121 121 0 0 1-38 7q-28-3-36-22-3-12 7-16"/>
    <path fill="url(#e)" d="M138 83q0-4-13-4-12 3-12 8c0 2 11 4 14 3q8 0 11-7" transform="scale(3)"/>
    <path fill="#3e4442" d="M395 253a18 18 0 1 1-36 0 18 18 0 0 1 36 0"/>
    <path fill="#535353" d="M367 261q1 0 0-1l-4-3c0-3 5-3 0-5-4-4 4-4 4-4-3-7 1-3 2-5 6-8 2 1 5 0 1 0-2-5 0-4q3 1 2 2l3-2q4 2 3 3l4-1h1c2 8 9 7 1 9l1 2c9 6-6 4 2 7l-5 4q-1 4-6 4c-1-1-1 2-2 0-2-2-6 0-4-2l-3 1c-2 0 3-9 12-2 2 1-3-5 2-5v-2c-2 0 4 0 4-4h-5v-2c0-1 4-1 3-2l-3-5c-7-1-3-2-8-1 0 1-10 6-10 8 1 2 7 3 1 6 8 17-6 0 0 4"/>
    <path fill="#1b2522" d="m377 237 1 13 5-12-4 13 9-9-9 9 13-4-12 5 13 1h-13l12 6-13-5 9 10-9-9 4 12-5-12-1 13v-13l-6 12 5-12-10 9 9-10-12 5 12-6h-14l14-1-12-5 12 4-9-9 10 9-5-13 6 12z"/>
    <path fill="#0e1613" d="m380 241-2 10 6-8-5 8 8-5-8 6 10-2-10 3 10 2-10-1 8 5-8-5 5 9-6-8 2 10-3-10-2 10 1-10-5 8 5-9-9 5 8-5-10 1 10-2-10-3 10 2-8-6 9 5-5-8 5 8-1-10 2 10z"/>
    <path d="M384 253a7 7 0 1 1-14 0 7 7 0 0 1 14 0" opacity=".9"/>
    <path fill="#fff" d="M370 266q-2 1-4-1-3-3-1-4h4q3 3 1 5" opacity=".7"/>
    <path fill="#fff" d="M392 249q-3 3-8-2t-3-8 8 2 3 8" opacity=".9"/>
    <path fill="#daa488" d="M378 169c-48 0-63 36-63 80s31 67 62 67c27 4 59-34 62-67 0-43-26-80-61-80m4 101c-11 2-42-4-43-8-2-7 14-21 36-24 23-2 40 3 39 10-4 16-21 21-32 22"/>
    <path fill="url(#f)" d="M127 90c-3 1-14-1-14-3q0-5 12-8 11 0 13 3-3-11-16-12-15 1-16 13 1 12 16 13 15-1 16-13-4 7-11 7" transform="scale(3)"/>
    <path fill="url(#g)" d="M138 83q0-4-13-4-12 3-12 8c0 2 11 4 14 3q8 0 11-7" transform="scale(3)"/>
    <path fill="#ac5f38" d="M412 232q-20-8-41-3-11 3-21 8-9 6-15 13 6-8 14-13 10-6 22-9 21-5 41 4"/>
    <path d="m410 234-16-3-20 1c-10 2-28 8-35 22q-1 6 0 8c-1-8 15-21 36-23 23-3 40 2 39 9-4 16-21 21-32 22-12 1-35-5-38-5a121 121 0 0 0 38 7q28-3 35-22 4-12-7-16"/>
    <path fill="url(#h)" d="M141 114a41 41 0 1 1-82 0 41 41 0 0 1 82 0" transform="scale(3)"/>
    <path fill="url(#i)" d="M138 54a37 37 0 1 1-75 0 37 37 0 0 1 75 0" transform="scale(3)"/>
    <path fill="#2a232b" d="M163 235c20-50 110-5 111-24q1-6-6-7c-43-8-99-12-105 31M437 235c-20-50-110-5-111-24q-1-6 6-7c43-8 99-12 105 31"/>
    <path fill="#cb8b6a" d="m297 270-2 75c0 4 7 14 7 21 0 0-14-1-19-3-5-1-13-5-10-14z"/>
    <path fill="#ac5f38" d="m296 359-10-2q-4 0-3-4 0-2 4-1c4 1 9 7 9 7m9 0 9-2q5 0 4-4 0-2-5-1c-3 1-8 7-8 7"/>
    <path fill="#2a232b" d="M300 54"/>
    <path fill="#100d0d" d="M242 104q18-13 50-7c16-10 47-10 65 1l10-36-157 12z"/>
    <path fill="#2f2f2f" d="M112 256C90 175 76 82 170 13c27-19 60-24 83-24 24 0 43 5 49 8h1q14-4 33-4c39 0 93 15 129 57 27 33 53 93 21 196v2q-16-7-31-11c-27-8-50-15-65-48l-1-9c-4-24-13-80-54-98l-15-3q-14 0-29 13-11-5-20-5-27-1-53 54l-12 32c-7 24-13 41-49 60l-28 14z"/>
    <path fill="#201d1d" d="M317 56c85-15 98 156 146 170-16-36-28-71-31-119 16 56 28 81 45 97 4-75-2-119-31-173C411 3 368-7 336-7q-19 0-33 4h-1c-6-3-25-8-49-8-20 0-47 3-71 16-49 64-68 141-55 218 14-35 20-72 40-116-14 42-12 72-24 108 54-35 36-80 73-126 17-23 72-26 76 3l2-2c3-14 6-31 23-34"/>
    <path fill="#100d0d" d="m173 146 11-44c20-80 91-62 104-44l1 2-1-1c-11-13-66-28-92 25-11 22-10 34-23 62m29-114 7-5c29-20 56-22 85-14q-7-4-25-7C163-2 144 116 136 141c17-34 24-76 66-109m183 33c-25-30-54-42-92-24 85-30 117 82 132 110-10-25-11-51-40-86m-99-28C320 9 418-3 464 139l3 9C436-20 317 6 286 37"/>
    <path fill="#3e3e3e" d="M445 221c-25-11-42-24-48-52-8-34-25-113-88-98 58-20 84 43 94 97 5 25 18 38 42 53m-228-95 3-7c15-31 29-47 62-36-33-15-53 4-68 34-34 69-6 55-68 109 61-41 44-38 71-100m264-22c6 39 7 60-1 120 15-56 11-83 1-120m-364 40c1-26 7-60 25-83-42 43-35 137-23 171-4-18-4-68-2-88"/>
    <path fill="#010101" d="M302-4c-12-7-85-19-133 16-92 68-82 158-58 246 13-7 32-15 47-24 51-27 42-51 62-92 24-52 42-58 72-45q23-23 43-14c47 22 51 99 54 106 20 47 58 43 98 61v-3C557 27 372-26 302-4m191 183c-2 28-8 64-8 67-34-19-68-15-89-61-12-93-66-135-104-93-26-13-43-6-60 15-42 52-20 88-78 122l-41 24C99 184 78 78 187 10 247-21 293-3 298-3c13 3 17 5 30 10q-15-8-21-9c87-12 200 43 186 181"/>
    <path fill="#26120b" d="M300 54"/>
    <defs>
        <radialGradient id="h" cx="100" cy="114" r="41" class="svga-on-canvas-facehighlight-gradient-single-0" gradientUnits="userSpaceOnUse">
            <stop offset="0" stop-color="#e9bfa9" stop-opacity=".5"/>
            <stop offset=".9" stop-color="#daa488" stop-opacity="0"/>
        </radialGradient>
        <radialGradient id="i" cx="100" cy="54" r="37" class="svga-on-canvas-facehighlight-gradient-single-1" gradientUnits="userSpaceOnUse">
            <stop offset="0" stop-color="#e9bfa9" stop-opacity=".5"/>
            <stop offset=".9" stop-color="#daa488" stop-opacity="0"/>
        </radialGradient>
        <radialGradient id="b" cx="129" cy="83.9" r="15.1" class="svga-on-canvas-eyesback-gradient-left-0" gradientTransform="matrix(-1 0 0 1 193 -12)" gradientUnits="userSpaceOnUse">
            <stop offset="0" stop-color="#fff"/>
            <stop offset=".3" stop-color="#fcfdfd"/>
            <stop offset=".5" stop-color="#f4f7f8"/>
            <stop offset=".7" stop-color="#e5ecef"/>
            <stop offset=".8" stop-color="#d8e2e7"/>
        </radialGradient>
        <radialGradient id="e" cx="128.6" cy="84" r="15.1" class="svga-on-canvas-eyesback-gradient-right-0" gradientTransform="rotate(6 123 62)" gradientUnits="userSpaceOnUse">
            <stop offset="0" stop-color="#fff"/>
            <stop offset=".3" stop-color="#fcfdfd"/>
            <stop offset=".5" stop-color="#f4f7f8"/>
            <stop offset=".7" stop-color="#e5ecef"/>
            <stop offset=".8" stop-color="#d8e2e7"/>
        </radialGradient>
        <radialGradient id="c" cx="122" cy="82.5" r="16" class="svga-on-canvas-eyesfront-gradient-left-3" fx="133.2" fy="82.5" gradientTransform="matrix(1 0 0 -1 -45 146)" gradientUnits="userSpaceOnUse">
            <stop offset="0" stop-color="#cb8b6a"/>
            <stop offset=".7" stop-color="#cb8b6a" stop-opacity=".3"/>
            <stop offset="1" stop-color="#daa488" stop-opacity="0"/>
        </radialGradient>
        <radialGradient id="d" cx="68.9" cy="106" r="29.5" class="svga-on-canvas-eyesfront-gradient-left-4" gradientTransform="translate(-2 1)" gradientUnits="userSpaceOnUse">
            <stop offset=".9" stop-opacity="0"/>
            <stop offset="1" stop-opacity=".2"/>
        </radialGradient>
        <radialGradient id="f" cx="121.6" cy="82.5" r="16" class="svga-on-canvas-eyesfront-gradient-right-3" fx="132.8" fy="82.5" gradientTransform="rotate(179 122 74)" gradientUnits="userSpaceOnUse">
            <stop offset="0" stop-color="#cb8b6a"/>
            <stop offset=".7" stop-color="#cb8b6a" stop-opacity=".3"/>
            <stop offset="1" stop-color="#daa488" stop-opacity="0"/>
        </radialGradient>
        <radialGradient id="g" cx="69.3" cy="106" r="29.5" class="svga-on-canvas-eyesfront-gradient-right-4" gradientTransform="matrix(-1 0 0 1 202 1)" gradientUnits="userSpaceOnUse">
            <stop offset=".9" stop-opacity="0"/>
            <stop offset="1" stop-opacity=".2"/>
        </radialGradient>
        <linearGradient id="a" x1="100" x2="100" y1="171" y2="128" class="svga-on-canvas-chinshadow-gradient-single-0" gradientUnits="userSpaceOnUse">
            <stop offset="0" stop-color="#cb8b6a" stop-opacity=".8"/>
            <stop offset=".7" stop-color="#ac5f38"/>
            </linearGradient>
    </defs>
</svg>