<svg xmlns="http://www.w3.org/2000/svg" width="600" height="600" viewBox="0 0 600 600" style="overflow:hidden!important">
    <g id="svga-group-wrapper" transform="scale(3)">
    <g id="svga-group-backs-single">
        <path id="SvgjsPath3221" fill="#000" stroke="none" stroke-width="none" d="M225 225H-25V-25h250z" opacity="1"/>
    </g>
    <g id="svga-group-subwrapper">
    <g id="svga-group-hair-back">
        <path id="SvgjsPath3152" fill="#0c080c" stroke="none" stroke-width="none" d="M160 25H40s-1 193.28-1 199h123z" opacity="1"/>
    </g>
    <g id="svga-group-humanbody-single">
        <path id="SvgjsPath2761" fill="#f3d4cf" stroke="none" stroke-width="none" d="M190.86 199.87c-6.01-10.16-13.48-11.98-19.63-13.94-6.32-2.02-19.35-3.18-26.45-4.6-6.86-1.37-23.15-5.79-23.34-13.49-.19-8.06 4.3-40.09 4.3-40.09H74s4.48 32.03 4.29 40.1c-.19 7.7-16.48 12.1-23.34 13.48-7.1 1.42-20.13 2.58-26.45 4.6-6.16 1.96-13.62 3.78-19.63 13.94C5.23 206.03 2.87 216 2.87 227h194c0-11-2.36-20.97-6.01-27.13" opacity="1"/>
        <path id="SvgjsPath2762" fill="#fff4f3" stroke="none" stroke-width="none" d="M121.44 167.84c2.5 10.93 18.17 13.7 26.3 15.33 21.9 4.38 33.77 5.13 42.3 19.54 2.9 4.91 5.45 15.86 5.95 24.15 1.84.3.53-17.43-5.13-27-9.74-16.47-29.1-15.13-46.08-18.53-6.86-1.37-23.15-5.79-23.34-13.49m-42.88 0c-.19 7.7-16.48 12.12-23.34 13.5-16.99 3.4-36.34 2.05-46.08 18.53-5.66 9.56-6.97 27.28-5.13 26.99.5-8.29 3.06-19.24 5.96-24.15 8.52-14.4 20.39-15.16 42.3-19.54 8.12-1.63 23.8-4.4 26.29-15.33" opacity="1"/>
        <path id="SvgjsPath2763" fill="#e4b3ab" stroke="none" stroke-width="none" d="M51.2 189.51s28.65.3 33.48 1.89c2.31.76 8.37 5.63 8.37 5.63s-6.55-3.17-8.66-3.76c-4.88-1.36-33.18-3.76-33.18-3.76M99.8 200c2.05-.04 7.88-3.8 7.88-3.8s-5.57 2.06-7.34 2.16c-1.5.09-6.37-1.24-6.37-1.24s4.14 2.91 5.83 2.88m17.2-7.24c6.76-1.82 29.8-3.23 29.8-3.23s-23.8-.52-30.52 1.72c-2.25.75-7.56 5.16-7.56 5.16s6.07-3.06 8.29-3.65" opacity="1"/><path id="SvgjsPath2764" fill="none" stroke="#c5796d" stroke-width="1.5" d="M190.86 199.87c-9.74-16.47-29.12-15.15-46.08-18.54-6.86-1.37-23.15-5.79-23.34-13.49-.19-8.06 4.3-40.09 4.3-40.09H74s4.48 32.03 4.29 40.1c-.19 7.7-16.48 12.1-23.34 13.48-7.1 1.42-20.13 2.59-26.45 4.6-6.16 1.96-13.62 3.78-19.63 13.94C5.23 206.03 2.87 216 2.87 227h194c0-11-2.36-20.97-6.01-27.13z" opacity="1"/>
    </g>
    <g id="svga-group-chinshadow-single">
        <path id="SvgjsPath3228" fill="url(#SvgjsLinearGradient3229)" d="M100.02 171.27c5.6 0 13.53-3.63 20.97-8.48.48-6.84 1.75-17.34 2.76-25.1-13.98-1.82-33.83-1.78-47.74.1.99 7.7 2.24 18.07 2.73 24.88 7.54 4.92 15.6 8.6 21.28 8.6" opacity="1"/>
    </g>
    <g id="svga-group-clothes-single" stroke-width="none">
        <path id="SvgjsPath3215" fill="#92002a" d="M1.21 226.81a123 123 0 0 1 .17-7.69c1.3-24.2 9.4-29.32 42.49-39.11 15.99-4.74 20.45-6.27 26.14-18.36 1.62-3.43 3.01-6.4 6.01-7.45 15.3 8.43 28.48 8.16 47.42 1.15 3.51.49 4.6 4.97 5.41 8.21 5.26 20.02 37.6 15.5 52.15 23.76 15.09 7.44 15.78 32.33 15.63 39.78v.05c-19.62.83-170.95 1.24-195.42-.34" opacity="1"/><path id="SvgjsPath3216" fill="#830026" d="M176.79 216.73c.84-10.27 1.1-18.32 4.15-27.83-4.42 14.75 1.48 26.35-7.26 34.42 1.1-2.64 2.84-3.32 3.1-6.6M24 203c-1.6-3.94-3.67-7.4-4.44-13.6-.28.13-.4-.63-.67-.5 1.11 11.1 4.74 15.72 5.84 31.83-.17-5.77.8-13.97-.73-17.73m97.46-46.73c-.58.15-1.16.78-1.75.9 8.18 7.48 2.81 10.3 14.77 23.43.33-.17 1.42-.77 2.72-1.53-7.88-4.46-9.65-15.53-15.74-22.8M126 180c.45 1.34 1.1 2.48 1.86 3.6q-.68.28-1.37.53c-2.36-3.08-4.63-6.14-6.14-12.5-1.56-6.55-.88-5.58-5.94-12.75.32-.04.95-.4 1.45-.49 4.78 6.63 6.75 13.98 10.14 21.61m7.72 1q-.72.38-1.46.73c-6.71-7-9.36-15.66-13.83-23.79.3-.06.9-.82 1.19-.88 3.96 4.22 3.95 6.31 5.15 10.07 1.57 4.7 5.83 10.76 8.95 13.88m-22.5-20.97c3.58 9.25 5.93 16.57 6.59 26.38l-1.41.25c-.65-5.13-1.5-10.47-1.74-11.7-1-4.9-2.78-11.48-4.4-14.81q.48-.07.95-.12m14.4 24.4-1.68.51c-5.89-7.32-5.78-16.89-10.4-26.2.17-.03.46-.05.64-.07 5.14 8.7 3.5 6.2 5.83 15.03 1.22 4.61 3.74 8.76 5.6 10.73m-10.11 2.35q-.56.09-1.12.14c-1.34-9.81-1.88-17.54-5.44-26.65l.75-.07c3.22 7.92 4.53 19.15 5.8 26.59m-24.43-26.42c-3.27 8.98-3.96 15.99-4.58 25.46l-1.11-.2c.28-8.05 1.4-18.06 4.9-25.33zm-15.7 22.53-1.25-.45c5.05-6.23 7.37-16.51 7.99-24.52l1 .22c.23 9.45-3.2 16.7-7.73 24.75m14.4-22.64c-4 7.14-5.3 17.07-5.13 25.23l-.93-.2c-.34-9.57.85-17.06 5.1-25.26.33.04.64.2.96.22M66.17 179l-1.58-.77a25 25 0 0 0 7.56-7.97c1.72-2.93 5.61-11.63 6.4-14.44l.83.28c-2.07 9.02-6.47 17.24-13.21 22.9m7.34 3.2q-.83-.34-1.66-.69c4.74-7.65 6.89-16.21 7.85-25.31.62.2 1.23 1.4 1.85 1.56-1.42 8.74-2.92 17.1-8.04 24.44m4.72-26.5a44 44 0 0 1-2.45 5.3c-2.17 4.39-4.35 11.6-11.83 16.89l-1.62-.86c6.9-5.7 10.48-14.13 14.15-21.9.57.2 1.15.33 1.75.57" opacity="1"/>
        <path id="SvgjsPath3217" fill="#a1103a" d="m60.17 177.15-1.93-1.29c-16.8 6.54-42.12 8.88-52 25.13-3.72 6.11-4.9 15-4.9 26 2.02-5.48.75-14.43 6.63-23.28 11.43-17.23 31.8-15.39 52.2-26.56m129.86 26.56c5.07 9.34 4.61 17.8 6.64 23.29 0-11-2.28-19.36-4.91-26.02-7.49-18.93-33.2-16.79-50-23.32l-1.93 1.29c20.4 11.17 38.37 2.95 50.2 24.76" opacity="1"/><path id="SvgjsPath3218" fill="#64001d" d="M181.05 187.23c-14.5-8.23-46.88-3.8-52.1-23.7-.65-2.54-1.7-7.76-5.53-8.28-.19.03-.76-.13-.76-.13-15.08 5.88-30.85 7.63-46.67-1.01-7.11 2.49-5.17 15.24-18.61 21.22-5.86 2.65-13.6 4.4-24.6 7.98C7 191.7 2.32 199.89 1.28 219.1c-.07 1.42-.27 6.87-.16 7.8 27.12 1.76 181.43.96 195.6.34v-.15c.3-14.43-2.9-33.58-15.67-39.87m-57.25-31.4c7.2 2.4-.83 13.45 15.84 21.79-2.2 1.35-4.63 2.71-5.16 2.98-11.96-13.13-6.44-15.05-14.17-23.13 1.43-.64 2.15-1.23 3.49-1.65m-3.88 1.73c3.96 4.22 3.65 5.81 4.85 9.57 1.57 4.7 5.83 10.76 8.95 13.88a54 54 0 0 1-7.23 3.12c-2.36-3.08-4.4-6.17-6.04-12.5-1.44-5.57-.94-6.01-5.74-12.65 1-.14 3.63-1.1 5.2-1.42m-5.64 1.5c5.14 8.71 3.4 5.8 5.73 14.63 1.22 4.62 3.74 8.77 5.6 10.73-3 1-6.1 1.75-9.21 2.23a358 358 0 0 0-1.64-11.69c-1-5.45-2.88-11.48-4.5-14.82 1.28-.12 2.75-.89 4.02-1.08m-4.58 1.15c3.22 7.91 4.53 19.14 5.8 26.58-2.93.41-6.05.57-8.97.57 0-.03-1.9-15.81-2.64-26.17 2.03-.3 4.16-.53 5.8-.98m-6.31 1c.05 11.68.95 14.71 2.4 26.15q-5.22.01-10.45-.45c2.36-19.6 3.55-25.63 3.55-25.63 1.84 0 3.51-.03 4.5-.07m-5.12.07c-2.78 15.35-3.25 19.07-3.58 25.57a92 92 0 0 1-9.3-1.23c.28-8.05 1.4-18.06 4.9-25.33 2.65.28 5.32.98 7.98 1m-8.5-1.03c-4 7.14-5.29 17.07-5.12 25.23a62 62 0 0 1-10.52-3.04c5.06-6.23 7.37-16.52 7.99-24.53 2.52.62 5.19 1.79 7.66 2.34m-8.22-2.48c-1.42 8.74-2.92 17.1-8.04 24.43a96 96 0 0 1-8.92-3.97 25 25 0 0 0 7.56-7.97c1.72-2.93 5.51-11.42 6.3-14.24.99.38 2.1 1.48 3.1 1.75m-5.76-2.97c.77.47 1.49.76 2.34 1.1a40 40 0 0 1-2.35 5.12c-2.17 4.37-4.35 11.6-11.83 16.88a82 82 0 0 1-4.12-2.25c11.58-6.25 9.62-17.97 15.96-20.85M1.56 226.65c.13-4 .89-16.32 3.59-22.4 2.73-6.15 8-10.4 13.88-13.52-.4 9.42 4.18 10.58 4.5 21.85.09 3.4.56 6.75 1.13 10.11q-.39-5.28-.35-10.57c.06-10.24-4.58-12.02-4.58-21.77 7.43-3.79 15.97-6.22 24.4-8.76 4.95-1.48 9.95-3.03 14.57-5.36 13.18 8.69 25.45 13.28 47.35 13.15 15.87 0 25.12-4.1 34.9-11.11 13.15 6.07 30.13 5.28 39.46 10.9-1.66 4.93-2.8 7.5-3.1 10.19-.72 6.32.35 10.81-.56 16.62-.53 3.37-3.12 5.85-3.82 9.16 2.03-6.2 5.7-3.93 5.26-18.55-.26-8.25.48-8.46 2.78-17.07 11.48 7.2 14.44 24.11 15.09 37.58-33.24-.22-181.4-.16-194.5-.44" opacity="1"/>
    </g>
    <g id="svga-group-head">
    <g id="svga-group-ears-left">
    <path id="SvgjsPath2774" fill="#f3d4cf" stroke="#c5796d" stroke-width="1.5" d="M47 83.97c-1.38-2.3-5.64-8-9.98-6.6-2.75.88-3.3 3.77-3.73 6.31-.6 3.39.47 10.09 1.39 12.5.88 2.33 3.53 6.82 5.26 8.53 2.13 2.1 4.77 8.8 5.2 9.49.65 1.1 1.53 2.74 4.12 2.54 2.85-.23 4.58-1.74 5.85-2 3.14-.63-4.53-24.74-8.1-30.77z" opacity="1"/><path id="SvgjsPath2775" fill="#c5796d" stroke="none" stroke-width="none" d="M44.2 98c-.14-.55 0-1.47.14-2.37.12-.8.24-1.57.17-2.12-.27-2.03-1.77-5.89-2.76-7.98-1.13-2.4-2.96-5.44-5.26-6.22a1.7 1.7 0 0 0-1.94.45c-.26.3-.32.63-.24.67s.29-.24.58-.5c.23-.22.57-.4 1.05-.37-.2 1.02-1.17 6.5-.75 10.23.34 2.94 1.6 5.13 1.8 5.46q.03.51.14 1.01c.93 4.29 4.97 9.17 6.38 10.76.26.3.53.47.6.4s-.1-.37-.36-.66c-1.38-1.59-5.39-6.44-6.29-10.58-.95-4.39 2.32-10.9 3.05-12.27a25 25 0 0 1 1.55 3.18c-.43.72-3.43 5.96-2.34 10.15a7.8 7.8 0 0 0 3.45 4.09c.67.3.92.75 1.2 1.27.35.6.73 1.29 1.84 1.78q.34.14.6.14c.32 0 .56-.12.73-.27.02.26.02.6.01.91-.01.4.04.74.14.75.1 0 .2-.31.2-.72.02-.5.02-1.1-.07-1.4-.24-.87-1-1.84-1.81-2.88-.79-1.01-1.6-2.07-1.81-2.91m-7.25-3.8c-2.18-6.74.66-12.54 1.14-13.47.85.78 1.6 1.81 2.21 2.83-.44.8-3.26 6.1-3.35 10.64m9.4 9.84c-1.01-.45-1.35-1.05-1.68-1.63-.29-.53-.6-1.07-1.36-1.42q-.26-.13-.55-.32c-2.48-5.91.28-8.5.97-9.02q.32 1.1.44 1.91c.06.5-.06 1.27-.17 2.02a8 8 0 0 0-.14 2.5c.23.93 1.07 2.02 1.89 3.07a11 11 0 0 1 1.72 2.67c-.11.15-.45.53-1.13.22" opacity="1"/></g><g id="svga-group-ears-right"><path id="SvgjsPath2776" fill="#f3d4cf" stroke="#c5796d" stroke-width="1.5" d="M152.74 83.97c1.37-2.3 5.63-8 9.98-6.6 2.75.88 3.29 3.77 3.73 6.31.59 3.39-.47 10.09-1.39 12.5-.88 2.33-3.53 6.82-5.26 8.53-2.13 2.1-4.78 8.8-5.2 9.49-.65 1.1-1.53 2.74-4.12 2.54-2.85-.23-4.58-1.74-5.85-2-3.15-.63 4.53-24.74 8.1-30.77z" opacity="1"/><path id="SvgjsPath2777" fill="#c5796d" stroke="none" stroke-width="none" d="M153.73 100.91c-.8 1.04-1.57 2.01-1.82 2.88-.08.3-.08.9-.07 1.4.01.4.12.73.2.72s.16-.34.15-.75v-.91c.18.15.42.27.73.27q.27 0 .61-.14c1.1-.5 1.5-1.18 1.83-1.78.29-.52.54-.97 1.2-1.28a7.8 7.8 0 0 0 3.45-4.08c1.1-4.2-1.9-9.44-2.33-10.15q.33-.79.62-1.4c.24-.52.55-1.14.93-1.78.73 1.37 4 7.88 3.04 12.27-.9 4.13-4.9 9-6.28 10.58-.26.3-.42.58-.36.66.07.07.34-.1.6-.4 1.4-1.6 5.45-6.47 6.38-10.76q.1-.5.15-1.01a15 15 0 0 0 1.79-5.46c.42-3.74-.56-9.22-.75-10.23.48-.04.82.15 1.05.37.3.26.49.54.58.5s.02-.38-.24-.67c-.36-.4-.99-.78-1.94-.45-2.3.78-4.13 3.81-5.26 6.22-.99 2.09-2.5 5.95-2.76 7.98-.07.54.05 1.31.17 2.12.14.9.27 1.82.14 2.37-.2.84-1.02 1.9-1.81 2.91m5.7-17.35a13 13 0 0 1 2.21-2.83c.5.93 3.33 6.73 1.15 13.47-.1-4.53-2.91-9.84-3.36-10.64m-7.16 20.26c.25-.79 1-1.74 1.72-2.67.82-1.05 1.66-2.14 1.89-3.06.14-.62 0-1.58-.14-2.51a9 9 0 0 1-.17-2.01q.11-.83.44-1.92c.7.53 3.45 3.11.97 9.02q-.3.2-.55.32c-.77.35-1.07.9-1.37 1.42-.32.58-.66 1.19-1.66 1.63-.68.3-1.02-.07-1.13-.22" opacity="1"/></g><g id="svga-group-faceshape-wrap"><g id="svga-group-faceshape-single"><path id="SvgjsPath3225" fill="#f3d4cf" stroke-width="none" d="M158.79 76.76zc-.01.05-10.72 44.37-18.92 56.95-6.45 9.9-28.17 25.54-39.84 25.56s-33.44-15.56-39.92-25.43C51.86 121.28 41.02 77 41 76.94c-1.3-4.9-1.99-10.06-2-15.38C38.95 28.1 66.16.92 99.77.86 133.4.82 160.7 27.9 160.74 61.38c0 5.32-.67 10.48-1.96 15.4" opacity="1"/><path id="SvgjsPath3226" fill="#ebc3bd" stroke-width="none" d="M125.77 6.62a60.55 60.55 0 0 1 30.03 68.86c-.01.05-10.85 44.34-19.1 56.9-5.94 9.05-24.55 25.11-36.83 25.11s-30.89-16.06-36.83-25.12c-8.25-12.55-19.09-56.84-19.1-56.89A60.55 60.55 0 0 1 73.97 6.62 60.6 60.6 0 0 0 41 76.95c.02.05 10.86 44.33 19.1 56.89 4.42 6.72 15.92 16.1 26.5 21.38l-1.6-.72c5.41 2.88 10.67 4.76 14.72 4.77h.3c4.05 0 9.3-1.9 14.71-4.77q-.8.38-1.6.72c10.58-5.29 22.09-14.66 26.5-21.38 8.25-12.56 19.1-56.84 19.1-56.9a60.57 60.57 0 0 0-32.97-70.32" opacity="1"/><path id="SvgjsPath3227" fill="none" stroke="#c5796d" stroke-width="1.5" d="M158.79 76.76h-.01c-.01.05-10.72 44.37-18.92 56.95-6.45 9.9-28.17 25.54-39.84 25.56s-33.44-15.56-39.92-25.43C51.86 121.28 41.02 77 41 76.94c-1.3-4.9-1.99-10.06-2-15.38C38.95 28.1 66.16.92 99.77.86 133.4.82 160.7 27.9 160.74 61.38c0 5.32-.67 10.48-1.96 15.4z" opacity="1"/></g></g><g id="svga-group-mouth-single"><path id="SvgjsPath3240" fill="url(#SvgjsLinearGradient3241)" d="M100 141.25c-4.16 0-5.13-3.4-5.13-3.4 5.5 2.11 10.27-.15 10.27-.15s-1.48 3.55-5.14 3.55" opacity="1"/><path id="SvgjsPath3244" fill="#f771a9" stroke="#e85391" stroke-width=".75" d="M86.8 131.94c2.76-.95 6.98-2.7 9.17-2.79 1.13-.05 2.35.87 3.57 1.17.85.2 3.27-1.16 4.13-1.17 2.27-.02 7.06 1.84 9.5 2.79.14.05 0 0 0 0s-5.78 6.95-13.18 6.95c-8.37 0-13.19-6.95-13.19-6.95s-.13.05 0 0z" opacity="1"/><path id="SvgjsPath3245" fill="#c92066" stroke-width="none" d="M113.54 131.74c-.05-.17-.48-.37-.65-.36-.31.01-.67.4-1.32.4-.74.02-4.67.62-5.73.55-2.13-.15-3.83.66-5.85.66s-3.87-.88-6-.74c-1.05.08-4.84-.44-5.59-.46-.64-.02-.89-.41-1.16-.47-.2-.03-.66.17-.76.34-.08.15.1.67.21.8.28.3 1.14.24 1.7.25.77.02 4.57.54 5.65.47 2.08-.14 3.93.82 5.95.82s3.73-.89 5.8-.75c1.08.07 5.02-.52 5.8-.54.56-.01 1.36-.06 1.65-.3.14-.1.35-.5.3-.67" opacity="1"/><path id="SvgjsPath3246" fill="#ff8ebd" stroke-width="none" d="M99.99 137.35c-3.37 0-6.65-1.15-9.24-3.3 1.3-.08 2.65-.28 3.96-.22 1.61.07 3.14.7 4.76.81 1.74.12 3.35-.49 5.06-.7 1.42-.16 3.66-.67 5.09-.62-2.55 1.96-6.38 4.03-9.63 4.03m4.57-5.61c1.32-.04 3.42-.53 4.73-.44-1.4-.76-3.66-.94-5.25-1.25-1.36-.26-2.73.8-4.08.97-1.51.2-2.65-1.24-4.12-1.29-1.59.02-3.23 1-4.63 1.65 1.28-.03 2.6-.17 3.89 0 1.56.2 3.06.81 4.65.86 1.62.06 3.19-.46 4.81-.5" opacity="1"/><path id="SvgjsPath3247" fill="#ffa8cc" stroke-width="none" d="M99.94 136.4c-2.03 0-4-.7-5.7-2a12 12 0 0 1 1.48-.06c.6.03 1.2.2 1.84.4.62.17 1.26.36 1.93.41l.4.02c.81 0 1.59-.2 2.34-.4q.7-.2 1.4-.31.37-.06.83-.06l.82.03a9 9 0 0 1-5.34 1.97" opacity="1"/></g><g id="svga-group-eyes-left"><g id="svga-group-eyesback-left"><path id="SvgjsPath2968" fill="url(#SvgjsRadialGradient2969)" d="M60.63 83.96c1.23-1.18 9.1-2.68 13.63-2.08 7.19.95 13 7.29 13 7.29s-4.83 3.08-13.6 3.56c-5.79.31-11.6-3.42-13.03-8.77" opacity="1"/></g><g id="svga-group-eyesiriswrapper-left" transform="translate(-1 .25)"><g id="svga-group-eyesiriscontrol-left"><g id="svga-group-eyesiris-left"><path id="SvgjsPath3086" fill="#3e4442" stroke="#0e1613" stroke-width=".5" d="M83.2 89.25a8.5 8.5 0 0 1-10.43 5.94 8.48 8.48 0 1 1 4.46-16.39 8.5 8.5 0 0 1 5.97 10.45z" opacity="1"/>
    <path id="SvgjsPath3087" fill="#535353" stroke-width="none" d="M81.88 89.35a6.95 6.95 0 0 1-8.36 4.54 7 7 0 0 1-5.05-7.33c1.21-.1 2.54-.12 3.9-.06q-.01.08-.04.14a3.1 3.1 0 0 0 2.25 3.73c1.69.46 3.4-.47 3.84-2.06q.08-.31.09-.62 1.73.62 3.37 1.66" opacity="1"/><path id="SvgjsPath3088" fill="#000" stroke-width="none" d="M76.15 84.46a3.1 3.1 0 0 0-3.88 2.19 3.3 3.3 0 0 0 2.29 3.94 3.1 3.1 0 0 0 3.88-2.18 3.3 3.3 0 0 0-2.29-3.95m.37 6c-.7.22-1.44-.07-1.63-.65-.2-.59.23-1.23.94-1.45s1.44.07 1.64.65-.23 1.23-.95 1.45" opacity=".9"/><path id="SvgjsPath3089" fill="#fff" stroke-width="none" d="M70.48 91.48c-.52.31-1.3.03-1.75-.64-.45-.66-.38-1.45.14-1.76s1.31-.03 1.76.63.38 1.45-.15 1.77" opacity=".6"/><path id="SvgjsPath3090" fill="#fff" stroke-width="none" d="M81.67 86.63c-1.2.72-3 .07-4.02-1.44-1.02-1.52-.86-3.33.34-4.05s3-.07 4.01 1.44c1.02 1.52.87 3.33-.33 4.05" opacity=".9"/></g></g></g><g id="svga-group-eyesfront-left"><path id="SvgjsPath2993" fill="#f3d4cf" stroke="none" stroke-width="none" d="M55.33 88c0 13.8 8.06 25 18 25s18-11.2 18-25-8.06-25-18-25-18 11.2-18 25m5.3-4.04c1.23-1.18 9.1-2.68 13.63-2.08 7.19.95 13 7.29 13 7.29s-4.83 3.08-13.6 3.56c-5.79.31-11.6-3.42-13.03-8.77" opacity="1"/><path id="SvgjsPath2994" fill="url(#SvgjsRadialGradient2995)" d="M74.18 96.6c9.41 2.22 18.45-1.62 20.2-8.57 1.73-6.96-4.48-14.4-13.9-16.62s-18.45 1.6-20.2 8.56c-1.73 6.96 4.48 14.4 13.9 16.62M60.63 83.95c1.23-1.18 9.1-2.68 13.63-2.08 7.19.95 13 7.29 13 7.29s-4.83 3.08-13.6 3.56c-5.79.31-11.6-3.42-13.03-8.77" opacity="1"/><path id="SvgjsPath2999" fill="url(#SvgjsRadialGradient3000)" d="M60.63 83.96c1.23-1.18 9.1-2.68 13.63-2.08 7.19.95 13 7.29 13 7.29s-4.83 3.08-13.6 3.56c-5.79.31-11.6-3.42-13.03-8.77" opacity="1"/>
    <path id="SvgjsPath3003" fill="#c5796d" stroke="none" stroke-width="none" d="M87.43 83.66c-6.5-4.25-4.05-3.1-16.23-6.7 3.35.5 9.57 2.06 11.71 3.31 1.16.66 3.52 2.51 4.52 3.39" opacity="1"/><path id="SvgjsPath3004" fill="#1b1929" stroke="none" stroke-width="none" d="M55.34 82.98s2.08 1.3 3.71 1.3c.13.77 2.24 4.27 5.88 6.35 5.49 3.15 11.9 2.18 18.01.64 3-.74 2.81-1.52 7.77-2.07-3.9-1.57-3.48-2.5-8.89-5.42 2.47.47 5.78 2.32 5.78 2.32-1.23-1.46-9.91-6.8-23.82-7.51 0 0 4.65 1.09 6.4 1.77-8.05 1.1-10.24-.12-10.67-.44.36.3 1.19 1.24 3 1.85-1.88.15-5.3-.86-5.3-.86s.86.82 2.62 1.96c-1.5.72-4.49.1-4.49.1m5.3 1.1c1.22-1.14 9.08-2.59 13.62-2 7.19.9 13 7.02 13 7.02s-4.83 2.97-13.6 3.43c-5.79.3-11.6-3.3-13.03-8.46" opacity="1"/></g></g><g id="svga-group-eyes-right"><g id="svga-group-eyesback-right"><path id="SvgjsPath2976" fill="url(#SvgjsRadialGradient2977)" d="M139.37 83.96c-1.23-1.18-9.1-2.68-13.63-2.08-7.19.95-13 7.29-13 7.29s4.83 3.08 13.6 3.56c5.79.31 11.6-3.42 13.03-8.77" opacity="1"/></g><g id="svga-group-eyesiriswrapper-right" transform="translate(1 .25)"><g id="svga-group-eyesiriscontrol-right"><g id="svga-group-eyesiris-right"><path id="SvgjsPath3091" fill="#3e4442" stroke="#0e1613" stroke-width=".5" d="M133.2 89.25a8.5 8.5 0 0 1-10.43 5.94 8.48 8.48 0 1 1 4.46-16.39 8.5 8.5 0 0 1 5.97 10.45z" opacity="1"/><path id="SvgjsPath3092" fill="#535353" stroke-width="none" d="M131.88 89.35a6.95 6.95 0 0 1-8.36 4.54 7 7 0 0 1-5.05-7.33q1.83-.15 3.9-.06-.01.08-.04.14a3.1 3.1 0 0 0 2.25 3.73c1.69.46 3.4-.47 3.84-2.06q.08-.31.09-.62 1.73.62 3.37 1.66" opacity="1"/><path id="SvgjsPath3093" fill="#000" stroke-width="none" d="M126.15 84.46a3.1 3.1 0 0 0-3.88 2.19 3.3 3.3 0 0 0 2.29 3.94 3.1 3.1 0 0 0 3.88-2.18 3.3 3.3 0 0 0-2.29-3.95m.37 6c-.7.22-1.44-.07-1.63-.65-.2-.59.23-1.23.94-1.45s1.44.07 1.64.65-.23 1.23-.95 1.45" opacity=".9"/><path id="SvgjsPath3094" fill="#fff" stroke-width="none" d="M120.48 91.48c-.52.31-1.3.03-1.75-.64-.45-.66-.38-1.45.14-1.76s1.31-.03 1.76.63.38 1.45-.15 1.77" opacity=".6"/><path id="SvgjsPath3095" fill="#fff" stroke-width="none" d="M131.67 86.63c-1.2.72-3 .07-4.02-1.44-1.02-1.52-.86-3.33.34-4.05s3-.07 4.01 1.44c1.02 1.52.87 3.33-.33 4.05" opacity=".9"/></g></g></g><g id="svga-group-eyesfront-right"><path id="SvgjsPath3014" fill="#f3d4cf" stroke="none" stroke-width="none" d="M126.67 63c-9.94 0-18 11.2-18 25s8.06 25 18 25 18-11.2 18-25-8.06-25-18-25m-.32 29.73c-8.78-.48-13.61-3.56-13.61-3.56s5.82-6.34 13-7.29c4.54-.6 12.4.9 13.63 2.08-1.43 5.35-7.24 9.08-13.02 8.77" opacity="1"/><path id="SvgjsPath3015" fill="url(#SvgjsRadialGradient3016)" d="M139.71 79.97c-1.74-6.95-10.78-10.79-20.2-8.56-9.4 2.22-15.62 9.66-13.89 16.62 1.75 6.95 10.79 10.79 20.2 8.56s15.63-9.66 13.9-16.62m-13.36 12.76c-8.78-.48-13.61-3.56-13.61-3.56s5.82-6.34 13-7.29c4.54-.6 12.4.9 13.63 2.08-1.43 5.35-7.24 9.08-13.02 8.77" opacity="1"/><path id="SvgjsPath3020" fill="url(#SvgjsRadialGradient3021)" d="M139.37 83.96c-1.23-1.18-9.1-2.68-13.63-2.08-7.19.95-13 7.29-13 7.29s4.83 3.08 13.6 3.56c5.79.31 11.6-3.42 13.03-8.77" opacity="1"/><path id="SvgjsPath3024" fill="#c5796d" stroke="none" stroke-width="none" d="M112.57 83.66c6.5-4.25 4.05-3.1 16.23-6.7-3.35.5-9.58 2.06-11.71 3.31-1.16.66-3.52 2.51-4.52 3.39" opacity="1"/><path id="SvgjsPath3025" fill="#1b1929" stroke="none" stroke-width="none" d="M140.17 82.87c1.76-1.14 2.63-1.96 2.63-1.96s-3.44 1-5.31.86c1.81-.6 2.64-1.55 3-1.85-.43.32-2.62 1.53-10.67.44 1.75-.69 6.4-1.77 6.4-1.77-13.9.7-22.59 6.05-23.83 7.5 0 0 3.32-1.84 5.79-2.31-5.4 2.93-5 3.85-8.9 5.42 4.97.55 4.78 1.33 7.78 2.07 6.11 1.54 12.52 2.51 18.01-.64 3.63-2.09 5.75-5.58 5.88-6.34 1.62 0 3.7-1.31 3.7-1.31s-2.97.61-4.48-.1m-13.82 9.66c-8.78-.46-13.61-3.43-13.61-3.43s5.82-6.11 13-7.03c4.54-.58 12.4.87 13.63 2-1.43 5.17-7.24 8.77-13.02 8.46" opacity="1"/></g></g><g id="svga-group-facehighlight-single"><path id="SvgjsPath2753" fill="url(#SvgjsRadialGradient2754)" d="M140.2 113a40.33 40.33 0 1 1-80.66.14 40.33 40.33 0 0 1 80.66-.13" opacity="1"/><path id="SvgjsPath2757" fill="url(#SvgjsRadialGradient2758)" d="M135 56a35 35 0 1 1-70 0 35 35 0 0 1 70 0" opacity="1"/></g><g id="svga-group-eyebrows-left"><path id="SvgjsPath3102" fill="#2a232b" stroke-width="none" d="M74.8 69.07c-4.43-.48-21.25 3.71-21.25 3.71s16.79-6.74 23.75-5.67c5.2.8 14.4 5.08 12.71 7.34-1.36 1.83-5.6-4.35-15.21-5.38" opacity="1"/></g><g id="svga-group-eyebrows-right"><path id="SvgjsPath3103" fill="#2a232b" stroke-width="none" d="M109.73 74.19c-1.71-2.3 7.6-6.31 13.55-6.8 7.11-.6 22.91 4.08 22.91 4.08s-15.9-2.63-20.38-2.1c-9.81 1.14-14.7 6.66-16.08 4.82" opacity="1"/></g><g id="svga-group-nose-single" stroke="none" stroke-width="none"><path id="SvgjsPath2890" fill="#e4b3ab" d="M92.28 116.24c-.74 2.06 5.03 4.28 7.22 4.42 2.37.15 9.02-2.9 7.9-4.99-1.19-2.2-5.63-.29-7.55-.29-1.91 0-6.57-1.9-7.57.86" opacity="1"/><path id="SvgjsPath2891" fill="#c5796d" d="M102.2 117.22c-.24-.52 1.2-1.33 1.75-1.5.78-.22 2.51.25 2.44.84-.06.52-1.6-.17-2.1-.02-.52.15-1.86 1.17-2.08.68m-6.99-.48c.71 0 1.76.46 1.95.06.23-.48-1.56-1.07-2.09-1-.43.05-1.99.96-1.77 1.34.2.35.98-.4 1.91-.4" opacity="1"/><path id="SvgjsPath2892" fill="#fff" d="M99.86 113.48c.67 0 1.8-.64 1.98-1.9.75-5.58-.53-20.25-1.98-20.25-1.37 0-2.51 15.03-2.16 20.25.09 1.28 1.4 1.9 2.16 1.9" opacity=".2"/></g><g id="svga-group-hair-front" stroke="none" stroke-width="none"><path id="SvgjsPath3154" fill="#2a232b" d="M44.48 18.79v192.7h39.64c-.99-7.9-2.35-15.12-3.83-18.9-7.74-19.64-34.67-24.75-29.98-50.6l.19-.03c5.16 11.27 7.6 17.79 19.62 19.78-16.7-13.65-13.48-26.34-11.15-42.46 1.36-9.4-1.61-16.77-3.58-24.33 2.33-6.98 3.57-13.57 4.83-21.1 11.25-67.23 61.58-64.2 76-20.89 9.12 27.4 1.49 36.1 12.74 53.31.54 12.01 3.04 24.95-11.38 41.93a56 56 0 0 1-12 10.24c15.05-1.33 23.31-15.72 28.3-29.98l.19.06c-6.6 55.46-31.8 30.36-34.35 82.97h41.15V18.79z" opacity=".1"/>
    <path id="SvgjsPath3155" fill="#0c080c" d="M84.24 24.51s13.5 2.75 15.44 8.4c-9.84-.45-14.14-3.68-28.02 1.72 3.22-5.56 12.58-10.12 12.58-10.12m32.11-.68s-14.88-.6-16.67 9.08c9.84-.45 15.86-4.84 29.83 1.46-1.92-5.54-13.16-10.53-13.16-10.53" opacity="1"/><path id="SvgjsPath3156" fill="#2a232b" d="M171.33 103.16C183.8 18.34 142.9-14.72 104.74-5.33 62.7-15.57 30.58 5.91 25.66 64.4c-.89 20.54 1.35 36.04 1.7 39.73a57 57 0 0 0-5.33 18.63 80 80 0 0 1-6.69 5.2c1.22-.16 3.04-.38 6.45-1.38-.8 22.78 10.5 26.85 9.8 45.72-.66 12.74-.7 13.82 1.77 22.17 6.55 22.11-3.54 20.23-.85 47.58 31.1-1.34 46.5 4.05 119.53-.47 1.62-.1 12.44-.8 16.53-.56-16.24-55.79 11.28-50.91 2.58-79.35-7.79-25.5 13.53-33.99.19-58.5m-50.98 129.33c.31 3.85.85 8.56 1.04 9.65-14.03.06-13.94-.43-36.43-.22.4-13.06 1.52-40.58-1.77-48.97-8.07-20.48-33.71-27.08-35.09-49.86l.2-.04c5.38 11.76 9.68 16.5 22.21 18.58-17.4-14.23-13.83-25.25-13.38-42.23.26-9.9-1.68-17.48-3.74-25.36 2.44-7.28 3.74-14.16 5.04-22 5.3-31.99 23.31-56.51 41.03-39.24l.23-.32.2.3c15.17-16.92 29.8-2.73 37.78 17.48 11.08 27.99 1.55 37.62 13.28 55.58.56 12.53 1.2 25.36-13.83 43.07-3.3 3.89-7.36 7-11.67 9.73 15.68-1.4 25.43-14.8 30.63-29.66l.2.06c-15.19 57.92-43.47 15.02-35.93 103.45" opacity="1"/><path id="SvgjsPath3157" fill="#1b141c" d="M168.56 241.01c-4.09-.24-14.91.46-16.53.56-7.6.47-14.55.83-20.98 1.1.63-18.6-6.24-38.09 2.55-55.67 4.41-9.62 18.4-19 21.4-31a99 99 0 0 0 2.43-12.94c3.44 21.68-17.1 41.78-12.3 63.68 4.27-14.53 12.42-38.9 17.55-49.1-.56 16.1-1.81 20.57-1.29 30.67 4.13-9.1 7.53-16.68 5.59-38.5 0 0 2.6 6.72 4.16 11.85 8.7 28.44-18.82 23.57-2.58 79.35m-6.82-88.77c14.18-34.1-4.98-37.24-10.55-59.29-5.98-23.7-6-65.46-27.19-69.95-10.77-2.28-19.33 1.04-24.93 9.43l.4.37.22-.32.2.3c15.17-16.91 29.8-2.73 37.78 17.48 11.08 28 1.55 37.63 13.28 55.58 2.67 23.65-7.07 41.16-25.5 52.8 15.26-7.07 28.2-18.51 30.17-46.75l.4.2c5.45 7.13 8.93 28.64 5.72 40.15M154.4 45c1.83 21.55 4.02 42.92 16.98 58.27l-.06-.11c.18-1.21.6-4.45.76-5.64C166.31 90.68 160.71 78.76 159 66c-2.14-15.98.07-34.47-15.9-46 7.75 6.7 11.3 16 11.3 25M69 18C44 33 50.15 61.47 44.15 84c-3.2 11.97-11.55 22.79-20.65 30.74a59 59 0 0 0-1.38 7.28C60.3 97.47 45.24 48.48 61.2 30.67c11.57-12.92 25.38-17.77 38.49 1.81C96.42 16.71 79 13 69 18m13.26 7.4c-7.14 1.46-14.76 9.23-18.93 16.34-6.46 11.05-7.48 28.27-12.65 46.72-4.4 15.7-14 30.57-33.68 39.25 26.76-5.69 35.42-30.75 36.4-33.67 2.43-7.28 3.73-14.15 5.03-22 5.26-31.75 23.05-56.14 40.64-39.6-5.65-5.93-8.94-8.65-16.81-7.04M68.73 161.3l1.78.33c-17.4-14.23-14.13-25.25-13.68-42.23.25-9.56-1.65-17.36-3.63-24.95q-.79 2.09-1.71 4.07c9.08 23.06-9.77 44.3 17.24 62.78m77.97.33c9.17-9.35 13.17-29.97 11.37-43.49-.82 4.01-1.47 8.08-2.42 12.06q.22-.6.43-1.22l.2.06c-15.19 57.92-43.47 15.02-35.93 103.45.31 3.85.85 8.56 1.04 9.65-14.03.06-13.95-.43-36.44-.21.4-13.07 1.52-40.6-1.77-48.98-7.75-19.68-44.05-31.32-33.37-62.63-9.7 13.1-4.6 24.13 1.67 31.3 35.12 44.06 24.86 49.01 26.46 81.05 11.18.34 30.1.53 48.26-.1-4.66-62.83 1.13-61.2 20.5-80.94M39.18 142c-1.38-4.84 8.59-15.7 5.37-30.73-.66 10.15-5.91 17.93-8.55 26.72-4 33.88 27.29 39.38 14 74 0-13-2.67-19.44-7.67-31.44 0 16 6.67 26.44-1.33 42.44 0 0 2.76-11.76.26-17.42-8.38-25.3-1.82-35.3-8.26-51.58-2.84-7.69-8.25-14.15-10.88-27.93.68 19.74 10.6 29.43 9.96 46.22-.66 12.74-1.2 13.82 1.27 22.17 6.55 22.11-3.54 20.23-.85 47.58 12.22-.52 22.02-.01 33.85.53 2.26-24.4 5.03-40.45-7.67-60.17-6.87-10.68-21.23-21.7-19.5-40.39M45 38c-4.15 20.74-5.56 42.86-18.48 58.36.37 3.8.71 6.49.84 7.76l-.19.41C51.2 67.57 41.1 47.74 50 28c2-5 6.23-8.57 11-14-8.09 6.83-14 13-16 24m121.62 64.84C155.16 84.08 155.7 61.64 148 38c-4.5-13.85-24.45-39.65-48.5-6.17 11.15-14.4 23.64-15 31.3-10.43 6.2 3.7 10.54 10.15 13.54 17.15 7.07 18.13 5.76 34.78 13.76 52.78 5 12 12.05 22.15 12.41 32.83-.33 4.58-3.2 15.69-4.7 19.25.49-1.37 6.28-12.16 6.28-18.4 0-6.87-1.62-15.88-5.47-22.17M71.52 9.66c3.3-2.75 25.5-5.42 29.75 11.06C98.3 4.86 78.93 5.07 71.52 9.66m63.9-1.08c3.5 2.64 2.09 1.45-.5-.51-13.7-8.52-27.51-1.5-33.31 12.36 8.04-17.04 25.16-18.41 33.82-11.85m12.35 7.18C129.86-9.3 106.3-.53 100.6 13.44c7.46-15.59 31.38-18.8 47.16 2.32M47.12 21.91C45.04 26.42 51.85 6.4 75.2 1.79 83.57.1 94.59.91 99.96 8 91.36-4.5 59.98-4.1 47.12 21.92m87.6-9.05c1.24.86 2.13 1.63 2.07 1.58-.17-.11-1.06-1.06-2.61-2.1-11.55-7.67-29.75 1.13-33.9 15.09 4.82-13.68 23.36-21.92 34.44-14.57m-69.33 2.7c-3.44 2.89 4.38-2.27 6.73-2.83 8.25-2.13 24.02-.53 28.82 11.98-4.51-13.78-23.81-17.58-35.55-9.14" opacity="1"/><path id="SvgjsPath3158" fill="#3a353a" d="M54.29 8.4c-6.07 5.79-8.25 8.12-12.74 15.9-11.58 18.35-12.08 71.18-11.43 51.35.88-28.9 3.1-48.72 24.17-67.26M40.17 46.28c-1.2 10.81 2.13-9.66 3.97-14.11C51.08 15.8 71.72-1.98 91.04 6.8c3.8 1.73 6.47 3.73 7.69 4.55-26.8-20.54-55.13 3.7-58.55 34.93m99.86-34.93c4.6 4.55 8.29 8.72 8.24 8.67-3.86-3.54-21.24-34.35-47.08-3.22 12.17-13.39 25.63-17.82 38.84-5.45m-48.76 6.76c5.95 4.16 11.46 11.68 10.7 10.68-.24-.3-1.6-2.2-3.73-4.8C75.56-3.6 50 28.84 47.74 53c3.7-24.36 25.54-47.29 43.53-34.89m57.18 17c.91 2.42 1.39 3.92 1.3 3.62-.11-.29-.6-2.13-1.52-4.7-7.78-22.26-29.12-27.15-48.28-4.23 19.55-21.36 39.41-17.53 48.5 5.3m22.28 54.07c0-.4.22-2.76.27-6.18.46-22.1-4.53-58.26-22.22-71.9 22.98 20.2 21.85 79.33 21.95 78.08m-10.14 20.46 1.7 2.12c-6.98-12-4.54 1.48-14.99-43.76 3.9 20.03 3.51 29.42 13.3 41.64m-120.37.56c-3.7 3.78-2.04 2.24.7-.54C55.23 92.1 52.18 85.15 56.03 63.72c-3.1 14.15-3.5 33.75-15.82 46.48m40-85.26 2.14-.64c-4.02 1.41-20.33 4.07-24.18 27.2 3.39-14.76 11.98-23.39 22.04-26.56m63.23 22.1c2.78 8.48-1.83-8.35-4.67-13.6-5.34-10.28-12.5-12.03-23.16-11.64 17.4-.78 22.24 8.92 27.83 25.24M34.27 152.3c2.07 11.3 11.41 25.64 15.08 38.07 1.8 5.94 1.88 6.2-.1-1.3C38 153.64 27.52 149.54 39 119.68c0 0-8.82 16.86-4.74 32.61m114.51 36.98c-.38 2.62-.6 4.2-.55 3.9 9-39.15 13.99-26.6 11.76-65.94.02 43.98-5 24.74-11.2 62.04M46.04 133.5c-8.8 20.71 5.36 28.95 22.5 53 3.9 6.43 2.6 4.26 1.66 2.5-11.5-21.46-31.1-34.2-23.91-53.68 2.38-6.43 3.98-9.33 3.18-22.33.14 8.98-.24 13-3.43 20.5m6.39-13.9c-.1 12.74-6.55 21.74 6.85 35.3 4.08 3.18-2.93-3.35-4.05-5.36-2.19-3.88-3.82-8.57-3.37-13.06.68-13.9 1.3-1.39.91-30-.36 10.31-.04 3.55-.34 13.11m90.24 27.7c-1.67 2.15-4.7 4.31-5.6 6.15-.22.38.54-.86 1.74-1.98 17.56-16.85 13.72-27.8 17-34.76-3.34 7.08-.87 14.4-13.14 30.59m-16.14 40.24c-2.76 11.25-1.06 15.19-1.06 15.19-.19-1-.33-1.58-.33-3.37 2.06-31.34 25.25-25.99 31.6-60.15-5.58 27.87-24.85 27.83-30.21 48.33" opacity="1"/><path id="SvgjsPath3159" fill="#000" d="M171.43 103.14C183.5 17.3 142.48-14.82 104.78-5.43c-63.63-15.2-85.2 40.7-77.51 109.5a57 57 0 0 0-5.31 18.6 79 79 0 0 1-7.03 5.44c2.28-.26 4.5-.74 6.75-1.4-.45 12.98 3.4 20.92 6.94 29.32 6.3 14.88.15 21.27 3.39 34.07 1.24 4.85 3.11 9.63 3.55 14.64.95 10.76-5.55 16.42-3.15 37.4h.23c24.7-.97 13.03-.17 29.72.44 62.1 2.4 88.9-1.47 106.34-1.47-12.26-39.76-.3-49.43 3.61-63.05 3.34-11.65-3.54-17.89-3.11-27.43 1.08-19.5 13.04-26.38 2.23-47.5M69.58 161.27c-11.59-2.08-16.38-8.37-21.42-19.07-.29-5.82 1.92-12.1 2.96-17.87 1.04-5.75.4-10.9-.7-22.72a69 69 0 0 0 2.95-7.24c1.57 6.54 3 13.15 3.04 19.83.05 14.62-6.33 33.73 13.17 47.07M21.7 126.23q-2.57.8-5.23 1.27C58.3 100.29 48.2 60.4 55.54 41.73c7.24-18.44 27.63-34 44.1-9.15l-.16.23c-17.36-18.33-36.1 8.93-40.73 31.36-4.49 21.87-6.91 51.45-35.12 61.4 0 0-1.93.64-1.93.66m10.92 115.62c-.54-9.45-.85-11.33.73-18.64 1.28-5.96 3.59-12.12 3.23-18.27-.4-6.4-3.11-12.39-3.9-18.74-.74-6.14.5-12.3.54-18.46.08-12.2-10.17-20.93-9.61-41.63a43.5 43.5 0 0 0 20.94-14.84c.92 21.25-5.57 19.93-6.48 31.84-1.51 20.06 22.17 35.67 27.74 56.1 1.94 7.06 2.03 35.2 1.99 42.55-25.3-.44-9.48-1.48-35.18.1m35.38-.08c1.76-47.61-.21-49.13-16.54-70.6-22.6-29.6-7.55-34.7-6.54-50.26.2-3.27 0-6.56-.21-9.84a53 53 0 0 0 5.5-9.05c.8 13.27.94 13.42.84 15.92-.63 17.15-14.78 28.27 12.29 53.85 21.94 20.76 20.97 18.67 21.5 70.03q-8.42.09-16.84-.05m17.06.05c.35-11.35 1.57-40.35-1.78-48.9-8.07-20.5-33.7-27.1-35.08-49.83.32 1 3.4 7.8 6.93 11.44 4.47 4.63 9.44 6.32 15.75 7.25-17.93-13.08-14.03-28.1-13.65-42.38.26-9.84-1.64-17.33-3.74-25.39 4.29-12.4 4.9-24.4 7.4-33.84C66.6 38.62 83.22 16.3 99.48 32.95c0-.01.2-.28.2-.3l.2.3c13.4-16.83 29.14-4.3 37.7 17.34 11.03 27.89 1.58 37.69 13.29 55.6.49 11.8 1.4 25.01-13.83 42.95a51 51 0 0 1-12 9.92c15.66-.84 25.94-14.89 31.14-29.75-15.52 57.92-43.44 15.32-35.93 103.48.34 4.2.9 8.8 1.02 9.55-11.48.08-9.49-.32-36.21-.22m78.33-94.34c7.73-35.55-14.47-31.23-17.31-59.6-1-10.4-.63-29-12.86-48.64-8.76-14.11-21.64-20.47-33.27-6.5l-.14-.24c15.77-21.4 42.41-19.53 49.34 26.27 4.38 29.03 5.44 27.16 15.17 47.38 4.36 8.98 10.31 20.75-.93 41.33m-12.06-40.88c2.06 3.08 4.32 6 6.52 9.05 0 16.35-13.22 39.91-30.75 42.47a42 42 0 0 0 7.09-5.25c15.81-15.04 18.5-28.26 17.14-46.27m16.6 50.1c1.3 5.5 3.7 10.57 3.74 16.32-1.43 16.42-17.6 23.62-3.31 67.66-9.83-.52-19.66.54-37.14 1.15-.46-25.17-2.18-31.86-.95-42.59 2.85-25.06 24.01-23.1 27.16-56.19-4.02 34.87-28.5 30.38-29.03 61.11-.04 2 2.4 37.36 2.43 37.69-2.77.09-6.6.2-9.37.2-7.99-81.77 13.7-65.91 27.89-91.11 4.94-8.75 8.7-22.56 8.76-34.92 8.2 11.65 7.68 17.53 4.77 32.81 5.38-8.49 9.79-22.53 6.5-32.88-1.09-4.39-4.79-11.86-6.24-14.88-10.84-22.43-8.97-23.64-13-45.33-7.4-40.29-33.27-47.16-50.4-23.33-17.54-27.95-45.34-8.2-49.07 25.4-1.36 12.35-.26 38.47-26.65 63.02 1.9-14.99 8.73-22.37 13.75-34.22 12.65-29.73 1.81-50.49 18.65-67.33C38.12 37.5 51 59.41 34.1 91.48c-1.94 3.67-4.1 7.24-6 10.93-5.86-64.17 16.38-121 75.59-107.02 40.78-10.33 64.18 25.44 67.6 67.79 1.47 18.2-.25 34.59-.54 38.77-2.87-4.9-6.31-9.48-8.34-14.82-11.88-31.33-1.56-52.06-19.32-67.28 18.12 16.35 6.48 41.9 19.79 71.61 2.61 4.9 5.8 9.4 8.16 14.36 9.59 20.23-7.6 31.8-3.1 50.88" opacity="1"/></g><g id="svga-group-glasses-single" stroke-width="none" transform="translate(0 5)"><path id="SvgjsPath3222" fill="#fff" d="M144.81 91.54A19 19 0 0 1 127 104c-10.48 0-19-8.52-19-19 0-3.42.92-6.62 2.51-9.4 17.51-1.54 27.86 3.37 34.3 15.94M56.51 75.6A19 19 0 0 0 54 85c0 10.48 8.52 19 19 19a19 19 0 0 0 17.81-12.46c-6.44-12.57-16.79-17.48-34.3-15.94" opacity=".2"/>
    <path id="SvgjsPath3223" fill="#fff" d="M110.51 75.6A18.99 18.99 0 0 1 146 85c0 2.3-.43 4.5-1.19 6.54-6.44-12.57-16.79-17.48-34.3-15.94m-19.7 15.94A19 19 0 0 0 92 85a19 19 0 0 0-35.49-9.4c17.51-1.54 27.86 3.37 34.3 15.94" opacity=".4"/><path id="SvgjsPath3224" fill="#26120b" d="m156.69 79.96-9.77 3.44a19.99 19.99 0 0 0-39.33-3.14l-.02-.02c-1.69-1.69-4.97-2.51-7.57-2.51s-5.88.83-7.57 2.51l-.02.02a19.98 19.98 0 0 0-39.33 3.14l-9.77-3.44v2.88l9.76 3.43A19.99 19.99 0 0 0 93 85q-.01-.47-.05-.93h.03c0-2.39 3.6-4.68 7.02-4.68s7.02 2.3 7.02 4.68h.03q-.04.47-.05.93a20 20 0 0 0 39.94 1.28l9.76-3.43zM73 103.5a18.5 18.5 0 1 1 0-37 18.5 18.5 0 0 1 0 37m54 0a18.5 18.5 0 1 1 0-37 18.5 18.5 0 0 1 0 37" opacity="1"/></g></g></g></g>
    <defs id="SvgjsDefs1001">
        <radialGradient id="SvgjsRadialGradient2754" cx="100" cy="113" r="40" class="svga-on-canvas-facehighlight-gradient-single-0" gradientUnits="userSpaceOnUse"><stop id="SvgjsStop2755" offset="0" stop-color="#fff4f3" stop-opacity=".5"/><stop id="SvgjsStop2756" offset=".9" stop-color="#f3d4cf" stop-opacity="0"/></radialGradient><radialGradient id="SvgjsRadialGradient2758" cx="100" cy="57" r="36" class="svga-on-canvas-facehighlight-gradient-single-1" gradientUnits="userSpaceOnUse"><stop id="SvgjsStop2759" offset="0" stop-color="#fff4f3" stop-opacity=".5"/><stop id="SvgjsStop2760" offset=".9" stop-color="#f3d4cf" stop-opacity="0"/></radialGradient><radialGradient id="SvgjsRadialGradient2969" cx="126.4" cy="87.57" r="15.18" class="svga-on-canvas-eyesback-gradient-left-0" gradientTransform="rotate(177 92.3 -.89)scale(.92 -1)" gradientUnits="userSpaceOnUse"><stop id="SvgjsStop2970" offset="0" stop-color="#fff" stop-opacity="1"/><stop id="SvgjsStop2971" offset=".54" stop-color="#fdfefe" stop-opacity="1"/><stop id="SvgjsStop2972" offset=".74" stop-color="#f6f8f9" stop-opacity="1"/><stop id="SvgjsStop2973" offset=".88" stop-color="#eaeff2" stop-opacity="1"/><stop id="SvgjsStop2974" offset=".99" stop-color="#d9e3e8" stop-opacity="1"/><stop id="SvgjsStop2975" offset="1" stop-color="#d8e2e7" stop-opacity="1"/></radialGradient><radialGradient id="SvgjsRadialGradient2977" cx="126.4" cy="87.57" r="15.18" class="svga-on-canvas-eyesback-gradient-right-0" gradientTransform="matrix(.91 .05 -.05 1 15.57 -6.6)" gradientUnits="userSpaceOnUse"><stop id="SvgjsStop2978" offset="0" stop-color="#fff" stop-opacity="1"/><stop id="SvgjsStop2979" offset=".54" stop-color="#fdfefe" stop-opacity="1"/><stop id="SvgjsStop2980" offset=".74" stop-color="#f6f8f9" stop-opacity="1"/><stop id="SvgjsStop2981" offset=".88" stop-color="#eaeff2" stop-opacity="1"/><stop id="SvgjsStop2982" offset=".99" stop-color="#d9e3e8" stop-opacity="1"/><stop id="SvgjsStop2983" offset="1" stop-color="#d8e2e7" stop-opacity="1"/></radialGradient><radialGradient id="SvgjsRadialGradient2995" cx="122.58" cy="83.48" r="16.91" class="svga-on-canvas-eyesfront-gradient-left-3" fx="136.23" fy="83.11" gradientTransform="matrix(.99 .14 .1 -.76 -52.99 129.69)" gradientUnits="userSpaceOnUse"><stop id="SvgjsStop2996" offset="0" stop-color="#e4b3ab" stop-opacity="1"/><stop id="SvgjsStop2997" offset=".7" stop-color="#e4b3ab" stop-opacity=".3"/><stop id="SvgjsStop2998" offset="1" stop-color="#f3d4cf" stop-opacity="0"/></radialGradient><radialGradient id="SvgjsRadialGradient3000" cx="70.24" cy="108.08" r="29.51" class="svga-on-canvas-eyesfront-gradient-left-4" gradientTransform="translate(-1.94 1.88)scale(1.03)" gradientUnits="userSpaceOnUse"><stop id="SvgjsStop3001" offset=".95" stop-color="#000" stop-opacity="0"/><stop id="SvgjsStop3002" offset="1" stop-color="#000" stop-opacity=".3"/></radialGradient><radialGradient id="SvgjsRadialGradient3016" cx="122.58" cy="83.48" r="16.91" class="svga-on-canvas-eyesfront-gradient-right-3" fx="136.23" fy="83.11" gradientTransform="rotate(171.89 121.9 73.81)scale(1 .77)" gradientUnits="userSpaceOnUse"><stop id="SvgjsStop3017" offset="0" stop-color="#e4b3ab" stop-opacity="1"/><stop id="SvgjsStop3018" offset=".7" stop-color="#e4b3ab" stop-opacity=".3"/><stop id="SvgjsStop3019" offset="1" stop-color="#f3d4cf" stop-opacity="0"/></radialGradient><radialGradient id="SvgjsRadialGradient3021" cx="70.24" cy="108.08" r="29.51" class="svga-on-canvas-eyesfront-gradient-right-4" gradientTransform="matrix(-1.03 0 0 1.03 201.94 1.88)" gradientUnits="userSpaceOnUse"><stop id="SvgjsStop3022" offset=".95" stop-color="#000" stop-opacity="0"/><stop id="SvgjsStop3023" offset="1" stop-color="#000" stop-opacity=".3"/></radialGradient><linearGradient id="SvgjsLinearGradient3229" x1="99.98" x2="99.98" y1="171.27" y2="136.35" class="svga-on-canvas-chinshadow-gradient-single-0" gradientUnits="userSpaceOnUse"><stop id="SvgjsStop3230" offset="0" stop-color="#e4b3ab" stop-opacity=".8"/><stop id="SvgjsStop3231" offset=".7" stop-color="#c5796d" stop-opacity="1"/></linearGradient><linearGradient id="SvgjsLinearGradient3241" x1="100" x2="100" y1="141" y2="138" class="svga-on-canvas-mouth-gradient-single-0" gradientUnits="userSpaceOnUse"><stop id="SvgjsStop3242" offset=".1" stop-color="#ebc3bd" stop-opacity="1"/><stop id="SvgjsStop3243" offset="1" stop-color="#e4b3ab" stop-opacity="1"/></linearGradient>
    </defs>
</svg>
