<svg xmlns="http://www.w3.org/2000/svg" width="600" height="600" viewBox= "0 0 600 600" style="overflow:hidden!important">
    <g id="svga-group-wrapper" transform="scale(3)"><g id="svga-group-backs-single"><path id="SvgjsPath3929" fill="#000" stroke-width="none" d="M225 225H-25V-25h250z" opacity="1"/></g><g id="svga-group-subwrapper"><g id="svga-group-hair-back" stroke="none" stroke-width="none"><path id="SvgjsPath3846" fill="#5c3d2e" d="M38.06 105.87c-4.53-10.71-3.86-15.14-2.66-23.5-2.07 2.24-3.32 5.26-6.7 8.05.25-2 4.26-13.63 4.58-14.49-3.85 3.5-5.97 4.25-7.81 4.97 1.24-1.85 2.06-4 3.9-7.93H40.9A73 73 0 0 0 43.2 87.2c-.66.43-2.4 3.17-5.15 18.68M158.9 74.6c-.05 3.84-1.34 11.03-2.9 15.87.8.54 1.74 1.17 1.53 1 5.95 4.79 6.9 5.61 7.52 13.4 4.32-9.34.65-21.31.43-30.27zm6.6 0h4.43a22 22 0 0 1-3.42 6.63c-.56-2.16-.86-5.24-1.02-6.63" opacity="1"/><path id="SvgjsPath3847" fill="#3d2012" d="M34.21 74.64c-3.4 8.93-3.6 11.16-5.4 15.54 2.85-2.35 4.99-6.99 6.9-8.22-.33 3.02-1.9 9.12-.15 15.8q1 3.79 2.51 7.37c.26-3.56.8-13.93 4.08-17.08a61 61 0 0 0-3.55 19.8c-6.4-11.17-4.94-17.3-3.43-25.1-2.34 2.68-3 6.02-7.49 8.74 1.53-3.23 2.02-7.07 5.2-14.94a16 16 0 0 1-7.92 4.72c1.32-2.19 2.48-4.95 3.5-7.2h1.08c-1 2.16-2.03 4.33-3.29 6.2 2.63-1.02 5.15-2.94 7.96-5.63m121.8 15.83c.2.15 1.67 1.15 2.32 1.73 2.74 2.4 6.27 4.59 6.02 15.28 4.55-7.85 3.96-19.47 2.54-25.8a19 19 0 0 0 4.08-7.09h-1.2a19 19 0 0 1-3.15 6.18 45 45 0 0 1-1.02-5.97l-.1-.2c.21 8.96 3.1 19.59-.25 29.52-.6-7.79-2.4-9.2-9.25-13.65" opacity="1"/></g><g id="svga-group-humanbody-single"><path id="SvgjsPath2893" fill="#f0c7b1" stroke="none" stroke-width="none" d="M195.42 199.78c-2.2-4.75-8.2-11.78-14.86-13.72-8.24-2.4-26.84-5.31-33.74-6.93-5.52-1.3-16.66-11.3-20.56-14.65a4.2 4.2 0 0 1-1.29-2.76c-.14-10.86 4.2-39.72 4.2-39.72H70.83s4.34 28.86 4.2 39.72a4.2 4.2 0 0 1-1.29 2.76c-3.9 3.36-15.03 13.36-20.56 14.65-6.9 1.62-25.5 4.62-33.74 7.02-6.66 1.95-12.66 8.88-14.86 13.63-3.7 8-4.58 22.5-4.58 35h200c0-12.5-.88-27-4.58-35" opacity="1"/><path id="SvgjsPath2894" fill="#ffe4d6" stroke="none" stroke-width="none" d="M159.16 184.06c24.34 3.54 34.58 8.7 37.79 50.72H200c0-12.5-.88-27-4.58-35-2.2-4.75-8.2-11.78-14.86-13.72-8.24-2.4-26.84-5.31-33.74-6.93-5.52-1.3-18.24-12.07-21.64-16.35 3.36 4.7 12.8 15.6 21.06 18.46 3.95 1.37 7.24 2 12.92 2.82m-105.4-2.82c8.27-2.85 17.7-13.75 21.06-18.46-3.4 4.28-16.11 15.06-21.64 16.35-6.9 1.62-25.5 4.62-33.74 7.03-6.66 1.94-12.66 8.87-14.86 13.62-3.7 8-4.58 22.5-4.58 35h3.05c3.19-41.75 13.48-47.19 37.8-50.72 5.67-.83 8.96-1.45 12.92-2.82" opacity="1"/><path id="SvgjsPath2895" fill="#e1ac8f" stroke="none" stroke-width="none" d="M95.65 197.62s-5.08-1.6-7.09-2.38c-10.45-4-44.4-6.6-44.4-6.6s35.76 1.41 43.65 2.77c-.46-4.76-3.02-20-3.02-20s5.15 16.81 6.41 21.06c.68 2.26 4.45 5.15 4.45 5.15m10.8-1.34q-.15.11-.3.27zm-10.8 1.34s2.89 3 4.34 3.03c1.91.05 4.83-2.9 6.15-4.1-1.26.95-4.16 1.39-5.3 1.43-1.34.05-5.2-.36-5.2-.36m21.01-7.52c-1.54.25-4.38.79-4.38.79l2.29-14.89c-.65 3.07-4.48 16.21-8.12 20.28 1.9-1.62 6.15-2.4 8.32-2.7 10.24-1.49 10.23-1.49 41.06-4.95 0 0-29.07-.15-39.17 1.47" opacity="1"/><path id="SvgjsPath2896" fill="none" stroke="#c27b55" stroke-width="1.5" d="M195.42 199.78c-2.2-4.75-8.2-11.78-14.86-13.72-8.24-2.4-26.84-5.31-33.74-6.93-5.52-1.3-16.66-11.3-20.56-14.65a4.2 4.2 0 0 1-1.29-2.76c-.14-10.86 4.2-39.72 4.2-39.72H70.83s4.34 28.86 4.2 39.72a4.2 4.2 0 0 1-1.29 2.76c-3.9 3.36-15.03 13.36-20.56 14.65-6.9 1.62-25.5 4.62-33.74 7.02-6.66 1.95-12.66 8.88-14.86 13.63-3.7 8-4.58 22.5-4.58 35h200c0-12.5-.88-27-4.58-35z" opacity="1"/></g><g id="svga-group-chinshadow-single"><path id="SvgjsPath3714" fill="url(#SvgjsLinearGradient3715)" d="M75.6 162.78c7.13 5.3 15.5 9.09 24.4 9.09s17.27-3.79 24.4-9.08q-.16-.54-.18-1.06c-.09-6.86 1.56-20.6 2.82-30.02-15.65-1.97-38.43-1.97-54.08 0 1.26 9.42 2.9 23.16 2.82 30.02q0 .5-.18 1.05" opacity="1"/></g><g id="svga-group-clothes-single" stroke-width="none"><path id="SvgjsPath3904" fill="#386e77" d="M111.8 235.89c-19.13 0-41.45-.08-68.23-.23l-23.68-.13c-14.3-.08-15.14-.1-16.88-.1l-4.9.01c-4.57-41.87 14.4-52.87 43.76-56.7 7.79-1.1 15.45-3.1 21.46-6.98 16.33 22.25 64.81 17.57 73.1-.62 1.4.53 2.54 1.21 3.98 1.73a33.7 33.7 0 0 0 17.63 6.2c26 1.44 44.42 13 44.05 54.64v1.49c-12.52 0-17.22.12-27.04.26-13.33.19-29.93.43-63.23.43z" opacity="1"/><path id="SvgjsPath3905" fill="#4d7e86" d="M201.06 234.64c-.41-7.38-4.07-28.06-10.36-37.54-12.49-18.8-42.26-12.2-49.14-19.7-4.98 10.16-24.97 16.6-31.6 17.55 19.19-6.36 27.25-10.96 30.43-21.87 6.4 8.33 41.07 1.97 54.72 24.33 4 6.54 7.79 27.38 5.94 37.23M55.8 177.63c1.36-.32 2.04-1.25 3.38-1.62l-1.42-1.89c-9.05 7.05-42.91 2.65-54.52 24.04-3.66 6.74-6.13 22.79-4.2 36.44.54-8.39.8-26.32 7.1-35.8 11.32-17.06 31.97-12.55 47.62-19.78 6.98 8.6 17.89 12.83 28.98 14.58-13.92-3.63-21.9-9.76-26.94-15.97" opacity="1"/><path id="SvgjsPath3906" fill="#265e68" d="M135.31 173.24c-5.53 11.52-47.35 24.93-70.93.88-1.47.62-5.85 2.11-5.85 2.11 17.17 23.4 67.5 23.54 80.9-.1-.05-.03-2.76-2.2-4.12-2.89" opacity="1"/><path id="SvgjsPath3907" fill="#0c4049" d="M136.38 171c-9.41 18.82-58.4 21.49-73.01.63-5.34 1.58-10.47 4.95-15.64 5.79-30.92 4.6-53.78 6.92-49.73 58.13 9.94 0-6.61-.06 45.57.22 123.6.7 119.56-.46 158.6-.46.04-.14.02-1.46.03-1.6 2.1-56.44-30.85-53.1-53.12-57-3.15-.71-6.07-2.77-8.64-3.94-1.42-.65-2.62-1.23-4.06-1.77m-73.37 1.26c12.98 23.4 64.22 18.7 74.12.1 1.2.51 1.5.71 2.9 1.2-10.25 21.5-60.95 28.34-81.68 1.17.14-.04 3.2-1.92 4.66-2.47M-.84 234.79c-2.43-26.43 1.8-48.05 32.78-53.35 10.27-1.9 16.55-1.96 25.38-5.8 16.76 27.41 72.1 23.17 83.6-1.3a18 18 0 0 0 7.4 3.79c18.1 4.3 54.84-.9 52.9 56.66-54.06-.7-98.86-2.35-202.06 0" opacity="1"/></g><g id="svga-group-head"><g id="svga-group-ears-left"><path id="SvgjsPath3911" fill="#f0c7b1" stroke="#c27b55" stroke-width="1.5" d="M47 83.23c-1.38-2.45-5.64-8.48-9.98-7-2.75.93-3.3 4-3.73 6.7-.6 3.58.47 10.68 1.39 13.25.88 2.47 3.53 7.23 5.26 9.05 2.13 2.22 4.77 9.32 5.2 10.06.65 1.16 1.53 2.9 4.12 2.69 2.85-.24 4.58-1.85 5.85-2.12 3.14-.67-4.53-26.24-8.1-32.63z" opacity="1"/><path id="SvgjsPath3912" fill="#c27b55" stroke-width="none" d="M44.2 98.1c-.14-.58 0-1.56.14-2.5.12-.86.24-1.67.17-2.25-.27-2.16-1.77-6.25-2.76-8.47-1.13-2.55-2.96-5.77-5.26-6.6a1.65 1.65 0 0 0-1.94.49c-.26.3-.32.66-.24.7.09.05.29-.25.58-.53a1.3 1.3 0 0 1 1.05-.39c-.2 1.08-1.17 6.89-.75 10.85.34 3.11 1.6 5.44 1.8 5.79q.03.56.14 1.07c.93 4.55 4.97 9.72 6.38 11.41.26.32.53.5.6.43s-.1-.39-.36-.7c-1.38-1.68-5.39-6.83-6.29-11.22-.95-4.66 2.32-11.56 3.05-13.02a27 27 0 0 1 1.55 3.37c-.43.77-3.43 6.32-2.34 10.77a8 8 0 0 0 3.45 4.33c.67.32.92.8 1.2 1.35a3.7 3.7 0 0 0 1.84 1.9q.34.15.6.15c.32 0 .56-.14.73-.3.02.28.02.64.01.97-.01.43.04.79.14.8.1 0 .2-.34.2-.77a7 7 0 0 0-.07-1.48c-.24-.92-1-1.96-1.81-3.05-.79-1.08-1.6-2.2-1.81-3.1m-7.25-4.03a20.4 20.4 0 0 1 1.14-14.28c.85.82 1.6 1.92 2.21 3-.44.86-3.26 6.48-3.35 11.28m9.4 10.45c-1.01-.48-1.35-1.12-1.68-1.74-.29-.56-.6-1.13-1.36-1.5a4 4 0 0 1-.55-.35c-2.48-6.26.28-9 .97-9.56q.32 1.17.44 2.03c.06.52-.06 1.34-.17 2.14-.14.98-.29 2-.14 2.66.23.98 1.07 2.13 1.89 3.24.72.99 1.46 2 1.72 2.84-.11.16-.45.56-1.13.23" opacity="1"/></g><g id="svga-group-ears-right"><path id="SvgjsPath3913" fill="#f0c7b1" stroke="#c27b55" stroke-width="1.5" d="M152.74 83.23c1.37-2.45 5.63-8.48 9.98-7 2.75.93 3.29 4 3.73 6.7.59 3.58-.47 10.68-1.39 13.25-.88 2.47-3.53 7.23-5.26 9.05-2.13 2.22-4.78 9.32-5.2 10.06-.65 1.16-1.53 2.9-4.12 2.69-2.85-.24-4.58-1.85-5.85-2.12-3.15-.67 4.53-26.24 8.1-32.63z" opacity="1"/><path id="SvgjsPath3914" fill="#c27b55" stroke-width="none" d="M153.73 101.2c-.8 1.1-1.57 2.13-1.82 3.04-.08.32-.08.97-.07 1.5.01.42.12.76.2.75s.16-.36.15-.79v-.97c.18.16.42.3.73.3q.27 0 .61-.16a3.7 3.7 0 0 0 1.83-1.89c.29-.55.54-1.03 1.2-1.35a8 8 0 0 0 3.45-4.33c1.1-4.45-1.9-10-2.33-10.77q.33-.82.62-1.48.36-.84.93-1.89c.73 1.46 4 8.36 3.04 13.02-.9 4.38-4.9 9.54-6.28 11.22-.26.3-.42.62-.36.7.07.07.34-.11.6-.43 1.4-1.69 5.45-6.86 6.38-11.4q.1-.53.15-1.08a16 16 0 0 0 1.79-5.8c.42-3.95-.56-9.76-.75-10.84.48-.04.82.16 1.05.39.3.28.49.57.58.53s.02-.4-.24-.7a1.65 1.65 0 0 0-1.94-.49c-2.3.83-4.13 4.05-5.26 6.6-.99 2.22-2.5 6.31-2.76 8.47-.07.57.05 1.39.17 2.25.14.94.27 1.92.14 2.5-.2.9-1.02 2.02-1.81 3.1m5.7-18.41a14 14 0 0 1 2.21-3c.5.98 3.33 7.14 1.15 14.28-.1-4.8-2.91-10.42-3.36-11.28m-7.16 21.49c.25-.83 1-1.85 1.72-2.84.82-1.1 1.66-2.26 1.89-3.24a9 9 0 0 0-.14-2.66 10 10 0 0 1-.17-2.14q.11-.86.44-2.03c.7.56 3.45 3.3.97 9.56q-.3.22-.55.35c-.77.37-1.07.94-1.37 1.5-.32.62-.66 1.26-1.66 1.73-.68.33-1.02-.07-1.13-.23" opacity="1"/></g><g id="svga-group-faceshape-wrap"><g id="svga-group-faceshape-single">
    <path id="SvgjsPath3711" fill="#f0c7b1" stroke-width="none" d="M100 .87C66.38.8 39.2 28.34 39.13 62.37q.01 8.12 1.96 15.64c.01.05 8.71 39.24 14.52 51.17 6.07 12.49 23.81 32.69 44.4 32.69 20.57 0 38.31-20.2 44.38-32.69 5.8-11.93 14.51-51.12 14.52-51.17a62 62 0 0 0 1.96-15.64C160.82 28.34 133.62.8 100 .87" opacity="1"/><path id="SvgjsPath3712" fill="#e8b9a0" stroke-width="none" d="M120.75 4.51a61.6 61.6 0 0 1 36.45 56.37c.01 5.4-.66 10.64-1.95 15.64-.01.05-8.72 39.24-14.52 51.17-5.71 11.74-21.61 32.47-40.73 32.47S65 139.43 59.28 127.7c-5.8-11.93-14.51-51.12-14.52-51.17a62 62 0 0 1-1.96-15.64A61.6 61.6 0 0 1 79.25 4.5c-23.38 8.55-40.07 31.21-40.12 57.86 0 5.4.67 10.64 1.96 15.64.01.05 8.71 39.24 14.52 51.17 6.07 12.49 23.81 32.69 44.4 32.69 20.57 0 38.31-20.2 44.38-32.69 5.8-11.93 14.51-51.12 14.52-51.17a62 62 0 0 0 1.96-15.64c-.04-26.65-16.73-49.3-40.12-57.86" opacity="1"/><path id="SvgjsPath3713" fill="none" stroke="#c27b55" stroke-width="1.5" d="M100 .87C66.38.8 39.2 28.34 39.13 62.37q.01 8.12 1.96 15.64c.01.05 8.71 39.24 14.52 51.17 6.07 12.49 23.81 32.69 44.4 32.69 20.57 0 38.31-20.2 44.38-32.69 5.8-11.93 14.51-51.12 14.52-51.17a62 62 0 0 0 1.96-15.64C160.82 28.34 133.62.8 100 .87z" opacity="1"/></g></g><g id="svga-group-mouth-single"><path id="SvgjsPath3718" fill="url(#SvgjsLinearGradient3719)" d="M100.2 142.95c-2.83.14-3.64-2.76-3.64-2.76s3.93.57 6.99-.35c0 0-.86 2.98-3.35 3.1" opacity="1"/><path id="SvgjsPath3722" fill="#c27b55" stroke-width="none" d="M100.49 140.76c-1.99.1-3.77-.08-3.88-.09a.25.25 0 0 1-.22-.27.26.26 0 0 1 .27-.23c.04 0 4.1.41 6.74-.33.13-.03.27.04.3.17s-.03.27-.17.31c-.93.26-2.01.39-3.04.44" opacity="1"/><path id="SvgjsPath3723" fill="#fff" stroke-width="none" d="M82.5 130.3s12.53 1.48 16.72 1.5c4.55.01 19.28-1.5 19.28-1.5-4.26 3.53-8.94 6.93-19.55 7-9.5.06-11.93-3.39-16.45-7" opacity="1"/><path id="SvgjsPath3724" fill="none" stroke="#c27b55" stroke-width=".75" d="M82.5 130.3s12.53 1.48 16.72 1.5c4.55.01 19.28-1.5 19.28-1.5-4.26 3.53-8.94 6.93-19.55 7-9.5.06-11.93-3.39-16.45-7z" opacity="1"/></g><g id="svga-group-eyes-left"><g id="svga-group-eyesback-left"><path id="SvgjsPath3568" fill="url(#SvgjsRadialGradient3569)" d="M61.75 82.52c-.5-2.28 5.2-3.97 12.71-3.05S87.2 85 86.52 87.32c-.38 1.28-10.64 3.24-14.26 2.84-3.66-.4-9.29-2.12-10.5-7.64" opacity="1"/></g><g id="svga-group-eyesiriswrapper-left" transform="translate(.25 .25)"><g id="svga-group-eyesiriscontrol-left"><g id="svga-group-eyesiris-left"><path id="SvgjsPath3893" fill="#7b5c33" stroke="#4d3009" stroke-width=".5" d="M79.79 85.59a6.01 6.01 0 0 1-11.58-3.17 6.01 6.01 0 0 1 11.58 3.17z" opacity="1"/><path id="SvgjsPath3894" fill="#8a6d47" stroke="none" stroke-width="none" d="M78.86 85.66a4.9 4.9 0 0 1-5.9 3.2 4.9 4.9 0 0 1-3.57-5.17 22 22 0 0 1 2.76-.04l-.04.1c-.3 1.12.41 2.3 1.6 2.63 1.18.32 2.4-.33 2.7-1.46q.06-.22.07-.43 1.21.44 2.38 1.17" opacity="1"/><path id="SvgjsPath3895" fill="#000" stroke-width="none" d="M74.81 82.21a2.2 2.2 0 0 0-2.74 1.54 2.3 2.3 0 0 0 1.62 2.78c1.2.35 2.43-.34 2.74-1.53a2.3 2.3 0 0 0-1.62-2.79m.27 4.23c-.5.16-1.02-.05-1.16-.46s.16-.87.67-1.02c.5-.16 1.02.05 1.16.46s-.17.87-.67 1.02" opacity=".9"/><path id="SvgjsPath3896" fill="#fff" stroke-width="none" d="M70.81 87.16c-.37.22-.92.02-1.24-.45-.31-.46-.27-1.02.1-1.24s.93-.03 1.24.44c.32.47.27 1.03-.1 1.25" opacity=".6"/><path id="SvgjsPath3897" fill="#fff" stroke-width="none" d="M78.71 83.74c-.85.5-2.12.05-2.84-1.02s-.6-2.35.24-2.86 2.11-.05 2.83 1.02.62 2.35-.23 2.86" opacity=".8"/></g></g></g><g id="svga-group-eyesfront-left"><path id="SvgjsPath3590" fill="#f0c7b1" stroke-width="none" d="M53.3 83c.8 10.9 11.63 23.58 20.5 22.24 10.5.1 20.86-7.87 20.86-22.3S89.58 56.4 73.54 56.4c-11.5 0-20.25 12.16-20.25 26.6m8.45-.48c-.5-2.28 5.2-3.97 12.71-3.05S87.2 85 86.52 87.32c-.38 1.28-10.64 3.24-14.26 2.84-3.66-.4-9.29-2.12-10.5-7.64" opacity="1"/><path id="SvgjsPath3591" fill="url(#SvgjsRadialGradient3592)" d="M72.26 90.16c3.62.4 13.87-1.56 14.25-2.84.7-2.32-4.53-6.92-12.05-7.85-6.46-.79-11.56.35-12.55 2.13.9-6.4 7.7-11.4 15.98-11.43 8.91-.04 16.15 5.67 16.18 12.76.02 7.09-7.19 12.86-16.1 12.9S61.82 90.16 61.8 83.07l.02-.31c1.33 5.32 6.83 7 10.44 7.4" opacity="1"/><path id="SvgjsPath3596" fill="url(#SvgjsRadialGradient3597)" d="M61.75 82.52c-.5-2.28 5.2-3.97 12.71-3.05S87.2 85 86.52 87.32c-.38 1.28-10.64 3.24-14.26 2.84-3.66-.4-9.29-2.12-10.5-7.64" opacity="1"/><path id="SvgjsPath3600" fill="#c27b55" stroke-width="none" d="M62.15 77.42c4.2-1.98 9.35-2.16 13.84-1 2.4.55 4.96 1.28 7.06 2.63a20 20 0 0 1 5 4.19 18 18 0 0 0-4.62-4.27 25 25 0 0 0-7.37-2.92c-4.58-1.12-9.72-.87-13.91 1.37" opacity="1"/><path id="SvgjsPath3601" fill="#000" stroke-width="none" d="M62.77 78.02c.88-.35 4.06-1 5.45-1.07 1.7-.08 5.08.13 6.74.43 3.37.6 9.25 2.48 11.68 7.18.74 1.45.07 2.46-.13 2.68.3-2.43-4.83-6.75-12.05-7.6-7.52-.9-13.21.74-12.7 2.95 1.21 5.35 6.84 7.01 10.5 7.4 4.1.45 11.69-1.53 12.69-1.75-2 1.01-7.53 2.1-9.77 2.3-.74.08-2.24.11-2.98.1-5.95-.17-10.17-3.18-11.73-7.27-1-2.62.09-4.47 2.3-5.35" opacity="1"/></g></g><g id="svga-group-eyes-right"><g id="svga-group-eyesback-right"><path id="SvgjsPath3575" fill="url(#SvgjsRadialGradient3576)" d="M137.85 82.52c.5-2.28-5.2-3.97-12.71-3.05S112.4 85 113.09 87.32c.38 1.28 10.63 3.24 14.25 2.84 3.66-.4 9.29-2.12 10.5-7.64" opacity="1"/></g><g id="svga-group-eyesiriswrapper-right" transform="translate(-.25 .25)"><g id="svga-group-eyesiriscontrol-right"><g id="svga-group-eyesiris-right"><path id="SvgjsPath3898" fill="#7b5c33" stroke="#4d3009" stroke-width=".5" d="M131.79 85.59a6.01 6.01 0 0 1-11.58-3.17 6.01 6.01 0 0 1 11.58 3.17z" opacity="1"/><path id="SvgjsPath3899" fill="#8a6d47" stroke="none" stroke-width="none" d="M130.85 85.66a4.9 4.9 0 0 1-5.9 3.2 4.9 4.9 0 0 1-3.56-5.17 22 22 0 0 1 2.76-.04l-.04.1c-.3 1.12.41 2.3 1.6 2.63 1.18.32 2.4-.33 2.7-1.46q.06-.22.07-.43 1.21.44 2.38 1.17" opacity="1"/><path id="SvgjsPath3900" fill="#000" stroke-width="none" d="M126.81 82.21a2.2 2.2 0 0 0-2.73 1.54 2.3 2.3 0 0 0 1.6 2.78c1.21.35 2.44-.34 2.75-1.53a2.3 2.3 0 0 0-1.62-2.79m.27 4.23c-.5.16-1.02-.05-1.16-.46s.16-.87.67-1.02c.5-.16 1.02.05 1.16.46s-.17.87-.67 1.02" opacity=".9"/><path id="SvgjsPath3901" fill="#fff" stroke-width="none" d="M122.81 87.16c-.37.22-.92.02-1.24-.45-.31-.46-.27-1.02.1-1.24s.93-.03 1.25.44c.3.47.26 1.03-.1 1.25" opacity=".6"/><path id="SvgjsPath3902" fill="#fff" stroke-width="none" d="M130.71 83.74c-.85.5-2.12.05-2.84-1.02s-.6-2.35.24-2.86 2.11-.05 2.83 1.02.62 2.35-.23 2.86" opacity=".8"/></g></g></g><g id="svga-group-eyesfront-right"><path id="SvgjsPath3610" fill="#f0c7b1" stroke-width="none" d="M126.06 56.4c-16.04 0-21.12 12.1-21.12 26.53s10.36 22.41 20.86 22.3c8.87 1.35 19.7-11.33 20.5-22.23 0-14.44-8.74-26.6-20.24-26.6m1.28 33.76c-3.62.4-13.87-1.56-14.25-2.84-.7-2.32 4.53-6.92 12.05-7.85s13.22.77 12.7 3.05c-1.21 5.52-6.84 7.24-10.5 7.64" opacity="1"/><path id="SvgjsPath3611" fill="url(#SvgjsRadialGradient3612)" d="M127.34 90.16c-3.62.4-13.87-1.56-14.25-2.84-.7-2.32 4.53-6.92 12.05-7.85 6.46-.79 11.56.35 12.55 2.13-.9-6.4-7.7-11.4-15.98-11.43-8.91-.04-16.15 5.67-16.17 12.76s7.18 12.86 16.09 12.9 16.15-5.67 16.17-12.76l-.02-.31c-1.33 5.32-6.83 7-10.44 7.4" opacity="1"/><path id="SvgjsPath3616" fill="url(#SvgjsRadialGradient3617)" d="M137.85 82.52c.5-2.28-5.2-3.97-12.71-3.05S112.4 85 113.09 87.32c.38 1.28 10.63 3.24 14.25 2.84 3.66-.4 9.29-2.12 10.5-7.64" opacity="1"/>
    <path id="SvgjsPath3620" fill="#c27b55" stroke-width="none" d="M137.45 77.42c-4.2-1.98-9.35-2.16-13.84-1-2.4.55-4.96 1.28-7.06 2.63a20 20 0 0 0-5 4.19 18 18 0 0 1 4.62-4.27 25 25 0 0 1 7.37-2.92c4.58-1.12 9.72-.87 13.91 1.37" opacity="1"/><path id="SvgjsPath3621" fill="#000" stroke-width="none" d="M136.83 78.02c-.88-.35-4.06-1-5.45-1.07-1.7-.08-5.08.13-6.74.43-3.37.6-9.25 2.48-11.68 7.18-.74 1.45-.07 2.46.13 2.68-.3-2.43 4.83-6.75 12.05-7.6 7.52-.9 13.22.74 12.7 2.95-1.21 5.35-6.84 7.01-10.5 7.4-4.1.45-11.68-1.53-12.69-1.75 2 1.01 7.53 2.1 9.77 2.3.74.08 2.24.11 2.99.1 5.95-.17 10.17-3.18 11.73-7.27 1-2.62-.1-4.47-2.3-5.35" opacity="1"/></g></g><g id="svga-group-facehighlight-single"><path id="SvgjsPath2885" fill="url(#SvgjsRadialGradient2886)" d="M141 113.97c.04 22.63-18.3 41-40.94 41.03A41 41 0 0 1 59 114.1 41.05 41.05 0 0 1 99.94 73 41.04 41.04 0 0 1 141 113.97" opacity="1"/><path id="SvgjsPath2889" fill="url(#SvgjsRadialGradient2890)" d="M137.5 54a37.5 37.5 0 1 1-75 0 37.5 37.5 0 0 1 75 0" opacity="1"/></g><g id="svga-group-eyebrows-left"><path id="SvgjsPath2910" fill="#2a232b" stroke-width="none" d="M54 74.19c9.95-9.98 16.76-5.92 30.59-3.27.84.17 6.32 1.54 5.3 3.47-.47.93-2.03.82-2.9.8-13.68-.25-20.34-10-32.99-1" opacity="1"/></g><g id="svga-group-eyebrows-right"><path id="SvgjsPath2911" fill="#2a232b" stroke-width="none" d="M146 74.19c-9.95-9.98-16.76-5.92-30.59-3.27-.84.17-6.32 1.54-5.31 3.47.48.93 2.04.82 2.9.8 13.7-.25 20.35-10 33-1" opacity="1"/></g><g id="svga-group-nose-single" stroke-width="none"><path id="SvgjsPath3708" fill="#e1ac8f" d="M96.83 88.52s-1.4 11.12-2.02 13.29c-1.38 4.75-6.17 11.41-5.24 14.42 1.86 6.03 7.53 4.5 10.52 4.48 2.76-.03 8.07 1.55 9.16-2.37.35-1.27-.44-4.47-.44-4.47s-2.64 3.11-8.87 2.77c-1.78-.1-4.67-2.1-4.7-4.92-.05-3.81 1.8-7.03 2.2-10.82.3-2.88-.6-12.38-.6-12.38" opacity="1"/><path id="SvgjsPath3709" fill="#c27b55" d="M105.2 118.97c1.07 0 1.36.32 1.36.73s-.33 1.02-1.37.73c-1.13-.33-3.1-.18-3.1-.18s2.03-1.28 3.1-1.28m-10.28 0c-1.08 0-1.36.33-1.36.73s.32.98 1.36.73c1.15-.28 3.11-.17 3.11-.17s-2.03-1.29-3.1-1.3m13.89-5.1s1.49 1.93 1.18 3.97c-.3 1.99-3.31 2.86-3.31 2.86s2.09-1.51 2.34-3.35c.12-.86-.21-3.48-.21-3.48m-18.38-1.99s-1.09 2.7-.78 4.36c.58 2.97 3.7 4.16 3.7 4.16s-1.95-2.04-2.64-3.84c-.76-1.97-.28-4.68-.28-4.68" opacity="1"/><path id="SvgjsPath3710" fill="#ffe4d6" d="M105.14 115.31c1.04-.89 1.15-1.4.93-1.73s-.84-.54-1.71.53c-.96 1.18-3.06 2.05-3.06 2.05s2.8.04 3.84-.85" opacity="1"/></g><g id="svga-group-beardwrap"><g id="svga-group-beard-single"><path id="SvgjsPath3909" fill="#2a232b" stroke-width="none" d="M100 18.13" opacity="1"/></g></g><g id="svga-group-mustache-single"><path id="SvgjsPath3856" fill="#2a232b" stroke-width="none" d="M100 18.13" opacity="1"/></g><g id="svga-group-hair-front" stroke="none" stroke-width="none"><path id="SvgjsPath3849" fill="#6b4e40" d="M57.8 28.73c9.24-8.79 44.55-.76 55.2.24 10.14.79 23.52-30.34 43.6 49.48-.04 3.84-1.29 10.63-2.8 15.47l-.42-.3s.51 3.25-6.06 14.38c.35-8.07-1.21-13.89-2.5-21.41-15.7-19.99-30.38-24.67-41.55-28.15 7.5 8.75 14.91 16.79 18.16 25.56-13.65-9.58-32.4-28.89-32.4-28.89s1.4 4.7 27.68 28.89c-10.94-2.68-31.35-13.68-45.64-34.95-2.74 4.5 12.4 30.8 12.83 31.8-7.66-6.09-18.08-14.64-20.76-24.62 0 0-1.57 4.04-2.66 8.63-2.88 12.17-2.9 27.29-3.43 31.13-1.66-8.72-1.92-18.48-1.92-18.36-3.9 17.9-.42 30.4-.35 34.73-5.2-10.44-10.6-22.9-12.18-34.54 0 0 11.62-50.69 15.2-49.09" opacity=".1"/><path id="SvgjsPath3850" fill="#6b4e40" d="M29.38 67.87c.08-5.4 1.12-13.92 2.92-18.78-3.28 3.39-7.4 7.39-10.78 9.5 4.46-3.86 5.84-7.16 15.92-28.3 6.2-12.98 10.3-26.75 22.38-28.37 4.08-.56 8.05.99 11.78 2.59 9.61-8.8 21.6-12.34 32.67-11.34 33.88 2.51 42.92 24.4 61.04 28.78-2.84.83-7.62-.47-10.34-1.75 3.75 5.06 2.42 4.53 10.7 12.8 3.36 3.34 6.48 7.44 10.54 9.85-5.45-.68-8.32-4.83-16.29-9.1a79 79 0 0 0 11.93 14.5c2.87 2.73 7.6 6.58 10.9 8.9-2.4-.95-9.49-3.72-15.6-9.15 3.16 4.54 12.26 12.94 8.14 29.89-.83-7.41 0-16.42-7.05-20.9.78 3.3 3.81 10.22 1.6 17.7h-10.93c-.05 3.85-1.34 10.94-2.9 15.78q-.23-.16-.46-.3s-.5 3.25-7.34 14.38c.36-8.07-.22-13.9-1.55-21.41-16.35-19.99-31.62-24.68-43.24-28.16 7.8 8.76 13.8 18.84 17.19 27.62-11.05-11.66-33.84-29.77-33.84-29.77s.37 4.86 27.72 29.04c-9.45-5.8-29.7-15-44.57-36.27-2.86 4.5 10.82 30.79 11.26 31.8-7.97-6.09-14.64-16.64-17.43-26.62 0 0-3.72 6.04-4.85 10.63-3 12.16-1.98 22.28-2.53 26.13a174 174 0 0 0-3.04-13.36c-4.06 17.9.6 32.4.68 36.73-5.41-10.44-12.08-25-13.71-36.64H28.7c.67-4.33.17-4.34.68-6.4" opacity="1"/><path id="SvgjsPath3851" fill="#4c2d1e" d="M22.76 37.29c3.81-.17 5.88.1 10.36-.26.67-1.54 2.74-5.56 3.44-7.08-3.5 3.1-10.77 7.03-13.8 7.34" opacity="1"/><path id="SvgjsPath3852" fill="#5c3d2e" d="M120 6c16.03-2.29 30.9 14.92 44.42 16-2.87.6-7.39-1.02-9.99-2.25 3.75 5.06 2.74 5.1 11.01 13.36 3.37 3.34 5.77 6.92 9.83 9.33-4.35-.72-7.87-4.95-15.65-9.17C150.47 19.74 136.5 7.83 120 6M63.75 50.78s-3.72 6.04-4.85 10.63c-3 12.16-1.98 22.28-2.53 26.13a174 174 0 0 0-3.04-13.36l-.27 1.28c-3.57 17.3.88 31.22.95 35.45C48.6 100.47 41.93 86 40.3 74.37H28.7c.67-4.33.17-4.44.68-6.5.08-5.4 1.12-13.92 2.92-18.78-3.28 3.39-7.4 7.39-10.78 9.5 4.39-3.8 5.8-7.06 15.42-27.24C39.9 26.73 43.26 22.37 47 18c-7 9-11 20-12 31 2-6 8.08-10.06 12.2-14.83C42.86 40.96 39.72 47.55 38 57c1.26-2.17 3.05-3.38 4.35-5-2.06 6-1.46 9.45-.54 14.03.9-7.12 2.4-18.7 6.19-25.03 0 11-3.41 21.57 1 33.28-.04-8.67 3.25-16.56 5.53-22.48-.45 2.15-.1 7.45.02 9.64 1.28-6.66 2.14-13.2 6.03-18.58-1.73-9.97-4.47-20.68-.78-23.3-6 10.4 12.48 19.47 11.93 19.03 10.33 5.74 16.88 6.44 22.24 7.8-3.5-2.82-5.31-6.32-8.84-9.1 10 3.45 23.96 14.12 31.09 18.48 1.9 2.78 2.07 3.49 2.64 4.83-4.08-1.93-9.18-3.74-15.44-5.62 14.4 16.17 11.53 12.9 17.19 27.61-9.82-10.36-9.8-10.65-32.42-28.64 2.73 3.56 9.97 13.48 26.3 27.92-3.7-2.26-31.14-17.06-44.57-36.28-.64 5.23.08 8.66 11.26 31.8-2.04-.62-10.01-7.75-17.43-26.61m55.1 9.82c8.51 4.02 17.96 10.5 27.8 22.54 1.34 7.52 1.92 13.34 1.56 21.41 1.53-2.48 2.72-4.56 3.68-6.3 3.35-6.1 3.66-8.09 3.66-8.09l.45.3c1.57-4.83 2.86-11.62 2.91-15.46h10.73c2.22-7.48-1.05-15.24-1.83-18.54 7.05 4.48 7.24 12.74 7.57 20.16 3.37-16.67-5.95-24.64-8.9-29.41 6.17 4.79 13.06 8.53 15.47 9.49a98 98 0 0 1-10.28-8.21 77 77 0 0 1-8.77-10.13c-4.68-2.4-8.17-6-12.9-8.36 7.93 5.28 10.42 13.67 12.96 21.75-1.22-1.76-3.18-2.94-4.23-4.52 1.25 3.29 3.09 6.7 2.27 10.77-5-7-7-17-15-23 8.08 8.08 8.64 29.36 8.6 33.15C146.45 29.07 111.95-7.7 77 6c35-11 65 26 69 58-7-8-9-18-19-23 5 5 8 13 11 19-11-13-20-26-35-35 7 8 16 15 21 25 3 3 4 7 6 10-7-7-15.8-14.16-24.87-16.82 10.19 8.78 13.01 15.72 13.73 17.42" opacity="1"/><path id="SvgjsPath3853" fill="#4c2d1e" d="M117.77 5.83c8.29-.03 31.52 6.5 43.09 29.2-12.4-17.21-25.15-25.14-43.1-29.2m20.08 32.88C124.89 11.58 100.69 3.23 87.7 4.07c9.38-.6 35.8 9 50.14 34.64M73.18 14.56c-.6-5.27-7.75-10.69-15.57-7.65-.67.26-1.26.73-1.92.97C64.2 4.8 72 9.38 73.19 14.56m-2.4 3.4c-2.27-3.24-5.34-6.23-9.3-7.2C49.41 7.87 40.4 25.7 38.3 33.7c.27-1 10.6-25.07 23.5-22.07 3.72.85 6.6 3.5 8.97 6.35m-1.2 2.31c-1.14 13.93 30.87 23.77 37.89 29.7-12.5-10.56-37.7-17.09-37.9-29.7m55.21 30.88c-2.65-4.43-13.66-22.25-31.36-32.85-10.97-6.57-15.23-2.6-17.32-1.63 14.2-6.58 40.24 22.77 48.68 34.48" opacity="1"/><path id="SvgjsPath3854" fill="#7a6155" d="M154.6 30.22s-13-14.02-32.37-20.88c14.48 3.62 23.09 10.74 32.37 20.88m-32.02-19.67c8.37 2.86 22.85 18.93 24.67 22.06-4.72-8.1-15.82-19.72-24.67-22.06M96.2 7.93C112.63 11.7 127.6 30.2 127.6 30.2 120.6 19.4 109.14 9 96.2 7.93m-14.17 9.62c7.95 2.04 25.88 16.86 26.8 18.16-2.59-3.64-18.1-16.94-26.8-18.16M76.3 19.1c8.74 1.13 15.99 8.45 17.07 9.93-4.54-6.22-9.2-9.74-17.07-9.93m-.87 2.77c8.54 8.84 21.25 11.43 25.87 17.45C94.94 31 83.23 29.09 75.44 21.88m10.42 20.95c-11.2-6.08-18.96-11.37-20.7-12.85-1.83-1.57-6.52-5.33-3.1-9.15-2.54 1.67-2 5.38 1.4 8.92 3.7 3.86 21.4 13.08 22.4 13.08-.97-.53 0 0 0 0m7.9 3.54c-8.66-2.08-17.53-5.03-24.96-10.05-5.17-3.48-12.86-11.62-8.86-16.4 1.15-1.37 3.56-2.01 5.3-2-1.73-.01-3.83.4-5.17 1.56-3.87 3.35.27 11.9 6.74 16.54 7.82 5.63 17.65 8.35 26.95 10.35m.44-34.38c1.66.33 3.3.55 4.9 1.16 13.54 5.16 26.44 21.08 26.44 21.08-6.98-10.42-18.72-21.05-31.34-22.24m1.24 4.43C111 22.41 128 42.37 129 43.08c-7.57-11.47-20.34-23.34-33.56-26.66M56.1 18.85c-10.32-2.04-15.18 15.4-15.78 16.4 3.5-7.17 8.86-17.06 15.78-16.4m.11 11.9c-8.76 8.22-6.86 18.62-6.72 23.48-.16-8.82 2.1-18 6.72-23.48" opacity="1"/>
    <path id="SvgjsPath3855" fill="#3d2012" d="M31.5 50.47c-3.99 10.99-2.88 22.38-2.94 23.38l-.32.7c1.05-.23.82 0 1.08 0 2.01-4.35 4.54-10.02 11.32-19.14a89 89 0 0 0-11.21 16.62c1.81-11.55 9.17-21.13 10.02-22.35-4.04 5.13-7.82 10.6-9.87 17.39.08-5.4 1.32-13.72 3.12-18.58-3.28 3.39-7.4 7.69-10.78 9.8 4.46-3.86 6.04-6.86 16.12-28C44.23 17.3 47.73 3.74 59.82 2.12c4.08-.56 8.05.79 11.78 2.39 9.61-8.8 21.59-11.83 32.67-10.83 33.88 2.5 42.41 23.86 60.53 28.24-2.84.83-7.65-.88-10.37-2.16 3.75 5.06 2.74 5.09 11.01 13.36 3.37 3.34 5.77 6.92 9.83 9.33-4.4-.73-7.94-5.05-15.9-9.32a82 82 0 0 0 12.3 15.36 98 98 0 0 0 10.28 8.2c-2.4-.95-9.3-4.7-15.47-9.48 2.95 4.77 12.27 12.74 8.9 29.4-.33-7.41-.52-15.67-7.57-20.15.78 3.3 4.05 11.06 1.83 18.54h1.2c2.14-6.94-.87-13.75-2.09-17.22 6.4 5.8 6.31 18.3 5.67 24.37 2.52-6.85 3.48-13.44 1.46-20.48-1.13-3.96-3.5-7.46-5.96-10.71l-.52-.7c4.69 3.77 10.52 7.09 16.1 8.15 0 0-17.06-12.22-24.3-23.26 1.8 1.29 4.25 3.34 6.64 4.95 3.45 2.35 6.17 3.54 10.14 3.04-4.72-2.17-7.83-6.8-11.15-10.25-7.37-7.74-4.36-3.42-10.56-11.66 5 2.04 7.65 1.84 10.67.75-1.7-.4-3.48-.87-5.08-1.5-13.41-5.18-28.45-28.97-60.24-29.1-10.9-.04-22.64 4.18-30.32 12.5a37 37 0 0 0-4.04-1.57C50-3.24 44.09 12.63 36.52 28.7c-2.88 2.4-8.47 7.95-16.03 8.69 3.67.26 7.54.58 12.06.2-6.62 15.06-6.98 16.7-15.57 23.75 7.35-2.55 9.68-5.48 14.51-10.88m4.46-19.71c-.7 1.51-2.37 4.33-3.04 5.86-4.48.37-5.55.4-9.36.57 3.03-.31 8.9-3.34 12.4-6.43m3.98 39.78c0 1.85 2.12 11.56 4.41 17.55-1.18-6.8-1.41-13.92-1.23-20.82a80 80 0 0 1 3.34-20.94c-4.72 19.62-2.17 45.13 7.23 63.27-1.9-9.51-3.02-19.14-1.81-28.82q.41-3.36 1.16-6.66s-.92-8.37 1.49-22.32c-1.64 11.57-.5 22.83 1.76 34.2-.22-8.27.2-16.62 2.32-24.66 1.16-4.4 2.44-5.78 4.5-10.88A73 73 0 0 1 61 37.92c1.93 12.83 5.4 20.15 12.35 30.55 2.06 3.07 4.2 5.89 7.16 8.15-2.08-3.64-8.96-19.1-9.37-20.14-1.37-3.47-2.2-7.06-1.57-10.78a92 92 0 0 1-5.46-10 91 91 0 0 0 20.34 25.5 144 144 0 0 0 13.56 10.48c4.84 3.33 10.04 5.93 15.03 8.99-6.52-5.46-12.99-11.4-17.4-16.21-2.69-2.92-5.82-5.87-7.98-9.21-2.15-3.33-3.08-7.14-4.78-10.7 1.7 2.9 2.9 6.02 4.15 8.13.31.52 11.82 9.16 16.9 13.98 6.43 6.1 9.74 8.16 15.84 14.6-2.79-6.18-3.52-9.17-11.13-19.26-5.02-6.66-7.09-7.03-13.78-17.45a76 76 0 0 0 8.64 10.15c6.21 1.86 11.96 2.92 21.66 8.94 16.67 10.35 20.2 18.04 26.97 24.64-1.2-4.17-4.88-11.15-8.18-16.9-3-5.25-6.32-10.68-9.99-15.14 4.64 4.16 8.07 9.47 11.13 14.84 3.22 5.68 6.81 11.79 7.9 18.3a55 55 0 0 1-5.87-5.33 89 89 0 0 1 1.44 19.36c9.02-14.69 12.54-35.53 9.85-48.8 6.94 27.13-5.73 44.19-11.66 54.89.46-6.54-.2-21.98-.7-26.4-2.22-2.76-17.92-19.6-41.3-27.14 4.12 4.11 7.73 8.4 10.58 13.5 2.61 4.7 5.1 9.63 6.6 15.04-5.3-5.3-11.08-10.12-16.74-15.01-5.82-5.03-11.44-10.28-17.24-15.33 1.57 2.35 3.42 4.57 14.78 15.65 6 5.85 15.33 14.29 15.53 14.5-1-.37-17.76-9.08-25.62-15.04-8.22-6.23-17.02-14.11-22.58-22.81-.49 6 3.06 12.45 4.9 16.33 2 4.2 4.98 11.6 8.23 16.96-5.04-2.96-8.85-7.15-11.92-12.14-3.19-5.18-6.06-10.2-7.84-16.03-1.5 2.98-3.14 5.96-3.84 9.25a93 93 0 0 0-1.57 10.47c-.67 7.07-1.43 14.33-1.02 21.44a81 81 0 0 1-3.64-16.67c-1.7 9.52-.09 23.48 1.78 37.28-5.15-7.03-9.5-17.16-11.99-26.3-1.64-6.05-3.5-12.55-3.21-16.51" opacity="1"/></g><g id="svga-group-glasses-single"><path id="SvgjsPath3012" fill="#26120b" stroke-width="none" d="M100 18.13" opacity="1"/></g></g></g></g>
    <defs id="SvgjsDefs1001">
        <radialGradient id="SvgjsRadialGradient2886" cx="100" cy="114" r="41" class="svga-on-canvas-facehighlight-gradient-single-0" gradientUnits="userSpaceOnUse"><stop id="SvgjsStop2887" offset="0" stop-color="#ffe4d6" stop-opacity=".5"/><stop id="SvgjsStop2888" offset=".9" stop-color="#f0c7b1" stop-opacity="0"/></radialGradient><radialGradient id="SvgjsRadialGradient2890" cx="100" cy="54" r="37" class="svga-on-canvas-facehighlight-gradient-single-1" gradientUnits="userSpaceOnUse"><stop id="SvgjsStop2891" offset="0" stop-color="#ffe4d6" stop-opacity=".5"/><stop id="SvgjsStop2892" offset=".9" stop-color="#f0c7b1" stop-opacity="0"/></radialGradient><radialGradient id="SvgjsRadialGradient3569" cx="129.04" cy="83.94" r="15.12" class="svga-on-canvas-eyesback-gradient-left-0" gradientTransform="matrix(-1 .1 .1 1 192.83 -12.46)" gradientUnits="userSpaceOnUse"><stop id="SvgjsStop3570" offset="0" stop-color="#fff" stop-opacity="1"/><stop id="SvgjsStop3571" offset=".32" stop-color="#fcfdfd" stop-opacity="1"/><stop id="SvgjsStop3572" offset=".5" stop-color="#f4f7f8" stop-opacity="1"/><stop id="SvgjsStop3573" offset=".66" stop-color="#e5ecef" stop-opacity="1"/><stop id="SvgjsStop3574" offset=".76" stop-color="#d8e2e7" stop-opacity="1"/></radialGradient><radialGradient id="SvgjsRadialGradient3576" cx="128.64" cy="83.99" r="15.12" class="svga-on-canvas-eyesback-gradient-right-0" gradientTransform="rotate(5.98 122.86 62.42)" gradientUnits="userSpaceOnUse"><stop id="SvgjsStop3577" offset="0" stop-color="#fff" stop-opacity="1"/><stop id="SvgjsStop3578" offset=".32" stop-color="#fcfdfd" stop-opacity="1"/><stop id="SvgjsStop3579" offset=".51" stop-color="#f4f7f8" stop-opacity="1"/><stop id="SvgjsStop3580" offset=".66" stop-color="#e5ecef" stop-opacity="1"/><stop id="SvgjsStop3581" offset=".76" stop-color="#d8e2e7" stop-opacity="1"/></radialGradient><radialGradient id="SvgjsRadialGradient3592" cx="121.99" cy="82.5" r="16" class="svga-on-canvas-eyesfront-gradient-left-3" fx="133.24" fy="82.53" gradientTransform="matrix(1 .02 .02 -.8 -45.32 145.94)" gradientUnits="userSpaceOnUse"><stop id="SvgjsStop3593" offset="0" stop-color="#e1ac8f" stop-opacity="1"/><stop id="SvgjsStop3594" offset=".7" stop-color="#e1ac8f" stop-opacity=".3"/><stop id="SvgjsStop3595" offset="1" stop-color="#f0c7b1" stop-opacity="0"/></radialGradient><radialGradient id="SvgjsRadialGradient3597" cx="68.93" cy="106" r="29.52" class="svga-on-canvas-eyesfront-gradient-left-4" gradientTransform="translate(-1.68 1.31)scale(1.03)" gradientUnits="userSpaceOnUse"><stop id="SvgjsStop3598" offset=".95" stop-color="#000" stop-opacity="0"/><stop id="SvgjsStop3599" offset="1" stop-color="#000" stop-opacity=".2"/></radialGradient><radialGradient id="SvgjsRadialGradient3612" cx="121.59" cy="82.5" r="16" class="svga-on-canvas-eyesfront-gradient-right-3" fx="132.84" fy="82.53" gradientTransform="rotate(178.8 121.5 74.25)scale(1 .8)" gradientUnits="userSpaceOnUse"><stop id="SvgjsStop3613" offset="0" stop-color="#e1ac8f" stop-opacity="1"/><stop id="SvgjsStop3614" offset=".7" stop-color="#e1ac8f" stop-opacity=".3"/><stop id="SvgjsStop3615" offset="1" stop-color="#f0c7b1" stop-opacity="0"/></radialGradient><radialGradient id="SvgjsRadialGradient3617" cx="69.32" cy="106" r="29.52" class="svga-on-canvas-eyesfront-gradient-right-4" gradientTransform="matrix(-1.03 0 0 1.03 201.68 1.31)" gradientUnits="userSpaceOnUse"><stop id="SvgjsStop3618" offset=".95" stop-color="#000" stop-opacity="0"/><stop id="SvgjsStop3619" offset="1" stop-color="#000" stop-opacity=".2"/></radialGradient><linearGradient id="SvgjsLinearGradient3715" x1="100" x2="100" y1="171" y2="130" class="svga-on-canvas-chinshadow-gradient-single-0" gradientUnits="userSpaceOnUse"><stop id="SvgjsStop3716" offset="0" stop-color="#e1ac8f" stop-opacity=".8"/><stop id="SvgjsStop3717" offset=".7" stop-color="#c27b55" stop-opacity="1"/></linearGradient><linearGradient id="SvgjsLinearGradient3719" x1="100" x2="100" y1="142" y2="139" class="svga-on-canvas-mouth-gradient-single-0" gradientUnits="userSpaceOnUse"><stop id="SvgjsStop3720" offset=".1" stop-color="#e8b9a0" stop-opacity="1"/><stop id="SvgjsStop3721" offset="1" stop-color="#e1ac8f" stop-opacity="1"/></linearGradient>
    </defs>
</svg>