<svg xmlns="http://www.w3.org/2000/svg" width="600" height="600" viewBox="0 0 600 600" style="overflow:hidden!important">
    <g id="svga-group-wrapper" transform="scale(3)">
    <g id="svga-group-backs-single"><path id="SvgjsPath3221" fill="#000" stroke="none" stroke-width="none" d="M225 225H-25V-25h250z" opacity="1"/></g><g id="svga-group-subwrapper"><g id="svga-group-hair-back"><path id="SvgjsPath3222" fill="#2f2f2f" stroke="none" stroke-width="none" d="M100.5 100.5h-1v-1h1z" opacity="1"/></g><g id="svga-group-humanbody-single"><path id="SvgjsPath2893" fill="#daa488" stroke="none" stroke-width="none" d="M195.42 199.78c-2.2-4.75-8.2-11.78-14.86-13.72-8.24-2.4-26.84-5.31-33.74-6.93-5.52-1.3-16.66-11.3-20.56-14.65a4.2 4.2 0 0 1-1.29-2.76c-.14-10.86 4.2-39.72 4.2-39.72H70.83s4.34 28.86 4.2 39.72a4.2 4.2 0 0 1-1.29 2.76c-3.9 3.36-15.03 13.36-20.56 14.65-6.9 1.62-25.5 4.62-33.74 7.02-6.66 1.95-12.66 8.88-14.86 13.63-3.7 8-4.58 22.5-4.58 35h200c0-12.5-.88-27-4.58-35" opacity="1"/><path id="SvgjsPath2894" fill="#e9bfa9" stroke="none" stroke-width="none" d="M159.16 184.06c24.34 3.54 34.58 8.7 37.79 50.72H200c0-12.5-.88-27-4.58-35-2.2-4.75-8.2-11.78-14.86-13.72-8.24-2.4-26.84-5.31-33.74-6.93-5.52-1.3-18.24-12.07-21.64-16.35 3.36 4.7 12.8 15.6 21.06 18.46 3.95 1.37 7.24 2 12.92 2.82m-105.4-2.82c8.27-2.85 17.7-13.75 21.06-18.46-3.4 4.28-16.11 15.06-21.64 16.35-6.9 1.62-25.5 4.62-33.74 7.03-6.66 1.94-12.66 8.87-14.86 13.62-3.7 8-4.58 22.5-4.58 35h3.05c3.19-41.75 13.48-47.19 37.8-50.72 5.67-.83 8.96-1.45 12.92-2.82" opacity="1"/><path id="SvgjsPath2895" fill="#cb8b6a" stroke="none" stroke-width="none" d="M95.65 197.62s-5.08-1.6-7.09-2.38c-10.45-4-44.4-6.6-44.4-6.6s35.76 1.41 43.65 2.77c-.46-4.76-3.02-20-3.02-20s5.15 16.81 6.41 21.06c.68 2.26 4.45 5.15 4.45 5.15m10.8-1.34q-.15.11-.3.27zm-10.8 1.34s2.89 3 4.34 3.03c1.91.05 4.83-2.9 6.15-4.1-1.26.95-4.16 1.39-5.3 1.43-1.34.05-5.2-.36-5.2-.36m21.01-7.52c-1.54.25-4.38.79-4.38.79l2.29-14.89c-.65 3.07-4.48 16.21-8.12 20.28 1.9-1.62 6.15-2.4 8.32-2.7 10.24-1.49 10.23-1.49 41.06-4.95 0 0-29.07-.15-39.17 1.47" opacity="1"/><path id="SvgjsPath2896" fill="none" stroke="#ac5f38" stroke-width="1.5" d="M195.42 199.78c-2.2-4.75-8.2-11.78-14.86-13.72-8.24-2.4-26.84-5.31-33.74-6.93-5.52-1.3-16.66-11.3-20.56-14.65a4.2 4.2 0 0 1-1.29-2.76c-.14-10.86 4.2-39.72 4.2-39.72H70.83s4.34 28.86 4.2 39.72a4.2 4.2 0 0 1-1.29 2.76c-3.9 3.36-15.03 13.36-20.56 14.65-6.9 1.62-25.5 4.62-33.74 7.02-6.66 1.95-12.66 8.88-14.86 13.63-3.7 8-4.58 22.5-4.58 35h200c0-12.5-.88-27-4.58-35z" opacity="1"/></g><g id="svga-group-chinshadow-single"><path id="SvgjsPath3057" fill="url(#SvgjsLinearGradient3058)" d="m124.27 162.25-.05-.52c-.1-7.38 1.82-22.72 3.1-32.07-15.7-1.99-38.94-1.98-54.64.01 1.28 9.36 3.2 24.69 3.1 32.06l-.03.37c3.82 3.59 7.66 6.53 11.05 8.15 5.31 2.55 21.04 2.43 26.4 0 3.41-1.54 7.26-4.44 11.07-8" opacity="1"/></g><g id="svga-group-clothes-single" stroke="none" stroke-width="none"><path id="SvgjsPath3216" fill="#cbe9ee" d="M197.8 201.55c-10.48-20.28-30.66-17.4-49.97-22.85-.47 3.59-13.25 20.48-16.29 30.06a45 45 0 0 1-5.2-5.06c-7.2-8.44-17.85-35.76-21.42-14.43.77-9.58 5-11.69 10.87-3.66 6.3 8.64 6.54 13.1 15.54 22.5 1.6-6.6 5.03-11.27 9.04-17.11 3.87-5.66 6.7-8.22 7.12-13.26-1.45-2.4-1.1-3.49-3.44-5.05-14.65-9.9-4.19-19.97-17.47-22.36-.1 1.2-.24 2.54-.35 3.55 2.84 1.46 3.7 7.15-.68 11.32-6.95 7.63-18.12 8-21.03 19.72h-.01a96 96 0 0 0-2.02 11.92l-2.46 24.9-2.47-24.46c-2-18.36-4.62-20.16-13.18-25.83-5.67-3.76-14.94-9.43-11.92-15.85a3.5 3.5 0 0 1 1.29-1.54c-.15-1.46-.24-2.31-.36-3.68-10.96.47-9.28 15.99-17.58 21.7-2.18 1.49-3.29 2.87-4.07 5.12.53 6.28 14.5 20.48 16.95 30.9 9.08-9.59 9.15-13.78 15.5-22.46 5.46-7.46 9.92-6.7 10.86 3.4-.51-3.03-1.74-7.67-4.38-7.67-2.19 0-4.46 3.21-5.58 4.77-6.3 8.67-7.32 14.88-16.65 22.63-.65-1.94-1.4-3.9-2.3-5.7-3.7-7.48-13.73-22.56-14.87-24.02a169 169 0 0 1-15.23 3.3c-26.5 4.4-36.78 12.97-40.69 53.03 97.2-.99 136.82-.56 209.22-.56-.91-8.91-2.69-25.36-6.77-33.27" opacity="1"/><path id="SvgjsPath3217" fill="#f1fcfd" d="M139.97 190.78c-3.46 5.06-6.2 9.3-7.9 14.62 1.96-10.98 14.43-21.37 13.08-27.94-.58-2.8-10.53-9.08-11.04-18.4 2.74 8.54 12.99 14.64 13 18.73.03 6.7-.17 2.8-7.14 13m64.52 43.25c.34-8.68-2.58-25.59-6.2-32.6-10.47-20.28-31.56-17.7-50.87-23.13-.17.22.49 1.66.03 2.28 45.15 8.32 50.29 18.24 57.04 53.45M55.8 172.07c5.55-4.6 7.21-9.05 8.49-13-2.85 16.27-7.12 10.12-10.22 18.27-1.78 4.66 12 17.4 13.86 28.06-2.44-4.17-5.06-9.31-8.52-14.36-2.7-3.94-4.41-7.54-7.08-10.57-1.27-6.71 1.36-6.64 3.47-8.4m-3.47 8.4-1.06-1.42c-19.32 5.44-38.6 2.1-49.08 22.38-3.61 7.02-5.42 21.36-6.42 30.07 1.93-10.58 4.8-23.9 10.96-31.93 10.45-14.17 29.72-16.9 45.6-19.1" opacity="1"/><path id="SvgjsPath3218" fill="#a8d7df" d="M119.85 171.4c-4.86 2.81-8.98 5.58-11.71 9.47 6.56.36 11.42 12.1 12.73 13.7-12.33-17.17-17-5.5-18.5 5.43.43-3.55.79-9.6 1.49-12.2q.3-1.56.65-2.88c2.92-11.71 14.09-12.1 21.04-19.72 4.37-4.17 3.52-9.86.68-11.32.11-1.01.24-2.35.35-3.55q1.09.2 1.98.47c8.96 7.88-2.6 17.86-8.71 20.6m-40.88 0c4.86 2.81 10.8 6.15 13.53 9.7-4.8-.86-10.13 6.3-12.8 12.64 11.5-14.67 15-6.34 18.67 6.26-.43-3.54-1.52-9.6-2.22-12.2q-.3-1.56-.66-2.88c-2.92-11.71-13.69-12.1-20.64-19.72-4.37-4.17-3.62-9.86-.78-11.32-.1-1.01-.24-2.35-.34-3.55q-1.09.2-1.98.47c-7.51 9.17 1.72 17.26 7.22 20.6" opacity="1"/>
    <path id="SvgjsPath3219" fill="#87c5cf" d="M125.88 163.32c.03-5.7-.16-2.53.41-8.99 2.23 1.2 2.51 6.1-.41 9m-51.74-.54c-2.32-3.04-2.61-6.14-.35-8.49.54 5.06.27 4.45.35 8.5" opacity="1"/><path id="SvgjsPath3220" fill="#6ab4c0" d="M147.62 176.92c-.2-3.55-7.8-6.5-11.18-14.18-2.42-5.47-.13-11.73-10.07-12.74a88 88 0 0 0-.88 13.58c-5.04 5.42-12.83 6.82-17.79 12.65-5.28 6.23-7.58 19.7-7.66 47.67l1.23-.8 1.38-26.56c3.08-26.43 12.89-20.19 22.98-31.26 4.52-4.34 3.44-10.08.72-11.47q.18-1.67.33-3.35c8.55 1.57 6.1 6.6 8.78 12.76 3.56 8.17 10.3 9.95 10.73 13.92.7 6.28-3.06 8.95-6.81 14.43-5.92 8.56-7.28 12.93-8.1 16.31-8.98-9.43-8.99-13.56-15.4-22.34-6.85-9.36-11.34-4.97-13.23 11 .2-2.63 3.77-17.18 8.04-14.65 4.94 2.88 9.8 15.1 15.56 21.88a45 45 0 0 0 5.35 5.19c3.4-11.9 16-24.47 16.4-30.21 19.7 5.56 53.45-.14 56.45 55.96-41.14.22-85.82-.68-208.97.56 1.78-18.44 4.8-36.51 15.72-44.66 4.69-3.5 10.12-5.34 15.71-6.5 7.8-1.62 16.53-2.66 24.26-4.75.78 1 14.2 21.2 17.22 29.6 10.86-8.5 15.2-24.46 21.19-27.22 4.16-1.91 7.56 11.94 7.75 14.55-1.63-16.89-6.95-22.41-17.02-4.92-4.97 8.63-6.28 10.96-11.56 16.51-2.12-9-16.9-25.95-16.26-30.66.64-4.65 6.32-3.36 10.1-13.24 2.12-5.54 1.65-11.65 10.71-13.46q.16 1.75.34 3.49c-2.48 1.63-3.11 7.1.85 10.94 3.57 4.08 10 6.41 14.25 9.67 5.01 3.87 7 7.83 8.6 21.67.03.3 1.36 26.95 1.36 26.95l1.33.66c-.66-27.83-3.33-44.56-8.72-49.25-4.65-4.15-12.77-6.8-16.71-11.43.12-3.48-.57-10.52-1-13.17-9 .91-9.26 6.63-11.2 11.63-5.16 13.35-10.13 9.52-10.95 15.06-.08.51.04.9.17 1.6-7.58 1.54-17.04 2.55-24.64 3.94-11.35 2.07-22.05 8.06-26.93 19.46-3.7 8.64-4.78 24.05-5.05 33.54l-.01.21q.23.02.46.02c130.48 1.38 208.45-.58 209.54-.58.38-53.36-28.79-51.03-57.37-58.02m-21.64-13.9c.01-2.93.1-6.33.31-8.69 1.6 1.14 2.84 4.93-.31 8.7m-51.9-.43c-2.64-3.47-1.6-6.83-.39-8 .25 2.35.35 5.63.4 8" opacity="1"/></g><g id="svga-group-head"><g id="svga-group-ears-left"><path id="SvgjsPath3072" fill="#daa488" stroke="#ac5f38" stroke-width="1.5" d="M45.67 84.34c-1.48-2.46-6.33-9.2-10.03-8.25-3.01.77-2.97 4.97-3.2 7.45-.35 3.65-.47 10 .52 12.57.95 2.48 3.96 7.25 5.83 9.08 2.3 2.23 5.97 9.36 6.42 10.1.71 1.16 2.14 2.83 4.32 2.7 3.07-.18 5.73-3.08 5.97-4.48 1.3-7.6-5.96-22.76-9.83-29.17z" opacity="1"/><path id="SvgjsPath3073" fill="#ac5f38" stroke-width="none" d="M44.2 99.34c-.14-.56 0-1.51.15-2.43.14-.83.26-1.62.19-2.18-.3-2.09-1.92-6.06-2.98-8.21-1.22-2.48-3.2-5.6-5.68-6.4a1.9 1.9 0 0 0-2.09.47c-.29.3-.35.64-.26.68.1.04.31-.24.62-.52.25-.22-.5-.04 0 0-.2 1.04-.86 6.3-.41 10.15.36 3.02 1.05 5.28 1.26 5.61q.05.54.16 1.05c1 4.4 7.52 10.17 9.04 11.82.28.3.57.48.64.4s-.1-.37-.38-.67c-1.5-1.63-7.97-7.38-8.93-11.64-1.03-4.51 3.9-11.2 4.7-12.62a25 25 0 0 1 1.67 3.27c-.46.74-5.12 6.13-3.94 10.44.44 1.6 3.83 3.64 5.14 4.2.72.31.99.78 1.3 1.31.36.62.03 2.23 1.23 2.74q.36.15.66.15c.34 0 .6-.13.78-.29.02.27.02.62.01.94q0 .62.15.62c.1 0 .2-.17.22-.59.02-.5.02-1.14-.08-1.44-.26-.89-1.08-1.9-1.95-2.96-.86-1.04-1-3.03-1.22-3.9m-9.23-3.9c-2.35-6.93 1.28-13.24 1.8-14.19 1.02.4 2.57 2.2 3.23 3.24-.48.83-4.93 6.29-5.03 10.94m10.8 11.02c-1.08-.46-.7-1.98-1.05-2.58-.32-.54-.65-1.1-1.48-1.46q-.27-.13-.59-.33c-2.68-6.08.3-8.73 1.04-9.27q.35 1.13.48 1.97c.07.5-.06 1.3-.18 2.06a8 8 0 0 0-.15 2.59c.25.95.41 2.97 1.3 4.05.77.95 1.58 1.94 1.85 2.74-.12.16-.49.55-1.22.23" opacity="1"/></g><g id="svga-group-ears-right"><path id="SvgjsPath3074" fill="#daa488" stroke="#ac5f38" stroke-width="1.5" d="M154.07 84.34c1.48-2.46 6.32-9.2 10.03-8.25 3 .77 2.97 4.97 3.2 7.45.34 3.65.47 10-.52 12.57-.95 2.48-3.96 7.25-5.83 9.08-2.3 2.23-5.97 9.36-6.42 10.1-.71 1.16-2.14 2.83-4.33 2.7-3.07-.18-5.72-3.08-5.96-4.48-1.3-7.6 5.96-22.76 9.83-29.17z" opacity="1"/><path id="SvgjsPath3075" fill="#ac5f38" stroke-width="none" d="M154.32 103.24c-.87 1.07-1.69 2.07-1.95 2.96-.1.3-.1.93-.08 1.44.01.42.12.6.22.6.1-.02.16-.2.15-.63a10 10 0 0 1 0-.94c.2.16.45.29.8.29q.28 0 .65-.15c1.2-.51.87-2.12 1.23-2.74.31-.53.58-1 1.3-1.3 1.31-.57 4.7-2.62 5.14-4.2 1.18-4.32-3.47-9.71-3.94-10.45l.67-1.43q.4-.82 1-1.84c.8 1.42 5.73 8.11 4.7 12.62-.96 4.26-7.44 10-8.93 11.64-.28.3-.46.6-.38.68.07.07.36-.1.64-.41 1.52-1.64 8.03-7.41 9.03-11.82q.12-.51.17-1.04c.2-.34.9-2.6 1.26-5.62.45-3.84-.2-9.1-.41-10.14.5-.04-.26-.23 0 0 .3.27.52.56.62.51.09-.04.02-.39-.26-.68a1.9 1.9 0 0 0-2.1-.47c-2.47.8-4.45 3.92-5.67 6.4-1.06 2.15-2.69 6.12-2.98 8.21-.07.56.05 1.35.18 2.18.15.92.3 1.87.16 2.43-.22.87-.36 2.86-1.22 3.9m5.42-18.75c.66-1.04 2.2-2.84 3.22-3.24.53.95 4.16 7.26 1.81 14.18-.1-4.66-4.55-10.1-5.03-10.94m-6.99 21.74c.27-.8 1.08-1.8 1.86-2.75.88-1.07 1.04-3.1 1.29-4.04.16-.64 0-1.63-.15-2.59a9 9 0 0 1-.18-2.07q.13-.83.48-1.97c.74.55 3.72 3.2 1.03 9.28q-.3.2-.58.33c-.83.36-1.16.92-1.48 1.46-.35.6.03 2.12-1.05 2.58-.73.32-1.1-.07-1.22-.23" opacity="1"/></g><g id="svga-group-faceshape-wrap"><g id="svga-group-faceshape-single"><path id="SvgjsPath3054" fill="#daa488" stroke-width="none" d="M144 127c-5 10.22-20.04 28.43-30.8 33.26-5.36 2.42-21.09 2.53-26.4 0C76.16 155.2 61.04 137.21 56 127c-5.61-11.38-14.85-48.56-14.86-48.61-1.3-4.99-2-10.22-2-15.62-.06-34 27.15-61.6 60.77-61.65 33.62-.06 60.9 27.45 60.96 61.45 0 5.4-.67 10.64-1.95 15.63-.02.06-9.32 37.36-14.92 48.8" opacity="1"/><path id="SvgjsPath3055" fill="#d29779" stroke-width="none" d="M110.15 1.98c27 6.34 47.1 30.82 47.05 60.04 0 5.4-.7 10.64-2 15.62-.01.06-8.61 37.25-14.13 48.61-4.86 10-19.7 27.47-30.07 32.52-2.16 1.06-8.7 1.56-11 1.56s-8.83-.5-11-1.56c-10.36-5.05-25.2-22.51-30.06-32.52C53.4 114.9 44.82 77.7 44.8 77.65c-1.3-5-2-10.23-2-15.63-.05-29.22 20.05-53.7 47.04-60.04-28.82 4.9-50.76 30.25-50.72 60.79q.03 8.12 2 15.62c.02.05 9.24 37.24 14.87 48.6 5.05 10.2 20.2 28.1 30.8 33.27 2.66 1.3 9.3 1.86 12.96 1.86 3.64 0 10.79-.56 13.44-1.86 10.6-5.18 25.75-23.06 30.8-33.26 5.63-11.37 14.86-48.56 14.87-48.61 1.3-4.99 2-10.22 2-15.62.05-30.54-21.9-55.9-50.72-60.79" opacity="1"/>
    <path id="SvgjsPath3056" fill="none" stroke="#ac5f38" stroke-width="1.5" d="M144 127c-5 10.22-20.04 28.43-30.8 33.26-5.36 2.42-21.09 2.53-26.4 0C76.16 155.2 61.04 137.21 56 127c-5.61-11.38-14.85-48.56-14.86-48.61-1.3-4.99-2-10.22-2-15.62-.06-34 27.15-61.6 60.77-61.65 33.62-.06 60.9 27.45 60.96 61.45 0 5.4-.67 10.64-1.95 15.63-.02.06-9.32 37.36-14.92 48.8z" opacity="1"/></g></g><g id="svga-group-mouth-single"><path id="SvgjsPath3066" fill="#ac5f38" stroke-width="none" d="M100.34 141.93c-1.53 0-3-.2-3.9-.55a.5.5 0 0 1 .36-.93c1.67.65 5.86.67 7.7-.2a.5.5 0 0 1 .43.9c-1.12.53-2.89.78-4.59.78m14.69-8.49a.79.79 0 0 0-.62-1.44c-11.67 5-28.74.34-28.91.3a.79.79 0 1 0-.43 1.5c.47.13 7.7 2.1 16.04 2.1 4.62 0 9.58-.6 13.92-2.46" opacity="1"/></g><g id="svga-group-eyes-left"><g id="svga-group-eyesback-left"><path id="SvgjsPath3076" fill="url(#SvgjsRadialGradient3077)" d="M61.75 82.52c-.5-2.28 5.2-3.97 12.71-3.05S87.2 85 86.52 87.32c-.38 1.28-10.64 3.24-14.26 2.84-3.66-.4-9.29-2.12-10.5-7.64" opacity="1"/></g><g id="svga-group-eyesiriswrapper-left" transform="translate(.25 .25)"><g id="svga-group-eyesiriscontrol-left"><g id="svga-group-eyesiris-left" stroke-width="none"><path id="SvgjsPath3176" fill="#3e4442" stroke="none" d="M80 84a6 6 0 1 1-12 0 6 6 0 0 1 12 0" opacity="1"/><path id="SvgjsPath3177" fill="#535353" stroke="none" d="M70.51 86.8c.88-.07.1-.3.1-.3-.43-.23-1.25-.6-1.25-.92 0-1.03 1.42-1.3-.03-1.7-1.5-1.39 1.17-1.36 1.15-1.4-.98-2.38.3-1.08.83-1.78 1.99-2.6.56.27 1.63 0 .4-.1-.78-1.53.04-1.33a.9.9 0 0 1 .66.58c.4-.07 1-.68 1-.68.76.23 1.28 1.29 1.05 1.1.37-.05.89-.23 1.29-.35 0 0 .07-.24.14-.03.91 2.66 3.28 2.47.56 3.24 0 0-.18 0 .38.44 2.7 2.16-2.1 1.5.45 2.49.1-.1-1.53.96-1.53 1.26 0 .5-1.04 1.82-1.95 1.3-.5-.29-.58.6-.87.19-.59-.8-1.75-.04-1.32-.77.64-.52-.65.2-.9.2-.83 0 1.08-2.78 3.9-.71.81.6-.87-1.44.62-1.44.15.05.1-.52.1-.68-.77-.15 1.4 0 1.4-1.26.13.03.5-.35-1.64 0 0 0-.07-.75-.04-.89.11-.44 1.22-.3.9-.75l-.8-1.6c-2.57-.42-1.1-.67-2.7-.34-.08.38-3.45 1.98-3.34 2.73.1.7 2.11.93.2 2.18 2.86 5.47-2.1-.13-.03 1.23" opacity="1"/><path id="SvgjsPath3178" fill="#1b2522" stroke="none" d="m74 78.75.17 4.4 1.84-4-1.52 4.12 3.22-2.98-2.98 3.22L78.85 82l-4 1.84 4.4.17-4.4.17 4 1.84-4.12-1.52 2.98 3.22-3.22-2.98L76 88.85l-1.84-4-.17 4.4-.17-4.4-1.84 4 1.52-4.12-3.22 2.98 2.98-3.23-4.12 1.53 3.99-1.84-4.39-.17 4.39-.17-4-1.84 4.13 1.52-2.98-3.22 3.22 2.98L72 79.15l1.84 4z" opacity="1"/><path id="SvgjsPath3179" fill="#0e1613" stroke="none" d="m74.8 80.07-.54 3.31 1.98-2.7-1.77 2.85 2.87-1.75-2.72 1.96 3.32-.51-3.27.77 3.26.8-3.31-.54 2.7 1.98-2.85-1.77 1.75 2.87-1.96-2.72.51 3.32-.77-3.27-.8 3.26.54-3.31-1.98 2.7 1.77-2.85-2.87 1.75 2.72-1.97-3.31.52 3.26-.77-3.26-.8 3.32.54-2.72-1.98 2.86 1.77-1.75-2.87 1.97 2.72-.52-3.32.77 3.27z" opacity="1"/><path id="SvgjsPath3180" fill="#000" d="M76.25 84a2.25 2.25 0 1 1-4.5 0 2.25 2.25 0 0 1 4.5 0" opacity=".9"/><path id="SvgjsPath3181" fill="#fff" d="M71.64 88.31c-.33.33-.99.22-1.46-.26-.48-.47-.6-1.13-.26-1.46s.98-.21 1.46.26c.47.48.59 1.13.26 1.46" opacity=".7"/><path id="SvgjsPath3182" fill="#fff" d="M78.8 82.82c-.49.5-1.7.1-2.68-.89-.98-.98-1.38-2.19-.88-2.68s1.7-.1 2.68.88c.99 1 1.38 2.2.89 2.69" opacity=".9"/></g></g></g><g id="svga-group-eyesfront-left"><path id="SvgjsPath3098" fill="#daa488" stroke="none" stroke-width="none" d="M53.3 83c.8 10.9 11.63 23.58 20.5 22.24 10.5.1 20.86-7.87 20.86-22.3S89.58 56.4 73.54 56.4c-11.5 0-20.25 12.16-20.25 26.6m8.45-.48c-.5-2.28 5.2-3.97 12.71-3.05S87.2 85 86.52 87.32c-.38 1.28-10.64 3.24-14.26 2.84-3.66-.4-9.29-2.12-10.5-7.64" opacity="1"/><path id="SvgjsPath3099" fill="url(#SvgjsRadialGradient3100)" d="M72.26 90.16c3.62.4 13.87-1.56 14.25-2.84.7-2.32-4.53-6.92-12.05-7.85-6.46-.79-11.56.35-12.55 2.13.9-6.4 7.7-11.4 15.98-11.43 8.91-.04 16.15 5.67 16.18 12.76.02 7.09-7.19 12.86-16.1 12.9S61.82 90.16 61.8 83.07l.02-.31c1.33 5.32 6.83 7 10.44 7.4" opacity="1"/><path id="SvgjsPath3104" fill="url(#SvgjsRadialGradient3105)" d="M61.75 82.52c-.5-2.28 5.2-3.97 12.71-3.05S87.2 85 86.52 87.32c-.38 1.28-10.64 3.24-14.26 2.84-3.66-.4-9.29-2.12-10.5-7.64" opacity="1"/><path id="SvgjsPath3108" fill="#ac5f38" stroke="none" stroke-width="none" d="M62.15 77.42c4.2-1.98 9.35-2.16 13.84-1 2.4.55 4.96 1.28 7.06 2.63a20 20 0 0 1 5 4.19 18 18 0 0 0-4.62-4.27 25 25 0 0 0-7.37-2.92c-4.58-1.12-9.72-.87-13.91 1.37" opacity="1"/><path id="SvgjsPath3109" fill="#000" stroke="none" stroke-width="none" d="M62.77 78.02c.88-.35 4.06-1 5.45-1.07 1.7-.08 5.08.13 6.74.43 3.37.6 9.25 2.48 11.68 7.18.74 1.45.07 2.46-.13 2.68.3-2.43-4.83-6.75-12.05-7.6-7.52-.9-13.21.74-12.7 2.95 1.21 5.35 6.84 7.01 10.5 7.4 4.1.45 11.69-1.53 12.69-1.75-2 1.01-7.53 2.1-9.77 2.3-.74.08-2.24.11-2.98.1-5.95-.17-10.17-3.18-11.73-7.27-1-2.62.09-4.47 2.3-5.35" opacity="1"/></g></g><g id="svga-group-eyes-right"><g id="svga-group-eyesback-right"><path id="SvgjsPath3083" fill="url(#SvgjsRadialGradient3084)" d="M137.85 82.52c.5-2.28-5.2-3.97-12.71-3.05S112.4 85 113.09 87.32c.38 1.28 10.63 3.24 14.25 2.84 3.66-.4 9.29-2.12 10.5-7.64" opacity="1"/></g><g id="svga-group-eyesiriswrapper-right" transform="translate(-.25 .25)"><g id="svga-group-eyesiriscontrol-right"><g id="svga-group-eyesiris-right" stroke-width="none"><path id="SvgjsPath3183" fill="#3e4442" stroke="none" d="M132 84a6 6 0 1 1-12 0 6 6 0 0 1 12 0" opacity="1"/><path id="SvgjsPath3184" fill="#535353" stroke="none" d="M122.5 86.8c.89-.07.11-.3.11-.3-.43-.23-1.25-.6-1.25-.93 0-1.03 1.42-1.29-.02-1.7-1.52-1.38 1.16-1.35 1.13-1.4-.97-2.37.3-1.07.85-1.77 1.98-2.6.55.27 1.63 0 .38-.1-.79-1.53.03-1.33.54.13.66.58.66.58.4-.08 1-.68 1-.68.75.22 1.28 1.29 1.05 1.09.37-.05.89-.22 1.29-.34 0 0 .07-.24.14-.04.91 2.66 3.28 2.48.56 3.24 0 0-.18 0 .38.44 2.7 2.17-2.1 1.5.45 2.5.1-.1-1.53.96-1.53 1.26 0 .5-1.05 1.82-1.95 1.3-.5-.3-.58.6-.88.19-.57-.8-1.74-.04-1.3-.78.62-.52-.67.21-.91.21-.83 0 1.08-2.78 3.89-.72.82.6-.87-1.43.63-1.43.14.05.1-.52.1-.68-.78-.15 1.4 0 1.4-1.27.13.03.5-.34-1.64 0 0 0-.07-.75-.03-.88.1-.44 1.2-.3.9-.75l-.8-1.6c-2.58-.42-1.1-.68-2.72-.35-.07.38-3.44 1.99-3.34 2.73.1.7 2.12.94.21 2.18 2.86 5.48-2.1-.12-.03 1.24" opacity="1"/><path id="SvgjsPath3185" fill="#1b2522" stroke="none" d="m126 78.75.18 4.4 1.82-4-1.52 4.12 3.23-2.98-2.98 3.22 4.12-1.52-4 1.84 4.4.17-4.4.17 4 1.84-4.12-1.52 2.99 3.23-3.24-3 1.52 4.13-1.82-4-.18 4.4-.18-4.4-1.84 4 1.53-4.12-3.23 2.98 3-3.23-4.13 1.53 4-1.84-4.4-.17 4.4-.17-4-1.84 4.12 1.52-2.99-3.23 3.23 2.99-1.53-4.13 1.84 4z" opacity="1"/><path id="SvgjsPath3186" fill="#0e1613" stroke="none" d="m126.8 80.07-.54 3.31 1.98-2.71-1.77 2.86 2.87-1.75-2.72 1.97 3.32-.52-3.27.77 3.27.8-3.32-.54 2.7 1.98-2.85-1.77 1.74 2.87-1.95-2.72.51 3.31-.77-3.26-.8 3.26.54-3.32-1.98 2.72 1.77-2.86-2.87 1.75 2.72-1.97-3.32.52 3.27-.77-3.27-.8 3.32.54-2.7-1.98 2.85 1.77-1.74-2.88 1.95 2.73-.51-3.32.77 3.27z" opacity="1"/><path id="SvgjsPath3187" fill="#000" d="M128.25 84a2.25 2.25 0 1 1-4.5 0 2.25 2.25 0 0 1 4.5 0" opacity=".9"/><path id="SvgjsPath3188" fill="#fff" d="M123.63 88.31c-.32.33-.98.22-1.45-.26-.48-.48-.6-1.13-.26-1.46s.99-.21 1.45.26c.48.48.6 1.13.26 1.46" opacity=".7"/>
    <path id="SvgjsPath3189" fill="#fff" d="M130.8 82.82c-.49.5-1.7.1-2.68-.89-.98-.98-1.38-2.19-.88-2.68s1.69-.1 2.67.89c1 .98 1.39 2.18.9 2.67" opacity=".9"/></g></g></g><g id="svga-group-eyesfront-right"><path id="SvgjsPath3118" fill="#daa488" stroke="none" stroke-width="none" d="M126.06 56.4c-16.04 0-21.12 12.1-21.12 26.53s10.36 22.41 20.86 22.3c8.87 1.35 19.7-11.33 20.5-22.23 0-14.44-8.74-26.6-20.24-26.6m1.28 33.76c-3.62.4-13.87-1.56-14.25-2.84-.7-2.32 4.53-6.92 12.05-7.85s13.22.77 12.7 3.05c-1.21 5.52-6.84 7.24-10.5 7.64" opacity="1"/><path id="SvgjsPath3119" fill="url(#SvgjsRadialGradient3120)" d="M127.34 90.16c-3.62.4-13.87-1.56-14.25-2.84-.7-2.32 4.53-6.92 12.05-7.85 6.46-.79 11.56.35 12.55 2.13-.9-6.4-7.7-11.4-15.98-11.43-8.91-.04-16.15 5.67-16.17 12.76s7.18 12.86 16.09 12.9 16.15-5.67 16.17-12.76l-.02-.31c-1.33 5.32-6.83 7-10.44 7.4" opacity="1"/><path id="SvgjsPath3124" fill="url(#SvgjsRadialGradient3125)" d="M137.85 82.52c.5-2.28-5.2-3.97-12.71-3.05S112.4 85 113.09 87.32c.38 1.28 10.63 3.24 14.25 2.84 3.66-.4 9.29-2.12 10.5-7.64" opacity="1"/><path id="SvgjsPath3128" fill="#ac5f38" stroke="none" stroke-width="none" d="M137.45 77.42c-4.2-1.98-9.35-2.16-13.84-1-2.4.55-4.96 1.28-7.06 2.63a20 20 0 0 0-5 4.19 18 18 0 0 1 4.62-4.27 25 25 0 0 1 7.37-2.92c4.58-1.12 9.72-.87 13.91 1.37" opacity="1"/><path id="SvgjsPath3129" fill="#000" stroke="none" stroke-width="none" d="M136.83 78.02c-.88-.35-4.06-1-5.45-1.07-1.7-.08-5.08.13-6.74.43-3.37.6-9.25 2.48-11.68 7.18-.74 1.45-.07 2.46.13 2.68-.3-2.43 4.83-6.75 12.05-7.6 7.52-.9 13.22.74 12.7 2.95-1.21 5.35-6.84 7.01-10.5 7.4-4.1.45-11.68-1.53-12.69-1.75 2 1.01 7.53 2.1 9.77 2.3.74.08 2.24.11 2.99.1 5.95-.17 10.17-3.18 11.73-7.27 1-2.62-.1-4.47-2.3-5.35" opacity="1"/></g></g><g id="svga-group-facehighlight-single"><path id="SvgjsPath2885" fill="url(#SvgjsRadialGradient2886)" d="M141 113.97c.04 22.63-18.3 41-40.94 41.03A41 41 0 0 1 59 114.1 41.05 41.05 0 0 1 99.94 73 41.04 41.04 0 0 1 141 113.97" opacity="1"/><path id="SvgjsPath2889" fill="url(#SvgjsRadialGradient2890)" d="M137.5 54a37.5 37.5 0 1 1-75 0 37.5 37.5 0 0 1 75 0" opacity="1"/></g><g id="svga-group-eyebrows-left" transform="rotate(-11 72.2 70.49)"><path id="SvgjsPath3194" fill="#2a232b" stroke-width="none" d="M53.15 75c9.74-15.12 36.49 5.14 38.02-1.2.3-1.27-.41-2.01-1.57-2.49-13.62-5.5-31.64-10.13-36.45 3.69" opacity="1"/></g><g id="svga-group-eyebrows-right" transform="rotate(11 127.8 70.49)"><path id="SvgjsPath3195" fill="#2a232b" stroke-width="none" d="M146.85 75c-9.74-15.12-36.49 5.14-38.02-1.2-.3-1.27.41-2.01 1.57-2.49 13.62-5.5 31.64-10.13 36.45 3.69" opacity="1"/></g><g id="svga-group-nose-single" stroke-width="none"><path id="SvgjsPath3070" fill="#cb8b6a" d="M99.08 90s-.88 20.45-.76 24.94c.03 1.28 2.49 4.62 2.32 7.06 0 0-4.79-.35-6.34-.9-1.63-.58-4.15-1.7-3.16-4.85C92.56 111.78 99.08 90 99.08 90" opacity="1"/><path id="SvgjsPath3071" fill="#ac5f38" d="M98.64 119.6s-1.99-.7-3.24-.67c-1.14.03-1.3-.73-1.2-1.16.12-.43.51-.7 1.62-.4 1.1.29 2.82 2.23 2.82 2.23m2.95 0s1.98-.65 3.24-.67c1.14-.01 1.31-.72 1.2-1.15-.12-.44-.51-.7-1.62-.42-1.1.3-2.82 2.24-2.82 2.24" opacity="1"/></g><g id="svga-group-beardwrap"><g id="svga-group-beard-single"><path id="SvgjsPath3021" fill="#2a232b" stroke-width="none" d="M100 18.13" opacity="1"/></g></g><g id="svga-group-mustache-single"><path id="SvgjsPath3019" fill="#2a232b" stroke-width="none" d="M100 18.13" opacity="1"/></g><g id="svga-group-hair-front" stroke="none" stroke-width="none"><path id="SvgjsPath3224" fill="#100d0d" d="M80.7 34.56c4.13-3.04 9.72-3.7 16.57-2.33 5.29-3.29 15.87-3.22 21.7.4l3.46-11.98L70.1 24.7z" opacity="1"/><path id="SvgjsPath3225" fill="#2f2f2f" d="M37.21 85.34C30.11 58.22 25.4 27.46 56.67 4.26c8.85-6.43 19.86-7.77 27.54-7.77 7.99 0 14.47 1.5 16.34 2.51l.2.11.23-.07c3.12-1 6.96-1.52 11.1-1.52 12.86 0 30.88 5.05 42.9 19.25 9.14 10.8 17.77 30.85 7.1 65.17h-.02l-.17.65c-3.46-1.47-6.84-2.47-10.12-3.44-9.06-2.69-16.88-5-21.66-16.18-.14-.35-.32-1.48-.55-2.9-1.3-7.99-4.3-26.68-17.78-32.71a14 14 0 0 0-5.17-1.15c-3.14 0-6.15 1.45-9.46 4.55-2.63-1.14-4.91-1.7-6.96-1.7-6.33 0-11.37 5.24-17.4 18.06a78 78 0 0 0-4.02 10.5c-2.59 7.99-4.46 13.75-16.4 20.04-2.94 1.6-6.19 3.2-9.33 4.76a335 335 0 0 0-5.83 2.92" opacity="1"/><path id="SvgjsPath3226" fill="#201d1d" d="M105.61 18.71c28.23-5.1 32.7 52.08 48.69 56.76-5.4-12.07-9.35-23.83-10.44-39.7 5.44 18.57 9.51 26.91 15.01 32.2 1.5-24.87-.52-39.58-10.29-57.5-11.43-9.42-25.76-12.95-36.5-12.95-4.14 0-7.98.53-11.1 1.52l-.22.07-.21-.11C98.68-2.02 92.2-3.51 84.2-3.51c-6.57 0-15.56 1-23.57 5.3-16.15 21.3-22.68 46.93-18.2 72.56 4.62-11.67 6.66-23.96 13.34-38.57-4.63 14-4.17 23.97-8.25 35.83C65.71 60 59.73 45.16 71.95 29.66c5.77-7.75 24.15-8.78 25.4.94l.55-.5c.96-4.84 2.26-10.4 7.71-11.39" opacity="1"/><path id="SvgjsPath3227" fill="#100d0d" d="M57.59 48.57c2.48-7.87 2.44-9.9 3.63-14.4 6.92-26.72 30.52-20.74 34.72-14.68l.37.5-.43-.46c-3.57-4.1-21.73-9.22-30.48 8.44-3.58 7.44-3.44 11.22-7.81 20.6m9.74-37.84c1.36-1.04 2.31-1.66 2.31-1.66 9.62-6.64 18.8-7.5 28.37-4.88-1.7-.66-4.5-1.82-8.45-2.28C54.37-.64 48.1 38.73 45.36 47.05c5.5-11.47 7.88-25.25 21.97-36.32m61.09 10.98c-8.46-10.15-18.25-13.94-30.75-8.1 28.42-9.99 38.84 27.52 44.15 36.78-3.44-8.46-3.66-17.07-13.4-28.68M95.29 12.4c11.22-9.43 43.93-13.4 59.47 34.1l1 2.99C145.5-6.66 105.57 1.86 95.28 12.39" opacity="1"/><path id="SvgjsPath3228" fill="#3e3e3e" d="M148.28 73.77c-8.26-3.9-13.81-8.06-16.07-17.37-2.69-11.38-8.13-37.88-29.1-32.76 19.15-6.75 27.95 14.23 31.3 32.34 1.66 8.28 5.77 12.7 13.87 17.79M72.23 42.1c.61-1.43 1.07-2.36 1.07-2.36 5.09-10.39 9.83-15.72 20.63-12.15C83 22.6 76.18 28.84 71.23 38.94 60.04 62.08 69.35 57.5 48.76 75.32c20.2-13.75 14.44-12.8 23.47-33.22m87.94-7.51c2.02 13.18 2.59 19.96-.07 40.12 4.8-18.87 3.6-27.7.07-40.12M38.84 48.1c.58-8.91 2.58-20.24 8.56-27.81-14.1 14.2-11.72 45.65-7.82 57.15-1.14-6.04-1.24-22.78-.74-29.33" opacity="1"/><path id="SvgjsPath3229" fill="#010101" d="M100.81-1.39c-4.24-2.3-28.47-6.31-44.47 5.3-30.67 22.76-27.23 52.65-19.47 82.13 4.6-2.42 10.67-5.2 15.77-7.99 16.9-8.9 14-17.05 20.63-30.76 8.13-17.3 14.16-19.45 24-15.06 5.52-5.31 9.68-6.33 14.28-4.46 15.92 7.12 17.1 32.98 18.1 35.36 6.67 15.65 19.27 14.26 32.58 20.12l.23-.86h.01c23.05-73.48-38.52-91.18-61.66-83.78m63.68 61.03c-.7 9.35-2.82 21.3-2.96 22.21-11.3-6.1-22.49-4.72-29.42-20.06-.03-.1 0 .04-.03-.18-4.07-30.85-22.02-44.85-34.9-30.93-8.6-4.36-14.15-2.04-19.75 4.9-14 17.38-6.74 29.32-26.12 40.83-4.38 2.68-10.08 5.82-13.7 8.08C32.96 61.48 26 26.1 62.42 3.2 82.24-6.99 97.79-.97 99.49-.97a45 45 0 0 1 9.75 3.41 40 40 0 0 0-6.78-3.25c28.81-3.93 66.64 14.4 62.04 60.45" opacity="1"/></g><g id="svga-group-glasses-single"><path id="SvgjsPath3196" fill="#26120b" stroke-width="none" d="M100 18.13" opacity="1"/></g></g></g></g>
    <defs id="SvgjsDefs1001">
        <radialGradient id="SvgjsRadialGradient2886" cx="100" cy="114" r="41" class="svga-on-canvas-facehighlight-gradient-single-0" gradientUnits="userSpaceOnUse"><stop id="SvgjsStop2887" offset="0" stop-color="#e9bfa9" stop-opacity=".5"/><stop id="SvgjsStop2888" offset=".9" stop-color="#daa488" stop-opacity="0"/></radialGradient><radialGradient id="SvgjsRadialGradient2890" cx="100" cy="54" r="37" class="svga-on-canvas-facehighlight-gradient-single-1" gradientUnits="userSpaceOnUse"><stop id="SvgjsStop2891" offset="0" stop-color="#e9bfa9" stop-opacity=".5"/><stop id="SvgjsStop2892" offset=".9" stop-color="#daa488" stop-opacity="0"/></radialGradient><radialGradient id="SvgjsRadialGradient3077" cx="129.04" cy="83.94" r="15.12" class="svga-on-canvas-eyesback-gradient-left-0" gradientTransform="matrix(-1 .1 .1 1 192.83 -12.46)" gradientUnits="userSpaceOnUse"><stop id="SvgjsStop3078" offset="0" stop-color="#fff" stop-opacity="1"/><stop id="SvgjsStop3079" offset=".32" stop-color="#fcfdfd" stop-opacity="1"/><stop id="SvgjsStop3080" offset=".5" stop-color="#f4f7f8" stop-opacity="1"/><stop id="SvgjsStop3081" offset=".66" stop-color="#e5ecef" stop-opacity="1"/><stop id="SvgjsStop3082" offset=".76" stop-color="#d8e2e7" stop-opacity="1"/></radialGradient><radialGradient id="SvgjsRadialGradient3084" cx="128.64" cy="83.99" r="15.12" class="svga-on-canvas-eyesback-gradient-right-0" gradientTransform="rotate(5.98 122.86 62.42)" gradientUnits="userSpaceOnUse"><stop id="SvgjsStop3085" offset="0" stop-color="#fff" stop-opacity="1"/><stop id="SvgjsStop3086" offset=".32" stop-color="#fcfdfd" stop-opacity="1"/><stop id="SvgjsStop3087" offset=".51" stop-color="#f4f7f8" stop-opacity="1"/><stop id="SvgjsStop3088" offset=".66" stop-color="#e5ecef" stop-opacity="1"/><stop id="SvgjsStop3089" offset=".76" stop-color="#d8e2e7" stop-opacity="1"/></radialGradient><radialGradient id="SvgjsRadialGradient3100" cx="121.99" cy="82.5" r="16" class="svga-on-canvas-eyesfront-gradient-left-3" fx="133.24" fy="82.53" gradientTransform="matrix(1 .02 .02 -.8 -45.32 145.94)" gradientUnits="userSpaceOnUse"><stop id="SvgjsStop3101" offset="0" stop-color="#cb8b6a" stop-opacity="1"/><stop id="SvgjsStop3102" offset=".7" stop-color="#cb8b6a" stop-opacity=".3"/><stop id="SvgjsStop3103" offset="1" stop-color="#daa488" stop-opacity="0"/></radialGradient><radialGradient id="SvgjsRadialGradient3105" cx="68.93" cy="106" r="29.52" class="svga-on-canvas-eyesfront-gradient-left-4" gradientTransform="translate(-1.68 1.31)scale(1.03)" gradientUnits="userSpaceOnUse"><stop id="SvgjsStop3106" offset=".95" stop-color="#000" stop-opacity="0"/><stop id="SvgjsStop3107" offset="1" stop-color="#000" stop-opacity=".2"/></radialGradient><radialGradient id="SvgjsRadialGradient3120" cx="121.59" cy="82.5" r="16" class="svga-on-canvas-eyesfront-gradient-right-3" fx="132.84" fy="82.53" gradientTransform="rotate(178.8 121.5 74.25)scale(1 .8)" gradientUnits="userSpaceOnUse"><stop id="SvgjsStop3121" offset="0" stop-color="#cb8b6a" stop-opacity="1"/><stop id="SvgjsStop3122" offset=".7" stop-color="#cb8b6a" stop-opacity=".3"/><stop id="SvgjsStop3123" offset="1" stop-color="#daa488" stop-opacity="0"/></radialGradient><radialGradient id="SvgjsRadialGradient3125" cx="69.32" cy="106" r="29.52" class="svga-on-canvas-eyesfront-gradient-right-4" gradientTransform="matrix(-1.03 0 0 1.03 201.68 1.31)" gradientUnits="userSpaceOnUse"><stop id="SvgjsStop3126" offset=".95" stop-color="#000" stop-opacity="0"/><stop id="SvgjsStop3127" offset="1" stop-color="#000" stop-opacity=".2"/></radialGradient><linearGradient id="SvgjsLinearGradient3058" x1="100" x2="100" y1="171" y2="128" class="svga-on-canvas-chinshadow-gradient-single-0" gradientUnits="userSpaceOnUse"><stop id="SvgjsStop3059" offset="0" stop-color="#cb8b6a" stop-opacity=".8"/><stop id="SvgjsStop3060" offset=".7" stop-color="#ac5f38" stop-opacity="1"/></linearGradient>
    </defs>
</svg>
