<svg xmlns="http://www.w3.org/2000/svg" width="600" height="600" viewBox="0 0 600 600" style="overflow:hidden!important">
    <path fill="#060606" d="M675 675H-75V-75h750z"/><path fill="#1b141c" d="M114.2 317.6c-13.6-32.1-11.6-45.4-8-70.5-6.2 6.7-10 15.8-20.1 24.2.8-6 12.8-41 13.7-43.5-11.5 10.5-17.9 12.7-23.4 15 3.7-5.6 6.2-12.1 11.7-23.9h34.6a217 217 0 0 0 7 42.7c-2 1.3-7.2 9.5-15.5 56m362.5-93.8a198 198 0 0 1-8.7 47.6l4.6 3c17.9 14.4 20.7 16.8 22.6 40.2 13-28 2-64 1.3-90.8zm19.8 0h13.3a65 65 0 0 1-10.2 19.9c-1.7-6.5-2.6-15.7-3-19.9"/><path d="M102.6 224c-10.2 26.7-10.8 33.4-16.2 46.5 8.6-7 15-21 20.7-24.6-1 9-5.7 27.3-.4 47.4q3 11.4 7.5 22c.8-10.6 2.4-41.7 12.3-51.2a181 181 0 0 0-10.7 59.4c-19.2-33.5-14.8-51.9-10.3-75.2-7 8-9 18-22.5 26.2 4.6-9.7 6.1-21.3 15.6-44.9A48 48 0 0 1 75 243.8c4-6.5 7.4-14.8 10.5-21.6h3.2c-3 6.5-6 13-9.8 18.6 7.8-3 15.4-8.8 23.8-16.9M468 271.3c.7.5 5 3.5 7 5.2 8.2 7.2 18.8 13.8 18 45.8 13.7-23.5 12-58.4 7.7-77.3 6-6.5 10.1-14.6 12.2-21.3h-3.6c-1.8 5.8-5 13-9.4 18.5-1.7-6.5-2.6-13.7-3-17.9l-.4-.6c.6 26.9 9.3 58.8-.7 88.5-1.9-23.3-7.3-27.6-27.8-40.9"/>
    <path fill="#93614a" d="M586.3 599.3c-6.6-14.2-24.6-35.3-44.6-41.1-24.7-7.2-80.5-16-101.2-20.8-16.6-3.9-50-33.9-61.7-44a13 13 0 0 1-3.9-8.2c-.4-32.6 12.6-119.2 12.6-119.2h-175s13 86.6 12.6 119.2c0 2.7-1.8 6.4-3.9 8.2-11.7 10.1-45 40.1-61.7 44-20.7 4.8-76.5 13.9-101.2 21-20 5.9-38 26.7-44.5 41C2.6 623.3 0 666.7 0 704.3h600c0-37.6-2.6-81-13.7-105"/><path fill="#a27662" d="M477.5 552.2c73 10.6 103.7 26.1 113.4 152.1h9.1c0-37.5-2.6-81-13.7-105-6.6-14.2-24.6-35.3-44.6-41.1-24.7-7.2-80.5-16-101.2-20.8-16.6-3.9-54.8-36.2-65-49 10.1 14 38.4 46.8 63.2 55.3 11.9 4.1 21.7 6 38.8 8.5m-316.2-8.5c24.8-8.5 53-41.2 63.2-55.3-10.2 12.8-48.4 45.1-65 49-20.7 4.8-76.5 13.9-101.2 21-20 5.9-38 26.7-44.5 41C2.6 623.3 0 666.7 0 704.3h9.2C18.7 579 49.6 562.7 122.5 552.1c17-2.5 27-4.4 38.8-8.5"/><path fill="#844e35" d="M287 592.9s-15.3-4.9-21.3-7.2c-31.4-12-133.2-19.8-133.2-19.8s107.3 4.3 131 8.3c-1.4-14.3-9.1-60-9.1-60l19.2 63.2c2 6.8 13.3 15.5 13.3 15.5m32.3-4-.9.7zm-32.4 4s8.7 9 13 9c5.8.2 14.6-8.6 18.5-12.3a36 36 0 0 1-15.9 4.3c-4 .2-15.6-1-15.6-1m63-22.6c-4.5.7-13 2.4-13 2.4l6.8-44.7c-2 9.2-13.4 48.6-24.4 60.8 5.8-4.8 18.5-7.1 25-8 30.7-4.5 30.7-4.5 123.2-14.9 0 0-87.2-.5-117.5 4.4"/><path fill="none" stroke="#652e15" stroke-width="4.5" d="M586.3 599.3c-6.6-14.2-24.6-35.3-44.6-41.1-24.7-7.2-80.5-16-101.2-20.8-16.6-3.9-50-33.9-61.7-44a13 13 0 0 1-3.9-8.2c-.4-32.6 12.6-119.2 12.6-119.2h-175s13 86.6 12.6 119.2c0 2.7-1.8 6.4-3.9 8.2-11.7 10.1-45 40.1-61.7 44-20.7 4.8-76.5 13.9-101.2 21-20 5.9-38 26.7-44.5 41C2.6 623.3 0 666.7 0 704.3h600c0-37.6-2.6-81-13.7-105z"/><path fill="url(#a)" d="M124.3 162.2v-.5a263 263 0 0 1 3-32c-15.7-2-39-2-54.6 0a293 293 0 0 1 3 32.4q6 5.5 11.1 8.2c5.3 2.5 21 2.4 26.4 0q5.3-2.6 11-8" transform="scale(3)"/><path fill="#386e77" d="M335.4 707.7c-57.4 0-124.3-.3-204.7-.7l-71-.4-50.7-.3H-5.7c-13.7-125.6 43.3-158.6 131.3-170 23.4-3.4 46.4-9.4 64.4-21 49 66.7 194.4 52.7 219.3-1.9 4.2 1.6 7.6 3.6 12 5.2a101 101 0 0 0 52.8 18.6c78 4.3 133.3 39 132.2 164v4.4c-37.6 0-51.7.4-81.2.8-40 .5-89.7 1.3-189.6 1.3"/><path fill="#4d7e86" d="M603.2 704c-1.3-22.2-12.2-84.3-31.1-112.7-37.5-56.4-126.8-36.6-147.4-59-15 30.4-75 49.7-94.8 52.5 57.5-19 81.7-32.8 91.3-65.6 19.2 25 123.2 6 164.1 73 12 19.7 23.4 82.2 17.9 111.7M167.4 532.8c4.1-1 6.1-3.8 10.2-4.9l-4.3-5.6c-27.1 21.1-128.7 7.9-163.6 72-11 20.3-18.3 68.4-12.5 109.4 1.6-25.2 2.4-79 21.3-107.4 34-51.2 95.9-37.7 142.8-59.3 21 25.8 53.7 38.5 87 43.7-41.8-10.9-65.7-29.3-80.9-48"/><path fill="#265e68" d="M406 519.7c-16.7 34.6-142.1 74.8-212.9 2.7-4.4 1.8-17.5 6.3-17.5 6.3 51.5 70.2 202.5 70.6 242.7-.3-.2-.1-8.3-6.6-12.4-8.7"/><path fill="#0c4049" d="M409.1 513c-28.2 56.5-175.2 64.5-219 1.9-16 4.7-31.4 14.8-46.9 17.3C50.4 546.1-18.1 553-6 706.7c29.8 0-19.8-.2 136.7.6 370.8 2.1 358.7-1.4 475.8-1.4v-4.8c6.4-169.3-92.5-159.3-159.3-171-9.4-2.1-18.2-8.3-25.9-11.8-4.2-2-7.8-3.7-12.2-5.3m-220 3.8c38.9 70.2 192.6 56 222.3.3 3.6 1.5 4.5 2.1 8.7 3.6-30.8 64.5-182.9 85-245 3.5.4-.1 9.6-5.8 14-7.4M-2.6 704.3c-7.3-79.3 5.4-144 98.3-160 30.8-5.7 49.7-5.9 76.2-17.4 50.2 82.2 216.3 69.5 250.8-3.9 5 4.2 12.6 9 22.2 11.4 54.3 12.9 164.5-2.7 158.7 170-162.2-2.2-296.6-7.1-606.2 0"/><path fill="#93614a" stroke="#652e15" stroke-width="4.5" d="M137 253c-4.4-7.4-19-27.6-30-24.7-9.1 2.3-9 14.9-9.7 22.3-1 11-1.4 30 1.6 37.7 2.8 7.5 11.9 21.8 17.5 27.3 6.9 6.7 17.9 28 19.2 30.3 2.2 3.5 6.4 8.5 13 8 9.2-.5 17.2-9.2 17.9-13.4 3.9-22.7-17.9-68.2-29.5-87.5z"/><path fill="#652e15" d="M132.6 298a22 22 0 0 1 .5-7.3q.7-3.9.5-6.5c-.9-6.3-5.7-18.2-9-24.6-3.6-7.5-9.5-16.8-17-19.2-3-1-5 .2-6.2 1.4-.9.8-1 1.9-.8 2 .3.1 1-.7 1.9-1.5.7-.7-1.6-.2 0 0-.7 3-2.6 18.9-1.3 30.4 1 9 3.2 15.8 3.8 16.8l.5 3.2c3 13.2 22.5 30.5 27 35.4q1.6 1.5 2 1.3c.4-.2-.3-1.2-1.1-2-4.5-5-24-22.2-26.8-35-3.1-13.5 11.7-33.6 14-37.8a75 75 0 0 1 5 9.8c-1.3 2.2-15.3 18.3-11.7 31.3 1.3 4.8 11.5 11 15.4 12.6a8 8 0 0 1 3.9 4c1 1.8.1 6.6 3.7 8.1a5 5 0 0 0 2 .5q1.4 0 2.3-.9v2.8q0 2 .5 1.9.5 0 .7-1.8c0-1.5 0-3.4-.3-4.3a31 31 0 0 0-5.8-8.9c-2.6-3.1-3-9-3.7-11.7m-27.7-11.7c-7-20.8 3.9-39.7 5.4-42.5a30 30 0 0 1 9.7 9.7c-1.4 2.5-14.8 18.8-15 32.8m32.4 33c-3.2-1.3-2.1-5.9-3.2-7.7-1-1.6-1.9-3.3-4.4-4.3l-1.7-1c-8-18.3.8-26.2 3-27.9a40 40 0 0 1 1.5 6q.1 2.4-.5 6.2c-.5 2.8-1 5.8-.5 7.7.8 2.9 1.3 9 3.9 12.2 2.3 2.8 4.7 5.8 5.6 8.2-.4.5-1.5 1.6-3.7.7"/><path fill="#93614a" stroke="#652e15" stroke-width="4.5" d="M462.2 253c4.5-7.4 19-27.6 30-24.7 9.1 2.3 9 14.9 9.7 22.3 1 11 1.4 30-1.6 37.7a104 104 0 0 1-17.4 27.3c-7 6.7-18 28-19.3 30.3-2.1 3.5-6.4 8.5-13 8-9.2-.5-17.2-9.2-17.9-13.4-3.9-22.7 18-68.2 29.5-87.5z"/><path fill="#652e15" d="M463 309.7a31 31 0 0 0-5.9 8.9c-.3 1-.3 2.8-.2 4.3q0 1.9.6 1.8t.5-1.9V320q.8.8 2.4.9a5 5 0 0 0 2-.5c3.5-1.5 2.5-6.3 3.6-8.2 1-1.6 1.8-3 4-3.9 3.9-1.7 14-7.8 15.3-12.6 3.6-13-10.4-29.1-11.8-31.3a119 119 0 0 1 5-9.8c2.4 4.2 17.2 24.3 14.1 37.8-2.9 12.8-22.3 30-26.8 35q-1.3 1.4-1.1 2 .4.2 2-1.3c4.5-4.9 24-22.2 27-35.4q.4-1.5.5-3.2c.6-1 2.7-7.7 3.8-16.8 1.4-11.5-.6-27.3-1.2-30.4 1.5-.2-.8-.7 0 0 .9.8 1.5 1.6 1.8 1.5s.1-1.1-.8-2a6 6 0 0 0-6.2-1.4c-7.5 2.4-13.4 11.7-17 19.2-3.3 6.4-8.1 18.3-9 24.6q-.1 2.7.6 6.5c.4 2.8.8 5.6.4 7.3-.7 2.6-1 8.6-3.6 11.7m16.2-56.2a30 30 0 0 1 9.7-9.7c1.6 2.8 12.5 21.7 5.4 42.5-.3-14-13.6-30.3-15-32.8m-21 65.2c.9-2.4 3.3-5.4 5.6-8.3 2.7-3.2 3.2-9.2 3.9-12 .5-2 0-5-.4-7.8-.4-2.4-.8-4.8-.6-6.3q.3-2.4 1.4-5.9c2.3 1.7 11.2 9.6 3.2 27.9l-1.8 1c-2.5 1-3.5 2.7-4.4 4.3-1 1.8 0 6.4-3.2 7.8-2.2 1-3.3-.2-3.6-.7"/><path fill="#93614a" d="M432 381c-15 30.7-60.1 85.3-92.4 99.8-16 7.2-63.3 7.6-79.2 0-32-15.2-77.3-69.2-92.4-99.8-16.8-34.1-44.6-145.7-44.6-145.8q-6-22.6-6-46.9a183.6 183.6 0 0 1 182.3-185 183.6 183.6 0 0 1 183 184.4q0 24.4-6 47S448.9 346.6 432 381"/><path fill="#8b573f" d="M330.5 6c81 19 141.2 92.4 141.1 180q0 24.5-6 47c0 .1-25.8 111.7-42.4 145.8-14.6 30-59 82.4-90.2 97.5-6.5 3.2-26 4.7-33 4.7s-26.5-1.5-33-4.7c-31-15.1-75.6-67.5-90.2-97.5-16.6-34.1-42.4-145.7-42.4-145.9q-6-22.5-6-46.8A184 184 0 0 1 269.6 5.9a184 184 0 0 0-152.2 182.4q0 24.4 6 46.9c0 .1 27.7 111.7 44.6 145.8 15.2 30.6 60.6 84.2 92.4 99.8 8 3.9 28 5.6 38.9 5.5 11 0 32.3-1.6 40.3-5.5 31.8-15.6 77.3-69.2 92.4-99.8 16.9-34.1 44.6-145.7 44.6-145.8q6-22.5 6-46.9A184 184 0 0 0 330.5 5.9"/><path fill="none" stroke="#652e15" stroke-width="4.5" d="M432 381c-15 30.7-60.1 85.3-92.4 99.8-16 7.2-63.3 7.6-79.2 0-32-15.2-77.3-69.2-92.4-99.8-16.8-34.1-44.6-145.7-44.6-145.8q-6-22.6-6-46.9a183.6 183.6 0 0 1 182.3-185 183.6 183.6 0 0 1 183 184.4q0 24.4-6 47S448.9 346.6 432 381z"/><path fill="url(#b)" d="m96.2 139.2 8.3-.2c-1 4.5-7.6 3.9-8.3.2" transform="scale(3)"/><path fill="#652e15" d="M289 418.6c-1-.2-1-1.8.3-1.7.1 0 12.9 1.7 23.6-.6 1.2-.2 1.5 1.4.4 1.6a81 81 0 0 1-24.3.7m11.2-10.8c-4.5 0-8.8-1.5-13.2-2.3-5-.8-9.8-.1-14.8.3s-16 0-19-2a2.4 2.4 0 0 1 .5-4.3c1.8-.7 4.7.7 6.6 1 8.6 1.6 13.1 0 20.7-.3 11.5-.4 12.7 4.5 27.2 1.6 15.4-3.2 22.4-.8 33.5-4.1 1.6-.5 3.4-1.7 5-.9 1.8 1 1.7 3.6-.2 4.4-10.2 4.5-21.5 2.7-32.8 4.6-4.5.7-9 2-13.5 2"/><path fill="url(#c)" d="M61.8 82.5c-.6-2.3 5.1-4 12.7-3s12.7 5.5 12 7.8c-.4 1.3-10.6 3.3-14.2 2.9-3.7-.4-9.3-2.2-10.5-7.7" transform="scale(3)"/><path fill="#4d3623" d="M240.8 252.8a18 18 0 1 1-36 0 18 18 0 0 1 36 0"/><path fill="#5c4633" d="M212.3 261.2c2.6-.3.3-1 .3-1-1.3-.7-3.8-1.7-3.8-2.7 0-3.1 4.3-4 0-5.1-4.6-4.2 3.4-4 3.4-4.2-3-7.2.9-3.2 2.5-5.3 6-7.8 1.6.8 4.9 0 1.2-.3-2.4-4.6 0-4 1.7.4 2 1.7 2 1.7 1.3-.2 3.1-2 3.1-2 2.2.6 3.8 3.8 3.1 3.2 1.1-.1 2.7-.6 3.9-1 0 0 .2-.7.4 0 2.8 7.9 9.9 7.3 1.7 9.6 0 0-.6 0 1.1 1.4 8.2 6.4-6.3 4.4 1.4 7.4.3-.3-4.6 3-4.6 3.8 0 1.5-3.1 5.5-5.9 4-1.5-1-1.7 1.7-2.6.5-1.7-2.4-5.2-.1-4-2.3 2-1.6-1.9.6-2.6.6-2.5 0 3.2-8.4 11.6-2.2 2.5 1.8-2.5-4.3 2-4.3.4.2.2-1.5.2-2-2.3-.5 4.2 0 4.2-3.8.4 0 1.5-1-4.9 0 0 0-.2-2.3-.1-2.7.3-1.3 3.6-.9 2.7-2.2l-2.4-4.8c-7.7-1.3-3.3-2-8.1-1-.2 1-10.4 6-10 8.1.3 2.1 6.3 2.9.6 6.6 8.6 16.4-6.3-.4-.1 3.7"/><path fill="#2e1b0c" d="m222.8 237 .5 13.2 5.5-12-4.6 12.4 9.7-9-9 9.7 12.4-4.6-12 5.5 13.2.5-13.2.6 12 5.5-12.4-4.6 9 9.7-9.7-9 4.6 12.4-5.5-12-.6 13.2-.5-13.2-5.5 12 4.6-12.4-9.7 9 9-9.7-12.4 4.6 12-5.5-13.2-.6 13.2-.5-12-5.5 12.4 4.6-9-9.7 9.7 9-4.6-12.4 5.5 12z"/><path fill="#1f1105" d="m225.1 241-1.6 9.9 6-8.1-5.3 8.5 8.6-5.2-8.2 5.9 10-1.6-9.8 2.3 9.8 2.4-10-1.6 8.1 6-8.5-5.3 5.2 8.6-5.9-8.2 1.6 10-2.3-9.9-2.4 9.8 1.6-10-6 8.2 5.3-8.5-8.6 5.2 8.2-5.9-10 1.6 9.9-2.4-9.8-2.3 10 1.6-8.2-6 8.5 5.3-5.2-8.6 5.9 8.2-1.6-10 2.4 9.8z"/><path d="M229.5 252.8a6.8 6.8 0 1 1-13.5 0 6.8 6.8 0 0 1 13.5 0" opacity=".9"/><path fill="#fff" d="M215.7 265.7c-1 1-3 .6-4.4-.8s-1.8-3.4-.8-4.4 3-.6 4.4.8 1.8 3.4.8 4.4" opacity=".7"/><path fill="#fff" d="M237.2 249.2c-1.5 1.5-5.1.3-8-2.7s-4.2-6.5-2.7-8 5-.3 8 2.7 4.2 6.5 2.7 8" opacity=".9"/><path fill="#93614a" d="M159.9 249c2.4 32.7 34.9 70.7 61.5 66.7 31.5.3 62.6-23.6 62.6-67s-15.3-79.5-63.4-79.5c-34.5 0-60.7 36.5-60.7 79.8m25.4-1.4c-1.6-6.9 15.5-12 38-9.2 22.6 2.8 38.3 16.6 36.2 23.5-1 4-31.9 9.8-42.7 8.6-11-1.2-27.9-6.4-31.5-23"/><path fill="url(#d)" d="M72.3 90.2c3.6.4 13.8-1.6 14.2-2.9.7-2.3-4.5-6.9-12-7.8-6.5-.8-11.6.3-12.6 2.1.9-6.4 7.7-11.4 16-11.4 8.9 0 16.1 5.6 16.2 12.7S86.9 95.8 78 96s-16.2-5.9-16.2-13v-.3c1.3 5.3 6.9 7 10.5 7.4" transform="scale(3)"/><path fill="url(#e)" d="M61.8 82.5c-.6-2.3 5.1-4 12.7-3s12.7 5.5 12 7.8c-.4 1.3-10.6 3.3-14.2 2.9-3.7-.4-9.3-2.2-10.5-7.7" transform="scale(3)"/><path fill="#652e15" d="M186.4 232.3a63 63 0 0 1 41.6-3 67 67 0 0 1 21.1 7.9 59 59 0 0 1 15 12.5c-4-5-8.3-9.3-13.8-12.8a74 74 0 0 0-22.1-8.7 60 60 0 0 0-41.8 4"/><path d="M188.3 234c2.6-1 12.2-3 16.4-3.1 5-.3 15.2.3 20.2 1.2 10.1 1.9 27.7 7.5 35 21.6 2.3 4.3.2 7.4-.4 8 1-7.3-14.5-20.2-36.1-22.8-22.6-2.7-39.7 2.2-38.1 8.9 3.6 16 20.5 21 31.5 22.2 12.3 1.3 35-4.6 38-5.3-6 3-22.5 6.3-29.3 7l-9 .2c-17.8-.5-30.4-9.5-35.1-21.8-3-7.9.3-13.4 7-16"/><path fill="url(#f)" d="M137.8 82.5c.6-2.3-5.1-4-12.7-3s-12.7 5.5-12 7.8c.4 1.3 10.6 3.3 14.2 2.9 3.7-.4 9.3-2.2 10.5-7.7" transform="scale(3)"/><path fill="#4d3623" d="M395.3 252.7a18 18 0 1 1-36 0 18 18 0 0 1 36 0"/>
    <path fill="#5c4633" d="M366.8 261.2c2.6-.3.3-1 .3-1-1.3-.6-3.8-1.7-3.8-2.7 0-3.1 4.3-4 0-5.1-4.6-4.2 3.4-4 3.4-4.2-3-7.2.9-3.2 2.5-5.4 6-7.7 1.7.9 4.9 0 1.1-.2-2.4-4.5 0-4 1.7.5 2 1.8 2 1.8 1.3-.2 3-2 3-2 2.3.6 4 3.8 3.2 3.2 1.1-.1 2.7-.6 3.9-1 0 0 .2-.7.4-.1 2.7 8 9.8 7.4 1.7 9.7 0 0-.5 0 1.1 1.3 8.1 6.5-6.3 4.5 1.4 7.5.3-.3-4.6 3-4.6 3.8 0 1.5-3.1 5.5-5.9 3.9-1.5-.9-1.7 1.8-2.6.6-1.7-2.4-5.2-.1-4-2.3 2-1.6-1.9.6-2.6.6-2.5 0 3.2-8.4 11.6-2.2 2.5 1.8-2.6-4.3 2-4.3.4.2.3-1.5.3-2-2.4-.5 4.1 0 4.1-3.8.4 0 1.6-1-4.9 0 0 0-.2-2.3 0-2.7.2-1.3 3.5-.9 2.6-2.2l-2.4-4.8c-7.7-1.3-3.3-2-8.1-1-.2 1-10.4 5.9-10 8.1.3 2.1 6.3 2.8.6 6.6 8.6 16.4-6.3-.4-.1 3.7"/><path fill="#2e1b0c" d="m377.3 237 .5 13.2 5.5-12-4.6 12.4 9.7-9-9 9.7 12.4-4.6-12 5.5 13.2.6-13.2.5 12 5.5-12.4-4.6 9 9.7-9.7-9 4.6 12.4-5.5-12-.6 13.2-.5-13.2-5.5 12 4.6-12.4-9.7 9 9-9.7-12.4 4.6 12-5.5-13.2-.6 13.2-.5-12-5.5 12.4 4.6-9-9.7 9.7 9-4.6-12.4 5.5 12z"/><path fill="#1f1105" d="m379.6 241-1.6 9.9 6-8.1-5.3 8.5 8.6-5.2-8.2 5.9 10-1.6-9.9 2.3 9.9 2.4-10-1.6 8.1 6-8.5-5.3 5.2 8.6-5.9-8.2 1.6 10-2.4-9.8-2.3 9.7 1.6-9.9-6 8.1 5.3-8.5-8.6 5.2 8.2-5.9-10 1.6 9.9-2.3-9.9-2.4 10 1.6-8.1-6 8.5 5.3-5.2-8.6 5.9 8.2-1.6-10 2.4 9.9z"/><path d="M384 252.7a6.8 6.8 0 1 1-13.5 0 6.8 6.8 0 0 1 13.5 0" opacity=".9"/><path fill="#fff" d="M370.1 265.7c-1 1-2.9.6-4.3-.8s-1.8-3.4-.8-4.4 3-.6 4.4.8 1.8 3.4.7 4.4" opacity=".7"/><path fill="#fff" d="M391.7 249.2c-1.5 1.5-5.1.3-8-2.7s-4.2-6.5-2.7-8 5-.3 8 2.7 4.1 6.5 2.7 8" opacity=".9"/><path fill="#93614a" d="M378.2 169.2c-48.1 0-63.4 36.3-63.4 79.6s31.1 67.2 62.6 67c26.6 4 59-34.1 61.5-66.8 0-43.3-26.2-79.8-60.7-79.8m3.8 101.3c-10.8 1.2-41.6-4.7-42.7-8.6-2.1-7 13.6-20.7 36.1-23.5 22.6-2.8 39.7 2.3 38.1 9.2C410 264 393 269.3 382 270.5"/><path fill="url(#g)" d="M127.3 90.2c-3.6.4-13.8-1.6-14.2-2.9-.7-2.3 4.5-6.9 12-7.8 6.5-.8 11.6.3 12.6 2.1-.9-6.4-7.7-11.4-16-11.4-8.9 0-16.1 5.6-16.2 12.7s7.2 12.9 16.1 13 16.2-5.7 16.2-12.8v-.3c-1.3 5.3-6.9 7-10.5 7.4" transform="scale(3)"/><path fill="url(#h)" d="M137.8 82.5c.6-2.3-5.1-4-12.7-3s-12.7 5.5-12 7.8c.4 1.3 10.6 3.3 14.2 2.9 3.7-.4 9.3-2.2 10.5-7.7" transform="scale(3)"/><path fill="#652e15" d="M412.4 232.3a63 63 0 0 0-41.6-3 67 67 0 0 0-21.1 7.9 59 59 0 0 0-15 12.5c4-5 8.3-9.3 13.8-12.8a74 74 0 0 1 22.1-8.7 60 60 0 0 1 41.8 4"/><path d="M410.5 234c-2.6-1-12.2-3-16.4-3.1-5-.3-15.2.3-20.2 1.2-10.1 1.9-27.7 7.5-35 21.6-2.2 4.3-.2 7.4.4 8-1-7.3 14.5-20.2 36.1-22.8 22.6-2.7 39.7 2.2 38.1 8.9-3.6 16-20.5 21-31.5 22.2-12.3 1.3-35-4.6-38-5.3 6 3 22.5 6.3 29.3 7l9 .2c17.8-.5 30.4-9.5 35.1-21.8 3-7.9-.3-13.4-6.9-16"/><path fill="url(#i)" d="M141 114a41 41 0 1 1-82 0 41 41 0 0 1 82 0" transform="scale(3)"/><path fill="url(#j)" d="M137.5 54a37.5 37.5 0 1 1-75 0 37.5 37.5 0 0 1 75 0" transform="scale(3)"/><path fill="#2a232b" d="M162 222.6c29.9-30 50.3-17.8 91.8-9.8 2.5.5 19 4.6 15.9 10.4-1.5 2.8-6.1 2.4-8.7 2.4-41-.8-61-30-99-3m276 0c-29.9-30-50.3-17.8-91.8-9.8-2.5.5-19 4.6-15.9 10.4 1.4 2.8 6.1 2.4 8.7 2.4 41-.8 61-30 99-3"/><path fill="#844e35" d="M290.5 265.6s-4.2 33.3-6 39.8c-4.2 14.3-18.6 34.3-15.8 43.3 5.6 18 22.6 13.5 31.6 13.4 8.3 0 24.2 4.7 27.5-7.1 1-3.8-1.4-13.4-1.4-13.4s-7.9 9.3-26.6 8.3c-5.3-.3-14-6.3-14.1-14.7-.1-11.5 5.4-21.1 6.6-32.5 1-8.6-1.8-37.1-1.8-37.1"/><path fill="#652e15" d="M315.6 357c3.2 0 4 .9 4 2 0 1.3-1 3.2-4 2.3-3.4-1-9.4-.5-9.4-.5s6.2-3.9 9.4-3.9m-30.8 0c-3.3 0-4.1.9-4.1 2.1s1 3 4 2.2c3.5-.9 9.4-.5 9.4-.5s-6.1-3.9-9.3-3.9m41.6-15.4s4.5 5.8 3.6 12c-1 5.9-10 8.5-10 8.5s6.3-4.5 7-10c.4-2.6-.6-10.5-.6-10.5m-55.1-6s-3.3 8.2-2.3 13.1c1.7 9 11 12.5 11 12.5s-5.8-6.1-7.9-11.5c-2.3-6-.8-14-.8-14"/><path fill="#a27662" d="M315.4 346c3.2-2.7 3.5-4.3 2.8-5.3-.6-1-2.5-1.6-5.1 1.6-3 3.6-9.2 6.2-9.2 6.2s8.4 0 11.5-2.6"/><path fill="#2a232b" d="M173.4 86.2c27.7-26.4 133.7-2.3 165.6.7 30.4 2.4 70.6-91 130.8 148.5-.1 11.5-3.9 31.9-8.4 46.4l-1.3-1s1.6 9.8-18.1 43.2c1-24.2-3.7-41.7-7.5-64.2-47.2-60-91.2-74-124.7-84.5 22.5 26.3 44.8 50.4 54.5 76.7-41-28.7-97.2-86.7-97.2-86.7s4.2 14.2 83 86.7c-32.8-8-94-41-136.9-104.9-8.2 13.5 37.2 92.4 38.5 95.4-23-18.2-54.2-43.9-62.3-73.8 0 0-4.7 12.1-8 25.9-8.6 36.5-8.7 81.8-10.2 93.4-5-26.2-5.8-55.5-5.8-55.1-11.7 53.7-1.3 91.2-1 104.2-15.7-31.3-31.9-68.7-36.6-103.6 0 0 34.9-152.1 45.6-147.3" opacity=".1"/><path fill="#2a232b" d="M88.1 203.6c.3-16.2 3.4-41.8 8.8-56.3a203 203 0 0 1-32.3 28.5c13.3-11.6 17.5-21.5 47.7-85 18.6-38.9 30.9-80.2 67.2-85 12.2-1.7 24.1 3 35.3 7.7a128 128 0 0 1 98-34C414.5-12.9 441.6 52.7 496 65.8c-8.5 2.5-22.8-1.4-31-5.2 11.3 15.2 7.3 13.6 32 38.4 10.2 10 19.5 22.3 31.7 29.6-16.3-2-25-14.5-48.8-27.4a230 230 0 0 0 35.8 43.5c8.6 8.2 22.8 19.8 32.7 26.8-7.3-3-28.5-11.2-46.9-27.5 9.5 13.6 36.8 38.8 24.5 89.7-2.5-22.3 0-49.3-21.2-62.7 2.4 9.9 11.5 30.6 4.8 53.1h-32.8c-.1 11.5-4 32.8-8.7 47.3l-1.3-1s-1.5 9.9-22 43.3a272 272 0 0 0-4.7-64.3c-49-60-94.9-74-129.8-84.5a282 282 0 0 1 51.6 82.9c-33.1-35-101.5-89.3-101.5-89.3s1.1 14.6 83.2 87.1c-28.4-17.4-89.1-45-133.7-108.8-8.6 13.5 32.4 92.4 33.7 95.4a160 160 0 0 1-52.3-79.9s-11.1 18.2-14.5 32c-9 36.4-6 66.8-7.6 78.3a523 523 0 0 0-9.1-40c-12.2 53.6 1.8 97.1 2 110.1-16.2-31.3-36.2-75-41.1-109.9H86c2-13 .5-13 2-19.2"/><path fill="#0c080c" d="M68.3 111.9c11.4-.6 17.6.3 31-.8 2-4.6 8.3-16.7 10.4-21.2-10.5 9.3-32.3 21-41.4 22"/><path fill="#1b141c" d="M360 18c48-6.9 92.7 44.8 133.3 48-8.7 1.8-22.2-3-30-6.7 11.2 15.1 8.2 15.2 33 40 10.1 10 17.3 20.8 29.5 28-13-2.1-23.6-14.8-47-27.5C451.4 59.2 409.5 23.5 360 18M191.2 152.3s-11.1 18.2-14.5 32c-9 36.4-6 66.8-7.6 78.3a523 523 0 0 0-9.1-40l-.8 3.8c-10.7 51.9 2.6 93.6 2.8 106.3-16.2-31.3-36.2-74.7-41.1-109.6H86c2-13 .5-13.3 2-19.5.3-16.2 3.4-41.8 8.8-56.3a203 203 0 0 1-32.3 28.5C77.7 164.4 82 154.6 110.8 94q13.4-20.5 30.2-40c-21 27-33 60-36 93 6-18 24.2-30.2 36.6-44.5A178 178 0 0 0 114 171c3.8-6.5 9.1-10.1 13-15a69 69 0 0 0-1.6 42.1c2.7-21.4 7.2-56.1 18.6-75.1 0 33-10.2 64.7 3 99.8-.1-26 9.7-49.6 16.6-67.4-1.4 6.4-.3 22.4 0 29 3.9-20 6.5-39.7 18.1-55.8-5.2-30-13.4-62-2.3-70-18 31.3 37.4 58.5 35.8 57.2 31 17.2 50.6 19.3 66.7 23.3-10.5-8.4-16-18.9-26.5-27.2 30 10.3 71.9 42.3 93.3 55.4 5.7 8.4 6.2 10.5 7.9 14.5a337 337 0 0 0-46.4-16.9c43.3 48.5 34.6 38.8 51.6 82.9-29.4-31.1-29.4-32-97.2-86 8.2 10.7 29.9 40.5 78.9 83.8-11.1-6.8-93.4-51.2-133.7-108.8-2 15.7.2 26 33.8 95.4-6.2-1.9-30.1-23.3-52.4-79.9m165.4 29.5c25.5 12 53.8 31.5 83.4 67.6 4 22.6 5.7 40 4.6 64.3q6.9-11.1 11-19c10.1-18.3 11-24.2 11-24.2l1.4.9c4.7-14.5 8.6-34.9 8.7-46.4H509c6.7-22.5-3.1-45.7-5.5-55.6 21.2 13.4 21.8 38.2 22.7 60.4 10.1-50-17.8-73.9-26.7-88.2a243 243 0 0 0 46.5 28.5 294 294 0 0 1-30.9-24.6 232 232 0 0 1-26.3-30.4c-14-7.2-24.5-18-38.7-25.1 23.8 15.9 31.3 41 38.9 65.2-3.7-5.2-9.6-8.8-12.7-13.5 3.7 9.9 9.2 20 6.8 32.3-15-21-21-51-45-69 24.2 24.2 26 88 25.8 99.4C439.4 87.2 335.8-23 231 18c105-33 195 78 207 174-21-24-27-54-57-69 15 15 24 39 33 57-33-39-60-78-105-105 21 24 48 45 63 75 9 9 12 21 18 30-21-21-47.4-42.5-74.6-50.4 30.6 26.3 39 47.1 41.2 52.2"/><path fill="#0c080c" d="M353.3 17.5c24.9-.1 94.6 19.5 129.3 87.6-37.2-51.6-75.5-75.4-129.3-87.6m60.2 98.6C374.7 34.7 302.1 9.7 263.1 12.2c28.2-1.8 107.4 27 150.4 104m-194-72.4c-1.8-15.8-23.2-32-46.7-23-2 .8-3.7 2.2-5.7 3 25.5-9.3 49 4.4 52.4 20M212.3 54a50 50 0 0 0-27.9-21.6c-36.1-8.7-63.2 44.8-69.5 68.8.8-3 31.8-75.2 70.5-66.2a51 51 0 0 1 27 19m-3.6 7c-3.4 41.7 92.6 71.2 113.7 89-37.5-31.7-113.1-51.3-113.7-89m165.7 92.5c-8-13.3-41-66.7-94.1-98.5-33-19.7-45.7-7.8-52-4.9 42.6-19.7 120.7 68.3 146 103.4"/><path fill="#3a353a" d="M463.8 90.7s-39-42.1-97.1-62.7C410 39 436 60.2 463.8 90.7m-96-59c25 8.5 68.5 56.7 74 66.1-14.2-24.3-47.5-59.1-74-66.2m-79.2-7.9c49.3 11.3 94.2 66.8 94.2 66.8-21-32.4-55.4-63.6-94.2-66.8m-42.5 28.9c23.8 6.1 77.6 50.6 80.4 54.5-7.8-11-54.3-50.9-80.4-54.5m-17.2 4.6c26.3 3.4 48 25.4 51.2 29.8-13.6-18.5-27.6-29-51.1-29.7m-2.6 8.3C252 92.2 290.1 100 304 118c-19-25-54.2-30.7-77.6-52.4m31.3 62.9a490 490 0 0 1-62.1-38.6c-5.5-4.7-19.6-16-9.3-27.4-7.6 5-6 16.1 4.2 26.8 11.1 11.5 64.2 39.2 67.2 39.2-3-1.6 0 0 0 0m23.7 10.6c-26-6.2-52.6-15-74.9-30.1-15.5-10.5-38.6-34.9-26.6-49.2 3.5-4.1 10.7-6 16-6-5.3 0-11.6 1.2-15.6 4.7-11.6 10 .8 35.6 20.2 49.6 23.5 16.8 53 25 80.9 31M282.6 36c5 1 10 1.6 14.7 3.5 40.6 15.4 79.3 63.2 79.3 63.2-21-31.3-56.1-63.2-94-66.7m3.7 13.3c46.7 18 97.7 77.8 100.7 80-22.7-34.5-61-70-100.7-80m-118 7.3c-31-6.2-45.5 46.2-47.3 49.2 10.5-21.6 26.6-51.2 47.3-49.2m.4 35.7c-26.3 24.6-20.6 55.8-20.2 70.4-.5-26.5 6.3-54 20.2-70.4"/>
    <path d="M94.5 151.4c-12 33-8.6 67.1-8.8 70.1l-1 2.1c3.2-.6 2.5 0 3.3 0 6-13 13.6-30 34-57.4a268 268 0 0 0-33.7 49.9c5.4-34.7 27.5-63.4 30-67a159 159 0 0 0-29.6 52.1c.3-16.2 4-41.2 9.4-55.7-9.8 10.1-22.2 23-32.3 29.4 13.3-11.6 18-20.6 48.3-84 18.6-39 29-79.7 65.4-84.6a67 67 0 0 1 35.3 7.2 127 127 0 0 1 98-32.5C414.4-11.4 440 52.6 494.4 65.7c-8.5 2.5-23-2.6-31.1-6.4 11.2 15.1 8.2 15.2 33 40 10.1 10 17.3 20.8 29.5 28-13.2-2.2-23.8-15.1-47.7-28 3.4 5.6 16.9 27 37 46.2a294 294 0 0 0 30.8 24.6 243 243 0 0 1-46.5-28.5c8.9 14.3 36.9 38.2 26.7 88.2-1-22.2-1.5-47-22.7-60.4 2.4 9.9 12.2 33.1 5.5 55.6h3.6c6.4-20.8-2.6-41.3-6.2-51.7 19.2 17.4 18.9 55 17 73.2 7.5-20.6 10.4-40.4 4.3-61.5a101 101 0 0 0-17.8-32.1l-1.6-2.1c14 11.3 31.6 21.2 48.3 24.4 0 0-51.2-36.6-72.9-69.8 5.4 4 12.7 10 20 14.9 10.3 7 18.4 10.6 30.3 9.1-14.1-6.5-23.5-20.4-33.4-30.7-22.1-23.3-13-10.3-31.7-35 15 6.1 23 5.5 32 2.2-5-1.2-10.4-2.6-15.2-4.4-40.2-15.6-85.4-87-180.7-87.3-32.7-.2-68 12.5-91 37.4q-6-2.7-12.1-4.7C150-9.7 132.3 38 109.6 86.1c-8.7 7.2-25.4 23.9-48.1 26a213 213 0 0 0 36.2.7c-20 45.2-21 50-46.8 71.2 22-7.6 29-16.4 43.6-32.6m13.4-59.1c-2.1 4.5-7.1 13-9.1 17.6-13.5 1-16.7 1.1-28.1 1.7 9-1 26.7-10 37.2-19.3m12 119.3c0 5.6 6.3 34.7 13.2 52.7a320 320 0 0 1-3.7-62.5 240 240 0 0 1 10-62.8c-14.2 58.8-6.5 135.4 21.7 189.8-5.8-28.5-9-57.4-5.5-86.5q1.3-10 3.5-20s-2.7-25 4.5-67c-5 34.8-1.5 68.6 5.3 102.7-.7-24.8.6-49.9 7-74 3.4-13.2 7.2-17.3 13.4-32.6-3.4-12.3-5.1-25-6.3-37.7 5.8 38.5 16.2 60.5 37 91.7a98 98 0 0 0 21.5 24.4c-6.2-10.9-26.8-57.3-28-60.4a60 60 0 0 1-4.8-32.3 276 276 0 0 1-16.4-30 274 274 0 0 0 61 76.5A433 433 0 0 0 294 215c14.6 10 30.2 17.8 45.1 27a591 591 0 0 1-52.2-48.6c-8-8.8-17.4-17.6-24-27.7-6.4-10-9.2-21.4-14.3-32 5.1 8.7 8.7 18 12.5 24.3 1 1.6 35.4 27.5 50.7 42 19.3 18.3 29.2 24.4 47.5 43.8-8.4-18.6-10.5-27.5-33.4-57.8-15-20-21.2-21.1-41.3-52.4a228 228 0 0 0 26 30.5c18.5 5.6 35.8 8.7 64.9 26.8 50 31 60.6 54.1 80.9 74a291 291 0 0 0-24.5-50.8c-9-15.7-19-32-30-45.4a174 174 0 0 1 33.4 44.5c9.6 17 20.4 35.4 23.7 55a167 167 0 0 1-17.6-16c3.3 19 5.2 38.7 4.3 58 27-44 37.6-106.6 29.5-146.3 20.9 81.3-17.1 132.5-35 164.6 1.4-19.6-.5-66-2-79.2a295 295 0 0 0-124-81.4 184 184 0 0 1 31.8 40.5 208 208 0 0 1 19.8 45c-15.9-15.8-33.2-30.3-50.2-45-17.5-15-34.3-30.8-51.7-46 4.7 7.1 10.2 13.8 44.3 47 18 17.6 46 42.9 46.6 43.5a607 607 0 0 1-76.9-45.1c-24.6-18.7-51-42.3-67.7-68.4-1.5 18 9.2 37.3 14.7 49 6 12.6 15 34.8 24.7 50.8a104 104 0 0 1-35.8-36.4 206 206 0 0 1-23.5-48c-4.5 8.9-9.4 17.8-11.5 27.7a278 278 0 0 0-4.7 31.4c-2 21.2-4.3 43-3.1 64.3a244 244 0 0 1-11-50c-5 28.6-.2 70.4 5.4 111.8a255 255 0 0 1-36-78.9c-4.9-18-10.4-37.6-9.6-49.5"/><defs><radialGradient id="i" cx="100" cy="114" r="41" class="svga-on-canvas-facehighlight-gradient-single-0" gradientUnits="userSpaceOnUse"><stop offset="0" stop-color="#a27662" stop-opacity=".5"/><stop offset=".9" stop-color="#93614a" stop-opacity="0"/></radialGradient><radialGradient id="j" cx="100" cy="54" r="37" class="svga-on-canvas-facehighlight-gradient-single-1" gradientUnits="userSpaceOnUse"><stop offset="0" stop-color="#a27662" stop-opacity=".5"/><stop offset=".9" stop-color="#93614a" stop-opacity="0"/></radialGradient><radialGradient id="c" cx="129" cy="83.9" r="15.1" class="svga-on-canvas-eyesback-gradient-left-0" gradientTransform="matrix(-1 .1 .1 1 192.8 -12.5)" gradientUnits="userSpaceOnUse"><stop offset="0" stop-color="#fff"/><stop offset=".3" stop-color="#fcfdfd"/><stop offset=".5" stop-color="#f4f7f8"/><stop offset=".7" stop-color="#e5ecef"/><stop offset=".8" stop-color="#d8e2e7"/></radialGradient><radialGradient id="f" cx="128.6" cy="84" r="15.1" class="svga-on-canvas-eyesback-gradient-right-0" gradientTransform="rotate(6 122.9 62.4)" gradientUnits="userSpaceOnUse"><stop offset="0" stop-color="#fff"/><stop offset=".3" stop-color="#fcfdfd"/><stop offset=".5" stop-color="#f4f7f8"/><stop offset=".7" stop-color="#e5ecef"/><stop offset=".8" stop-color="#d8e2e7"/></radialGradient><radialGradient id="d" cx="122" cy="82.5" r="16" class="svga-on-canvas-eyesfront-gradient-left-3" fx="133.2" fy="82.5" gradientTransform="matrix(1 0 0 -.8 -45.3 146)" gradientUnits="userSpaceOnUse"><stop offset="0" stop-color="#844e35"/><stop offset=".7" stop-color="#844e35" stop-opacity=".3"/><stop offset="1" stop-color="#93614a" stop-opacity="0"/></radialGradient><radialGradient id="e" cx="68.9" cy="106" r="29.5" class="svga-on-canvas-eyesfront-gradient-left-4" gradientTransform="translate(-1.7 1.3)" gradientUnits="userSpaceOnUse"><stop offset=".9" stop-opacity="0"/><stop offset="1" stop-opacity=".2"/></radialGradient><radialGradient id="g" cx="121.6" cy="82.5" r="16" class="svga-on-canvas-eyesfront-gradient-right-3" fx="132.8" fy="82.5" gradientTransform="matrix(-1 0 0 -.8 244.5 146)" gradientUnits="userSpaceOnUse"><stop offset="0" stop-color="#844e35"/><stop offset=".7" stop-color="#844e35" stop-opacity=".3"/><stop offset="1" stop-color="#93614a" stop-opacity="0"/></radialGradient><radialGradient id="h" cx="69.3" cy="106" r="29.5" class="svga-on-canvas-eyesfront-gradient-right-4" gradientTransform="matrix(-1 0 0 1 201.7 1.3)" gradientUnits="userSpaceOnUse"><stop offset=".9" stop-opacity="0"/><stop offset="1" stop-opacity=".2"/></radialGradient><linearGradient id="b" x1="100" x2="100" y1="142" y2="139" class="svga-on-canvas-mouth-gradient-single-0" gradientUnits="userSpaceOnUse"><stop offset=".1" stop-color="#8b573f"/><stop offset="1" stop-color="#844e35"/></linearGradient><linearGradient id="a" x1="100" x2="100" y1="171" y2="128" class="svga-on-canvas-chinshadow-gradient-single-0" gradientUnits="userSpaceOnUse"><stop offset="0" stop-color="#844e35" stop-opacity=".8"/><stop offset=".7" stop-color="#652e15"/></linearGradient>
    </defs>
</svg>