<svg xmlns="http://www.w3.org/2000/svg" width="600" height="600" viewBox="0 0 600 600" style="overflow:hidden!important">
   
    <g id="svga-group-wrapper" transform="scale(3)"><g id="svga-group-backs-single"><path id="SvgjsPath3796" fill="#000" stroke="none" stroke-width="none" d="M225 225H-25V-25h250z" opacity="1"/></g><g id="svga-group-subwrapper"><g id="svga-group-hair-back"><path id="SvgjsPath3766" fill="#2a232b" stroke-width="none" d="M100.5 100.5h-1v-1h1z" opacity="1"/></g><g id="svga-group-humanbody-single"><path id="SvgjsPath2893" fill="#cda184" stroke="none" stroke-width="none" d="M195.42 199.78c-2.2-4.75-8.2-11.78-14.86-13.72-8.24-2.4-26.84-5.31-33.74-6.93-5.52-1.3-16.66-11.3-20.56-14.65a4.2 4.2 0 0 1-1.29-2.76c-.14-10.86 4.2-39.72 4.2-39.72H70.83s4.34 28.86 4.2 39.72a4.2 4.2 0 0 1-1.29 2.76c-3.9 3.36-15.03 13.36-20.56 14.65-6.9 1.62-25.5 4.62-33.74 7.02-6.66 1.95-12.66 8.88-14.86 13.63-3.7 8-4.58 22.5-4.58 35h200c0-12.5-.88-27-4.58-35" opacity="1"/><path id="SvgjsPath2894" fill="#dcbaa4" stroke="none" stroke-width="none" d="M159.16 184.06c24.34 3.54 34.58 8.7 37.79 50.72H200c0-12.5-.88-27-4.58-35-2.2-4.75-8.2-11.78-14.86-13.72-8.24-2.4-26.84-5.31-33.74-6.93-5.52-1.3-18.24-12.07-21.64-16.35 3.36 4.7 12.8 15.6 21.06 18.46 3.95 1.37 7.24 2 12.92 2.82m-105.4-2.82c8.27-2.85 17.7-13.75 21.06-18.46-3.4 4.28-16.11 15.06-21.64 16.35-6.9 1.62-25.5 4.62-33.74 7.03-6.66 1.94-12.66 8.87-14.86 13.62-3.7 8-4.58 22.5-4.58 35h3.05c3.19-41.75 13.48-47.19 37.8-50.72 5.67-.83 8.96-1.45 12.92-2.82" opacity="1"/><path id="SvgjsPath2895" fill="#be8a67" stroke="none" stroke-width="none" d="M95.65 197.62s-5.08-1.6-7.09-2.38c-10.45-4-44.4-6.6-44.4-6.6s35.76 1.41 43.65 2.77c-.46-4.76-3.02-20-3.02-20s5.15 16.81 6.41 21.06c.68 2.26 4.45 5.15 4.45 5.15m10.8-1.34q-.15.11-.3.27zm-10.8 1.34s2.89 3 4.34 3.03c1.91.05 4.83-2.9 6.15-4.1-1.26.95-4.16 1.39-5.3 1.43-1.34.05-5.2-.36-5.2-.36m21.01-7.52c-1.54.25-4.38.79-4.38.79l2.29-14.89c-.65 3.07-4.48 16.21-8.12 20.28 1.9-1.62 6.15-2.4 8.32-2.7 10.24-1.49 10.23-1.49 41.06-4.95 0 0-29.07-.15-39.17 1.47" opacity="1"/><path id="SvgjsPath2896" fill="none" stroke="#9f6037" stroke-width="1.5" d="M195.42 199.78c-2.2-4.75-8.2-11.78-14.86-13.72-8.24-2.4-26.84-5.31-33.74-6.93-5.52-1.3-16.66-11.3-20.56-14.65a4.2 4.2 0 0 1-1.29-2.76c-.14-10.86 4.2-39.72 4.2-39.72H70.83s4.34 28.86 4.2 39.72a4.2 4.2 0 0 1-1.29 2.76c-3.9 3.36-15.03 13.36-20.56 14.65-6.9 1.62-25.5 4.62-33.74 7.02-6.66 1.95-12.66 8.88-14.86 13.63-3.7 8-4.58 22.5-4.58 35h200c0-12.5-.88-27-4.58-35z" opacity="1"/></g><g id="svga-group-chinshadow-single"><path id="SvgjsPath3106" fill="url(#SvgjsLinearGradient3107)" d="m124.27 162.25-.05-.52c-.1-7.38 1.82-22.72 3.1-32.07-15.7-1.99-38.94-1.98-54.64.01 1.28 9.36 3.2 24.69 3.1 32.06l-.03.37c3.82 3.59 7.66 6.53 11.05 8.15 5.31 2.55 21.04 2.43 26.4 0 3.41-1.54 7.26-4.44 11.07-8" opacity="1"/></g><g id="svga-group-clothes-single" stroke="none" stroke-width="none"><path id="SvgjsPath3782" fill="#1d282e" d="M-3.68 236.2c-2.92-24.3 8.02-47.1 34.5-54.62 7.76-2.2 5.69-3.34 6.86-3.4-.04-.22-.04-.2-.04-.64h-.04c.09-8.03 9.03-6.45 11.59-6.98 10.12-2.16 13.56-12.79 25.11-9.99.29 2.44.08 5.25-1.37 15.67 10.9 23.46 22.72 21.43 26.93 34.57 3.81-11.75 17.33-13.62 27.3-34.58-.65-5.88-2.08-11.03-1.48-15.93l.06-.05c7.74-2.58 11.12.88 14.2 3.86 9.4 9.08 14.39 3.32 19.1 7.45 1.86 1.66 2.54 4 2.54 6.52 21.41 3.11 45.97 9.9 41.09 57.48l.1.1c-21.68 0-145.22 5.44-206.45.53" opacity="1"/><path id="SvgjsPath3783" fill="#101a1f" d="M100.27 209.69c4.23-10.64 16.94-13.14 26.54-32.76.1-.1.35-.6.66-1.24a19 19 0 0 0-1.22-5.75c-.52-3.35-.93-6.5-.58-9.54 1.97.58 3.84 1.26 5.12 2.66 1.88 2.05.45 5.61-1.35 9.04-3.38 14.74-11.85 25.4-29.17 37.59m69.01-10.83c2.94 10.37 4.9 26.93 2.55 37.44 1.96-.04 2.68-.1 4.5-.13.82-11.05-1.18-28.69-7.05-37.31m-31.68 1.88c-12.8 7.48-25.68 10.35-37.32 20.29-11.64-9.9-24.64-11.64-37.45-19.11-5.87-2.36-14.87-10.7-20.38-16.57 17.32 26.28 29.7 18.82 57.44 36.53 27.73-17.71 40.2-11.69 57.51-37.97-5.5 5.87-13.92 14.48-19.8 16.83m-37.79 10.2c-4.24-10.65-16.46-14.39-26.06-34.01-.09-.1-.34-.6-.65-1.24.16-1.82-.26-3.84.59-5.85.52-3.36.75-6.1.4-9.14-1.98.58-3.03.96-4.31 2.36-1.88 2.05-.45 5.61 1.35 9.04 3.37 14.74 11.35 26.64 28.68 38.84m-72.65-13.25c-4.3 9.4-4.34 27.43-3.53 38.48 1.83.04 2.55.09 4.51.13-2.35-10.51-1.76-28.04-.98-38.61m72.73 15.27c16.39-4.9 33.81-13.89 48.3-35.84-13.08 17.64-32.52 28.06-47.92 34.45-15.9-5.76-34.92-17.22-46-32.63 12.99 21.29 29.24 29.12 45.62 34.02" opacity="1"/><path id="SvgjsPath3784" fill="#2d373d" d="M202.76 235.67h-.37c-.43-48.62-27.5-50.58-42.48-53.73-2.35 0-3.56-6.5-5.29-8.24-1.47-1.47-12.77-1.47-16.35-11.17q.86.79 1.68 1.58c9.4 9.08 14.38 3.32 19.08 7.45 1.87 1.66 2.55 4 2.55 6.52 21.41 3.11 45.97 9.9 41.09 57.48zm-206.73 1.17h.38c4.76-38.63 16.03-50.81 43.54-55.36 3.45-1.32 1.64-3.81 3.36-5.55 1.47-1.47 9.63-1.5 20.93-13.39-.58.52-3.08 1.05-3.62 1.57-9.4 9.08-16.48 6.5-19.09 7.45-3.2 1.2-3.7 4.03-3.7 6.55-21.42 3.11-44.16 14.97-41.7 58.63z" opacity="1"/><path id="SvgjsPath3785" fill="#000" d="M161.69 177.98c0-9.86-9.26-7.9-13.53-8.81-9.4-2.02-9.11-12.92-22.58-8.99-.57 4.66.52 8.74 1.47 16-9.87 20.75-23.57 23.1-27.2 34.24-3.95-12.38-16.04-11.13-26.8-34.17 1.5-10.84 1.64-13.35 1.36-15.77-10.27-2.35-12.6 4.32-21.88 8.77-5.64 2.65-7.23.27-12.07 2.64-2 .97-3.01 3.6-2.94 5.76q-.02.01 0 .01 0 .2.02.4c-1.17.08.55.07-7.32 1.35-25.37 4.1-36.61 25.53-34 56.9 11.88 0 1 4.38 183.14-.07 8.45-.22 22.8-.45 23.4-.45 5.56-46.53-17.92-54.22-41.07-57.81M-3.62 236.06c2.58-36 8.01-50.03 41.04-57.33 17.98 29.84 39.98 25.5 62.23 42.19-20.16-16.77-41.3-14.55-61.62-42.59a5.8 5.8 0 0 1 3.54-5.96c1.8-.7 3.72-.5 5.6-.48 7.08.05 12.54-5.5 17.79-9.58 2.5-1.67 6.22-1.75 9.2-1.3.23 3.88-1.26 9.73-1.76 13.85q-1.55-3.47-3.02-7.02c12.47 36.62 24.9 28.33 30.46 43.52-1.17-.32-21.01-7.46-36.82-23.18a260 260 0 0 1-10.51-11.34c19.57 26.5 32.07 27.86 47.39 34.69l.02.05.08.25.24-.09q.04-.03.08-.03c2.13-1.05 16.07-5.9 26.68-13.2 10.93-7.52 23.4-23.82 22.45-22.64-18.25 18.57-21.07 22.78-49.2 35.67l-.08-.02q-.03-.2-.1-.39l.05-.18c4.95-13.58 19.48-8.33 31.51-45.55a143 143 0 0 1-3.98 9.48c-.46-5.45-2.04-9.75-1.86-14.24 2.08-.7 7.74-1.02 9.3.54 6.53 5.58 7.06 9.68 17.7 9.68 3.41.02 7.87.45 8.38 6.7-.63.93-5.3 6.43-9.7 10.81-15.45 15.37-29.26 15.67-50.63 32.01.52 0 1.6-1.13 2.03-1.42 16.71-11.86 28.72-11.68 44.09-24.25 7.08-5.78 13.9-15.04 14.63-16.22l.08.01c28.2 4.86 42.32 15.47 40.76 57.07-126.39-.79-143.55 2.58-206.05.49" opacity="1"/></g><g id="svga-group-head"><g id="svga-group-ears-left"><path id="SvgjsPath3129" fill="#cda184" stroke="#9f6037" stroke-width="1.5" d="M45.67 84.34c-1.48-2.46-6.33-9.2-10.03-8.25-3.01.77-2.97 4.97-3.2 7.45-.35 3.65-.47 10 .52 12.57.95 2.48 3.96 7.25 5.83 9.08 2.3 2.23 5.97 9.36 6.42 10.1.71 1.16 2.14 2.83 4.32 2.7 3.07-.18 5.73-3.08 5.97-4.48 1.3-7.6-5.96-22.76-9.83-29.17z" opacity="1"/><path id="SvgjsPath3130" fill="#9f6037" stroke-width="none" d="M44.2 99.34c-.14-.56 0-1.51.15-2.43.14-.83.26-1.62.19-2.18-.3-2.09-1.92-6.06-2.98-8.21-1.22-2.48-3.2-5.6-5.68-6.4a1.9 1.9 0 0 0-2.09.47c-.29.3-.35.64-.26.68.1.04.31-.24.62-.52.25-.22-.5-.04 0 0-.2 1.04-.86 6.3-.41 10.15.36 3.02 1.05 5.28 1.26 5.61q.05.54.16 1.05c1 4.4 7.52 10.17 9.04 11.82.28.3.57.48.64.4s-.1-.37-.38-.67c-1.5-1.63-7.97-7.38-8.93-11.64-1.03-4.51 3.9-11.2 4.7-12.62a25 25 0 0 1 1.67 3.27c-.46.74-5.12 6.13-3.94 10.44.44 1.6 3.83 3.64 5.14 4.2.72.31.99.78 1.3 1.31.36.62.03 2.23 1.23 2.74q.36.15.66.15c.34 0 .6-.13.78-.29.02.27.02.62.01.94q0 .62.15.62c.1 0 .2-.17.22-.59.02-.5.02-1.14-.08-1.44-.26-.89-1.08-1.9-1.95-2.96-.86-1.04-1-3.03-1.22-3.9m-9.23-3.9c-2.35-6.93 1.28-13.24 1.8-14.19 1.02.4 2.57 2.2 3.23 3.24-.48.83-4.93 6.29-5.03 10.94m10.8 11.02c-1.08-.46-.7-1.98-1.05-2.58-.32-.54-.65-1.1-1.48-1.46q-.27-.13-.59-.33c-2.68-6.08.3-8.73 1.04-9.27q.35 1.13.48 1.97c.07.5-.06 1.3-.18 2.06a8 8 0 0 0-.15 2.59c.25.95.41 2.97 1.3 4.05.77.95 1.58 1.94 1.85 2.74-.12.16-.49.55-1.22.23" opacity="1"/></g><g id="svga-group-ears-right"><path id="SvgjsPath3131" fill="#cda184" stroke="#9f6037" stroke-width="1.5" d="M154.07 84.34c1.48-2.46 6.32-9.2 10.03-8.25 3 .77 2.97 4.97 3.2 7.45.34 3.65.47 10-.52 12.57-.95 2.48-3.96 7.25-5.83 9.08-2.3 2.23-5.97 9.36-6.42 10.1-.71 1.16-2.14 2.83-4.33 2.7-3.07-.18-5.72-3.08-5.96-4.48-1.3-7.6 5.96-22.76 9.83-29.17z" opacity="1"/><path id="SvgjsPath3132" fill="#9f6037" stroke-width="none" d="M154.32 103.24c-.87 1.07-1.69 2.07-1.95 2.96-.1.3-.1.93-.08 1.44.01.42.12.6.22.6.1-.02.16-.2.15-.63a10 10 0 0 1 0-.94c.2.16.45.29.8.29q.28 0 .65-.15c1.2-.51.87-2.12 1.23-2.74.31-.53.58-1 1.3-1.3 1.31-.57 4.7-2.62 5.14-4.2 1.18-4.32-3.47-9.71-3.94-10.45l.67-1.43q.4-.82 1-1.84c.8 1.42 5.73 8.11 4.7 12.62-.96 4.26-7.44 10-8.93 11.64-.28.3-.46.6-.38.68.07.07.36-.1.64-.41 1.52-1.64 8.03-7.41 9.03-11.82q.12-.51.17-1.04c.2-.34.9-2.6 1.26-5.62.45-3.84-.2-9.1-.41-10.14.5-.04-.26-.23 0 0 .3.27.52.56.62.51.09-.04.02-.39-.26-.68a1.9 1.9 0 0 0-2.1-.47c-2.47.8-4.45 3.92-5.67 6.4-1.06 2.15-2.69 6.12-2.98 8.21-.07.56.05 1.35.18 2.18.15.92.3 1.87.16 2.43-.22.87-.36 2.86-1.22 3.9m5.42-18.75c.66-1.04 2.2-2.84 3.22-3.24.53.95 4.16 7.26 1.81 14.18-.1-4.66-4.55-10.1-5.03-10.94m-6.99 21.74c.27-.8 1.08-1.8 1.86-2.75.88-1.07 1.04-3.1 1.29-4.04.16-.64 0-1.63-.15-2.59a9 9 0 0 1-.18-2.07q.13-.83.48-1.97c.74.55 3.72 3.2 1.03 9.28q-.3.2-.58.33c-.83.36-1.16.92-1.48 1.46-.35.6.03 2.12-1.05 2.58-.73.32-1.1-.07-1.22-.23" opacity="1"/></g><g id="svga-group-faceshape-wrap"><g id="svga-group-faceshape-single"><path id="SvgjsPath3103" fill="#cda184" stroke="none" stroke-width="none" d="M144 127c-5 10.22-20.04 28.43-30.8 33.26-5.36 2.42-21.09 2.53-26.4 0C76.16 155.2 61.04 137.21 56 127c-5.61-11.38-14.85-48.56-14.86-48.61-1.3-4.99-2-10.22-2-15.62-.06-34 27.15-61.6 60.77-61.65 33.62-.06 60.9 27.45 60.96 61.45 0 5.4-.67 10.64-1.95 15.63-.02.06-9.32 37.36-14.92 48.8" opacity="1"/>
    <path id="SvgjsPath3104" fill="#c59575" stroke="none" stroke-width="none" d="M110.15 1.98c27 6.34 47.1 30.82 47.05 60.04 0 5.4-.7 10.64-2 15.62-.01.06-8.61 37.25-14.13 48.61-4.86 10-19.7 27.47-30.07 32.52-2.16 1.06-8.7 1.56-11 1.56s-8.83-.5-11-1.56c-10.36-5.05-25.2-22.51-30.06-32.52C53.4 114.9 44.82 77.7 44.8 77.65c-1.3-5-2-10.23-2-15.63-.05-29.22 20.05-53.7 47.04-60.04-28.82 4.9-50.76 30.25-50.72 60.79q.03 8.12 2 15.62c.02.05 9.24 37.24 14.87 48.6 5.05 10.2 20.2 28.1 30.8 33.27 2.66 1.3 9.3 1.86 12.96 1.86 3.64 0 10.79-.56 13.44-1.86 10.6-5.18 25.75-23.06 30.8-33.26 5.63-11.37 14.86-48.56 14.87-48.61 1.3-4.99 2-10.22 2-15.62.05-30.54-21.9-55.9-50.72-60.79" opacity="1"/><path id="SvgjsPath3105" fill="none" stroke="#9f6037" stroke-width="1.5" d="M144 127c-5 10.22-20.04 28.43-30.8 33.26-5.36 2.42-21.09 2.53-26.4 0C76.16 155.2 61.04 137.21 56 127c-5.61-11.38-14.85-48.56-14.86-48.61-1.3-4.99-2-10.22-2-15.62-.06-34 27.15-61.6 60.77-61.65 33.62-.06 60.9 27.45 60.96 61.45 0 5.4-.67 10.64-1.95 15.63-.02.06-9.32 37.36-14.92 48.8z" opacity="1"/></g></g><g id="svga-group-mouth-single"><path id="SvgjsPath3115" fill="url(#SvgjsLinearGradient3116)" d="m96.23 139.24 8.3-.21c-.97 4.47-7.65 3.83-8.3.2" opacity="1"/><path id="SvgjsPath3119" fill="#9f6037" stroke-width="none" d="M96.34 139.52c-.37-.05-.31-.58.08-.54.05 0 4.31.54 7.88-.22.39-.07.5.46.13.54-2.8.6-6.42.45-8.09.22m3.74-3.57c-1.5 0-2.96-.52-4.42-.78-1.64-.28-3.28-.04-4.92.1-1.67.16-5.33 0-6.36-.66a.8.8 0 0 1 .18-1.45c.61-.22 1.57.24 2.2.35 2.86.52 4.37-.03 6.9-.12 3.84-.11 4.25 1.5 9.06.53 5.16-1.04 7.49-.25 11.2-1.37.5-.15 1.1-.56 1.64-.28a.8.8 0 0 1-.05 1.46c-3.4 1.5-7.17.9-10.96 1.53-1.48.24-2.95.69-4.47.69" opacity="1"/></g><g id="svga-group-eyes-left"><g id="svga-group-eyesback-left"><path id="SvgjsPath3419" fill="url(#SvgjsRadialGradient3420)" d="M83.07 89.13c-3.3-.79-4.97 1.05-9.8 1.16-8.06.18-9.95-.62-11.2-2.64a15 15 0 0 1-1.27-2.6l-.1-4.15c1.33-3.95 19.54-4.35 25.9 1.79q.43.99.46 1.86-.28 1.44-.94 2.75a6.5 6.5 0 0 1-3.05 1.83" opacity="1"/></g><g id="svga-group-eyesiriswrapper-left" transform="translate(.25 .25)"><g id="svga-group-eyesiriscontrol-left"><g id="svga-group-eyesiris-left"><path id="SvgjsPath3705" fill="#26211d" stroke="#000" stroke-width=".5" d="M79.79 85.59a6.01 6.01 0 0 1-11.58-3.17 6.01 6.01 0 0 1 11.58 3.17z" opacity="1"/><path id="SvgjsPath3706" fill="#35312e" stroke-width="none" d="M78.86 85.66a4.9 4.9 0 0 1-5.9 3.2 4.9 4.9 0 0 1-3.57-5.17 22 22 0 0 1 2.76-.04l-.04.1c-.3 1.12.41 2.3 1.6 2.63 1.18.32 2.4-.33 2.7-1.46q.06-.22.07-.43 1.21.44 2.38 1.17" opacity="1"/><path id="SvgjsPath3707" fill="#000" stroke-width="none" d="M74.81 82.21a2.2 2.2 0 0 0-2.74 1.54 2.3 2.3 0 0 0 1.62 2.78c1.2.35 2.43-.34 2.74-1.53a2.3 2.3 0 0 0-1.62-2.79m.27 4.23c-.5.16-1.02-.05-1.16-.46s.16-.87.67-1.02c.5-.16 1.02.05 1.16.46s-.17.87-.67 1.02" opacity=".9"/><path id="SvgjsPath3708" fill="#fff" stroke-width="none" d="M70.81 87.16c-.37.22-.92.02-1.24-.45-.31-.46-.27-1.02.1-1.24s.93-.03 1.24.44c.32.47.27 1.03-.1 1.25" opacity=".6"/><path id="SvgjsPath3709" fill="#fff" stroke-width="none" d="M78.71 83.74c-.85.5-2.12.05-2.84-1.02s-.6-2.35.24-2.86 2.11-.05 2.83 1.02.62 2.35-.23 2.86" opacity=".8"/></g></g></g><g id="svga-group-eyesfront-left"><path id="SvgjsPath3444" fill="#cda184" stroke="none" stroke-width="none" d="M53.73 84.1c-.38 3.3 9.85 22 20.07 22s19.5-5.29 19.5-22c0-17.79-9.28-22-19.5-22s-18.17 5.6-20.07 22m7.07.95-.1-4.15c1.33-3.95 19.54-4.35 25.9 1.79 1.4 3.23-.4 5.48-3.53 6.44-3.3-.79-4.97 1.06-9.8 1.16-8.06.18-9.95-.62-11.2-2.64a15 15 0 0 1-1.27-2.6" opacity="1"/><path id="SvgjsPath3445" fill="url(#SvgjsRadialGradient3446)" d="M59.7 82.41c.02 7.54 7.64 13.6 17.04 13.57 9.39-.04 16.98-6.18 16.96-13.71-.03-7.54-7.65-13.61-17.04-13.57-9.4.04-16.99 6.18-16.96 13.71m1.1 2.64-.1-4.15c1.33-3.95 19.54-4.35 25.9 1.79 1.4 3.23-.4 5.48-3.53 6.44-3.3-.79-4.97 1.06-9.8 1.16-8.06.18-9.95-.62-11.2-2.64a15 15 0 0 1-1.27-2.6" opacity="1"/><path id="SvgjsPath3450" fill="url(#SvgjsRadialGradient3451)" d="M62.06 87.65a15 15 0 0 1-1.26-2.6l-.1-4.15c1.33-3.95 19.54-4.35 25.9 1.79 1.4 3.23-.41 5.48-3.53 6.44-3.3-.79-4.97 1.06-9.8 1.16-8.06.18-9.95-.62-11.2-2.64" opacity="1"/><path id="SvgjsPath3454" fill="#9f6037" stroke="none" stroke-width="none" d="M89.47 81.2c-9.62-5.77-16.7-6.14-28.12-5.4 9.53-1.5 20.5-.41 28.12 5.4" opacity="1"/><path id="SvgjsPath3455" fill="#000" stroke="none" stroke-width="none" d="M88.23 85.28c-3.24-8.31-25.94-8.36-27.43-4.18V85a7.4 7.4 0 0 1-1.48-3.4l-2.2.74s2.75-3.87 5.3-4.38c22.19-4.42 25.62 5.99 25.81 7.32m-3.49 4.14c-4.62-1.98-5.94.38-11.56.5-8 .16-9.57-.77-11.13-2.48.82 2.09 1.38 3.08 10.88 3.03 5.38-.04 8.31-2.26 11.81-1.05" opacity="1"/></g></g><g id="svga-group-eyes-right"><g id="svga-group-eyesback-right"><path id="SvgjsPath3427" fill="url(#SvgjsRadialGradient3428)" d="M116.53 89.13c3.3-.79 4.97 1.05 9.8 1.16 8.06.18 9.95-.62 11.2-2.64.53-.83 1.03-1.93 1.27-2.6l.1-4.15c-1.33-3.95-19.54-4.35-25.9 1.79a6 6 0 0 0-.46 1.86q.28 1.44.94 2.75c.7.81 1.77 1.43 3.05 1.83" opacity="1"/></g><g id="svga-group-eyesiriswrapper-right" transform="translate(-.25 .25)"><g id="svga-group-eyesiriscontrol-right"><g id="svga-group-eyesiris-right"><path id="SvgjsPath3710" fill="#26211d" stroke="#000" stroke-width=".5" d="M131.79 85.59a6.01 6.01 0 0 1-11.58-3.17 6.01 6.01 0 0 1 11.58 3.17z" opacity="1"/><path id="SvgjsPath3711" fill="#35312e" stroke-width="none" d="M130.85 85.66a4.9 4.9 0 0 1-5.9 3.2 4.9 4.9 0 0 1-3.56-5.17 22 22 0 0 1 2.76-.04l-.04.1c-.3 1.12.41 2.3 1.6 2.63 1.18.32 2.4-.33 2.7-1.46q.06-.22.07-.43 1.21.44 2.38 1.17" opacity="1"/><path id="SvgjsPath3712" fill="#000" stroke-width="none" d="M126.81 82.21a2.2 2.2 0 0 0-2.73 1.54 2.3 2.3 0 0 0 1.6 2.78c1.21.35 2.44-.34 2.75-1.53a2.3 2.3 0 0 0-1.62-2.79m.27 4.23c-.5.16-1.02-.05-1.16-.46s.16-.87.67-1.02c.5-.16 1.02.05 1.16.46s-.17.87-.67 1.02" opacity=".9"/><path id="SvgjsPath3713" fill="#fff" stroke-width="none" d="M122.81 87.16c-.37.22-.92.02-1.24-.45-.31-.46-.27-1.02.1-1.24s.93-.03 1.25.44c.3.47.26 1.03-.1 1.25" opacity=".6"/>
    <path id="SvgjsPath3714" fill="#fff" stroke-width="none" d="M130.71 83.74c-.85.5-2.12.05-2.84-1.02s-.6-2.35.24-2.86 2.11-.05 2.83 1.02.62 2.35-.23 2.86" opacity=".8"/></g></g></g><g id="svga-group-eyesfront-right"><path id="SvgjsPath3465" fill="#cda184" stroke="none" stroke-width="none" d="M125.8 62.1c-10.22 0-19.5 4.21-19.5 22 0 16.71 9.28 22 19.5 22s19.9-18.03 20.07-22c.75-16.49-9.85-22-20.07-22m11.74 25.55c-1.26 2.02-3.15 2.82-11.2 2.64-4.84-.1-6.52-1.95-9.81-1.16-3.12-.96-4.93-3.21-3.53-6.44 6.36-6.14 24.57-5.73 25.9-1.79l-.1 4.15c-.24.68-.74 1.77-1.26 2.6" opacity="1"/><path id="SvgjsPath3466" fill="url(#SvgjsRadialGradient3467)" d="M122.94 68.7c-9.39-.04-17.01 6.03-17.04 13.56s7.58 13.67 16.96 13.72c9.4.03 17.02-6.04 17.04-13.57.03-7.53-7.56-13.67-16.96-13.71m14.6 18.95c-1.26 2.02-3.15 2.82-11.2 2.64-4.84-.1-6.52-1.95-9.81-1.16-3.12-.96-4.93-3.21-3.53-6.44 6.36-6.14 24.57-5.73 25.9-1.79l-.1 4.15c-.24.68-.74 1.77-1.26 2.6" opacity="1"/><path id="SvgjsPath3471" fill="url(#SvgjsRadialGradient3472)" d="M137.54 87.65c.52-.83 1.02-1.92 1.26-2.6l.1-4.15c-1.33-3.95-19.54-4.35-25.9 1.79-1.4 3.23.41 5.48 3.53 6.44 3.3-.79 4.97 1.06 9.8 1.16 8.07.18 9.95-.62 11.2-2.64" opacity="1"/><path id="SvgjsPath3475" fill="#9f6037" stroke="none" stroke-width="none" d="M110.14 81.2c9.61-5.77 16.7-6.14 28.11-5.4-9.53-1.5-20.5-.41-28.11 5.4" opacity="1"/><path id="SvgjsPath3476" fill="#000" stroke="none" stroke-width="none" d="M137.18 77.96c2.55.5 5.3 4.38 5.3 4.38l-2.2-.75a7.5 7.5 0 0 1-1.48 3.4V81.1c-1.48-4.18-24.19-4.13-27.43 4.18.2-1.33 3.62-11.74 25.81-7.32m-10.51 12.5c9.5.07 10.06-.93 10.88-3.02-1.56 1.71-3.13 2.64-11.13 2.48-5.62-.12-6.94-2.48-11.56-.5 3.5-1.2 6.44 1.01 11.81 1.05" opacity="1"/></g></g><g id="svga-group-facehighlight-single"><path id="SvgjsPath2885" fill="url(#SvgjsRadialGradient2886)" d="M141 113.97c.04 22.63-18.3 41-40.94 41.03A41 41 0 0 1 59 114.1 41.05 41.05 0 0 1 99.94 73 41.04 41.04 0 0 1 141 113.97" opacity="1"/><path id="SvgjsPath2889" fill="url(#SvgjsRadialGradient2890)" d="M137.5 54a37.5 37.5 0 1 1-75 0 37.5 37.5 0 0 1 75 0" opacity="1"/></g><g id="svga-group-eyebrows-left"><path id="SvgjsPath3719" fill="#3b3128" stroke="none" stroke-width="none" d="M56 72.44c14.71-3.03 32.88 2.77 33.33-.65.16-1.25-.9-1.73-1.76-1.8C72.7 68.74 60.5 68.57 56 72.45" opacity="1"/></g><g id="svga-group-eyebrows-right"><path id="SvgjsPath3720" fill="#3b3128" stroke="none" stroke-width="none" d="M144 72.44c-14.72-3.03-32.88 2.77-33.33-.65-.16-1.25.9-1.73 1.76-1.8 14.88-1.26 27.07-1.43 31.58 2.45" opacity="1"/></g><g id="svga-group-nose-single" stroke-width="none"><path id="SvgjsPath3127" fill="#be8a67" d="M99.08 90s-.88 20.45-.76 24.94c.03 1.28 2.49 4.62 2.32 7.06 0 0-4.79-.35-6.34-.9-1.63-.58-4.15-1.7-3.16-4.85C92.56 111.78 99.08 90 99.08 90" opacity="1"/><path id="SvgjsPath3128" fill="#9f6037" d="M98.64 119.6s-1.99-.7-3.24-.67c-1.14.03-1.3-.73-1.2-1.16.12-.43.51-.7 1.62-.4 1.1.29 2.82 2.23 2.82 2.23m2.95 0s1.98-.65 3.24-.67c1.14-.01 1.31-.72 1.2-1.15-.12-.44-.51-.7-1.62-.42-1.1.3-2.82 2.24-2.82 2.24" opacity="1"/></g><g id="svga-group-beardwrap"><g id="svga-group-beard-single"><path id="SvgjsPath3774" fill="#2a232b" stroke-width="none" d="M100 18.13" opacity="1"/></g></g><g id="svga-group-mustache-single"><path id="SvgjsPath3772" fill="#2a232b" stroke-width="none" d="M100 18.13" opacity="1"/></g><g id="svga-group-hair-front" stroke-width="none"><path id="SvgjsPath3768" fill="#2a232b" d="M152.98 98.6c-4.56-12.43.72-31.5-8.2-45.61-4.07-6.76-7.6-11.41-6.95-19.28l-.37-.12c-.86 1.35-2 2.82-2.74 3.76.42-1.1 1.12-2.76 1.75-4.02l-.33-.22c-2.59 3.07-4.8 4.65-7.86 5.5a43 43 0 0 0 8.54-8.6l-.27-.28c-11.32 7.28-24.16 7.38-35.5 7.47-10.22.08-16.57-.16-23.95-4.44-5.32 1.76-9.5 1.54-14.11-1.64-14.42 27.95-8.01 13.96-16.63 65.77-5-6.67-6.46-10.91-7.64-17.27a35 35 0 0 1-.43-7.21l-.06-.07c-4.46-9.77-6.56-15.33-5.5-34.71.79-8.04 2.53-14.08 7.57-20.4-.66-3.43-.72-6.9-.27-10.2-2.64-4.84-4.46-9.8-5.17-11.58 3.7 2.82 4 2.99 7.07 3.96.7-1.94 1.73-3.86 2.39-4.87.3 2.24.53 3.75 1.2 5.93.23.05 1.32.35 1.66.44-.2-1.32-.38-1.94-.35-3.13.57 1.3 1.05 1.6 2.71 3.63 1.83.39 1.4.33 1.94.33-2.67-4.18-4.47-7.89-4.92-13.52C50.2-9.7 55.32-8.5 60.66-8.5c12.54 0 25.37-9.4 43.17-9.4 15.42 0 28.77 8.55 34.68 18.3 0-2.52-.11-4.6.8-7.18 0 0 .1 3.7.1 6.59l.4.04c.61-3.3 1.92-6.12 4.08-8.78-1.92 5.16-1.19 2.4-3.33 8.7l.35.2c1.43-1.85 2.6-3.15 6.02-4.87-2.47 2.47-4.36 3.89-5.53 5.64l.3.26c1.46-1.32 2.98-1.82 4.52-.62-2.48-.9-3.95.68-5.65 2.68 6.62 1.1 10.2 4.91 14.86 10.01 10.71 12.36 13.54 24.42 7.73 41.51 2.43 5.26 2.06 17.13-3.38 26.69 0 5.6-3.84 12.53-6.8 17.34" opacity="1"/><path id="SvgjsPath3769" fill="#1b141c" d="m62.3 30.37 1.07 1-.38-.25C48.57 59.07 54.97 45.08 46.36 96.9c-5-6.67-6.46-10.92-7.64-17.27a35 35 0 0 1-.43-7.22l-.07-.06c-4.45-9.77-6.55-15.33-5.5-34.71.8-8.04 2.54-14.08 7.58-20.4a31 31 0 0 1-.29-10.05q.9 1.32 1.86 2.57c.43 2.62.8 5.18.13 7.25-9.54 29.48-4 43 2 64-2.46-15.93-7.14-36.18 5.62-48-5.45 13.1-3.95 19.03-2.62 28 .92-11.92 5.2-23 15.3-30.63m93.13-17.31-1.1-1.2-1.16.73c14.95 30.66.6 27.72 4.01 41.4C161.18 64 156 70 156 80c0-15-.68-25.44-8.96-37.17-2.8-3.97-3.58-17.43-5.46-24.08C118.37 33 84 35.98 47.91 7.18c17 6 51.65 1.35 63.54-6.31-13.56 2.46-41.86 2.6-54.6-2.63C87.37-4.13 87-13.92 113-15.76c-12.5-4.67-39.8 7.25-52.34 7.25-5.34 0-10.45-1.19-14.1-3.27.45 5.63 2.26 9.33 4.92 13.52-.55 0-.1.05-1.94-.33-1.66-2.02-2.14-2.33-2.71-3.63-.03 1.19.15 1.8.35 3.13-.34-.1-1.43-.4-1.66-.45a32 32 0 0 1-1.2-5.92A26 26 0 0 0 41.93-.6c-3.07-.97-3.38-1.13-7.07-3.95.71 1.77 2.53 6.74 5.17 11.57l-.02.16c6.3 9.24 15.17 16.47 23.37 24.2 4.45 2.92 8.55 3.1 13.72 1.38 7.38 4.28 13.73 4.51 23.96 4.44 11.33-.09 24.17-.19 35.5-7.47l.26.28a43 43 0 0 1-8.54 8.6c3.05-.86 5.27-2.43 7.86-5.5l.33.21a54 54 0 0 0-1.75 4.03c.75-.94 1.88-2.41 2.74-3.76l.37.12c-.65 7.87 2.88 12.52 6.95 19.28 8.92 14.1 3.64 33.18 8.2 45.61 2.96-4.81 6.8-11.73 6.8-17.35 5.44-9.56 5.81-21.42 3.38-26.69 5.8-17.09 2.98-29.15-7.73-41.5m.73 25.65c-.33-9.52-6.63-21.61-6.63-21.61-2.94-5.2-5.58-7.69-10-8.7 12.43.62 17.31 19.18 16.77 28.88-.05.9-.14 1.43-.14 1.43M127.92-1.51c3.28 2.67 4.06 3.43 7.3 7.91-16.66-29.89-49.34-7.27-59.67-8 10.5 2.17 34.25-13.19 52.37.1m8.46 13C116.4 28.03 85.93 21.02 61 13.2c24.83 11.37 56.44 17.52 75.37-1.73m-78.5 18c-6.54 3.42-9.62 12.05-9.9 17.75 1.22-4.92 4.88-13.95 9.9-17.76m-8.25-4.75c-9.36 5.7-11.17 18.77-10.25 29.75.98-10.15 2.81-23.38 10.25-29.76m67.44-12.4c-1 .22-7.26 1.07-10.67 1.2-2.66.15-13.04.32-22.39-.05 9.66 2.07 15.46 2.45 22.5 2.04 8.1-.3 15.36-1.9 21.37-6.8-4.24 2.34-6.04 2.67-10.8 3.61m33.55 26.55s-.26-.45-.59-1.1c-.91-1.53-1.94-5.69-5.94-18.74 2.97 24.2 7.82 19.78 10 32.28 0-4.5-.32-6.8-3.47-12.44" opacity="1"/>
    <path id="SvgjsPath3770" fill="#3a353a" d="M157.85 68.13c.37-3.24.22-1.76.26-3.6.3-6.25-3.43-11.49-1.15-19 1.85-5.45 2.92-6.3 2.1-15.8-.11-1.37-.46-4.77-1.1-6 .86 1.5 1.43 4.25 1.73 5.94 1.69 9.54.27 11-1.52 16.27-2.39 7.97 2.2 11.48-.32 22.2m-16.28-49.38c1.12 30.37 7.28 23.32 12.72 41.75-3.7-21.74-7.1-3.71-12.72-41.75m-93.2 15.49c-9.2 11.56-8.26 19.9-6 37-.2-17.31-2.31-23.88 6-37m-6.6-16.53C36.5 34.03 35.34 41.4 37.87 59c-.46-17.65-.35-21.54 3.9-41.29m20.18 12.93C52.32 37.56 47.3 50.22 47 61c1.48-10.3 7.01-23.3 14.95-30.36m66.9-6.05c-12.05 4.44-31.66 5.63-45.98 1.33-11.16-3.26-28.6-14.2-37.97-21.08 8.5 6.77 23.48 16.81 33.93 20.78 10.86 4.06 27.89 5.57 41.08 2.25 9.25-2.33 14.04-4.52 21.67-9.12-3.4 1.86-8.4 4.5-12.73 5.84m-26.04-36.18c12.17-2.29 26.51 5.55 34.06 14.83-7.9-11.32-20.84-16.95-28.56-17.09C95.63-14.07 82.5-3.2 56.87-2.26c24.11 1.06 35.7-7.68 45.94-9.33m9.56 12.83c-17.29 6.14-30.64 7.6-48.8 8.57 18.76 1.16 32.17-.66 48.8-8.58m18.17 3.5c-10.67 5.03-15.33 5.85-37.34 7.19 13.8.56 26.69-.16 37.34-7.2m-35.3 15.28c10.65 1.24 29.3-.1 38.63-9.78-11.27 9.49-32.12 9.15-48.38 8.5 6.22.97 5.1.81 9.76 1.28m45.63-9.28c7.63 2.8 9.49 16.19 12.5 27-1.35-9.58-3.65-24.93-12.5-27" opacity="1"/><path id="SvgjsPath3771" fill="#000" d="M155.58 12.93c-4.35-4.77-8.25-8.97-14.63-10.02 2.1-2.47 3.57-3.38 6.25-1.85-1.6-1.88-3.42-2.23-5.63-.22 1.27-1.91 3.47-3.46 6.3-6.43-4.23 1.98-5.5 3.34-7.12 5.42 2.28-6.7 1.3-3.13 3.72-9.75A19.5 19.5 0 0 0 139.6-.2c0-5.9-.18-5.14-.07-7.72-1.39 3.08-1.23 5.8-1.23 7.59-2.23-3.69-5.51-6.8-9.05-9.35-25.05-18.3-50.04-1.46-63.58.58-5.49.92-13.71.33-19.35-3.04.4 5.76 2.18 9.59 4.79 13.68l-1.47-.31c-2.02-2.44-2.21-2.36-2.96-4.33-.2 1.76.1 2.74.25 3.74-.5-.13-.96-.27-1.26-.34-.74-2.42-.96-4.25-1.23-6.3a25 25 0 0 0-2.64 5.16c-3-.95-3.21-1.1-7.43-4.33.5 1 2.3 6.46 5.44 12.23a32 32 0 0 0 .27 10.12c-5.02 6.3-6.77 12.34-7.56 20.44-1.04 19.05.87 24.6 5.53 34.82l.02.04c-.18 1.97.12 5.1.44 7.18 1.18 6.33 2.63 10.69 7.91 17.65l.05.07c3.4-20.37 3.05-20.87 3.77-25.9 3.57-25.7 3.42-21.87 12.81-40.07 3.81 2.63 8.04 3.56 14.02 1.56 4.34 2.53 8.78 4.46 21.06 4.46 12.17-.16 26.18.4 38.52-7.53-1.87 2.62-6.12 7.15-9.46 9.18 3.48-.74 5.98-2.14 9.09-5.84a51 51 0 0 0-2.17 5.15c.15-.18 2.15-2.57 3.51-4.7-.65 7.95 2.9 12.6 6.98 19.4 8.96 14.17 3.51 33.53 8.33 45.96 3.09-5 7.04-12.08 7.04-17.75 5.21-9.08 5.96-21.1 3.39-26.75 5.22-15.63 4.16-27.84-7.8-41.62M46.78-2.47c.5 1.4.6 1.36 2.5 3.62L47.15.69a15 15 0 0 1-.36-3.15m-2.5-2.65c.1 1.53.46 3.54.99 5.3-2.87-.73-1.8-.5-2.8-.8.82-2.47 1.13-3.1 1.8-4.5M46 95.1c-4.22-7.61-5.32-10.2-6.5-17.9-.1-.88-.46-3.44-.48-4.67-6.07-13.88-8.35-40.23 1.2-54.74 0 0 .4-.63 1.13-1.53a37 37 0 0 1-.44-7.28c.74 1.32 1.58 2.52 2.33 3.67l.59.8c4.55 5.8 8.75 10.6 18.92 17.75C50.55 50.98 51.3 44.3 46 95.1m117.64-46.9a64 64 0 0 1-1.54 7c2.78 7.06-.26 20.41-3.06 26.38-1.23 7.09-2.55 8.52-6.01 15.59-2.48-11 2.58-30.52-6.76-45.08-6.06-10.05-8.66-11.36-7.23-23.77l.08-.85c-12.63 7.72-26.58 8.59-44.97 8.2-5.32 0-12.5-.67-16.98-3.44-9.08 2.58-12.45-1.44-20.01-7.34-8.16-6.94-13.71-13-20.55-27.27C40.45.73 48.15 2.3 53 3.12c-3.27-4.37-5.2-8.35-6.07-14C50.4-8.56 58.75-6.28 66.1-7.1c13.53-1.27 32.48-15.17 55.77-4.63 10.8 4.76 16.29 11.47 17.57 15h.04q.09.04.19.05l.36.09c6.97 2.32 7.44 2.76 14.2 10.64 3.8 4.65 12.94 13.96 9.4 34.15" opacity="1"/></g><g id="svga-group-glasses-single"><path id="SvgjsPath3721" fill="#26120b" stroke-width="none" d="M100 18.13" opacity="1"/></g></g></g></g>
    <defs id="SvgjsDefs1001">
        <radialGradient id="SvgjsRadialGradient2886" cx="100" cy="114" r="41" class="svga-on-canvas-facehighlight-gradient-single-0" gradientUnits="userSpaceOnUse"><stop id="SvgjsStop2887" offset="0" stop-color="#dcbaa4" stop-opacity=".5"/><stop id="SvgjsStop2888" offset=".9" stop-color="#cda184" stop-opacity="0"/></radialGradient><radialGradient id="SvgjsRadialGradient2890" cx="100" cy="54" r="37" class="svga-on-canvas-facehighlight-gradient-single-1" gradientUnits="userSpaceOnUse"><stop id="SvgjsStop2891" offset="0" stop-color="#dcbaa4" stop-opacity=".5"/><stop id="SvgjsStop2892" offset=".9" stop-color="#cda184" stop-opacity="0"/></radialGradient><radialGradient id="SvgjsRadialGradient3420" cx="125.38" cy="82.93" r="12.84" class="svga-on-canvas-eyesback-gradient-left-0" gradientTransform="matrix(-1.06 0 0 .93 206.51 5.18)" gradientUnits="userSpaceOnUse"><stop id="SvgjsStop3421" offset="0" stop-color="#fff" stop-opacity="1"/><stop id="SvgjsStop3422" offset=".54" stop-color="#fdfefe" stop-opacity="1"/><stop id="SvgjsStop3423" offset=".74" stop-color="#f6f8f9" stop-opacity="1"/><stop id="SvgjsStop3424" offset=".88" stop-color="#eaeff2" stop-opacity="1"/><stop id="SvgjsStop3425" offset=".99" stop-color="#d9e3e8" stop-opacity="1"/><stop id="SvgjsStop3426" offset="1" stop-color="#d8e2e7" stop-opacity="1"/></radialGradient><radialGradient id="SvgjsRadialGradient3428" cx="125" cy="82.93" r="12.84" class="svga-on-canvas-eyesback-gradient-right-0" gradientTransform="matrix(1.06 0 0 .93 -6.51 5.18)" gradientUnits="userSpaceOnUse"><stop id="SvgjsStop3429" offset="0" stop-color="#fff" stop-opacity="1"/><stop id="SvgjsStop3430" offset=".54" stop-color="#fdfefe" stop-opacity="1"/><stop id="SvgjsStop3431" offset=".74" stop-color="#f6f8f9" stop-opacity="1"/><stop id="SvgjsStop3432" offset=".88" stop-color="#eaeff2" stop-opacity="1"/><stop id="SvgjsStop3433" offset=".99" stop-color="#d9e3e8" stop-opacity="1"/><stop id="SvgjsStop3434" offset="1" stop-color="#d8e2e7" stop-opacity="1"/></radialGradient><radialGradient id="SvgjsRadialGradient3446" cx="123.22" cy="81.1" r="17.9" class="svga-on-canvas-eyesfront-gradient-left-3" fx="133.8" fy="77.2" gradientTransform="matrix(1 .02 .02 -.7 -47.76 136.63)" gradientUnits="userSpaceOnUse"><stop id="SvgjsStop3447" offset="0" stop-color="#be8a67" stop-opacity="1"/><stop id="SvgjsStop3448" offset=".7" stop-color="#be8a67" stop-opacity=".3"/><stop id="SvgjsStop3449" offset="1" stop-color="#cda184" stop-opacity="0"/></radialGradient><radialGradient id="SvgjsRadialGradient3451" cx="79.5" cy="81.5" r="23.21" class="svga-on-canvas-eyesfront-gradient-left-4" gradientTransform="matrix(1.1 -.05 .06 .95 -20.16 27.91)" gradientUnits="userSpaceOnUse"><stop id="SvgjsStop3452" offset=".9" stop-color="#000" stop-opacity="0"/><stop id="SvgjsStop3453" offset="1" stop-color="#000" stop-opacity=".2"/></radialGradient><radialGradient id="SvgjsRadialGradient3467" cx="122.82" cy="81.1" r="17.9" class="svga-on-canvas-eyesfront-gradient-right-3" fx="133.4" fy="77.2" gradientTransform="matrix(-1 .02 -.02 -.7 246.96 136.63)" gradientUnits="userSpaceOnUse"><stop id="SvgjsStop3468" offset="0" stop-color="#be8a67" stop-opacity="1"/><stop id="SvgjsStop3469" offset=".7" stop-color="#be8a67" stop-opacity=".3"/><stop id="SvgjsStop3470" offset="1" stop-color="#cda184" stop-opacity="0"/></radialGradient><radialGradient id="SvgjsRadialGradient3472" cx="79.86" cy="81.51" r="23.21" class="svga-on-canvas-eyesfront-gradient-right-4" gradientTransform="matrix(-1.1 -.05 -.06 .95 220.16 27.92)" gradientUnits="userSpaceOnUse"><stop id="SvgjsStop3473" offset=".9" stop-color="#000" stop-opacity="0"/><stop id="SvgjsStop3474" offset="1" stop-color="#000" stop-opacity=".2"/></radialGradient><linearGradient id="SvgjsLinearGradient3107" x1="100" x2="100" y1="171" y2="128" class="svga-on-canvas-chinshadow-gradient-single-0" gradientUnits="userSpaceOnUse"><stop id="SvgjsStop3108" offset="0" stop-color="#be8a67" stop-opacity=".8"/><stop id="SvgjsStop3109" offset=".7" stop-color="#9f6037" stop-opacity="1"/></linearGradient><linearGradient id="SvgjsLinearGradient3116" x1="100" x2="100" y1="142" y2="139" class="svga-on-canvas-mouth-gradient-single-0" gradientUnits="userSpaceOnUse"><stop id="SvgjsStop3117" offset=".1" stop-color="#c59575" stop-opacity="1"/><stop id="SvgjsStop3118" offset="1" stop-color="#be8a67" stop-opacity="1"/></linearGradient>
    </defs>
</svg>