<svg xmlns="http://www.w3.org/2000/svg" width="600" height="600" viewBox="0 0 600 600" style="overflow:hidden!important">
    <path d="M675 675H-75V-75h750z"/>
    <path fill="#0c080c" d="M480 75H120l-3 597h369z"/>
    <path fill="#f3d4cf" d="M573 600c-18-31-41-36-59-42-19-6-58-10-80-14-20-4-69-17-70-40 0-25 13-121 13-121H222s13 96 13 121c-1 23-50 36-70 40-21 4-61 8-79 14-19 6-41 11-59 42-11 18-18 48-18 81h582c0-33-7-63-18-81"/>
    <path fill="#fff4f3" d="M364 504c8 32 55 41 79 46 66 13 102 15 127 58 9 15 16 48 18 73 5 0 2-53-15-81-30-50-88-46-139-56-20-4-69-17-70-40m-128 0c-1 23-50 36-70 40-51 10-109 6-139 56-17 28-20 81-15 81 2-25 9-58 18-73 25-43 61-45 127-58 24-5 71-14 79-46"/>
    <path fill="#e4b3ab" d="M154 569s86 0 100 5c7 2 25 17 25 17l-26-11c-14-4-99-11-99-11m145 31c7 0 24-11 24-11s-17 6-22 6l-19-4s12 9 17 9m52-22c20-5 89-9 89-9s-71-2-91 5c-7 2-23 15-23 15s18-9 25-11"/>
    <path fill="none" stroke="#c5796d" stroke-width="4.5" d="M573 600c-30-50-88-46-139-56-20-4-69-17-70-40 0-25 13-121 13-121H222s13 96 13 121c-1 23-50 36-70 40-21 4-61 8-79 14-19 6-41 11-59 42-11 18-18 48-18 81h582c0-33-7-63-18-81z"/>
    <path fill="url(#a)" d="M100 171q10 0 21-8l3-25c-14-2-34-2-48 0l3 25q11 8 21 8" transform="scale(3)"/>
    <path fill="#92002a" d="M4 680v-23c4-72 28-88 128-117 48-14 61-19 78-55q6-16 18-22c46 25 85 24 142 3 11 2 14 15 17 25 15 60 112 46 156 71 45 22 47 97 47 119-59 3-513 4-586-1"/>
    <path fill="#830026" d="M530 650c3-31 4-55 13-83-13 44 4 79-22 103 3-8 9-10 9-20M72 609c-5-12-11-22-13-41-1 1-2-2-2-1 3 33 14 47 17 95 0-17 3-42-2-53m292-140-5 3c25 22 9 30 44 70l9-5c-24-13-29-46-48-68m14 71q2 6 6 11l-5 1c-7-9-13-18-18-37-5-20-3-17-18-38l5-2c14 20 20 42 30 65m23 3-4 2c-20-21-28-47-42-71l4-3c12 13 12 19 15 30 5 14 18 33 27 42m-67-63c10 28 17 50 19 79l-4 1-5-35c-3-15-8-35-13-45zm43 73-5 2c-18-22-18-51-31-79h2c15 26 10 19 17 45q7 22 17 32m-30 7-4 1c-4-30-5-53-16-80h2c10 23 14 57 18 79m-74-79c-10 27-12 48-14 76h-3c1-24 4-54 15-76zm-47 68-4-2c16-18 23-49 24-73h3c1 29-9 50-23 75m43-68c-12 21-16 51-15 75h-3c-1-29 3-51 15-76zm-71 56-4-2q13-9 22-24c6-9 17-35 20-44l2 1q-9 42-40 69m23 10-5-2q20-35 23-76c2 0 4 4 6 4-5 27-9 52-24 74m14-80-8 16c-6 13-13 35-35 51l-5-3c21-17 31-42 42-66z"/>
    <path fill="#a1103a" d="m181 531-6-3c-51 19-127 26-156 75Q3 631 4 681c6-16 2-43 20-70 34-52 95-46 157-80m389 80c15 28 14 54 20 70q-2-49-15-78c-22-57-99-50-150-70l-6 4c62 33 116 9 151 74"/>
    <path fill="#64001d" d="M543 562c-43-25-140-12-156-71-2-8-5-24-17-25l-2-1c-45 18-93 23-140-3-21 8-16 46-56 64-17 8-41 13-74 24-77 25-91 50-94 107l-1 24a16089 16089 0 0 0 587 0c1-43-9-100-47-119m-172-95c22 8-2 41 48 66l-16 9c-35-40-19-45-42-70zm-11 6c12 12 11 17 14 28 5 14 18 33 27 42q-10 6-22 9c-7-9-13-18-18-37-4-17-2-18-17-38zm-17 4c15 26 10 18 17 44q7 22 17 32-13 5-28 7l-5-35c-3-16-8-35-13-45zm-14 4c10 23 14 57 18 79q-14 3-27 2s-6-47-8-78zm-19 3c0 35 3 44 7 78l-31-1c7-59 11-77 11-77zm-15 0c-9 46-10 57-11 77l-28-4c1-24 4-54 15-76zm-26-3c-12 21-16 51-15 75q-17-3-32-9c16-18 23-49 24-73zm-24-8c-5 27-9 52-24 74l-27-12q13-9 22-24c6-9 17-34 19-43q5 3 10 5m-18-9 7 4-7 15c-6 13-13 35-35 51l-13-7c35-19 29-54 48-63M5 680c0-12 2-49 10-67q14-27 42-41c-1 28 13 32 14 66l3 30-1-32c0-30-14-36-14-65q34-16 73-26 23-6 44-16c40 26 76 40 142 39 48 0 76-12 105-33 39 18 90 16 118 33q-7 20-9 30c-2 19 1 33-2 50-1 10-9 17-11 27 6-18 17-11 16-55-1-25 1-26 8-51 34 21 43 72 45 112z"/>
    <path fill="#f3d4cf" stroke="#c5796d" stroke-width="4.5" d="M141 252c-4-7-17-24-30-20q-11 6-11 19c-2 10 1 30 4 38 3 7 11 20 16 25 6 6 14 27 15 29 2 3 5 8 13 7 8 0 14-5 17-6 10-2-13-74-24-92z"/>
    <path fill="#c5796d" d="M133 294v-7l1-6c-1-7-6-18-9-24-3-8-9-17-16-19q-3-1-5 1l-1 2 2-1 3-1c-1 3-4 19-2 30q2 15 5 17v3c3 13 15 27 20 32l1 1-1-2c-4-4-16-19-19-31-2-14 7-33 10-37l4 9c-1 2-10 18-7 31q3 7 11 12l3 4q1 3 6 5l1 1 3-1v5l1-2-1-5q-1-3-5-8t-5-9m-22-11c-7-21 2-38 3-41l7 9c-1 2-10 18-10 32m28 29q-4-2-5-5l-4-4-2-1c-7-18 1-25 3-27l1 6v13q1 5 5 9 4 5 5 8 0 2-3 1"/>
    <path fill="#f3d4cf" stroke="#c5796d" stroke-width="4.5" d="M458 252c4-7 17-24 30-20q11 6 11 19c2 10-1 30-4 38-2 7-10 20-16 25-6 6-14 27-15 29-2 3-5 8-13 7-8 0-13-5-17-6-10-2 13-74 24-92z"/>
    <path fill="#c5796d" d="M461 303q-4 5-5 8v7l1-3v-2l2 1 2-1q4-2 5-5l4-4c3-2 9-8 10-12 3-13-6-29-7-31l5-9c2 4 12 23 9 37-3 12-15 27-19 31l-1 2 2-1c4-5 16-19 19-32v-3q3-2 6-17c1-11-2-27-3-30l4 1 1 1v-2q-2-2-6-1c-7 2-13 11-16 19-3 6-8 17-8 24v6l1 7zm17-52 7-9c1 3 10 20 3 41 0-14-8-30-10-32m-21 60 5-8 6-9-1-7v-6l1-6c2 2 10 9 3 27l-2 1-4 4q-1 3-5 5-3 1-3-1"/>
    <path fill="#f3d4cf" d="M476 230s-32 133-56 171c-20 30-85 77-120 77s-100-47-120-76c-24-38-57-171-57-171A181 181 0 0 1 299 3a182 182 0 0 1 177 227"/>
    <path fill="#ebc3bd" d="M377 20a182 182 0 0 1 90 206c0 1-32 133-57 171-18 27-74 75-110 75-37 0-93-48-111-75-25-38-57-170-57-171a181 181 0 0 1 90-206 182 182 0 0 0-99 211s33 133 57 171a233 233 0 0 0 75 62q25 13 44 14h1q1 0 0 0a104 104 0 0 0 39-12c32-16 67-44 80-64 25-38 57-171 57-171a181 181 0 0 0-99-211"/>
    <path fill="none" stroke="#c5796d" stroke-width="4.5" d="M476 230s-32 133-56 171c-20 30-85 77-120 77s-100-47-120-76c-24-38-57-171-57-171A181 181 0 0 1 299 3a182 182 0 0 1 177 227z"/>
    <path fill="url(#b)" d="M100 141q-6-1-5-3 9 2 10 0c1-2-1 3-5 3" transform="scale(3)"/>
    <path fill="#f771a9" stroke="#e85391" stroke-width="2.4000000000000004" d="M260 396c9-3 21-8 28-9q5 1 11 4c2 1 9-4 12-4 7 0 21 6 29 9 0 0-18 21-40 21-25 0-40-21-40-21z"/>
    <path fill="#c92066" d="m341 395-2-1-4 1-17 2-18 2q-9-2-18-2l-17-2-3-1-3 1 1 2 5 1 17 2q9 0 18 2c9 2 11-3 17-2l18-2 5-1z"/>
    <path fill="#ff8ebd" d="M300 412q-15 0-28-10l12-1 14 3 16-2 15-2q-13 11-29 12m14-17 14-1-16-4c-4-1-8 3-12 3-5 1-8-4-12-4q-8 1-14 5h11q7 2 14 3z"/>
    <path fill="#ffa8cc" d="M300 409q-9 0-17-6h4l6 1 5 1 2 1 7-2 6-1h3q-6 5-16 6"/>
    <path fill="url(#c)" d="M61 84c1-1 9-3 13-2 7 1 13 7 13 7s-5 3-13 4q-10-1-13-9" transform="scale(3)"/>
    <path fill="#3e4442" stroke="#0e1613" stroke-width="1.5" d="M247 269c-4 13-18 21-32 17-13-3-21-17-18-31 4-14 18-22 32-18 13 4 21 18 18 32z"/>
    <path fill="#535353" d="M243 269c-4 10-15 16-25 13-10-2-16-12-16-22h12v1q-1 7 7 11 9 1 11-6l1-2z"/>
    <path d="M225 254q-8-1-11 7-2 8 7 12 8 1 11-7t-7-12m2 18q-5 1-5-2-1-3 2-4 5-1 5 2 1 3-2 4" opacity=".9"/>
    <path fill="#fff" d="M208 275q-2 1-5-2-2-3 1-5 2-1 5 2 2 3-1 5" opacity=".6"/>
    <path fill="#fff" d="M242 261q-7 3-12-5-5-7 1-12 7-3 12 5 5 7-1 12" opacity=".9"/>
    <path fill="#f3d4cf" d="M166 264c0 41 24 75 54 75s54-34 54-75-24-75-54-75-54 34-54 75m16-12c4-4 27-8 41-6 21 2 39 22 39 22s-15 9-41 10c-17 1-35-10-39-26"/>
    <path fill="url(#d)" d="M74 97q17 2 20-9 2-11-14-17-15-2-20 9 0 11 14 17M61 84c1-1 9-3 13-2 7 1 13 7 13 7s-5 3-13 4q-10-1-13-9" transform="scale(3)"/>
    <path fill="url(#e)" d="M61 84c1-1 9-3 13-2 7 1 13 7 13 7s-5 3-13 4q-10-1-13-9" transform="scale(3)"/>
    <path fill="#c5796d" d="M262 251c-19-13-12-9-48-20 10 1 28 6 35 10z"/>
    <path fill="#1b1929" d="M166 249s6 4 11 4c1 2 7 13 18 19 16 9 35 6 54 2 9-2 8-5 23-6-12-5-10-8-27-17 8 2 18 7 18 7-4-4-30-20-72-22l20 5c-25 3-31 0-32-1q1 2 9 5c-6 1-16-2-16-2l7 6c-4 2-13 0-13 0m16 3c4-3 27-8 41-6 21 3 39 21 39 21s-15 9-41 11c-17 1-35-10-39-26"/>
    <path fill="url(#f)" d="M139 84c-1-1-9-3-13-2-7 1-13 7-13 7s5 3 13 4q10-1 13-9" transform="scale(3)"/>
    <path fill="#3e4442" stroke="#0e1613" stroke-width="1.5" d="M403 269c-4 13-18 21-32 17-13-3-21-17-18-31 4-14 18-22 32-18 13 4 21 18 18 32z"/>
    <path fill="#535353" d="M399 269c-4 10-15 16-25 13-10-2-16-12-16-22h12v1q-1 7 7 11 9 1 11-6l1-2z"/>
    <path d="M381 254q-8-1-11 7-2 8 7 12 8 1 11-7t-7-12m2 18q-5 1-5-2-1-3 2-4 5-1 5 2 1 3-2 4" opacity=".9"/>
    <path fill="#fff" d="M364 275q-2 1-5-2-2-3 1-5 2-1 5 2 2 3-1 5" opacity=".6"/>
    <path fill="#fff" d="M398 261q-7 3-12-5-5-7 1-12 7-3 12 5 5 7-1 12" opacity=".9"/>
    <path fill="#f3d4cf" d="M380 189c-30 0-54 34-54 75s24 75 54 75 54-34 54-75-24-75-54-75m-1 89c-26-1-41-10-41-10s18-20 39-22c14-2 37 2 41 6-4 16-22 27-39 26"/>
    <path fill="url(#g)" d="M140 80q-5-11-20-9-16 6-14 17 3 11 20 9 15-6 14-17m-14 13q-13-3-13-4 1-3 13-7c4-1 12 1 13 2q-3 8-13 9" transform="scale(3)"/>
    <path fill="url(#h)" d="M139 84c-1-1-9-3-13-2-7 1-13 7-13 7s5 3 13 4q10-1 13-9" transform="scale(3)"/>
    <path fill="#c5796d" d="M338 251c19-13 12-9 48-20-10 1-28 6-35 10z"/>
    <path fill="#1b1929" d="m421 249 7-6s-10 3-16 2q8-3 9-5c-1 1-7 4-32 1l20-5c-42 2-68 18-72 22 0 0 10-5 18-7-17 9-15 12-27 17 15 1 14 4 23 6 19 4 38 7 54-2 11-6 17-17 18-19 5 0 11-4 11-4s-9 2-13 0m-42 29c-26-2-41-11-41-11s18-18 39-21c14-2 37 3 41 6-4 16-22 27-39 26"/>
    <path fill="url(#i)" d="M140 113a40 40 0 1 1-80 0 40 40 0 0 1 80 0" transform="scale(3)"/>
    <path fill="url(#j)" d="M135 56a35 35 0 1 1-70 0 35 35 0 0 1 70 0" transform="scale(3)"/>
    <path fill="#2a232b" d="M224 207c-13-1-63 11-63 11s50-20 71-17c15 3 43 16 38 22-4 6-17-13-46-16M329 223c-5-7 23-19 41-21 21-2 69 12 69 12s-48-7-62-6c-29 4-44 20-48 15"/>
    <path fill="#e4b3ab" d="M277 349c-2 6 15 13 21 13 8 0 28-9 24-15-3-7-17-1-22-1-6 0-20-6-23 3"/>
    <path fill="#c5796d" d="M307 352q0-3 5-5c2 0 7 1 7 3h-6zm-21-2q4 1 5 0c1-1-4-3-6-3-1 1-6 3-5 4z"/>
    <path fill="#fff" d="M300 340q4 1 6-5c2-17-2-61-6-61-5 0-8 45-7 61q1 5 7 5" opacity=".2"/>
    <path fill="#2a232b" d="M133 56v578h119c-3-23-7-45-11-56-23-59-104-74-90-152 16 34 23 53 59 59-50-41-40-79-33-127 4-28-5-50-11-73q10-31 15-63c33-202 184-193 228-63 27 82 4 108 38 160 1 36 9 75-34 126q-17 17-36 30c45-4 70-47 85-90v1c-20 166-95 91-103 248h124V56z" opacity=".1"/>
    <path fill="#0c080c" d="M253 74s40 8 46 25c-29-2-42-11-84 5 10-17 38-30 38-30m96-2s-45-2-50 27c30-2 48-15 90 4-6-17-40-31-40-31"/>
    <path fill="#2a232b" d="M514 309C551 55 429-44 314-16 188-47 92 18 77 193c-3 62 4 108 5 119q-13 27-16 56l-20 16 19-4c-2 68 32 80 30 137-2 38-2 41 5 66 20 67-11 61-3 143 94-4 140 12 359-1 5-1 37-3 50-2-49-167 34-153 7-238-23-76 41-102 1-176M361 697l3 29H255c1-39 4-122-5-147-25-62-102-81-106-150h1c16 35 29 50 67 56-53-43-42-76-41-127 1-30-5-52-11-76q10-32 15-66c16-96 70-169 123-118l1-1 1 1c45-50 89-8 113 53 33 84 5 113 40 167 2 37 3 76-42 129q-15 17-35 29c47-4 77-44 92-89h1c-46 174-131 45-108 310"/>
    <path fill="#1b141c" d="M506 723a3251 3251 0 0 1-113 5c2-56-19-114 8-167 13-29 55-57 64-93 2-7 6-24 7-39 11 65-51 126-37 191 13-43 38-116 53-147-2 48-5 62-4 92 13-27 23-50 17-116l12 36c27 85-56 71-7 238m-21-266c43-103-15-112-31-178-18-71-18-197-82-210q-49-10-75 28l1 1 1-1 1 1c45-50 89-8 113 53 33 84 5 113 40 167 8 70-21 123-77 158 46-21 85-56 91-140h1c16 22 27 86 17 121m-22-322c6 65 12 129 51 175v-1l2-16c-17-21-34-57-39-95-6-48 0-103-48-138 24 20 34 48 34 75M207 54c-75 45-57 130-75 198-9 36-34 68-62 92l-4 22c115-74 70-221 118-274 34-39 76-53 115 5-10-47-62-58-92-43m40 22c-22 5-45 28-57 49-19 33-22 85-38 140-13 47-42 92-101 118 80-17 106-92 109-101q10-31 15-66c16-95 69-168 122-119-17-17-27-26-50-21m-41 408 6 1c-53-43-43-76-42-127q0-41-10-75l-6 13c28 69-29 132 52 188m234 1c28-28 40-90 34-131l-7 37 1-4h1c-46 174-131 45-108 310l3 29H255c1-39 4-122-5-147-24-59-133-94-101-188-29 39-13 72 5 94 106 132 75 147 80 243 33 1 90 2 145 0-14-189 3-184 61-243m-322-59c-5-15 25-47 16-92-2 30-18 54-26 80-12 102 82 118 42 222 0-39-8-58-23-94 0 48 20 79-4 127 0 0 8-35 1-52-25-76-6-106-25-155-9-23-25-42-33-84 2 59 32 88 30 139-2 38-3 41 4 66 20 67-11 61-3 143 37-1 67 0 102 2 7-74 15-122-23-181-21-32-64-65-58-121m17-312c-12 62-17 129-55 175l2 23v2c72-111 41-171 68-230 6-15 19-26 33-42-24 20-42 39-48 72m365 195c-35-57-33-124-56-195-14-42-73-119-146-19 34-43 71-45 94-31 19 11 32 31 41 52 21 54 17 104 41 158 15 36 36 66 38 98-1 14-10 48-15 58 2-4 19-36 19-55 0-21-5-48-16-66M215 29c9-8 76-16 89 33-9-47-67-47-89-33m191-3c11 8 7 4-1-2-41-25-83-4-100 37 24-51 75-55 101-35m37 21c-53-75-124-49-141-7 22-46 94-56 141 7M141 66c-6 13 15-47 85-61 25-5 58-2 74 19-26-38-120-36-159 42m263-27 6 4-7-6c-35-23-90 3-102 45 14-41 70-65 103-43m-208 8c-10 8 13-7 20-9 25-6 72-1 87 36-14-41-72-53-107-27"/>
    <path fill="#3a353a" d="M163 25c-18 18-25 25-38 48-35 55-37 213-35 154 3-87 10-146 73-202m-43 114c-3 32 7-29 12-42 21-50 83-103 141-77l23 14c-80-62-165 11-176 105M420 34l25 26c-12-11-64-103-141-10 36-40 76-53 116-16M274 54c18 13 34 35 32 32l-11-14c-68-83-145 15-152 87 11-73 77-142 131-105m171 51 4 11-4-14c-24-67-88-81-145-13 59-64 118-52 145 16m67 163 1-19c1-66-14-175-67-216 69 61 66 238 66 235m-30 61 5 6c-21-36-14 5-45-131 12 60 10 88 40 125m-361 2 2-2c43-53 34-74 45-138-9 43-10 101-47 140M241 75l6-2c-12 4-61 12-72 81 10-44 35-70 66-79m189 66c9 26-5-25-14-41-16-31-37-36-69-35 52-2 67 27 83 76M103 457c6 34 34 77 45 114q8 29 0-4c-34-106-65-118-31-208 0 0-26 51-14 98m343 111-1 12c27-118 42-80 35-198 0 132-15 74-34 186M138 400c-26 63 16 87 68 160 11 19 7 12 5 7-35-64-94-103-72-161 7-19 12-28 9-67 1 27 0 39-10 61m19-41c0 38-19 65 21 106 12 9-9-10-12-16q-12-18-10-40c2-41 3-4 2-90zm271 83c-5 6-14 13-17 18q0 2 5-6c53-50 42-83 51-104-10 21-2 43-39 92m-48 121c-9 33-4 45-4 45l-1-10c7-94 76-78 95-180-17 83-74 83-90 145"/>
    <path d="M514 309C550 52 427-44 314-16 123-62 59 106 82 312q-13 27-16 56l-21 16q10 0 20-4c-1 39 10 63 21 88 19 45 0 64 10 102q7 22 11 44c3 33-17 49-10 112h1c74-2 39 0 89 2 186 7 267-5 319-5-37-119-1-148 11-189 10-35-11-53-9-82 3-59 39-79 6-143M209 484c-35-6-49-25-65-57 0-18 6-37 9-54s2-33-2-68q6-10 9-22 8 30 9 60c0 43-19 101 40 141M65 379q-7 2-16 3c126-81 96-201 118-257 21-55 83-102 132-27h-1c-52-55-108 27-122 94-13 66-20 155-105 185zm33 347c-2-29-3-34 2-56 4-18 11-37 10-55-1-19-10-37-12-56s2-37 2-56c0-36-31-63-29-125q37-12 63-44c2 64-17 60-20 95-4 60 67 107 83 169 6 21 7 105 6 127-76-1-28-4-105 1m106-1c5-143-1-147-50-212-67-88-22-104-19-150l-1-30q10-12 17-27l2 48c-2 51-44 85 37 161 66 63 63 56 65 210zm51 0c1-34 5-121-5-146-24-62-101-82-105-150 1 3 10 24 20 35q20 19 48 21c-54-39-42-84-41-127q-1-42-12-76c13-37 15-73 23-101 17-65 67-132 115-82l1-1 1 1c40-51 87-13 113 52 33 84 4 113 40 167 1 35 4 75-42 129-10 11-25 23-36 29 47-2 78-44 94-89-47 174-131 46-108 310l3 29zm235-283c23-106-43-93-52-178-3-32-2-87-38-146-27-43-65-62-100-20l-1-1c48-64 128-58 148 79 14 87 17 82 46 142 13 27 31 63-3 124m-36-122 20 27c0 49-40 120-93 127q12-6 22-15c47-46 55-85 51-139m50 150c4 17 11 32 11 49-4 49-53 71-10 203-29-2-59 2-111 4-2-76-7-96-3-128 8-75 72-70 81-169-12 105-85 91-87 183l7 114h-28c-24-245 41-198 84-273 15-26 26-68 26-105 25 35 23 53 15 99 16-26 29-68 19-99-3-13-14-36-19-45-32-67-26-71-39-136-22-121-99-141-151-70-52-84-136-24-147 76-4 37-1 116-80 190 6-45 26-68 41-103 38-89 6-152 56-202-55 54-16 120-67 216l-18 33C67 115 133-56 311-14c122-31 193 76 203 204 4 54-1 103-2 116-8-15-19-29-25-45-35-94-4-156-58-201 55 49 20 125 60 214q12 22 24 43c29 61-23 96-9 153"/>
    <path fill="#fff" d="M434 290a57 57 0 1 1-102-48c52-5 83 10 102 48m-264-48q-8 13-8 28a57 57 0 0 0 110 20c-19-38-50-53-102-48" opacity=".2"/>
    <path fill="#fff" d="M332 242a57 57 0 0 1 102 48c-19-38-50-53-102-48m-60 48q4-9 4-20a57 57 0 0 0-106-28c52-5 83 10 102 48" opacity=".4"/>
    <path fill="#26120b" d="m470 255-29 10a60 60 0 0 0-118-9q-9-8-23-8c-14 0-18 3-23 8a60 60 0 0 0-118 9l-29-10v9l29 10a60 60 0 0 0 120-4v-3c0-7 11-14 21-14s21 7 21 14v3a60 60 0 0 0 120 4l29-10zm-251 71a55 55 0 1 1 0-111 55 55 0 0 1 0 111m162 0a55 55 0 1 1 0-111 55 55 0 0 1 0 111"/>
    <defs>
        <radialGradient id="i" cx="100" cy="113" r="40" class="svga-on-canvas-facehighlight-gradient-single-0" gradientUnits="userSpaceOnUse">
            <stop offset="0" stop-color="#fff4f3" stop-opacity=".5"/>
            <stop offset=".9" stop-color="#f3d4cf" stop-opacity="0"/>
        </radialGradient>
        <radialGradient id="j" cx="100" cy="57" r="36" class="svga-on-canvas-facehighlight-gradient-single-1" gradientUnits="userSpaceOnUse">
            <stop offset="0" stop-color="#fff4f3" stop-opacity=".5"/>
            <stop offset=".9" stop-color="#f3d4cf" stop-opacity="0"/>
        </radialGradient>
        <radialGradient id="c" cx="126.4" cy="87.6" r="15.2" class="svga-on-canvas-eyesback-gradient-left-0" gradientTransform="matrix(-1 0 0 1 184 -7)" gradientUnits="userSpaceOnUse">
            <stop offset="0" stop-color="#fff"/>
            <stop offset=".5" stop-color="#fdfefe"/>
            <stop offset=".7" stop-color="#f6f8f9"/>
            <stop offset=".9" stop-color="#eaeff2"/>
            <stop offset="1" stop-color="#d9e3e8"/>
            <stop offset="1" stop-color="#d8e2e7"/>
        </radialGradient>
        <radialGradient id="f" cx="126.4" cy="87.6" r="15.2" class="svga-on-canvas-eyesback-gradient-right-0" gradientTransform="rotate(3 134 294)" gradientUnits="userSpaceOnUse">
            <stop offset="0" stop-color="#fff"/>
            <stop offset=".5" stop-color="#fdfefe"/>
            <stop offset=".7" stop-color="#f6f8f9"/>
            <stop offset=".9" stop-color="#eaeff2"/>
            <stop offset="1" stop-color="#d9e3e8"/>
            <stop offset="1" stop-color="#d8e2e7"/>
        </radialGradient>
        <radialGradient id="d" cx="122.6" cy="83.5" r="16.9" class="svga-on-canvas-eyesfront-gradient-left-3" fx="136.2" fy="83.1" gradientTransform="matrix(1 0 0 -1 -53 130)" gradientUnits="userSpaceOnUse">
            <stop offset="0" stop-color="#e4b3ab"/>
            <stop offset=".7" stop-color="#e4b3ab" stop-opacity=".3"/>
            <stop offset="1" stop-color="#f3d4cf" stop-opacity="0"/>
        </radialGradient>
        <radialGradient id="e" cx="70.2" cy="108.1" r="29.5" class="svga-on-canvas-eyesfront-gradient-left-4" gradientTransform="translate(-2 2)" gradientUnits="userSpaceOnUse">
            <stop offset=".9" stop-opacity="0"/>
            <stop offset="1" stop-opacity=".3"/>
        </radialGradient>
        <radialGradient id="g" cx="122.6" cy="83.5" r="16.9" class="svga-on-canvas-eyesfront-gradient-right-3" fx="136.2" fy="83.1" gradientTransform="rotate(172 122 74)" gradientUnits="userSpaceOnUse">
            <stop offset="0" stop-color="#e4b3ab"/>
            <stop offset=".7" stop-color="#e4b3ab" stop-opacity=".3"/>
            <stop offset="1" stop-color="#f3d4cf" stop-opacity="0"/>
        </radialGradient>
        <radialGradient id="h" cx="70.2" cy="108.1" r="29.5" class="svga-on-canvas-eyesfront-gradient-right-4" gradientTransform="matrix(-1 0 0 1 202 2)" gradientUnits="userSpaceOnUse">
            <stop offset=".9" stop-opacity="0"/>
             <stop offset="1" stop-opacity=".3"/>
        </radialGradient>
        <linearGradient id="a" x1="100" x2="100" y1="171.3" y2="136.4" class="svga-on-canvas-chinshadow-gradient-single-0" gradientUnits="userSpaceOnUse">
            <stop offset="0" stop-color="#e4b3ab" stop-opacity=".8"/>
            <stop offset=".7" stop-color="#c5796d"/>
        </linearGradient>
        <linearGradient id="b" x1="100" x2="100" y1="141" y2="138" class="svga-on-canvas-mouth-gradient-single-0" gradientUnits="userSpaceOnUse">
            <stop offset=".1" stop-color="#ebc3bd"/>
            <stop offset="1" stop-color="#e4b3ab"/>
        </linearGradient>
    </defs>
</svg>