<svg xmlns="http://www.w3.org/2000/svg" width="600" height="600"  viewBox="0 0 600 600" style="overflow:hidden!important">
    <path d="M675 675H-75V-75h750z"/>
    <path fill="#1c150e" d="M482 321c-3 96-76 307-176 307-99 0-183-208-185-307-4-143 81-259 180-259 100 0 184 116 181 259"/>
    <path fill="#d9b8af" d="M573 594c-18-31-41-36-59-42-19-6-58-10-80-14-20-4-69-17-70-40 0-25 13-121 13-121H222s13 96 13 121c-1 23-50 36-70 40-21 4-61 8-79 14-19 6-41 11-59 42-11 18-18 48-18 81h582c0-33-7-63-18-81"/>
    <path fill="#e8d7d3" d="M364 498c8 32 55 41 79 46 66 13 102 15 127 58 9 15 16 48 18 73 5 0 2-53-15-81-30-50-88-46-139-56-20-4-69-17-70-40m-128 0c-1 23-50 36-70 40-51 10-109 6-139 56-17 28-20 81-15 81 2-25 9-58 18-73 25-43 61-45 127-58 24-5 71-14 79-46"/>
    <path fill="#ca9b8e" d="M154 563s86 0 100 5c7 2 25 17 25 17l-26-11c-14-4-99-11-99-11m145 31c7 0 24-11 24-11s-17 6-22 6l-19-4s12 9 17 9m52-22c20-5 89-9 89-9s-71-2-91 5c-7 2-23 15-23 15s18-9 25-11"/>
    <path fill="none" stroke="#ab6957" stroke-width="4.5" d="M573 594c-30-50-88-46-139-56-20-4-69-17-70-40 0-25 13-121 13-121H222s13 96 13 121c-1 23-50 36-70 40-21 4-61 8-79 14-19 6-41 11-59 42-11 18-18 48-18 81h582c0-33-7-63-18-81z"/>
    <path fill="url(#a)" d="M100 171q11 0 21-7l4-33H75l4 33q9 7 21 7" transform="matrix(3 0 0 3 0 -6)"/>
    <path fill="#fff" d="M10 663H7c0-53 20-93 53-106q8 1 14 3c-39 19-60 60-64 103m535-104-17 2c40 18 53 62 59 102h3c-4-50-5-83-45-104"/>
    <path fill="#fff" d="m545 571 8-2-11-7c-18 3-178 21-266 21-115 0-200-20-216-25l-9 6 10 3c-31 21-48 58-51 96l277 2 265-2h35c-5-34-15-72-42-92"/>
    <path fill="#f0d8d8" d="m70 561-9 6c149 36 330 27 483 4l-11-7c-146 24-320 35-463-3"/>
    <path fill="#d19292" d="M545 559c-268 36-373 21-485-3-40 16-53 64-53 107h1c317 4 547 0 582 0-3-50-4-83-45-104m-484-1c147 43 330 30 481 4l11 7c-158 25-348 35-502-4zM8 662c6-43 14-74 42-97 152 44 349 35 505 6 25 20 24 41 33 91-165-2-383-2-580 0"/>
    <path fill="#d9b8af" stroke="#ab6957" stroke-width="4.5" d="M141 246c-4-7-17-24-30-20q-11 6-11 19c-2 10 1 30 4 38 3 7 11 20 16 25 6 6 14 27 15 29 2 3 5 8 13 7 8 0 14-5 17-6 10-2-13-74-24-92z"/>
    <path fill="#ab6957" d="M133 288v-7l1-6c-1-7-6-18-9-24-3-8-9-17-16-19q-3-1-5 1l-1 2 2-1 3-1c-1 3-4 19-2 30q2 15 5 17v3c3 13 15 27 20 32l1 1-1-2c-4-4-16-19-19-31-2-14 7-33 10-37l4 9c-1 2-10 18-7 31q3 7 11 12l3 4q1 3 6 5l1 1 3-1v5l1-2-1-5q-1-3-5-8t-5-9m-22-11c-7-21 2-38 3-41l7 9c-1 2-10 18-10 32m28 29q-4-2-5-5l-4-4-2-1c-7-18 1-25 3-27l1 6v13q1 5 5 9 4 5 5 8 0 2-3 1"/>
    <path fill="#d9b8af" stroke="#ab6957" stroke-width="4.5" d="M458 246c4-7 17-24 30-20q11 6 11 19c2 10-1 30-4 38-2 7-10 20-16 25-6 6-14 27-15 29-2 3-5 8-13 7-8 0-13-5-17-6-10-2 13-74 24-92z"/>
    <path fill="#ab6957" d="M461 297q-4 5-5 8v7l1-3v-2l2 1 2-1q4-2 5-5l4-4c3-2 9-8 10-12 3-13-6-29-7-31l5-9c2 4 12 23 9 37-3 12-15 27-19 31l-1 2 2-1c4-5 16-19 19-32v-3q3-2 6-17c1-11-2-27-3-30l4 1 1 1v-2q-2-2-6-1c-7 2-13 11-16 19-3 6-8 17-8 24v6l1 7zm17-52 7-9c1 3 10 20 3 41 0-14-8-30-10-32m-21 60 5-8 6-9-1-7v-6l1-6c2 2 10 9 3 27l-2 1-4 4q-1 3-5 5-3 1-3-1"/>
    <path fill="#d9b8af" d="M300-3a182 182 0 0 0-177 227s26 116 44 151c18 37 71 97 133 97s115-60 133-97c18-35 44-151 44-151A181 181 0 0 0 300-3"/>
    <path fill="#d1a99e" d="M362 7a182 182 0 0 1 104 213s-26 116-44 151c-17 35-65 96-122 96s-105-61-122-96c-18-35-44-151-44-151A181 181 0 0 1 238 7a182 182 0 0 0-115 217s26 116 44 151c18 37 71 97 133 97s115-60 133-97c18-35 44-151 44-151A181 181 0 0 0 362 7"/>
    <path fill="none" stroke="#ab6957" stroke-width="4.5" d="M300-3a182 182 0 0 0-177 227s26 116 44 151c18 37 71 97 133 97s115-60 133-97c18-35 44-151 44-151A181 181 0 0 0 300-3z"/>
    <path fill="url(#b)" d="M100 142q-4-1-3-3h7q0 2-4 3" transform="matrix(3.3 0 0 3.3 -30 -47)"/>
    <path fill="#ab6957" d="M300 413h-10l-1-1 1-1s12 2 22-1l1 1v1zm0-17-12-3-14 1-12-1-6-1q-3-3 0-5l6 1 7 1 13-1 14 2h12l21-3 10-1q3-2 5-1 3 2 0 4-9 3-19 4l-12 1z"/>
    <path fill="url(#c)" d="M61 84c1-1 9-3 13-2 7 1 13 7 13 7s-5 3-13 4q-10-1-13-9" transform="matrix(2.8 0 0 2.8 17 13)"/>
    <path fill="#4d3623" stroke="#1f1105" stroke-width="1.4" d="M251 268c-3 13-17 20-29 17-13-4-21-17-18-30 4-13 17-20 30-17 13 4 21 17 17 30z"/>
    <path fill="#5c4633" d="m225 247-1-1-6 3 1 3v2l-6-3-5 3-2 3 3 3-4 2 2 3h7l-7 5h8l-4 7 9-6-3 10 6-9 1 9 1-8h2l2 9 1-3 3 3-2-10 5 10-2-11 6 9 1-4-4-6 8 2-5-4-3-3 14 3-8-5 6-2-12-2 12-6-11 3-3-2-1-1v-9l-5 9v-7l-1-2-3 2z"/>
    <path fill="#3e2816" d="M252 257c-22 1-32 5-48 10a24 24 0 1 1 48-10" opacity=".9"/>
    <path d="M231 253q-8-1-12 7-1 10 7 13 10 1 13-7 1-9-8-13" opacity=".8"/>
    <path fill="none" stroke="#1f1105" stroke-width="2.2399999999999998" d="M231 253q-8-1-12 7-1 10 7 13 10 1 13-7 1-9-8-13z"/>
    <path fill="#fff" d="M210 276q4 6 11 8c5 1 6-6 2-7l-7-4c-2-5-8-1-6 3" opacity=".5"/>
    <path fill="url(#d)" d="m76 83 3 3c1 2 5 0 4-2q-2-3-5-4c-3-1-4 3-2 3" transform="matrix(2.8 0 0 2.8 14 14)"/>
    <path fill="#d9b8af" d="M175 264c0 39 23 71 51 71s51-32 51-71c0-40-23-72-51-72s-51 32-51 72m15-12c3-3 26-7 39-6 20 3 37 21 37 21s-14 9-39 10c-17 1-33-10-37-25"/>
    <path fill="url(#e)" d="M74 97q17 2 20-9 2-11-14-17-15-2-20 9 0 11 14 17M61 84c1-1 9-3 13-2 7 1 13 7 13 7s-5 3-13 4q-10-1-13-9" transform="matrix(2.8 0 0 2.8 17 13)"/>
    <path fill="url(#f)" d="M61 84c1-1 9-3 13-2 7 1 13 7 13 7s-5 3-13 4q-10-1-13-9" transform="matrix(2.8 0 0 2.8 17 13)"/>
    <path fill="#ab6957" d="M266 251c-18-12-11-8-46-19 9 2 27 6 33 10z"/>
    <path d="M175 249s6 4 10 4c1 2 7 12 17 18 16 9 34 6 51 2 9-2 8-4 22-6-11-4-9-7-25-15 7 1 17 6 17 6-4-4-29-19-68-21l18 5c-23 3-29 0-30-1l8 5-15-3 7 6c-4 2-12 0-12 0m15 4c3-4 26-8 39-6 20 2 37 20 37 20s-14 8-39 10c-17 0-33-10-37-24"/>
    <path fill="url(#g)" d="M139 84c-1-1-9-3-13-2-7 1-13 7-13 7s5 3 13 4q10-1 13-9" transform="matrix(2.8 0 0 2.8 13 13)"/>
    <path fill="#4d3623" stroke="#1f1105" stroke-width="1.4" d="M396 268c-4 13-17 20-30 17-13-4-21-17-17-30 3-13 17-20 30-17 12 4 20 17 17 30z"/>
    <path fill="#5c4633" d="M369 247v-1l-7 3 2 3-1 2-5-3-6 3-2 3 4 3-5 2 2 3h7l-7 5h8l-4 7 9-6-2 10 5-9 1 9 2-8h1l2 9 1-3 3 3-2-10 5 10-2-11 7 9 1-4-4-6 7 2-5-4-3-3 15 3-9-5 6-2-12-2 12-6-11 3-3-2-1-1v-4l1-5-5 9-1-7v-2l-3 2z"/>
    <path fill="#3e2816" d="M396 257c-21 1-32 5-47 10a24 24 0 1 1 47-10" opacity=".9"/>
    <path d="M376 253q-10-1-12 7-3 10 7 13 8 1 12-7 1-9-7-13" opacity=".8"/>
    <path fill="none" stroke="#1f1105" stroke-width="2.2399999999999998" d="M376 253q-10-1-12 7-3 10 7 13 8 1 12-7 1-9-7-13z"/>
    <path fill="#fff" d="M354 276q4 6 11 8c5 1 6-6 2-7q-4-1-6-4c-3-5-9-1-7 3" opacity=".5"/>
    <path fill="url(#h)" d="m126 83 3 3c1 2 5 0 4-2q-2-3-5-4c-3-1-4 3-2 3" transform="matrix(2.8 0 0 2.8 16 14)"/>
    <path fill="#d9b8af" d="M374 192c-28 0-51 32-51 72 0 39 23 71 51 71s51-32 51-71c0-40-23-72-51-72m-1 85c-25-1-39-10-39-10s17-18 37-21c13-1 36 3 39 6-4 15-20 26-37 25"/>
    <path fill="url(#i)" d="M140 80q-5-11-20-9-16 6-14 17 3 11 20 9 15-6 14-17m-14 13q-13-3-13-4 1-3 13-7c4-1 12 1 13 2q-3 8-13 9" transform="matrix(2.8 0 0 2.8 13 13)"/>
    <path fill="url(#j)" d="M139 84c-1-1-9-3-13-2-7 1-13 7-13 7s5 3 13 4q10-1 13-9" transform="matrix(2.8 0 0 2.8 13 13)"/>
    <path fill="#ab6957" d="M334 251c18-12 11-8 46-19-9 2-27 6-33 10z"/>
    <path d="m413 249 7-6-15 3 8-5c-1 1-7 4-30 1l18-5c-39 2-64 17-68 21 0 0 10-5 17-6-16 8-14 11-25 15 14 2 13 4 22 6 17 4 35 7 51-2 10-6 16-16 17-18 4 0 10-4 10-4s-8 2-12 0m-40 28c-25-2-39-10-39-10s17-18 37-20c13-2 36 2 39 6-4 14-20 24-37 24"/>
    <path fill="url(#k)" d="M140 113a40 40 0 1 1-80 0 40 40 0 0 1 80 0" transform="matrix(3 0 0 3 0 -6)"/>
    <path fill="url(#l)" d="M135 56a35 35 0 1 1-70 0 35 35 0 0 1 70 0" transform="matrix(3 0 0 3 0 -6)"/>
    <path fill="#543c32" d="M164 215c20-26 55-22 83-18l22 4q9 3 5 12-4 3-9 2c-34-1-72-21-101 0M437 214q-9-6-20-8c-25-4-74 13-87 9-8-2-6-10-3-12l22-4c31-6 67-10 88 15"/>
    <path fill="#ca9b8e" d="m290 249-6 42c-5 15-20 36-17 45 6 19 24 14 33 14s26 5 29-7c1-4-1-14-1-14s-9 9-28 8c-6 0-15-6-15-15 0-12 6-22 7-34 1-9-2-39-2-39"/>
    <path fill="#ab6957" d="M316 345q6 0 5 2 0 2-5 2h-9s6-4 9-4m-32 0q-4 0-4 2 0 3 4 2h10s-7-4-10-4m44-16s4 6 4 12c-1 6-11 9-11 9s7-5 7-10zm-58-7s-4 9-3 14c2 10 12 13 12 13s-6-6-8-12c-3-6-1-15-1-15"/>
    <path fill="#e8d7d3" d="M316 333q5-4 3-5-1-2-5 1c-3 4-10 7-10 7s9 0 12-3"/>
    <path fill="#3b3128" d="M441 99H154l6 191c1-3 18-34 20-30 81-40 108-91 124-131-24 101-82 115-82 115 13-1 49-5 73-30 3-4 30-24 53-86 5 51 27 107 65 131-12-25-29-90-32-135 21 103 42 157 62 194l18 34c4 23-20-253-20-253" opacity=".1"/>
    <path fill="#3b3128" d="m372 2-24-8c0-3-158-48-238 139-20 58-31 149-12 208 4 14 16 32 28 95 5 30 9 54 42 87 9 9 31 26 35 41 12-66-11-85-33-103-15-12-30-15 9-6 0 0 8 0 24-11q-37 8-55-23c-15-27-15-67 0-94 16 8 15 51 16 57 7-23-3-87-4-94-1-3 4-14 4-14 1-3 14-27 16-23 81-40 108-90 124-131-24 101-79 120-79 120 13-1 46-10 70-35 3-3 32-35 55-97 5 51 28 109 58 144-12-25-24-91-27-137 21 103 47 153 66 189 7 13 14 34 13 33 4 24-5 78-51 91q14 3 23 1c-49 49-21 78-12 129 2-9 2-18 16-38 26-38 6-39 38-102 35-67 31-93 34-111 0-2 19-248-136-307"/>
    <path fill="#2c2219" d="M222 216c37-54 60-93 72-150-29 66-79 118-123 172 0-13 2-84 58-168-67 61-97 148-79 201-13-28-23-82-14-120-37 89 15 130 30 186-4-55-10-44-2-63 1-3 8-17 9-13q5-10 7-8c81-40 108-90 124-131-24 101-79 120-79 120 37-4 96-68 88-162-15 54-54 101-91 136m281-13q2 71-11 139-8-63-36-147c16 77 14 104 15 134-39-86-79-160-94-248-3 32 5 81 10 117-13-29-28-64-33-118 0 11-1 16-5 29 5 51 29 111 59 145-12-25-24-91-27-137 21 103 47 153 66 189l13 33 1 8q8 19 4 33c-4 15-27 47-56 50 26 6 43-8 57-26-21 48-63 26-46 155q1-13 16-37c26-38 6-39 38-102 35-67 31-93 34-111 0-1 4-48-5-106M133 425c9 5 20 32 50 29-60-15-57-99-57-151q-6 22-10 46c-34-92-15-192 29-278q-18 25-35 62c-50 145-1 235 3 250 20 67 8 93 55 140 9 9 31 26 35 41 11-75-57-96-70-139M429 71c46 42 63 138 64 209 0 14 0-148-64-209m36 171c10 60-8-128-74-175 40 33 66 130 74 175M213 62c17-15-9 6-18 15-31 28-45 58-51 90 11-45 34-75 69-105m41 5c9-7-42 25-69 124 21-62 47-101 69-124"/>
    <path fill="#4a423a" d="M455 318c52 80 10 106 6 123 5-19 33-47-6-123m35 60c1-3 10-27 1-74-5-25-15-49-21-73 12 55 26 91 20 147m-368 36c0-5-16-56 8-120-34 70-8 111-8 120m19-96-3-7c-41-88-13-156 21-242-46 98-67 156-18 249m89-259 12-12-3 3c-64 58-104 121-92 206-8-79 29-139 83-197m70-12c-10 25-81 131-127 186 78-86 126-177 127-186m-52 188-7 5 5-3c81-42 90-95 110-180-22 80-37 136-108 178m218 77c-12-27-88-192-90-241 2 81 89 238 90 241m-20-95q2 7 3 14c-10-60-16-104-54-152 26 33 35 66 51 138M409 58zc48 36 73 176 74 179-3-10 1-86-58-162q-7-10-16-18 0 1 0 0z"/>
    <path fill="#3b3128" d="m437 508-2 6c6-17 12-20 17-45-6 20-7 14-15 39m1 1q-13 22-11 22l4-9c5-8 11-14 15-29q0 4-8 16m-287-17c11 14-2 2-21-44 7 24 13 34 21 44m15 15c-3-2-21-20-28-34 10 25 31 37 28 34m-8-2c31 30-9-8-12-15 0 0 0 4 12 15"/>
    <path fill="#0d0905" d="M504 178C467 5 347-7 356-3 248-41 118 28 93 182c-8 43-11 123 0 153l17 46c24 66-2 100 73 158q15 11 20 28l1-4c9-51 5-80-44-112 14 8 32 5 44-7-54 15-81-58-54-114 10 24 14 46 13 58 11-34 4-47-1-109l16-25c57-28 99-54 128-138-7 24-12 46-32 77-26 40-38 41-54 50q20 2 57-19l-16 13c41-27 72-65 88-128-11 50-16 96-69 124 53-26 63-65 70-123 5 92 48 138 63 149-19-31-27-104-33-151 7 45 4 31 15 75 21 79 47 124 62 155 6 44-12 84-52 92q15 5 26 2c-55 56-21 72-11 131 4-24 17-36 28-55 10-19 6-40 18-64 38-79 69-115 38-266m-94 252c31-6 56-47 52-81 9 21 11 37-2 56-10 19-29 30-50 25m96-121c-6 88-46 116-53 162-7 53-25 44-33 85-10-51-36-76 15-125 22-7 45-35 37-69-11-55-59-85-92-256l-2-8s-4-25 1 4c1 47 13 120 27 147-43-54-54-114-56-140l1-9c2-15 6-38-1 4-22 62-49 95-56 102-23 24-59 35-69 36 58-25 77-94 87-153l-4 18c-17 46-40 101-128 145 63-78 97-140 112-181-31 73-119 180-129 205-3-102 32-174 67-205-36 28-81 111-72 219 3 20 11 71 6 91 1-12-1-29-4-37-9-33-31-58-35-95-4-33-3-68 12-98q-16 31-17 66c-3 68 18 75 27 109-28 49-4 135 54 119-35 29-65-22-71-32q-10-31-10-65c-1 154 102 82 83 214-3-12-31-37-34-40-45-46-35-73-51-126-6-29-14-40-19-55-19-61-6-153 13-208C148 48 206-7 298-10c21-1 67 7 40 3 14 3 21 6 33 11 153 57 136 299 135 305"/>
    <path fill="#fff" d="M446 255q-1 24-16 45c-8 13-31 17-47 17q-22 0-33-7c-14-10-30-32-33-54 31-18 93-18 129-1m-292-2q0 25 16 47c8 13 31 17 47 17q22 0 33-7c14-9 29-31 33-52-33-19-95-21-129-5" opacity=".2"/>
    <path fill="#fff" d="M446 255c-36-17-98-17-129 1l-1-10c1-25 36-33 67-33 21 0 46 4 54 14q10 12 9 28m-229-42c-21 0-46 4-54 14q-9 12-9 26c34-16 96-14 129 5l1-12c-1-25-36-33-67-33" opacity=".4"/>
    <path fill="#efb9b9" d="M463 222c-1-8-84-22-126-8q-16 5-22 12-2 3-8 2-8-3-14 0-5 1-8-2-6-7-22-12c-42-14-125 0-126 8l-2 23c0 6 3 5 9 8 2 1 6 8 6 11q3 20 16 38c14 22 65 25 87 11 15-9 30-32 34-54l2-11q3-6 11-6t11 6l2 11c4 22 19 45 34 54 22 14 73 11 87-11q13-18 16-38c0-3 4-10 6-11 6-3 9-2 9-8zm-214 86c-19 13-66 9-78-9-14-21-24-51-7-71 16-20 117-22 118 18 1 24-17 52-33 62m180-9c-12 18-59 22-78 9a82 82 0 0 1-33-62c1-40 102-38 118-18 17 20 7 50-7 71"/><path fill="#fedede" d="m136 225 1-3c1-8 84-22 126-8q16 5 22 12v-1s-66-34-149 0m326 25q3 0 3-5l-2-23c-1-8-84-22-126-8q-15 6-21 11c22-18 114-22 139 3 5 5 7 15 7 22"/>
    <defs>
        <radialGradient id="k" cx="100" cy="113" r="40" class="svga-on-canvas-facehighlight-gradient-single-0" gradientUnits="userSpaceOnUse">
            <stop offset="0" stop-color="#e8d7d3" stop-opacity=".5" />
            <stop offset=".9" stop-color="#d9b8af" stop-opacity="0"/>
        </radialGradient>
        <radialGradient id="l" cx="100" cy="57" r="36" class="svga-on-canvas-facehighlight-gradient-single-1" gradientUnits="userSpaceOnUse">
            <stop offset="0" stop-color="#e8d7d3" stop-opacity=".5"/>
            <stop offset=".9" stop-color="#d9b8af" stop-opacity="0"/>
        </radialGradient>
        <radialGradient id="c" cx="126.4" cy="87.6" r="15.2" class="svga-on-canvas-eyesback-gradient-left-0" gradientTransform="matrix(-1 0 0 1 184 -7)" gradientUnits="userSpaceOnUse">
             <stop offset="0" stop-color="#fff"/>
             <stop offset=".5" stop-color="#fdfefe"/>
             <stop offset=".7" stop-color="#f6f8f9"/>
            <stop offset=".9" stop-color="#eaeff2"/>
            <stop offset="1" stop-color="#d9e3e8"/>
            <stop offset="1" stop-color="#d8e2e7"/>
        </radialGradient>
        <radialGradient id="g" cx="126.4" cy="87.6" r="15.2" class="svga-on-canvas-eyesback-gradient-right-0" gradientTransform="rotate(3 134 294)" gradientUnits="userSpaceOnUse">
            <stop offset="0" stop-color="#fff"/>
            <stop offset=".5" stop-color="#fdfefe"/>
            <stop offset=".7" stop-color="#f6f8f9"/>
            <stop offset=".9" stop-color="#eaeff2"/>
            <stop offset="1" stop-color="#d9e3e8"/>
            <stop offset="1" stop-color="#d8e2e7"/>
        </radialGradient>
        <radialGradient id="e" cx="122.6" cy="83.5" r="16.9" class="svga-on-canvas-eyesfront-gradient-left-3" fx="136.2" fy="83.1" gradientTransform="matrix(1 .1 .1 -.8 -53 130)" gradientUnits="userSpaceOnUse">
            <stop offset="0" stop-color="#ca9b8e"/>
            <stop offset=".7" stop-color="#ca9b8e" stop-opacity=".3"/>
            <stop offset="1" stop-color="#d9b8af" stop-opacity="0"/>
        </radialGradient>
        <radialGradient id="f" cx="70.2" cy="108.1" r="29.5" class="svga-on-canvas-eyesfront-gradient-left-4" gradientTransform="translate(-2 2)" gradientUnits="userSpaceOnUse">
            <stop offset=".9" stop-opacity="0"/>
            <stop offset="1" stop-opacity=".3"/>
        </radialGradient>
        <radialGradient id="i" cx="122.6" cy="83.5" r="16.9" class="svga-on-canvas-eyesfront-gradient-right-3" fx="136.2" fy="83.1" gradientTransform="rotate(172 122 74)scale(1 .8)" gradientUnits="userSpaceOnUse">
            <stop offset="0" stop-color="#ca9b8e"/>
            <stop offset=".7" stop-color="#ca9b8e" stop-opacity=".3"/>
            <stop offset="1" stop-color="#d9b8af" stop-opacity="0"/>
        </radialGradient>
        <radialGradient id="j" cx="70.2" cy="108.1" r="29.5" class="svga-on-canvas-eyesfront-gradient-right-4" gradientTransform="matrix(-1 0 0 1 202 2)" gradientUnits="userSpaceOnUse">
            <stop offset=".9" stop-opacity="0"/> 
            <stop offset="1" stop-opacity=".3"/>
        </radialGradient>
        <linearGradient id="a" x1="100" x2="100" y1="171.3" y2="136.4" class="svga-on-canvas-chinshadow-gradient-single-0" gradientUnits="userSpaceOnUse">
            <stop offset="0" stop-color="#ca9b8e" stop-opacity=".8"/>
            <stop offset=".7" stop-color="#ab6957"/>
        </linearGradient>
        <linearGradient id="b" x1="100" x2="100" y1="142" y2="139" class="svga-on-canvas-mouth-gradient-single-0" gradientUnits="userSpaceOnUse">
            <stop offset=".1" stop-color="#d1a99e"/>
            <stop offset="1" stop-color="#ca9b8e"/>
        </linearGradient>
        <linearGradient id="d" x1="130" x2="126" y1="81" y2="85" class="svga-on-canvas-eyesiris-gradient-left-6" gradientTransform="translate(-50)" gradientUnits="userSpaceOnUse">
            <stop offset="0" stop-color="#fff"/>
            <stop offset="1" stop-color="#fff" stop-opacity="0"/>
        </linearGradient>
        <linearGradient id="h" x1="130" x2="126" y1="81" y2="85" class="svga-on-canvas-eyesiris-gradient-right-6" gradientUnits="userSpaceOnUse">
            <stop offset="0" stop-color="#fff"/>
            <stop offset="1" stop-color="#fff" stop-opacity="0"/>
        </linearGradient>
        </defs>
    </svg>