<svg xmlns="http://www.w3.org/2000/svg" width="600" height="600" viewBox="0 0 600 600" style="overflow:hidden!important">
    <path d="M675 675H-75V-75h750z"/>
    <path fill="#2a232b" d="M302 302h-3v-3h3z"/>
    <path fill="#f0c7b1" d="M586 599c-6-14-24-35-44-41-25-7-81-16-102-21-16-3-50-33-61-44q-3-2-4-8c0-32 13-119 13-119H212s14 87 13 119q0 6-4 8c-11 11-45 41-61 44-21 5-77 14-102 21-20 6-38 27-44 41C3 623 0 667 0 704h600c0-37-3-81-14-105"/>
    <path fill="#ffe4d6" d="M477 552c73 11 104 26 114 152h9c0-37-3-81-14-105-6-14-24-35-44-41-25-7-81-16-102-21-16-3-54-36-64-49 10 14 38 47 63 56 12 4 21 6 38 8m-316-8c25-9 53-42 63-56-10 13-48 46-64 49-21 5-77 14-102 21-20 6-38 27-44 41C3 623 0 667 0 704h9c10-125 41-141 114-152 17-2 26-4 38-8"/>
    <path fill="#e1ac8f" d="m287 593-21-7c-32-12-133-20-133-20s107 4 130 8c-1-14-9-60-9-60l20 63c2 7 13 16 13 16m32-4zm-32 4s9 9 13 9c6 0 14-9 18-12-3 3-12 4-15 4zm63-23-13 3 7-45c-2 9-14 49-25 61 6-5 19-7 25-8 31-5 31-5 123-15 0 0-87-1-117 4"/>
    <path fill="none" stroke="#c27b55" stroke-width="4.5" d="M586 599c-6-14-24-35-44-41-25-7-81-16-102-21-16-3-50-33-61-44q-3-2-4-8c0-32 13-119 13-119H212s14 87 13 119q0 6-4 8c-11 11-45 41-61 44-21 5-77 14-102 21-20 6-38 27-44 41C3 623 0 667 0 704h600c0-37-3-81-14-105z"/>
    <path fill="url(#a)" d="M75 164q10 6 25 6t25-6l-1-2c0-10 4-34 4-39H72z" transform="scale(3)"/>
    <path fill="#386e77" d="m335 708-204-1H60l-51-1H-6c-13-125 44-158 132-170q36-4 64-21c49 67 194 53 219-2l12 6q22 16 53 18c78 5 133 39 132 164v5h-81c-40 1-90 2-190 2"/>
    <path fill="#4d7e86" d="M603 704c-1-22-12-84-31-113-37-56-127-36-147-59-15 31-75 50-95 53 57-19 82-33 91-66 19 25 123 6 164 73 12 20 24 82 18 112M167 533q6-2 11-5l-5-6c-27 22-128 8-163 72-11 21-19 69-13 110 2-25 3-79 21-108 34-51 96-37 143-59 21 26 54 39 87 44-42-11-65-29-81-48"/>
    <path fill="#265e68" d="M406 520c-17 34-142 75-213 2l-17 7c51 70 202 70 242-1z"/>
    <path fill="#0c4049" d="M409 513c-28 56-175 64-219 2-16 5-31 15-47 17C50 546-18 553-6 707h137c370 2 358-1 476-1v-5c6-169-93-159-160-171q-14-5-26-12zm-220 4c39 70 193 56 222 0l9 4c-31 64-183 85-245 3zM-3 704c-7-79 6-144 99-160 31-5 49-6 76-17 50 82 216 69 251-4q7 7 22 11c54 13 164-2 159 170-163-2-297-7-607 0"/>
    <path fill="#f0c7b1" stroke="#c27b55" stroke-width="4.5" d="M137 253c-4-7-19-28-30-25-9 3-9 15-10 23-1 11-1 30 2 37 3 8 12 22 17 28 7 6 18 28 20 30q3 6 13 8c9-1 17-9 17-13 4-23-17-69-29-88z"/>
    <path fill="#c27b55" d="M133 298v-7l1-7c-1-6-6-18-9-24q-6-14-17-20-4 0-7 2v2l1-2c0 3-2 19-1 31q2 15 4 17v3c3 13 23 30 28 35q0 2 2 1 1-1-2-2c-4-5-24-22-26-35-4-13 11-33 14-37l5 9c-2 3-16 19-12 32 1 4 11 11 15 12l4 4q0 5 4 8l2 1 2-1v3l1 2v-6l-6-9q-3-6-3-12m-28-12c-7-20 4-39 5-42q6 3 10 9c-1 3-15 19-15 33m32 33c-3-1-2-6-3-7l-4-5-2-1c-8-18 1-26 3-28l2 6-1 7v7q0 6 3 12l6 9z"/>
    <path fill="#f0c7b1" stroke="#c27b55" stroke-width="4.5" d="M462 253c5-7 19-28 30-25 9 3 9 15 10 23 1 11 1 30-2 37-3 8-12 22-17 28-7 6-18 28-19 30q-4 6-13 8c-10-1-18-9-18-13-4-23 18-69 29-88z"/>
    <path fill="#c27b55" d="m463 310-6 9v4l1 2v-5l2 1 2-1q4-3 4-8l4-4c4-1 14-8 15-12 4-13-10-29-11-32l5-9c2 4 17 24 14 37s-23 30-27 35l-1 2 2-1c4-5 24-22 27-35v-3q2-2 4-17c1-12-1-28-1-31l2 2-1-2q-1-2-6-2-12 6-17 20c-4 6-9 18-9 24v7l1 7q-1 6-4 12m16-57q4-6 10-9c1 3 12 22 5 42 0-14-13-30-15-33m-21 66 6-9 4-12-1-7v-7l1-6c2 2 11 10 3 28l-1 1q-4 2-5 5c-1 1 0 6-3 7z"/>
    <path fill="#f0c7b1" d="M300 3a183 183 0 0 0-176 229c0 1 24 86 29 131 4 34 38 123 147 123 110 0 141-89 147-123 8-45 30-130 30-131q6-22 6-46C483 84 401 2 300 3"/>
    <path fill="#e8b9a0" d="M408 37a192 192 0 0 1 52 186s-20 86-27 131c-5 34-34 123-133 123s-129-89-133-123c-4-45-26-131-26-131q-6-22-6-46c0-56 23-106 58-140a183 183 0 0 0-69 195c0 1 24 86 29 131 4 34 38 123 147 123 110 0 141-89 147-123 8-45 30-130 30-131a185 185 0 0 0-69-195"/>
    <path fill="none" stroke="#c27b55" stroke-width="4.5" d="M300 3a183 183 0 0 0-176 229c0 1 24 86 29 131 4 34 38 123 147 123 110 0 141-89 147-123 8-45 30-130 30-131q6-22 6-46C483 84 401 2 300 3z"/>
    <path fill="url(#b)" d="M100 144q-5-1-5-3c0-2 5 1 10 0q0 1-5 3" transform="scale(3)"/>
    <path fill="#fff" d="M300 416c-26 0-37-8-47-18h93c-8 11-20 18-46 18"/>
    <path fill="none" stroke="#c27b55" stroke-width="2.4000000000000004" d="M300 416c-26 0-37-8-47-18h93c-8 11-20 18-46 18z"/>
    <path fill="url(#c)" d="M61 83q-2 5 12 7 15 1 14-4 0-7-13-7-12-1-13 4" transform="scale(3)"/>
    <path fill="#3a2514" d="M242 253a18 18 0 0 1-36 0 18 18 0 0 1 36 0"/>
    <path fill="url(#d)" d="m73 78 1 5zm1 5zv2h2v-2zm0 0 2-4zm2-4zm-1 4 3-3zm3-3zm-3 4 5-1zm0 0 5 1zm5 1zm-5 0 3 3zm-1 0 2 4zm2 4zm-2-4-1 5zm-1 0-2 4zm0 0-4 2zm0-1h-5zm0 0-4-3zm0-1-2-4zm-2-4" opacity=".7" transform="matrix(3 0 0 3 2 1)"/>
    <path fill="url(#e)" d="m75 78-1 5zm-1 5zv1q1 0 0 0h2v-2zm1 0 2-3zm2-3zm-2 4 4-2zm4-2zm-4 2h5zm0 1 4 2zm0 0 2 4zm-1 0 1 5zm-1 0-1 4zm-1 4zm1-4-3 3zm-3 3zm3-4-5 1zm0 0-5-1zm0-1-3-3zm1 0-2-4zm-2-4z" opacity=".4" transform="matrix(3 0 0 3 2 1)"/><path fill="#3a2514" d="M231 253a7 7 0 1 1-15 0 7 7 0 0 1 15 0"/><path d="M231 253a7 7 0 1 1-15 0 7 7 0 0 1 15 0" opacity=".9"/><path fill="url(#f)" d="M71 87a1 1 0 1 1 1 1z" opacity=".5" transform="matrix(3 0 0 3 2 1)"/><path fill="url(#g)" d="M76 84h-2v-2h1z" opacity=".5" transform="matrix(3 0 0 3 2 1)"/>
    <path fill="url(#h)" d="M79 83h-4l-1-3h4z" opacity=".8" transform="matrix(3 0 0 3 2 1)"/>
    <path fill="#f0c7b1" d="M167 260c4 41 32 73 64 70 31-3 53-39 50-80-4-41-32-72-63-70-32 3-54 39-51 80m16-11q2-14 40-13c29 2 40 13 39 23s-13 14-42 11c-32-2-38-12-37-21"/>
    <path fill="url(#i)" d="M58 85c0 8 10 14 20 13q15-2 17-15c-1-7-10-13-19-12-10 1-19 4-18 14m3-2q1-5 13-4 15 1 13 7-1 7-14 4-14-2-12-7" transform="scale(3)"/>
    <path fill="url(#j)" d="M61 83q-2 5 12 7 15 1 14-4 0-7-13-7-12-1-13 4" transform="scale(3)"/><path fill="#c27b55" d="m257 238-10-4s8 1 11 3l6 8zm-56-7s-8 0-14 4q-7 6-7 8c0 2 5-5 9-8z"/><path fill="#582311" d="M224 237c-18-1-47 1-40 18-10-5-2-26 42-22 21 1 47 12 35 29 4-17-19-25-37-25m33 30-9 3-40-2q-10-1-21-7 8 8 21 10l40 1z"/><path fill="url(#k)" d="M139 83q2 5-12 7-15 1-14-4 0-7 13-7 13-1 13 4" transform="scale(3)"/>
    <path fill="#3a2514" d="M395 253a18 18 0 0 1-36 0 18 18 0 0 1 36 0"/>
    <path fill="url(#l)" d="m125 78 1 5zm1 5zv2h2v-2zm0 0 2-4zm2-4zm-1 4 3-3zm3-3zm-3 4 5-1zm0 0 5 1zm5 1zm-5 0 3 3zm-1 0 2 4zm2 4zm-2-4-1 5zm-1 0-2 4zm0 0-4 2zm0-1h-5zm0 0-4-3zm0-1-2-4zm-2-4" opacity=".7" transform="matrix(3 0 0 3 -1 1)"/><path fill="url(#m)" d="m127 78-1 5zm-1 5zv1q1 0 0 0h2v-2zm1 0 2-3zm2-3zm-2 4 4-2zm4-2zm-4 2h5zm0 1 4 2zm0 0 2 4zm-1 0 1 5zm-1 0-1 4zm-1 4zm1-4-3 3zm-3 3zm3-4-5 1zm0 0-5-1zm0-1-3-3zm1 0-2-4zm-2-4z" opacity=".4" transform="matrix(3 0 0 3 -1 1)"/><path fill="#3a2514" d="M384 253a7 7 0 1 1-15 0 7 7 0 0 1 15 0"/><path d="M384 253a7 7 0 1 1-15 0 7 7 0 0 1 15 0" opacity=".9"/><path fill="url(#n)" d="M123 87a1 1 0 1 1 1 1z" opacity=".5" transform="matrix(3 0 0 3 -1 1)"/><path fill="url(#o)" d="M128 84h-2v-2h1z" opacity=".5" transform="matrix(3 0 0 3 -1 1)"/><path fill="url(#p)" d="M131 83h-4l-1-3h4z" opacity=".8" transform="matrix(3 0 0 3 -1 1)"/>
    <path fill="#f0c7b1" d="M382 180c-31-2-59 29-63 70-3 41 19 77 50 80 32 3 60-29 64-70 3-41-19-77-51-80m-2 90q-42 4-42-11c0-15 10-21 39-23q38-1 40 13c1 9-5 19-37 21"/><path fill="url(#q)" d="M124 71c-9-1-18 5-19 12q2 13 17 15c10 1 20-5 20-13 1-10-8-13-18-14m3 19q-15 1-14-4 0-7 13-7 13-1 13 4 2 5-12 7" transform="scale(3)"/>
    <path fill="url(#r)" d="M139 83q2 5-12 7-15 1-14-4 0-7 13-7 13-1 13 4" transform="scale(3)"/><path fill="#c27b55" d="m336 245 6-8c3-3 11-3 11-3l-10 4zm75-10 9 8q0-2-7-8c-6-4-14-4-14-4s9 2 12 4"/><path fill="#582311" d="M339 262c-12-17 14-28 35-29 44-4 52 17 42 22 7-17-22-19-40-18-18 0-41 8-37 25m13 10 40-1q13-2 21-10-11 6-21 7l-40 2-9-3z"/><path fill="url(#s)" d="M141 114a41 41 0 1 1-82 0 41 41 0 0 1 82 0" transform="scale(3)"/><path fill="url(#t)" d="M138 54a37 37 0 1 1-75 0 37 37 0 0 1 75 0" transform="scale(3)"/><path fill="#3b3128" d="M157 222c23-29 61-24 93-19l24 4c6 1 10 8 6 13q-4 3-10 2c-38-1-80-23-113 0M443 220q-10-6-21-8c-29-5-83 14-97 10-9-2-7-11-4-13s3-1 24-5c35-6 75-11 98 16"/><path fill="#e1ac8f" d="m297 270-2 75c0 4 7 14 7 21 0 0-14-1-19-3-5-1-13-5-10-14z"/><path fill="#c27b55" d="m296 359-10-2q-4-1-3-4 0-2 4-1c4 1 9 7 9 7m9 0 9-2q5 0 4-4 1-2-5-1c-3 1-8 7-8 7"/><path fill="#2a232b" d="M215 386q1 4-1 7zm81 87q0-6-5-7 4 3 5 7m-12-3q1-4-3-7 3 3 3 7m-11-4q1 3 4 4zm-11-5 2 5zm7-9v8zm7-8v7zm3 14 4-7zm11-7q0 5 2 9zm-4-4 2-7zm11-5q0 5 2 5zm-11-7 2-7zm-21 5q-2 4-1 8zm-9 19 3-8zm-7-7q0 4 1 5-1-3-1-5m3-18 1 8zm-11 7 1 9zm-8 0q-1 4 1 6zm-12-6-1-5zm5 1 2-8c-2 2-2 8-2 8m10-10q-2 3-2 7zm8 8 1-8zm0-25-1 5zm-8 8v-7zm-11-4 2 8zm-10 0q-2 7 1 10zm-8-6q-2 5 1 9-2-4-1-9m3-15q-1 0-2 7zm9 7s-2 0-1 8zm13 3 1-8zm-6-18q-2 4-2 7zm12-5q-3 3-3 9 2-11 3-9m13 0-4 7zm9 8c2-2 4-10 4-10zm15-10c-2 1-5 8-5 10zm9 0-3 8zm12-2-4 9q3-2 4-9m89 11q-1 4 1 7zm-75 80q-4 1-4 5 1-3 4-5m9-2q-4 3-4 8zm4 6q4-1 4-4zm13-4 2-5zm-5-6v-8zm-7-9v-7zm-7 0 4 7zm-9 9q3-4 2-9zm4-20 2 7zm-8 4q3 0 2-5zm8-16 2 7zm24 20q1-4-1-8zm5 3 3 8zm9 6s3-3 1-5q0 3-1 5m-2-22-1 7zm10 15 1-9zm8-3 1-6zm14-17-1 5zm-8-2 2 8s0-6-2-8m-6 5q1-4-2-7zm-11-7 1 8zm2-12-1-5zm7-4v7zm9 11 2-8zm11 2q3-3 1-10zm8-7q3-4 1-9 1 5-1 9m0-17q-1-6-2-7zm-10 8c1-8-1-8-1-8zm-15-13 1 8zm9-3q0-3-2-7zm-11-3q0-6-3-9 1-1 3 9m-12-2-4-7zm-17-9s2 8 4 10zm-6 10a171 171 0 0 0 0 0m-11-2-3-8zm-11-1-4-9q1 7 4 9m-6 71q-4 7-3 10c1-4 0-4 3-10m-8-26 2 8q1-5-2-8m8 6c1-3 3-2 4-6q-3 3-4 6M459 296c-14-37 2-95-25-137-12-20-22-34-21-58h-1l-8 11 5-12-1-1q-10 14-23 17c10-7 21-19 25-26v-1c-34 22-73 22-107 23-31 0-50-1-72-14q-22 9-42-5c-43 84-24 42-50 198a107 107 0 0 1-24-74c-14-29-20-46-17-104 3-24 8-42 23-61q-3-16-1-31c-8-14-13-29-15-35 11 9 12 9 21 12l7-14 4 17 5 2-2-10 9 11 5 1q-12-16-14-40 17 9 42 9c38 0 76-28 129-28 47 0 87 26 105 55q-1-10 2-21v19l1 1q3-15 13-27c-6 16-4 7-10 26l1 1q4-8 18-15L424 2l1 1q6-6 14-2-11-3-17 8c20 3 30 15 44 30 32 37 41 73 23 125 8 16 7 51-10 80 0 17-11 37-20 52"/>
    <path fill="#1b141c" d="m187 91 3 3-1-1c-43 84-24 42-50 198a107 107 0 0 1-24-74c-14-29-20-46-17-104 3-24 8-42 23-61q-3-16-1-30l6 7q2 13 0 22c-29 88-12 129 6 192-7-48-21-109 17-144-16 39-12 57-8 84q3-56 46-92m279-52-3-3-3 2c44 92 1 83 12 124 12 30-4 48-4 78 0-45-2-76-27-112-8-11-11-52-16-72-70 43-173 52-281-34 51 18 155 4 190-19-40 7-125 7-163-8 91-7 90-37 168-42-37-14-119 21-157 21q-25 0-42-9 2 24 14 40l-5-1-9-11 2 10-5-2-4-17-7 14c-9-3-10-3-21-12 2 6 7 21 15 35v1c19 27 46 49 70 72q19 13 41 4c22 13 41 14 72 14 34-1 73-1 107-23v1c-4 7-15 19-25 26q13-3 23-17l1 1-5 12 8-11h1c-1 24 9 38 21 58 27 42 11 100 25 137 9-15 20-35 20-52 17-29 18-65 10-80 18-52 9-88-23-125m2 77c0-28-19-65-19-65q-12-22-30-26c37 2 52 58 50 87zM384-5c10 8 12 11 22 24C356-70 258-3 227-5c31 7 102-39 157 0m25 39c-60 50-151 29-226 6 74 34 169 52 226-6M174 88c-20 11-29 37-30 54 4-15 15-42 30-54m-25-14c-28 17-34 57-31 89 3-30 9-70 31-89m202-37-32 4c-8 0-39 1-67-1 29 7 46 8 67 7q38 0 65-21c-13 7-19 8-33 11m101 80-2-4c-3-4-6-17-18-56 9 73 24 59 30 97 0-13-1-20-10-37"/>
    <path fill="#3a353a" d="M474 204v-10c1-19-10-35-3-57 5-17 9-19 6-48 0-4-1-14-3-18l5 18c5 29 1 33-4 49-8 24 6 34-1 66M425 56c3 91 22 70 38 126-11-66-21-12-38-126m-280 47c-27 34-25 59-18 111-1-52-7-72 18-111m-20-50c-16 49-19 71-11 124-2-53-1-65 11-124m61 39c-29 21-44 59-45 91 4-31 21-70 45-91m201-18c-37 13-95 17-138 4-34-10-86-43-114-63 25 20 70 50 101 62 33 12 84 17 124 7 27-7 42-14 65-28q-17 11-38 18M308-35c37-7 80 17 103 45-24-34-63-51-86-52-38 0-77 32-154 35 72 3 107-23 137-28m29 39c-52 18-92 23-146 25 56 4 96-2 146-25m55 10c-32 15-46 18-112 22 41 1 80-1 112-22M286 60c32 4 88 0 116-29-34 28-97 27-146 25zm137-28c22 9 28 49 37 81-4-29-11-75-37-81"/><path d="M467 39c-13-15-25-27-44-30q8-12 19-6-8-9-17 0 6-8 19-20c-13 6-17 10-22 16l11-29q-11 13-14 29v-23q-6 15-4 23-11-16-27-28c-75-55-150-4-191 2-16 2-41 1-58-9 1 17 7 28 14 41l-4-1c-6-8-7-7-9-13q-1 7 1 11l-4-1-4-19-8 15c-9-2-9-3-22-13 2 3 7 20 16 37q-2 16 1 31-21 26-22 61c-4 57 2 74 16 104l2 22c3 19 7 32 23 53 11-61 10-62 12-78 10-77 10-65 38-120q16 13 42 5c13 7 27 13 63 13 37 0 79 2 116-22-6 8-18 21-28 27q14-2 27-17l-7 15 11-14c-2 24 9 38 21 58 27 43 10 101 25 138 9-15 21-36 21-53 16-27 18-63 10-80 16-47 13-84-23-125M140-7l8 10-7-1zm-7-8 3 16-9-3zm5 300c-13-23-16-30-19-53l-2-14c-18-42-25-121 4-165l3-4q-2-7-1-22l7 11 1 2c14 18 27 32 57 54-36 59-34 39-50 191m353-140-5 21c9 21 0 61-9 79-4 21-8 25-18 46-7-33 8-91-20-135-18-30-26-34-22-71v-3c-38 24-79 26-135 25-16 0-37-2-50-10-28 7-38-5-61-22-24-21-41-39-61-82 11 9 34 14 49 16a87 87 0 0 1-18-42c10 7 35 14 57 12 41-4 98-46 168-14 32 14 48 34 52 45h2c21 7 22 9 43 32 11 14 39 42 28 103"/><path fill="#26120b" d="M300 54"/>
    <defs>
        <radialGradient id="s" cx="100" cy="114" r="41" class="svga-on-canvas-facehighlight-gradient-single-0" gradientUnits="userSpaceOnUse"><stop offset="0" stop-color="#ffe4d6" stop-opacity=".5"/><stop offset=".9" stop-color="#f0c7b1" stop-opacity="0"/></radialGradient><radialGradient id="t" cx="100" cy="54" r="37" class="svga-on-canvas-facehighlight-gradient-single-1" gradientUnits="userSpaceOnUse"><stop offset="0" stop-color="#ffe4d6" stop-opacity=".5"/><stop offset=".9" stop-color="#f0c7b1" stop-opacity="0"/></radialGradient><radialGradient id="c" cx="125.9" cy="84.5" r="10.2" class="svga-on-canvas-eyesback-gradient-left-0" gradientTransform="matrix(-1 0 0 1 200 0)" gradientUnits="userSpaceOnUse"><stop offset="0" stop-color="#fff"/><stop offset=".5" stop-color="#fdfefe"/><stop offset=".7" stop-color="#f6f8f9"/><stop offset=".9" stop-color="#eaeff2"/>
            <stop offset="1" stop-color="#d9e3e8"/>
            <stop offset="1" stop-color="#d8e2e7"/>
        </radialGradient>
        <radialGradient id="k" cx="125.9" cy="84.5" r="10.2" class="svga-on-canvas-eyesback-gradient-right-0" gradientUnits="userSpaceOnUse">
            <stop offset="0" stop-color="#fff"/>
            <stop offset=".5" stop-color="#fdfefe"/>
            <stop offset=".7" stop-color="#f6f8f9"/>
            <stop offset=".9" stop-color="#eaeff2"/>
            <stop offset="1" stop-color="#d9e3e8"/>
            <stop offset="1" stop-color="#d8e2e7"/>
        </radialGradient><radialGradient id="i" cx="123.8" cy="83.7" r="17.7" class="svga-on-canvas-eyesfront-gradient-left-3" fx="136.2" fy="83.8" gradientTransform="rotate(181 -24 74)scale(-1 .8)" gradientUnits="userSpaceOnUse">
            <stop offset="0" stop-color="#e1ac8f"/>
            <stop offset=".7" stop-color="#e1ac8f" stop-opacity=".3"/>
            <stop offset="1" stop-color="#f0c7b1" stop-opacity="0"/>
        </radialGradient>
        <radialGradient id="j" cx="122.6" cy="101" r="25.8" class="svga-on-canvas-eyesfront-gradient-left-4" gradientTransform="rotate(29 -71 475)scale(-1 .75)" gradientUnits="userSpaceOnUse">
            <stop offset=".9" stop-opacity="0"/>
            <stop offset="1" stop-opacity=".2"/>
        </radialGradient>
        <radialGradient id="q" cx="123.8" cy="83.7" r="17.7" class="svga-on-canvas-eyesfront-gradient-right-3" fx="136.2" fy="83.8" gradientTransform="rotate(179 124 75)scale(1 .8)" gradientUnits="userSpaceOnUse">
            <stop offset="0" stop-color="#e1ac8f"/>
            <stop offset=".7" stop-color="#e1ac8f" stop-opacity=".3"/>
            <stop offset="1" stop-color="#f0c7b1" stop-opacity="0"/>
        </radialGradient>
        <radialGradient id="r" cx="122.6" cy="101" r="25.8" class="svga-on-canvas-eyesfront-gradient-right-4" gradientTransform="rotate(-29 171 88)scale(1 .75)" gradientUnits="userSpaceOnUse">
            <stop offset=".9" stop-opacity="0"/>
            <stop offset="1" stop-opacity=".2"/>
        </radialGradient>
        <radialGradient id="d" cx="-568.7" cy="-521" r="59.8" class="svga-on-canvas-eyesiris-gradient-left-1" gradientTransform="rotate(-14 543 -496)scale(.0992)" gradientUnits="userSpaceOnUse">
            <stop offset="0" stop-color="#fff"/>
            <stop offset="1" stop-color="#fff" stop-opacity="0"/>
        </radialGradient>
        <radialGradient id="e" cx="-582.8" cy="-519.1" r="59.7" class="svga-on-canvas-eyesiris-gradient-left-2" gradientTransform="rotate(1 -15151 14740)scale(.0991)" gradientUnits="userSpaceOnUse">
            <stop offset="0" stop-color="#fff"/>
            <stop offset="1" stop-color="#fff" stop-opacity="0"/>
        </radialGradient>
        <radialGradient id="l" cx="-568.7" cy="-521" r="59.8" class="svga-on-canvas-eyesiris-gradient-right-1" gradientTransform="rotate(-14 569 -700)scale(.0992)" gradientUnits="userSpaceOnUse">
            <stop offset="0" stop-color="#fff"/>
            <stop offset="1" stop-color="#fff" stop-opacity="0"/>
        </radialGradient>
        <radialGradient id="m" cx="-582.8" cy="-519.1" r="59.7" class="svga-on-canvas-eyesiris-gradient-right-2" gradientTransform="rotate(1 -15125 20558)scale(.0991)" gradientUnits="userSpaceOnUse">
            <stop offset="0" stop-color="#fff"/>
            <stop offset="1" stop-color="#fff" stop-opacity="0"/>
        </radialGradient>
        <radialGradient id="l" cx="-568.7" cy="-521" r="59.8" class="svga-on-canvas-eyesiris-gradient-right-1" gradientTransform="rotate(-14 569 -700)scale(.0992)" gradientUnits="userSpaceOnUse">
            <stop offset="0" stop-color="#fff"/>
            <stop offset="1" stop-color="#fff" stop-opacity="0"/>
        </radialGradient>
        <radialGradient id="m" cx="-582.8" cy="-519.1" r="59.7" class="svga-on-canvas-eyesiris-gradient-right-2" gradientTransform="rotate(1 -15125 20558)scale(.0991)" gradientUnits="userSpaceOnUse">
            <stop offset="0" stop-color="#fff"/>
            <stop offset="1" stop-color="#fff" stop-opacity="0"/>
        </radialGradient>
        <linearGradient id="a" x1="100" x2="100" y1="170" y2="122" class="svga-on-canvas-chinshadow-gradient-single-0" gradientUnits="userSpaceOnUse">
            <stop offset="0" stop-color="#e1ac8f" stop-opacity=".8"/>
            <stop offset=".7" stop-color="#c27b55"/>
        </linearGradient>
        <linearGradient id="b" x1="100" x2="100" y1="144" y2="141" class="svga-on-canvas-mouth-gradient-single-0" gradientUnits="userSpaceOnUse"><stop offset=".1" stop-color="#e8b9a0"/><stop offset="1" stop-color="#e1ac8f"/></linearGradient><linearGradient id="f" x1="122.7" x2="123.6" y1="88.3" y2="87.2" class="svga-on-canvas-eyesiris-gradient-left-5" gradientTransform="translate(-52)" gradientUnits="userSpaceOnUse">
            <stop offset="0" stop-color="#fff"/>
            <stop offset="1" stop-color="#fff" stop-opacity="0"/>
        </linearGradient>
        <linearGradient id="g" x1="127.2" x2="126.5" y1="82.3" y2="83.2" class="svga-on-canvas-eyesiris-gradient-left-6" gradientTransform="translate(-52)" gradientUnits="userSpaceOnUse">
            <stop offset="0" stop-color="#fff"/>
            <stop offset="1" stop-color="#fff" stop-opacity="0"/>
        </linearGradient>
        <linearGradient id="h" x1="129.6" x2="127.9" y1="79.8" y2="81.9" class="svga-on-canvas-eyesiris-gradient-left-7" gradientTransform="translate(-52)" gradientUnits="userSpaceOnUse">
            <stop offset="0" stop-color="#fff"/>
            <stop offset="1" stop-color="#fff" stop-opacity="0"/>
        </linearGradient>
        <linearGradient id="n" x1="122.7" x2="123.6" y1="88.3" y2="87.2" class="svga-on-canvas-eyesiris-gradient-right-5" gradientUnits="userSpaceOnUse">
            <stop offset="0" stop-color="#fff"/>
            <stop offset="1" stop-color="#fff" stop-opacity="0"/>
        </linearGradient>
        <linearGradient id="o" x1="127.2" x2="126.5" y1="82.3" y2="83.2" class="svga-on-canvas-eyesiris-gradient-right-6" gradientUnits="userSpaceOnUse"><stop offset="0" stop-color="#fff"/><stop offset="1" stop-color="#fff" stop-opacity="0"/>
        </linearGradient>
        <linearGradient id="p" x1="129.6" x2="127.9" y1="79.8" y2="81.9" class="svga-on-canvas-eyesiris-gradient-right-7" gradientUnits="userSpaceOnUse"><stop offset="0" stop-color="#fff"/><stop offset="1" stop-color="#fff" stop-opacity="0"/>
        </linearGradient>
    </defs>
</svg>