<svg xmlns="http://www.w3.org/2000/svg" width="600" height="600" viewBox="0 0 600 600" style="overflow:hidden!important">
    <path d="M675 675H-75V-75h750z"/>
    <path fill="#1b141c" d="M142 318c-12-28-10-39-7-60-5 5-8 13-17 20l12-37q-14 12-20 13l10-20h29l6 36c-2 1-6 8-13 48m308-80c0 10-3 28-7 40l4 3c15 12 17 14 19 34 11-24 1-54 1-77zm17 0h11q-2 8-8 17z"/>
    <path d="m132 238-14 40c8-6 13-18 18-21-1 7-5 23 0 40q1 10 6 19c1-9 2-36 10-44-5 15-9 35-9 51-16-29-12-44-8-64-6 6-8 15-20 22l14-38q-9 9-20 12l8-19h3l-8 16q10-3 20-14m311 40 6 5c7 6 16 11 15 39 12-20 10-50 6-66q9-9 11-18h-3q-3 8-8 16l-3-16c0 23 8 50-1 75-1-20-6-23-23-35"/>
    <path fill="#f0c7b1" d="M543 557c-5-12-21-30-38-35-21-6-68-13-86-18-14-3-42-28-52-37q-3-3-3-7c-1-28 10-101 10-101H225s12 73 11 101q0 4-3 7c-10 9-38 34-53 37-17 5-65 12-86 18-17 5-32 23-37 35-10 20-12 57-12 89h510c0-32-2-69-12-89"/>
    <path fill="#ffe4d6" d="M451 517c62 9 88 22 96 129h8c0-32-2-69-12-89-5-12-21-30-38-35-21-6-68-13-86-18-14-3-46-30-55-41 9 12 33 40 54 47 10 3 18 5 33 7m-269-7c21-7 45-35 54-47-9 11-41 38-56 41-17 5-65 12-86 18-17 5-32 23-37 35-10 20-12 57-12 89h8c8-106 34-120 96-129z"/>
    <path fill="#e1ac8f" d="m289 552-18-7c-27-10-113-16-113-16s91 3 111 7l-8-51 16 53c2 6 12 14 12 14m27-4zm-27 4s7 7 11 7c5 0 12-7 16-10q-8 3-14 3zm53-20-11 2 6-38c-2 8-11 42-21 52 5-4 16-6 22-7l104-12s-74-1-100 3"/>
    <path fill="none" stroke="#c27b55" stroke-width="3.75" d="M543 557c-5-12-21-30-38-35-21-6-68-13-86-18-14-3-42-28-52-37q-3-3-3-7c-1-28 10-101 10-101H225s12 73 11 101q0 4-3 7c-10 9-38 34-53 37-17 5-65 12-86 18-17 5-32 23-37 35-10 20-12 57-12 89h510c0-32-2-69-12-89z"/>
    <path fill="url(#a)" d="M100 172q13-1 24-11l3-28c-16-2-39-2-54 0l3 28q11 10 24 11" transform="matrix(2.5 0 0 2.5 45 48)"/>
    <path fill="#363e42" d="M35 650c-7-62 21-120 88-139 20-6 15-9 18-9v-2c0-20 23-16 29-17 26-6 35-33 64-26 1 6 1 13-3 40 28 60 58 55 69 88 9-30 44-35 69-88q-4-22-4-41h1c19-6 28 2 36 10 24 23 36 9 48 19q7 6 7 17c54 8 117 25 105 146v1c-55 0-370 13-527 1"/>
    <path fill="#242e33" d="M301 582c10-27 43-33 67-83l2-3-3-15q-3-14-2-24 8 2 13 6 6 10-3 23c-9 38-30 65-74 96m176-27c7 26 12 68 6 95h12c2-28-3-73-18-95m-81 4c-33 20-66 27-95 52-30-25-63-29-96-48-15-7-38-28-52-43 44 67 76 48 147 93 70-45 102-29 146-96-14 15-35 37-50 42m-97 26c-10-27-42-36-66-86l-2-3q0-7 2-15 2-13 1-24-7 2-11 6c-5 6-1 15 3 23 9 38 29 68 73 99m-185-33c-11 24-11 70-9 98h12c-6-27-5-71-3-98m186 39c41-13 86-36 123-92-34 45-83 72-122 88-41-15-89-44-118-83 33 54 75 74 117 87"/>
    <path fill="#4b4f51" d="M562 649h-1c-1-124-70-129-108-137-6 0-9-17-14-21-4-4-32-4-42-29l5 4c24 23 36 9 48 19q7 6 7 17c54 8 117 25 105 146zm-527 3zc12-99 41-130 111-142 9-3 4-9 8-14 4-4 25-4 54-34l-10 4c-24 23-42 17-48 19q-11 5-10 17c-54 8-112 38-106 149z"/>
    <path fill="#0a1114" d="M457 501c0-25-23-20-34-22-24-5-24-33-58-23-1 12 1 22 4 41-25 53-60 59-69 87-11-31-41-28-69-87 4-28 4-34 4-40-27-6-32 11-56 22-15 7-19 1-31 7q-8 5-7 15v1l-19 3c-65 11-93 65-87 145 31 0 3 11 467 0l60-1c14-119-46-138-105-148M36 650c6-92 20-128 104-147 46 76 102 65 159 108-51-43-105-37-157-109q-1-10 9-15 6-2 14-1c18 0 32-14 46-25q10-5 23-3c1 10-3 25-5 36l-7-18c32 93 63 72 77 111a272 272 0 0 1-120-88c50 67 82 71 121 88v1l1-1c5-2 41-15 68-33 28-19 59-61 57-58-47 47-54 58-126 91v-1c13-35 50-22 81-117l-11 25c-1-14-5-25-4-37 5-2 19-2 23 2 17 14 18 24 45 24 9 0 21 1 22 17l-25 28c-39 39-74 40-129 82l5-4c43-30 73-30 113-62 18-15 35-38 37-41 72 12 108 39 104 145-322-2-366 7-525 2"/>
    <path fill="#f0c7b1" stroke="#c27b55" stroke-width="3.75" d="M161 263c-3-7-16-24-25-21-8 2-8 12-8 19-1 9-2 25 1 32 2 6 10 18 15 23 6 6 15 24 16 26q3 6 11 6c8 0 15-7 15-11 4-19-15-58-25-74z"/>
    <path fill="#c27b55" d="M158 301v-12c0-5-4-15-7-21s-8-14-15-16q-3-1-5 1l-1 2 2-1q0-2 0 0c-1 2-2 16-1 25l3 15 1 2c2 12 19 26 23 31l1 1-1-2c-4-4-20-19-23-30-2-11 10-28 12-32l5 8c-1 2-13 16-10 27 1 4 9 9 13 11q2 1 3 3 0 4 3 7h4v4l1-2v-4l-5-7q-3-6-3-10m-24-10c-6-18 3-34 5-36l8 8c-1 2-13 16-13 28m28 28q-3-3-3-6l-4-4-1-1c-7-16 0-22 2-24l2 5-1 6v6q0 6 3 10l5 8z"/>
    <path fill="#f0c7b1" stroke="#c27b55" stroke-width="3.75" d="M438 263c4-7 16-24 25-21 8 2 8 12 8 19 1 9 2 25-1 32-2 6-10 18-15 23-6 6-15 24-16 26q-3 6-11 6c-8 0-15-7-15-11-4-19 15-58 25-74z"/>
    <path fill="#c27b55" d="m438 311-5 7v4l1 2v-4h4q3-3 3-7 1-2 3-3c4-2 12-7 13-11 3-11-8-25-10-27l5-8c2 4 14 21 12 32-3 11-19 26-23 30l-1 2 2-1c3-5 20-19 23-31v-2l3-15c1-9 0-23-1-25q0-1 0 0l2 1-1-2q-2-2-5-1-11 5-15 16c-2 6-7 16-7 21v12q1 4-3 10m14-48 8-8c2 2 11 18 5 36 0-12-12-26-13-28m-18 55 5-7q3-4 3-10v-12l1-5c2 2 9 8 2 24l-1 1-4 4q0 3-3 6-1 1-3-1"/>
    <path fill="#f0c7b1" d="m450 247-41 133q-3 10-9 16c-16 19-60 64-100 64s-86-48-101-66q-6-7-8-15l-42-132q-5-19-5-40c0-87 70-157 155-157a156 156 0 0 1 151 197"/>
    <path fill="#e8b9a0" d="M382 74c36 28 60 75 60 128q0 21-4 40l-38 133q-2 9-8 17c-15 18-56 64-92 64-37 0-79-49-93-67q-5-7-8-15l-38-132q-4-19-4-40c0-53 24-100 60-128a157 157 0 0 0-68 173l42 132q2 8 8 15c15 18 61 66 101 66s84-45 100-64q6-6 9-16l41-133a159 159 0 0 0-68-173"/>
    <path fill="none" stroke="#c27b55" stroke-width="3.75" d="m450 247-41 133q-3 10-9 16c-16 19-60 64-100 64s-86-48-101-66q-6-7-8-15l-42-132q-5-19-5-40c0-87 70-157 155-157a156 156 0 0 1 151 197z"/>
    <path fill="url(#b)" d="M96 139h9c-1 5-8 4-9 0" transform="matrix(2.5 0 0 2.5 45 48)"/>
    <path fill="#c27b55" d="M291 403zs11 1 20-1v2zm9-9-11-2-13 1c-4 0-13 0-16-2q-2-2 1-4l5 1h18c10-1 11 4 23 1 13-3 19-1 28-3q3-2 5-1 2 2-1 4-12 3-28 4z"/>
    <path fill="url(#c)" d="M60 86c2 4 2 5 10 4q17 0 18-5 0-7-17-5-11 2-11 6" transform="matrix(2.5 0 0 2.5 45 48)"/>
    <path fill="#0e1508" stroke="#000" stroke-width="1.25" d="M249 266c-2 9-11 13-19 11q-13-4-11-19 6-13 19-10 13 5 11 18z"/>
    <path fill="#1a2411" d="m232 253-4 1 1 3v1l-4-2-3 2-1 1 2 2-3 2 1 1 5 1-5 3h5l-3 4 6-4-1 6 3-5 1 6 1-5 1-1 1 6v-1l3 1-2-6 3 6-1-6 4 5 1-2-3-4 5 1-3-3-2-2 9 3-5-4 3-1-7-1 7-4-7 2-1-1-1-1v-6l-3 6v-4l-1-1z"/>
    <path fill="#030602" d="M249 259c-13 1-20 4-30 7a15 15 0 1 1 30-7" opacity=".9"/>
    <path d="M236 257q-5-1-7 5-1 5 4 7 6 1 8-4 1-5-5-8" opacity=".8"/>
    <path fill="none" stroke="#000" stroke-width="2" d="M236 257q-5-1-7 5-1 5 4 7 6 1 8-4 1-5-5-8z"/>
    <path fill="#fff" d="M223 272q3 3 7 4c3 1 3-3 1-4q-3 0-4-3-4-2-4 3" opacity=".4"/>
    <path fill="url(#d)" d="m75 81 2 2q3 2 2-1t-3-3-1 2" transform="matrix(2.5 0 0 2.5 46 48)"/>
    <path fill="#f0c7b1" d="M185 264c0 36 21 64 48 64s49-28 49-64-22-63-49-63-48 28-48 63m12 2c0-4 12-12 28-15 31-6 44 3 44 13 0 9-21 14-46 14-20 3-19 0-26-12"/>
    <path fill="url(#e)" d="M59 86q2 12 18 12 15-1 17-12-2-12-17-13-16 1-18 13m1 0q0-4 11-6 17-2 17 5-1 5-18 5c-8 1-8 0-10-4" transform="matrix(2.5 0 0 2.5 45 48)"/>
    <path fill="url(#f)" d="M60 86c2 4 2 5 10 4q17 0 18-5 0-7-17-5-11 2-11 6" transform="matrix(2.5 0 0 2.5 45 48)"/>
    <path fill="#c27b55" d="m266 274-6 3z"/>
    <path d="M269 260v1h-1l-10-9q-45-4-59 14l1 6-8-7c8-11 16-20 66-17zm-3 11v-1l-1-1q-14 8-58 9l-5-3 4 5c32-2 56-4 60-9"/>
    <path fill="url(#g)" d="M140 86c-3 4-2 5-10 4q-16 0-18-5 0-7 17-5 10 2 11 6" transform="matrix(2.5 0 0 2.5 45 48)"/>
    <path fill="#0e1508" stroke="#000" stroke-width="1.25" d="M380 266q-5 14-18 11-14-4-11-19 4-13 19-10 13 5 10 18z"/>
    <path fill="#1a2411" d="M364 253zl-4 1 1 3v1l-4-2-3 2-1 1 2 2-3 2 1 1 5 1-5 3h5l-2 4 6-4-2 6 3-5 1 6 1-5 1-1 1 6 1-1 2 1-2-6 4 6-2-6 4 5 1-2-2-4 4 1-3-3-2-2 9 2-5-3 4-1-8-1 8-4-7 2-2-1-1-1 1-2v-4l-3 6-1-4v-1z"/>
    <path fill="#030602" d="M380 259c-13 1-20 4-29 7a15 15 0 1 1 29-7" opacity=".9"/>
    <path d="M368 257q-6-1-8 5-1 5 5 7 5 1 7-4 1-5-4-8" opacity=".8"/>
    <path fill="none" stroke="#000" stroke-width="2" d="M368 257q-6-1-8 5-1 5 5 7 5 1 7-4 1-5-4-8z"/>
    <path fill="#fff" d="M354 272q3 3 7 4c3 1 4-3 1-4q-3 0-4-3c-1-2-5 0-4 3" opacity=".4"/>
    <path fill="url(#h)" d="m127 81 2 2q3 2 2-1t-3-3-1 2" transform="matrix(2.5 0 0 2.5 44 48)"/>
    <path fill="#f0c7b1" d="M366 201c-27 0-49 28-49 63s22 64 49 64 48-28 48-64-22-63-48-63m9 77c-24 0-45-5-45-14 0-10 13-19 44-13 15 3 28 11 28 15-7 12-6 15-27 12"/>
    <path fill="url(#i)" d="M123 73q-15 1-17 13 1 11 17 12c9 1 18-5 18-12 0-9-9-12-18-13m7 17q-16 0-18-5 0-7 17-5 10 2 11 6c-3 4-2 5-10 4" transform="matrix(2.5 0 0 2.5 45 48)"/>
    <path fill="url(#j)" d="M140 86c-3 4-2 5-10 4q-16 0-18-5 0-7 17-5 10 2 11 6" transform="matrix(2.5 0 0 2.5 45 48)"/>
    <path fill="#c27b55" d="m333 274 6 3-1 1z"/>
    <path d="M341 248c49-3 57 6 65 17l-7 7 1-6q-14-18-59-14l-10 9h-1v-1zm52 32 4-5-6 3q-43-1-57-9l-1 1v1c4 5 28 7 60 9"/>
    <path fill="url(#k)" d="M141 114a41 41 0 1 1-82 0 41 41 0 0 1 82 0" transform="matrix(2.5 0 0 2.5 45 48)"/>
    <path fill="url(#l)" d="M138 54a37 37 0 1 1-75 0 37 37 0 0 1 75 0" transform="matrix(2.5 0 0 2.5 45 48)"/>
    <path fill="#2a232b" d="M183 237c25-26 42-15 78-9 2 1 16 4 13 9q-3 3-7 2c-35 0-52-25-84-2M417 237c-25-26-43-15-78-9-2 1-16 4-13 9q3 3 7 2c35 0 52-25 84-2"/>
    <path fill="#e1ac8f" d="m292 273-5 34c-4 12-16 29-14 37 5 15 19 11 27 11 7 0 21 4 23-6 1-3-1-11-1-11s-6 8-22 7c-5 0-12-5-12-12q2-14 5-28c1-7-1-32-1-32"/>
    <path fill="#c27b55" d="M313 351q4 0 4 2t-4 2l-8-1q2-2 8-3m-26 0q-4 0-4 2t4 2l8-1q-2-2-8-3m35-13s4 5 3 10c0 5-8 7-8 7s5-3 6-8zm-47-5-2 11c2 8 10 11 10 11s-5-6-7-10c-2-5-1-12-1-12"/>
    <path fill="#ffe4d6" d="M313 342q4-4 2-5 0-2-4 2c-2 3-8 5-8 5s7 0 10-2"/>
    <path fill="#2a232b" d="M300 94"/>
    <path fill="#2a232b" d="M192 121c24-23 114-2 141 0 26 2 60-77 111 127 0 9-3 27-7 39l-1-1s1 9-15 37c0-21-4-35-7-55-40-51-77-63-106-71 19 22 38 42 47 65-35-25-83-74-83-74s3 12 70 74c-27-7-79-35-116-89-7 11 32 78 33 81-20-16-46-38-53-63l-7 22c-7 31-7 70-9 79-4-22-5-47-5-46-10 45-1 77 0 88-14-26-27-58-31-88 0 0 29-129 38-125" opacity=".1"/>
    <path fill="#2a232b" d="M120 221c0-14 3-36 7-48-8 8-19 19-27 24 11-10 15-18 40-72 16-33 27-68 57-73q16 0 30 7c25-22 56-31 84-29 86 7 109 62 155 74-7 2-19-2-26-5 10 13 6 12 27 33 9 8 17 19 27 25-14-2-21-12-41-23a202 202 0 0 0 58 59c-6-2-24-9-40-23 8 12 31 33 21 76-2-19 0-42-18-53 2 8 10 26 4 45h-28c0 10-3 28-7 40h-1s-2 8-19 36c1-20-1-35-4-54-42-51-81-63-110-72 19 22 35 48 43 70-28-30-86-76-86-76s1 13 71 74c-24-14-76-38-114-92-7 11 28 78 29 81-20-16-37-42-45-68 0 0-9 16-12 27-8 31-5 57-6 67l-8-34c-10 45 1 82 2 93-14-26-31-63-35-93h-30c2-11 0-11 2-16"/>
    <path fill="#0c080c" d="m103 143 26-1 9-18c-9 8-27 18-35 19"/>
    <path fill="#1b141c" d="M351 63c41-6 79 38 113 41-7 1-19-3-25-6 9 13 7 13 28 34q10 14 25 24c-11-2-20-13-40-24-23-34-59-64-101-69M207 177s-9 16-12 27c-8 31-5 57-6 67l-9-31c-9 44 2 80 3 90-14-26-31-63-35-93h-30c2-11 0-11 2-16 0-14 3-36 7-48-8 8-19 19-27 24 11-10 15-18 39-69q11-18 26-34-27 35-31 79c5-16 21-26 31-38q-17 24-23 58 6-8 11-13c-5 16-4 24-2 36 3-18 7-48 16-64 0 28-8 55 3 85 0-22 8-42 14-57v24c3-17 5-33 15-47-4-26-11-53-2-60-15 27 32 50 31 49 26 15 43 16 56 20q-10-11-22-23c25 8 61 36 79 47l7 12q-15-7-39-14c36 41 29 33 43 70-25-26-25-27-82-73 7 9 25 35 67 71-10-5-80-43-114-92-1 13 0 22 29 81-5-2-26-20-45-68m141 25q33 13 71 58c3 19 5 34 4 54l9-16q12-21 10-20h1c4-12 7-29 7-39h27c6-19-2-39-4-47 18 11 18 32 19 51 9-43-15-63-23-75 16 12 34 22 40 24q-15-10-26-21-15-14-23-26-17-11-33-21c21 14 27 35 33 56q-6-7-10-12c3 8 8 17 5 28-12-18-17-44-38-59 21 20 22 75 22 84-21-99-109-193-198-158 89-28 166 66 176 148-18-21-23-46-48-59 12 13 20 33 28 49-28-34-51-67-89-90 17 21 40 39 53 64 8 8 10 18 15 26-17-18-40-36-63-43 26 22 33 40 35 44"/>
    <path fill="#0c080c" d="M345 62c21 0 81 17 110 75-32-44-64-64-110-75m51 84c-33-69-94-90-127-88 23-2 91 23 127 88M231 85c-1-14-19-28-39-20l-5 3c22-8 41 4 44 17m-6 8q-8-13-23-18c-31-7-54 38-59 59 0-3 27-64 59-57q14 4 23 16m-3 6c-3 36 79 61 97 76-32-27-96-44-97-76m141 79c-7-11-35-57-80-84-28-16-39-6-44-4 36-17 103 58 124 88"/>
    <path fill="#3a353a" d="M439 125s-33-36-82-54c36 10 58 28 82 54m-82-50c22 7 59 48 63 56-12-21-40-51-63-56m-67-7c42 9 80 57 80 57-18-28-47-54-80-57m-36 24c20 6 66 43 68 47-6-10-46-43-68-47m-15 4c23 3 41 22 44 26-12-16-23-25-44-26m-2 7c22 23 54 30 66 45-16-21-46-26-66-45m27 54q-45-25-53-33c-5-4-17-14-8-23q-9 7 4 22c9 10 54 34 57 34-3-2 0 0 0 0m20 9q-34-7-64-26c-13-9-32-29-22-42q6-5 13-5-7 0-13 4c-10 9 1 31 17 42q32 21 69 27m1-88 13 3c34 13 67 54 67 54-18-27-48-54-80-57m3 11c40 16 83 67 86 68-19-29-52-59-86-68m-100 7c-26-6-39 39-40 42 9-19 22-44 40-42m0 30c-22 21-17 48-17 60 0-23 5-46 17-60"/>
    <path d="M125 176c-10 28-7 57-7 60l-1 2h3c5-11 11-26 29-49q-17 20-29 42c5-29 23-54 25-57q-15 19-25 45c1-14 4-35 8-48-8 9-19 20-27 25 11-10 15-17 41-71 16-33 25-68 55-72q17-1 30 6c25-22 56-30 84-28 86 7 108 61 154 72-7 3-19-2-26-5 9 13 7 13 28 34q10 14 25 24c-11-2-20-13-41-24a210 210 0 0 0 58 60c-6-2-24-12-40-24 8 12 32 32 23 75-1-19-1-40-19-51 2 8 10 28 4 47h4c5-18-3-35-6-44 17 15 16 47 15 62q10-25 3-52-5-15-15-27l-1-2q19 15 41 21s-44-32-62-60l17 13q12 9 26 8c-12-6-20-18-29-27-19-19-11-8-27-29q18 6 28 2l-13-4c-35-13-73-74-154-74-28 0-58 10-77 31l-11-4c-44-14-59 27-78 68-7 6-22 20-41 22h31c-17 39-18 43-40 61 19-6 25-14 37-28m12-50-8 15-24 1c8 0 23-8 32-16m10 101c0 5 5 30 11 45a272 272 0 0 1 5-106c-12 50-5 115 19 161a228 228 0 0 1-2-90s-2-22 4-57q-5 44 4 87-1-31 6-63c3-11 7-15 12-28q-5-15-6-32a168 168 0 0 0 50 99l-24-51q-5-13-4-28l-14-25q21 36 52 65l35 26q18 13 38 23-26-22-44-41-11-10-21-24-6-13-12-27l11 21c1 1 30 23 43 36 16 15 25 20 40 37-7-16-9-24-28-49-13-17-18-18-35-45l22 26c16 5 30 8 55 23 43 26 52 46 69 63-3-11-13-29-21-43q-12-22-26-39 18 17 29 38 14 21 20 47l-15-14q4 25 4 49c23-37 32-90 25-124 18 69-15 113-30 140 1-17 0-56-2-67-5-8-45-50-105-70q16 16 27 35 11 18 17 38l-43-38-44-39c4 6 9 11 38 40l39 37c-2-1-45-24-65-39-21-16-43-36-57-58-2 15 7 32 12 42s13 29 21 43q-19-12-30-31-14-19-20-41-7 11-10 24l-4 26q-4 27-3 55-7-21-9-42c-4 24 0 59 4 95-13-18-24-44-30-67q-8-25-8-43"/>
    <path fill="#26120b" d="M300 94"/>
    <defs>
        <radialGradient id="k" cx="100" cy="114" r="41" class="svga-on-canvas-facehighlight-gradient-single-0" gradientUnits="userSpaceOnUse">
            <stop offset="0" stop-color="#ffe4d6" stop-opacity=".5"/>
            <stop offset=".9" stop-color="#f0c7b1" stop-opacity="0"/>
        </radialGradient>
        <radialGradient id="l" cx="100" cy="54" r="37" class="svga-on-canvas-facehighlight-gradient-single-1" gradientUnits="userSpaceOnUse">
            <stop offset="0" stop-color="#ffe4d6" stop-opacity=".5"/>
            <stop offset=".9" stop-color="#f0c7b1" stop-opacity="0"/>
        </radialGradient>
        <radialGradient id="c" cx="126.3" cy="84.9" r="10.7" class="svga-on-canvas-eyesback-gradient-left-0" gradientTransform="matrix(-1 0 0 1 200 0)" gradientUnits="userSpaceOnUse">
            <stop offset="0" stop-color="#fff"/>
            <stop offset=".5" stop-color="#fdfefe"/>
            <stop offset=".7" stop-color="#f6f8f9"/>
            <stop offset=".9" stop-color="#eaeff2"/>
            <stop offset="1" stop-color="#d9e3e8"/>
            <stop offset="1" stop-color="#d8e2e7"/>
        </radialGradient>
        <radialGradient id="g" cx="125.9" cy="84.9" r="10.7" class="svga-on-canvas-eyesback-gradient-right-0" gradientUnits="userSpaceOnUse">
            <stop offset="0" stop-color="#fff"/>
            <stop offset=".5" stop-color="#fdfefe"/>
            <stop offset=".7" stop-color="#f6f8f9"/>
            <stop offset=".9" stop-color="#eaeff2"/>
            <stop offset="1" stop-color="#d9e3e8"/>
            <stop offset="1" stop-color="#d8e2e7"/>
        </radialGradient>
        <radialGradient id="e" cx="123.7" cy="85.5" r="16.7" class="svga-on-canvas-eyesfront-gradient-left-3" fx="135.4" fy="85.5" gradientTransform="matrix(1 0 0 -.8 -49 151)" gradientUnits="userSpaceOnUse">
            <stop offset="0" stop-color="#e1ac8f"/>
            <stop offset=".7" stop-color="#e1ac8f" stop-opacity=".3"/>
            <stop offset="1" stop-color="#f0c7b1" stop-opacity="0"/>
        </radialGradient>
        <radialGradient id="f" cx="122.9" cy="101.3" r="26.9" class="svga-on-canvas-eyesfront-gradient-left-4" gradientTransform="matrix(-1 0 0 .8 200 21)" gradientUnits="userSpaceOnUse">
            <stop offset=".9" stop-opacity="0"/>
            <stop offset="1" stop-opacity=".2"/>
        </radialGradient>
        <radialGradient id="i" cx="123.3" cy="85.5" r="16.7" class="svga-on-canvas-eyesfront-gradient-right-3" fx="135" fy="85.5" gradientTransform="matrix(-1 0 0 -.8 248 151)" gradientUnits="userSpaceOnUse">
            <stop offset="0" stop-color="#e1ac8f"/>
            <stop offset=".7" stop-color="#e1ac8f" stop-opacity=".3"/>
            <stop offset="1" stop-color="#f0c7b1" stop-opacity="0"/>
        </radialGradient>
        <radialGradient id="j" cx="122.5" cy="101.3" r="26.9" class="svga-on-canvas-eyesfront-gradient-right-4" gradientTransform="matrix(1 0 0 .8 0 21)" gradientUnits="userSpaceOnUse">
            <stop offset=".9" stop-opacity="0"/>
            <stop offset="1" stop-opacity=".2"/>
        </radialGradient>
        <linearGradient id="b" x1="100" x2="100" y1="142" y2="139" class="svga-on-canvas-mouth-gradient-single-0" gradientUnits="userSpaceOnUse">
            <stop offset=".1" stop-color="#e8b9a0"/>
            <stop offset="1" stop-color="#e1ac8f"/>
        </linearGradient>
        <linearGradient id="a" x1="100" x2="100" y1="171" y2="131" class="svga-on-canvas-chinshadow-gradient-single-0" gradientUnits="userSpaceOnUse">
             <stop offset="0" stop-color="#e1ac8f" stop-opacity=".8"/>
             <stop offset=".7" stop-color="#c27b55"/>
        </linearGradient>
        <linearGradient id="d" x1="132" x2="126" y1="78" y2="84" class="svga-on-canvas-eyesiris-gradient-left-6" gradientTransform="translate(-50)" gradientUnits="userSpaceOnUse">
            <stop offset="0" stop-color="#fff"/>
            <stop offset="1" stop-color="#fff" stop-opacity="0"/>
        </linearGradient>
        <linearGradient id="h" x1="132" x2="126" y1="78" y2="84" class="svga-on-canvas-eyesiris-gradient-right-6" gradientUnits="userSpaceOnUse">
            <stop offset="0" stop-color="#fff"/>
            <stop offset="1" stop-color="#fff" stop-opacity="0"/>
        </linearGradient>
    </defs>
</svg>