<svg xmlns="http://www.w3.org/2000/svg" width="36" height="36" viewBox="0 0 36 36" fill="none">
    <path stroke="#c9a84c" stroke-linecap="round" stroke-linejoin="round" stroke-width="3" d="M24 4.5a3 3 0 0 0-3 3v9a3 3 0 0 0 3 3 1.5 1.5 0 0 1 1.5 1.5v1.5a3 3 0 0 1-3 3A1.5 1.5 0 0 0 21 27v3a1.5 1.5 0 0 0 1.5 1.5 9 9 0 0 0 9-9v-15a3 3 0 0 0-3-3zM7.5 4.5a3 3 0 0 0-3 3v9a3 3 0 0 0 3 3A1.5 1.5 0 0 1 9 21v1.5a3 3 0 0 1-3 3A1.5 1.5 0 0 0 4.5 27v3A1.5 1.5 0 0 0 6 31.5a9 9 0 0 0 9-9v-15a3 3 0 0 0-3-3z"/>
</svg>