<svg xmlns="http://www.w3.org/2000/svg" width="64" height="64" viewBox="0 0 64 64" fill="none">
    <mask id="a" fill="#fff">
        <path d="M0 32C0 14.327 14.327 0 32 0s32 14.327 32 32-14.327 32-32 32S0 49.673 0 32"/>
    </mask>
    <path fill="#141414" d="M0 32C0 14.327 14.327 0 32 0s32 14.327 32 32-14.327 32-32 32S0 49.673 0 32"/>
    <path fill="#c9a84c" fill-opacity=".25" d="M32 64v-1C14.88 63 1 49.12 1 32h-2c0 18.225 14.775 33 33 33zm32-32h-1c0 17.12-13.88 31-31 31v2c18.225 0 33-14.775 33-33zM32 0v1c17.12 0 31 13.88 31 31h2C65 13.775 50.225-1 32-1zm0 0v-1C13.775-1-1 13.775-1 32h2C1 14.88 14.88 1 32 1z" mask="url(#a)"/>
    <path stroke="#c9a84c" stroke-linecap="round" stroke-linejoin="round" stroke-width="1.833" d="M23.75 22.833v6.417c0 1.008.825 1.833 1.833 1.833h3.667a1.833 1.833 0 0 0 1.833-1.833v-6.417M27.417 22.833v18.334M40.25 34.75V22.833a4.584 4.584 0 0 0-4.584 4.584v5.5c0 1.008.826 1.833 1.834 1.833zm0 0v6.417"/>
</svg>