<svg xmlns="http://www.w3.org/2000/svg" width="64" height="64" viewBox="0 0 64 64" fill="none">
    <mask id="a" fill="#fff">
        <path d="M0 32a32 32 0 1 1 64 0 32 32 0 0 1-64 0"/>
    </mask>
    <path fill="#141414" d="M0 32a32 32 0 1 1 64 0 32 32 0 0 1-64 0"/>
    <path fill="#c9a84c" fill-opacity=".25" d="M32 64v-1A31 31 0 0 1 1 32h-2a33 33 0 0 0 33 33zm32-32h-1a31 31 0 0 1-31 31v2a33 33 0 0 0 33-33zM32 0v1a31 31 0 0 1 31 31h2A33 33 0 0 0 32-1zm0 0v-1A33 33 0 0 0-1 32h2A31 31 0 0 1 32 1z" mask="url(#a)"/>
    <path stroke="#c9a84c" stroke-linecap="round" stroke-linejoin="round" stroke-width="1.83" d="M27.42 23.75h-2.75c-.51 0-.92.41-.92.92v2.75c0 .5.41.91.92.91h2.75c.5 0 .91-.4.91-.91v-2.75c0-.51-.4-.92-.91-.92M39.33 23.75h-2.75c-.5 0-.91.41-.91.92v2.75c0 .5.4.91.91.91h2.75c.5 0 .92-.4.92-.91v-2.75c0-.51-.41-.92-.92-.92M27.42 35.67h-2.75c-.51 0-.92.4-.92.91v2.75c0 .51.41.92.92.92h2.75c.5 0 .91-.41.91-.92v-2.75c0-.5-.4-.91-.91-.91M40.25 35.67H37.5a1.83 1.83 0 0 0-1.83 1.83v2.75M40.25 40.25zM32 27.42v2.75A1.83 1.83 0 0 1 30.17 32h-2.75M23.75 32h.01M32 23.75zM32 35.67zM35.67 32h.91M40.25 32zM32 40.25v-.92"/>
</svg>