<svg xmlns="http://www.w3.org/2000/svg" width="64" height="64" fill="none">
     <mask id="a" fill="#fff">
        <path d="M0 32a32 32 0 1 1 64 0 32 32 0 0 1-64 0"/>
    </mask>
    <path fill="#141414" d="M0 32a32 32 0 1 1 64 0 32 32 0 0 1-64 0"/>
    <path fill="#c9a84c" fill-opacity=".25" d="M32 64v-1A31 31 0 0 1 1 32h-2a33 33 0 0 0 33 33zm32-32h-1a31 31 0 0 1-31 31v2a33 33 0 0 0 33-33zM32 0v1a31 31 0 0 1 31 31h2A33 33 0 0 0 32-1zm0 0v-1A33 33 0 0 0-1 32h2A31 31 0 0 1 32 1z" mask="url(#a)"/>
    <path stroke="#c9a84c" stroke-linecap="round" stroke-linejoin="round" stroke-width="1.83" d="M34.75 22.83h-5.5c-.5 0-.92.41-.92.92v1.83c0 .51.41.92.92.92h5.5c.5 0 .92-.41.92-.92v-1.83c0-.5-.41-.92-.92-.92"/>
    <path stroke="#c9a84c" stroke-linecap="round" stroke-linejoin="round" stroke-width="1.83" d="M35.67 24.67h1.83a1.83 1.83 0 0 1 1.83 1.83v12.83a1.83 1.83 0 0 1-1.83 1.84h-11a1.83 1.83 0 0 1-1.83-1.84V26.5a1.83 1.83 0 0 1 1.83-1.83h1.83M32 31.08h3.67M32 35.67h3.67M28.33 31.08h.01M28.33 35.67h.01"/>
</svg>