<svg xmlns="http://www.w3.org/2000/svg" width="64" height="64" fill="none">
    <mask id="a" fill="#fff">
        <path d="M0 32a32 32 0 1 1 64 0 32 32 0 0 1-64 0"/>
    </mask>
    <path fill="#141414" d="M0 32a32 32 0 1 1 64 0 32 32 0 0 1-64 0"/>
    <path fill="#c9a84c" fill-opacity=".25" d="M32 64v-1A31 31 0 0 1 1 32h-2a33 33 0 0 0 33 33zm32-32h-1a31 31 0 0 1-31 31v2a33 33 0 0 0 33-33zM32 0v1a31 31 0 0 1 31 31h2A33 33 0 0 0 32-1zm0 0v-1A33 33 0 0 0-1 32h2A31 31 0 0 1 32 1z" mask="url(#a)"/>
    <path stroke="#c9a84c" stroke-linecap="round" stroke-linejoin="round" stroke-width="1.83" d="M23.75 27.42v-1.84a1.83 1.83 0 0 1 1.83-1.83h1.84M36.58 23.75h1.84a1.83 1.83 0 0 1 1.83 1.83v1.84M40.25 36.58v1.84a1.83 1.83 0 0 1-1.83 1.83h-1.84M27.42 40.25h-1.84a1.83 1.83 0 0 1-1.83-1.83v-1.84"/>
</svg>